<?xml version="1.0" encoding="UTF-8"?>
<svg version="1.1" xmlns="http://www.w3.org/2000/svg" width="736" height="736">
<path d="M0 0 C242.88 0 485.76 0 736 0 C736 242.88 736 485.76 736 736 C493.12 736 250.24 736 0 736 C0 493.12 0 250.24 0 0 Z " fill="#1977F0" transform="translate(0,0)"/>
<path d="M0 0 C0.94059265 0.00332336 1.8811853 0.00664673 2.85028076 0.0100708 C18.09813988 0.07228873 33.28779194 0.72906554 48.5 1.75 C49.4618219 1.8129425 50.4236438 1.87588501 51.41461182 1.94073486 C54.12380922 2.12283295 56.83142611 2.31955347 59.5390625 2.5234375 C60.74520203 2.60643097 60.74520203 2.60643097 61.97570801 2.69110107 C65.69259521 2.99303849 67.71234574 3.26656382 70.875 5.375 C71.16650272 8.21044618 71.26355856 10.82718049 71.23144531 13.66430664 C71.23348969 14.52130661 71.23553406 15.37830658 71.23764038 16.26127625 C71.24065614 19.10278442 71.22214898 21.94371676 71.203125 24.78515625 C71.20006892 26.75288245 71.19819165 28.7206108 71.19744873 30.68833923 C71.19284081 34.81517799 71.17839522 38.94182214 71.15625 43.06860352 C71.12794871 48.37081977 71.11703727 53.67288266 71.1125679 58.97516727 C71.10842043 63.03878834 71.09860891 67.10237808 71.08669281 71.1659832 C71.08097721 73.12170598 71.07622281 75.07743181 71.07242584 77.03315926 C71.06558635 79.76052326 71.05196555 82.48776317 71.03613281 85.21508789 C71.03501495 86.03121552 71.03389709 86.84734314 71.03274536 87.6882019 C70.98968639 93.26031361 70.98968639 93.26031361 69.875 94.375 C67.98582557 94.48285335 66.0926555 94.52127841 64.20043945 94.53271484 C62.98439529 94.54297699 61.76835114 94.55323914 60.51545715 94.56381226 C59.86020365 94.56725018 59.20495014 94.5706881 58.52984047 94.57423019 C56.47171581 94.58603249 54.41379977 94.60549846 52.35575867 94.62734985 C46.50148712 94.68884969 40.64722655 94.74258745 34.79272461 94.77636719 C31.21222791 94.7975812 27.63209498 94.83311146 24.05180931 94.87712479 C22.04823539 94.89781828 20.04452231 94.90329128 18.04084778 94.90829468 C3.57310708 95.098967 -11.39335305 97.10878004 -22.3359375 107.33203125 C-32.19651337 118.59203383 -31.44383441 133.57255024 -31.5390625 147.6328125 C-31.55780185 149.38972861 -31.57737726 151.14663598 -31.5977478 152.90353394 C-31.64878298 157.49665137 -31.68856066 162.0897979 -31.72589111 166.68304443 C-31.76611151 171.38251776 -31.817121 176.08187308 -31.8671875 180.78125 C-31.96360736 189.97908343 -32.04811929 199.17698393 -32.125 208.375 C-30.89946915 208.37277939 -29.67393829 208.37055878 -28.41127014 208.36827087 C-16.88884087 208.34804137 -5.36641518 208.33302879 6.15602779 208.32318783 C12.08050715 208.31795851 18.00497222 208.31085999 23.92944336 208.29956055 C29.64172571 208.28873339 35.35399428 208.28272353 41.06628609 208.28012276 C43.25088277 208.2782682 45.43547865 208.274647 47.6200695 208.26926994 C50.66852349 208.26206179 53.71691979 208.26100896 56.76538086 208.26147461 C58.13454651 208.2560817 58.13454651 208.2560817 59.53137207 208.25057983 C65.76094784 208.26094784 65.76094784 208.26094784 66.875 209.375 C66.67122413 218.68577301 65.21433894 227.9769446 63.9375 237.1875 C63.6628324 239.19981996 63.38951166 241.21231983 63.11630249 243.22483826 C62.85443032 245.15324133 62.59153537 247.08150542 62.32861328 249.00976562 C61.81553818 252.81613116 61.33703924 256.62463562 60.875 260.4375 C60.26478229 265.42919081 59.59715655 270.40993497 58.90234375 275.390625 C58.63454102 277.31056274 58.63454102 277.31056274 58.36132812 279.26928711 C58.00442211 281.81732296 57.64517419 284.36503226 57.28320312 286.91235352 C56.37438871 293.39291963 55.59533382 299.8418373 55.12329102 306.36987305 C54.875 308.375 54.875 308.375 53.875 309.375 C25.495 309.375 -2.885 309.375 -32.125 309.375 C-32.125 394.515 -32.125 479.655 -32.125 567.375 C-66.775 567.375 -101.425 567.375 -137.125 567.375 C-137.455 482.235 -137.785 397.095 -138.125 309.375 C-166.505 309.375 -194.885 309.375 -224.125 309.375 C-226.05506245 307.44493755 -225.25183226 304.54776871 -225.26052856 301.97901917 C-225.25850433 301.05846237 -225.2564801 300.13790558 -225.25439453 299.18945312 C-225.25614685 298.22530991 -225.25789917 297.26116669 -225.25970459 296.26780701 C-225.26412493 293.06393664 -225.26118447 289.86012098 -225.2578125 286.65625 C-225.25848549 284.44047027 -225.25945547 282.22469061 -225.26071167 280.00891113 C-225.26218889 275.35830993 -225.26003331 270.70772789 -225.25537109 266.05712891 C-225.2496738 260.08117396 -225.25295267 254.10526391 -225.25894356 248.12931061 C-225.26254852 243.55185606 -225.26141088 238.97441225 -225.25881577 234.3969574 C-225.25814632 232.19282526 -225.25897554 229.98869217 -225.26129532 227.78456116 C-225.26382078 224.70986328 -225.25998275 221.63523922 -225.25439453 218.56054688 C-225.25641876 217.63999008 -225.25844299 216.71943329 -225.26052856 215.77098083 C-225.23926228 209.48926228 -225.23926228 209.48926228 -224.125 208.375 C-221.44797564 208.24987856 -218.79547727 208.18893431 -216.11694336 208.16967773 C-215.27799026 208.15977814 -214.43903717 208.14987854 -213.57466125 208.13967896 C-210.7880846 208.10796815 -208.00149087 208.08326886 -205.21484375 208.05859375 C-203.28812708 208.03803248 -201.36141501 208.01703624 -199.43470764 207.99562073 C-194.353177 207.94031458 -189.27160508 207.89094312 -184.19000244 207.84277344 C-179.0087922 207.79262062 -173.8276422 207.73690217 -168.64648438 207.68164062 C-158.47270767 207.57395463 -148.29887875 207.472533 -138.125 207.375 C-138.12135437 206.26096298 -138.11770874 205.14692596 -138.11395264 203.99913025 C-138.07668467 193.39578671 -138.01857364 182.79272511 -137.94109726 172.18959713 C-137.9019268 166.74105222 -137.86959158 161.2926616 -137.85400391 155.84399414 C-137.83863368 150.5658249 -137.80383915 145.28808074 -137.75669098 140.01010323 C-137.74208368 138.01677756 -137.73397118 136.02339114 -137.73311615 134.03001213 C-137.7010679 96.70722199 -128.03598788 62.9026937 -102.125 35.375 C-101.41214844 34.56289062 -100.69929688 33.75078125 -99.96484375 32.9140625 C-88.52700951 20.47566301 -72.86244434 12.92637065 -57.125 7.375 C-56.00222656 6.97667969 -54.87945312 6.57835937 -53.72265625 6.16796875 C-36.42025818 0.6748174 -18.01867511 -0.15284683 0 0 Z " fill="#FDFDFD" transform="translate(445.125,168.625)"/>
<path d="M0 0 C0.99 0.495 0.99 0.495 2 1 C0.63681641 1.82177734 0.63681641 1.82177734 -0.75390625 2.66015625 C-14.48435801 11.21403597 -26.52078835 22.09693508 -35 36 C-35.48210937 36.72574219 -35.96421875 37.45148438 -36.4609375 38.19921875 C-45.7164769 52.62121003 -50.80752915 68.2765281 -54 85 C-54.17245743 85.85665756 -54.34491486 86.71331512 -54.52259827 87.59593201 C-56.42807761 98.22521269 -56.33307916 108.8111131 -56.37890625 119.578125 C-56.39510819 121.64224005 -56.41229094 123.70634762 -56.43040466 125.77044678 C-56.47576362 131.16213534 -56.51075479 136.55383419 -56.54260254 141.94561768 C-56.59481534 150.61662636 -56.65946971 159.28752653 -56.73081779 167.95839691 C-56.7536815 170.9858652 -56.76992043 174.01331928 -56.78553772 177.04083252 C-56.79893338 178.87911139 -56.8125472 180.7173887 -56.82641602 182.55566406 C-56.82902939 183.40126389 -56.83164276 184.24686371 -56.83433533 185.11808777 C-56.88634435 190.88634435 -56.88634435 190.88634435 -58 192 C-60.67706097 192.12512315 -63.32948866 192.18605237 -66.00805664 192.20532227 C-66.86062514 192.21535499 -67.71319365 192.22538771 -68.59159756 192.23572445 C-71.36442238 192.26722609 -74.13726143 192.29192844 -76.91015625 192.31640625 C-78.61682616 192.33479895 -80.32349136 192.35363503 -82.03015137 192.3729248 C-88.37421166 192.4415008 -94.71836261 192.50147126 -101.0625 192.5625 C-115.231875 192.706875 -129.40125 192.85125 -144 193 C-144 225.67 -144 258.34 -144 292 C-101.43 292.495 -101.43 292.495 -58 293 C-56.83731565 295.3253687 -56.87568675 296.65509506 -56.87695217 299.24414253 C-56.87496112 300.1398739 -56.87297007 301.03560526 -56.87091869 301.95848 C-56.87383153 302.94873708 -56.87674437 303.93899416 -56.87974548 304.95925903 C-56.87889106 306.00635729 -56.87803663 307.05345554 -56.87715632 308.13228405 C-56.87550062 311.66389001 -56.88102437 315.19544915 -56.88647461 318.72705078 C-56.88675649 321.24948119 -56.88659873 323.77191168 -56.8860321 326.29434204 C-56.8858039 331.73677294 -56.8886523 337.1791886 -56.89426994 342.62161636 C-56.9023869 350.49051206 -56.90500036 358.35940196 -56.90625793 366.22830139 C-56.90844815 378.99416384 -56.9151074 391.76001992 -56.92456055 404.52587891 C-56.93373546 416.92887337 -56.94081591 429.33186611 -56.94506836 441.73486328 C-56.94533108 442.4990087 -56.94559381 443.26315412 -56.94586449 444.05045547 C-56.9471695 447.88383643 -56.94843322 451.7172174 -56.94967639 455.55059838 C-56.96004805 487.36707027 -56.97773971 519.18353414 -57 551 C-57.66 551 -58.32 551 -59 551 C-59.00423194 549.72832694 -59.00846388 548.45665388 -59.01282406 547.14644527 C-59.11350963 516.95636098 -59.21922086 486.76629894 -59.33111694 456.57625427 C-59.34488644 452.85999973 -59.35861355 449.14374503 -59.37231445 445.42749023 C-59.37504276 444.68765394 -59.37777106 443.94781765 -59.38058204 443.18556208 C-59.42465142 431.20782605 -59.46528703 419.2300807 -59.50465261 407.25232839 C-59.54512481 394.96113546 -59.58928949 382.6699598 -59.63687855 370.37879235 C-59.66612482 362.79511731 -59.69249442 355.21144349 -59.71517897 347.62774593 C-59.73288503 341.81158284 -59.75572965 335.99544867 -59.78049088 330.17931175 C-59.78984129 327.79406075 -59.79752376 325.40880254 -59.80341911 323.0235405 C-59.81171445 319.76793123 -59.82600077 316.51240103 -59.84178162 313.25682068 C-59.84275972 312.31225539 -59.84373783 311.3676901 -59.84474558 310.39450163 C-59.87532172 305.4916599 -60.1712429 300.83435865 -61 296 C-62.5276297 295.99120064 -62.5276297 295.99120064 -64.08612061 295.98222351 C-73.67995625 295.92503077 -83.27356446 295.85228727 -92.86716843 295.76428509 C-97.79944986 295.71954195 -102.73164794 295.68029454 -107.6640625 295.65356445 C-112.42340314 295.6275708 -117.18242369 295.5871964 -121.94156647 295.53681374 C-123.75800854 295.52011834 -125.574506 295.50862073 -127.3910141 295.50238609 C-129.93386964 295.49277398 -132.47590133 295.46475009 -135.01855469 295.43237305 C-135.77093414 295.43380814 -136.5233136 295.43524323 -137.29849243 295.4367218 C-140.23435526 295.38379235 -142.71913796 295.10768745 -145.46847534 294.05354309 C-148.03952432 290.606155 -147.53798857 286.890966 -147.48583984 282.7109375 C-147.48963654 281.75946838 -147.49343323 280.80799927 -147.49734497 279.82769775 C-147.5047662 276.67646526 -147.48334565 273.52615083 -147.4609375 270.375 C-147.45855392 268.18929147 -147.45764757 266.00358087 -147.4581604 263.81787109 C-147.45502969 259.23457027 -147.43844328 254.65158166 -147.41162109 250.06835938 C-147.37764101 244.18675322 -147.36999236 238.30549041 -147.37151146 232.42379761 C-147.37096817 227.90971587 -147.36000761 223.39570953 -147.34550858 218.88165283 C-147.33913409 216.71267264 -147.33520017 214.54368388 -147.33372116 212.37469482 C-147.3293951 209.34600202 -147.31190889 206.31767664 -147.29052734 203.2890625 C-147.29143372 202.38818909 -147.29234009 201.48731567 -147.29327393 200.55914307 C-147.28047897 199.32257965 -147.28047897 199.32257965 -147.26742554 198.06103516 C-147.26407385 197.34501129 -147.26072216 196.62898743 -147.25726891 195.89126587 C-147 194 -147 194 -145 191 C-144.34 191 -143.68 191 -143 191 C-143 190.34 -143 189.68 -143 189 C-115.61 189 -88.22 189 -60 189 C-60.01160156 182.05582031 -60.02320313 175.11164063 -60.03515625 167.95703125 C-60.04026543 163.55924386 -60.04507939 159.16146012 -60.04882812 154.76367188 C-60.05480718 147.78246298 -60.06188254 140.80126719 -60.07543945 133.82006836 C-60.08630026 128.19205774 -60.09228364 122.56406117 -60.09487724 116.93604088 C-60.09672572 114.78824327 -60.10033528 112.64044643 -60.10573006 110.4926548 C-60.1129828 107.48572753 -60.11398914 104.47885843 -60.11352539 101.47192383 C-60.11712067 100.58287857 -60.12071594 99.69383331 -60.12442017 98.77784729 C-60.11763968 94.71819936 -60.02309151 90.96032667 -59 87 C-58.01 87 -57.02 87 -56 87 C-56.0928125 85.39125 -56.0928125 85.39125 -56.1875 83.75 C-56.1875 75.40124675 -53.39167775 67.52067674 -50 60 C-49.505 58.2365625 -49.505 58.2365625 -49 56.4375 C-47.99655519 52.98815847 -46.68106195 50.16815521 -45 47 C-44.26766248 45.54325641 -43.53858623 44.08486949 -42.8125 42.625 C-42.20833333 41.41666667 -41.60416667 40.20833333 -41 39 C-40.34 39 -39.68 39 -39 39 C-38.896875 38.236875 -38.79375 37.47375 -38.6875 36.6875 C-37.9472899 33.79395144 -37.29010706 32.83208565 -35 31 C-34.01 30.505 -34.01 30.505 -33 30 C-32.855625 29.34 -32.71125 28.68 -32.5625 28 C-32.2840625 27.01 -32.2840625 27.01 -32 26 C-31.01 25.67 -30.02 25.34 -29 25 C-28.32843384 23.06381575 -28.32843384 23.06381575 -28 21 C-27.67 20.34 -27.34 19.68 -27 19 C-25.68 19 -24.36 19 -23 19 C-22.67 17.35 -22.34 15.7 -22 14 C-21.01 14 -20.02 14 -19 14 C-19 12.02 -19 10.04 -19 8 C-17.88625 7.54625 -16.7725 7.0925 -15.625 6.625 C-12.03800992 5.27534014 -12.03800992 5.27534014 -10 3 C-7.66752239 2.66073053 -5.33414529 2.32759934 -3 2 C-2.01 1.34 -1.02 0.68 0 0 Z " fill="#377ABF" transform="translate(365,185)"/>
<path d="M0 0 C6.30723312 0.57261607 12.69870946 0.22397252 19.02392578 0.10449219 C20.63170898 0.08805664 20.63170898 0.08805664 22.27197266 0.07128906 C23.72228882 0.04603149 23.72228882 0.04603149 25.2019043 0.02026367 C27.54931641 0.23144531 27.54931641 0.23144531 29.54931641 2.23144531 C31.6186781 2.61830278 31.6186781 2.61830278 33.92431641 2.73144531 C37.27048695 2.95526943 39.72262196 3.35500134 42.54931641 5.23144531 C45.24377962 9.02059502 44.83049291 13.27850426 44.80810547 17.73193359 C44.81336243 19.01546219 44.81336243 19.01546219 44.81872559 20.32492065 C44.82752167 23.15061577 44.82170227 25.97606019 44.81494141 28.80175781 C44.81628842 30.76423185 44.81822925 32.72670557 44.82073975 34.68917847 C44.82368792 38.7998167 44.81940225 42.91036797 44.81005859 47.02099609 C44.79864923 52.29843608 44.80523487 57.57567297 44.81720352 62.85310555 C44.82441757 66.90389548 44.82213655 70.95463695 44.81694794 75.00542831 C44.81561096 76.95195413 44.81726084 78.8984843 44.82190704 80.84500504 C44.82696643 83.56003804 44.81927108 86.27473801 44.80810547 88.98974609 C44.81215393 89.79913635 44.81620239 90.60852661 44.82037354 91.44244385 C44.77784778 97.00291394 44.77784778 97.00291394 42.54931641 99.23144531 C39.62924194 99.5276947 39.62924194 99.5276947 35.83984375 99.59448242 C35.15014496 99.60946274 34.46044617 99.62444305 33.74984741 99.63987732 C32.24940515 99.67135513 30.74886513 99.69840823 29.24827194 99.72160149 C26.8680642 99.75905958 24.48844084 99.80932578 22.10855103 99.86317444 C15.34093203 100.01378188 8.57289594 100.13966607 1.8046875 100.26049805 C-2.33466059 100.33528647 -6.47354143 100.42387167 -10.6124382 100.52032661 C-12.18547294 100.55404783 -13.75863397 100.5823539 -15.33186722 100.60499382 C-26.70859155 100.73672 -26.70859155 100.73672 -37.45068359 104.23144531 C-39.27727297 104.81547323 -41.10970559 105.3819934 -42.95068359 105.91894531 C-43.80662109 106.1703125 -44.66255859 106.42167969 -45.54443359 106.68066406 C-46.17349609 106.86242187 -46.80255859 107.04417969 -47.45068359 107.23144531 C-40.3429492 99.4855552 -27.73685255 97.7429355 -17.77398682 96.93228149 C-13.94807384 96.79438486 -10.13055547 96.73827573 -6.30224609 96.71972656 C-4.46569458 96.69477112 -4.46569458 96.69477112 -2.59204102 96.66931152 C1.91324278 96.61216057 6.41880981 96.57942265 10.92431641 96.54394531 C26.08369141 96.38925781 26.08369141 96.38925781 41.54931641 96.23144531 C41.54931641 67.19144531 41.54931641 38.15144531 41.54931641 8.23144531 C38.35099264 6.63228343 34.83265513 6.74077365 31.31103516 6.47753906 C30.45928207 6.41209396 29.60752899 6.34664886 28.72996521 6.27922058 C9.71380097 4.8548156 -9.25403634 3.91711343 -28.32568359 3.85644531 C-29.68253769 3.84507034 -29.68253769 3.84507034 -31.06680298 3.83346558 C-55.16854335 3.66895139 -76.94351869 7.35155823 -99.0456543 17.08398438 C-100.8245499 17.85467699 -102.63562537 18.55026962 -104.45068359 19.23144531 C-105.11068359 18.90144531 -105.77068359 18.57144531 -106.45068359 18.23144531 C-105.46068359 16.74644531 -105.46068359 16.74644531 -104.45068359 15.23144531 C-103.79068359 15.23144531 -103.13068359 15.23144531 -102.45068359 15.23144531 C-102.45068359 14.57144531 -102.45068359 13.91144531 -102.45068359 13.23144531 C-101.13068359 13.23144531 -99.81068359 13.23144531 -98.45068359 13.23144531 C-98.12068359 12.24144531 -97.79068359 11.25144531 -97.45068359 10.23144531 C-91.04019429 7.62378865 -84.47403168 6.34247029 -77.68505859 5.07519531 C-74.48102292 4.43830878 -74.48102292 4.43830878 -72.27783203 2.71923828 C-68.55069103 0.75782228 -65.10188104 0.68895387 -60.98193359 0.58300781 C-60.15262329 0.55091217 -59.32331299 0.51881653 -58.46887207 0.48574829 C-55.79642079 0.38657115 -53.12386814 0.30807981 -50.45068359 0.23144531 C-48.68113049 0.1718696 -46.91159895 0.11164989 -45.14208984 0.05078125 C-40.65426003 -0.09717708 -36.16619458 -0.2178291 -31.67724609 -0.32617188 C-28.92443043 -0.39420349 -26.17198658 -0.47193897 -23.41943359 -0.54980469 C-15.54635857 -0.75425473 -7.83800284 -0.90835232 0 0 Z " fill="#3674BF" transform="translate(473.45068359375,165.7685546875)"/>
<path d="M0 0 C1.20085236 0.00539291 1.20085236 0.00539291 2.42596436 0.01089478 C3.26491745 0.01074875 4.10387054 0.01060272 4.96824646 0.01045227 C7.75487816 0.01115167 10.54144388 0.01894531 13.32806396 0.02676392 C15.25477563 0.028628 17.18148777 0.03005195 19.10820007 0.03105164 C24.18978169 0.03487758 29.27133491 0.04470851 34.35290527 0.05575562 C39.53407405 0.0659681 44.7152474 0.07054891 49.89642334 0.07559204 C60.07026397 0.08633071 70.24408348 0.10340804 80.41790771 0.12442017 C76.75198699 2.56836731 73.97562484 2.43083877 69.73358154 2.44326782 C68.95285782 2.45331345 68.17213409 2.46335907 67.36775208 2.47370911 C64.78682187 2.50460337 62.20599569 2.52159346 59.62493896 2.53848267 C57.83559775 2.55718931 56.0462654 2.57676234 54.25694275 2.59716797 C49.54699933 2.64854847 44.83702728 2.68814248 40.12695312 2.72531128 C35.32087083 2.76531386 30.51490819 2.81642327 25.70892334 2.86660767 C16.27866878 2.96343701 6.84834675 3.04781934 -2.58209229 3.12442017 C-3.77139441 7.38071009 -3.75720423 11.54107437 -3.78741455 15.93203735 C-3.79731415 16.82019638 -3.80721375 17.70835541 -3.81741333 18.62342834 C-3.84897417 21.5560236 -3.87376439 24.48863505 -3.89849854 27.42129517 C-3.91907273 29.45582498 -3.94006933 31.49035056 -3.96147156 33.52487183 C-4.01664407 38.87762016 -4.06607464 44.23040677 -4.11431885 49.58322144 C-4.16456904 55.04620771 -4.22023675 60.50913846 -4.27545166 65.97207642 C-4.38297429 76.68947689 -4.48443238 87.4069256 -4.58209229 98.12442017 C-3.50911896 98.12219955 -2.43614563 98.11997894 -1.33065796 98.11769104 C8.76399291 98.09744983 18.85863967 98.08244328 28.9533062 98.07260799 C34.14350096 98.06738167 39.33367939 98.06028853 44.52386475 98.04898071 C49.52941169 98.03814299 54.53494288 98.03214144 59.54050064 98.02954292 C61.4535357 98.02769028 63.36656986 98.02407272 65.27959824 98.01869011 C67.95185991 98.01146796 70.62405588 98.01042973 73.29632568 98.01089478 C74.49178513 98.00550186 74.49178513 98.00550186 75.71139526 98 C81.18980339 98.010368 81.18980339 98.010368 83.41790771 99.12442017 C83.08790771 184.92442017 82.75790771 270.72442017 82.41790771 359.12442017 C82.08790771 359.12442017 81.75790771 359.12442017 81.41790771 359.12442017 C81.08790771 273.98442017 80.75790771 188.84442017 80.41790771 101.12442017 C52.03790771 101.12442017 23.65790771 101.12442017 -5.58209229 101.12442017 C-7.51215473 99.19435772 -6.70892454 96.29718887 -6.71762085 93.72843933 C-6.71559662 92.80788254 -6.71357239 91.88732574 -6.71148682 90.93887329 C-6.71323914 89.97473007 -6.71499146 89.01058685 -6.71679688 88.01722717 C-6.72121721 84.81335681 -6.71827676 81.60954114 -6.71490479 78.40567017 C-6.71557777 76.18989044 -6.71654775 73.97411078 -6.71780396 71.7583313 C-6.71928118 67.10773009 -6.7171256 62.45714806 -6.71246338 57.80654907 C-6.70676608 51.83059412 -6.71004496 45.85468408 -6.71603584 39.87873077 C-6.71964081 35.30127623 -6.71850317 30.72383242 -6.71590805 26.14637756 C-6.7152386 23.94224543 -6.71606782 21.73811234 -6.7183876 19.53398132 C-6.72091307 16.45928345 -6.71707503 13.38465939 -6.71148682 10.30996704 C-6.71351105 9.38941025 -6.71553528 8.46885345 -6.71762085 7.520401 C-6.69220406 0.01268915 -6.69220406 0.01268915 0 0 Z " fill="#D2F4FD" transform="translate(226.58209228515625,376.8755798339844)"/>
<path d="M0 0 C0 3.20395416 -0.74335022 5.09399739 -2 8 C-2.66 8 -3.32 8 -4 8 C-4.33 9.32 -4.66 10.64 -5 12 C-5.66 12 -6.32 12 -7 12 C-9.29109065 23.92458211 -10.46308624 35.37488226 -10.51171875 47.5078125 C-10.52725822 48.91920395 -10.54406753 50.33058199 -10.56213379 51.74194336 C-10.61916221 56.86948206 -10.65199129 61.99726712 -10.6875 67.125 C-10.790625 78.63375 -10.89375 90.1425 -11 102 C21.34 102 53.68 102 87 102 C89.08674909 107.21687271 89.05932967 108.69027607 88.1875 114 C87.98116057 115.32632683 87.77809844 116.65316719 87.578125 117.98046875 C87.47693359 118.64739746 87.37574219 119.31432617 87.27148438 120.00146484 C86.70873489 124.14415127 86.49746973 128.31749203 86.24609375 132.48828125 C86 135 86 135 85 137 C84.79282822 139.67021407 84.62622225 142.32595835 84.5 145 C84.13513514 152.72972973 84.13513514 152.72972973 83 155 C82.781346 156.51818102 82.60981021 158.04333251 82.46484375 159.5703125 C82.37783203 160.46621094 82.29082031 161.36210937 82.20117188 162.28515625 C82.11416016 163.22230469 82.02714844 164.15945313 81.9375 165.125 C81.84662109 166.06988281 81.75574219 167.01476562 81.66210938 167.98828125 C81.43785901 170.32520611 81.21730943 172.66242116 81 175 C80.34 175 79.68 175 79 175 C79.02320313 175.69222656 79.04640625 176.38445312 79.0703125 177.09765625 C79.44986607 197.67488198 79.44986607 197.67488198 75 206 C73.94986221 206.01030746 72.89972443 206.02061493 71.81776428 206.03123474 C61.9434829 206.12879541 52.06926698 206.23151258 42.1950922 206.33933926 C37.11812116 206.39461274 32.04114441 206.44803967 26.96411133 206.49731445 C22.06874337 206.54489291 17.17344779 206.59723308 12.27816582 206.65294075 C10.40619129 206.67339395 8.5341969 206.69210201 6.66218758 206.70907402 C4.04953924 206.73305268 1.43702903 206.76311574 -1.17553711 206.79467773 C-2.34833725 206.80331093 -2.34833725 206.80331093 -3.54483032 206.81211853 C-7.06676228 206.54093426 -7.06676228 206.54093426 -10 208 C-10.10137785 209.36551476 -10.13396444 210.7362126 -10.1386652 212.10547733 C-10.14413964 212.99573425 -10.14961409 213.88599117 -10.15525442 214.80322558 C-10.15623253 215.79250455 -10.15721064 216.78178352 -10.15821838 217.80104065 C-10.16315636 218.84320093 -10.16809434 219.8853612 -10.17318195 220.95910209 C-10.18864071 224.47997586 -10.19694012 228.00083129 -10.20532227 231.52172852 C-10.21489422 234.03416101 -10.22490388 236.54659187 -10.23532104 239.059021 C-10.25681861 244.48290527 -10.27524845 249.9067864 -10.29092598 255.33069038 C-10.31359854 263.17282907 -10.34174493 271.01494051 -10.37124526 278.85705613 C-10.4189533 291.57908987 -10.46220875 304.30113472 -10.50268555 317.02319336 C-10.54202415 329.38453029 -10.58344643 341.74585733 -10.62768555 354.10717773 C-10.63040982 354.86859888 -10.63313409 355.63002003 -10.63594092 356.41451455 C-10.64962013 360.23418221 -10.66334045 364.05384972 -10.67708123 367.87351716 C-10.79109645 399.58232442 -10.89782078 431.29115232 -11 463 C-11.33 463 -11.66 463 -12 463 C-12 377.86 -12 292.72 -12 205 C16.38 204.67 44.76 204.34 74 204 C75.32 193.11 76.64 182.22 78 171 C78.66 167.04 79.32 163.08 80 159 C80.50146541 155.25082409 80.98494537 151.50483399 81.4375 147.75 C81.69249523 145.66403644 81.94771044 143.57809976 82.203125 141.4921875 C82.39745117 139.89842285 82.39745117 139.89842285 82.59570312 138.27246094 C83.00573787 134.95355653 83.43037462 131.63681543 83.859375 128.3203125 C83.99802979 127.24040039 84.13668457 126.16048828 84.27954102 125.04785156 C84.54553189 122.97913978 84.81412439 120.91076035 85.08569336 118.84277344 C85.20565674 117.90208008 85.32562012 116.96138672 85.44921875 115.9921875 C85.55580811 115.17089355 85.66239746 114.34959961 85.7722168 113.50341797 C86.02915342 110.67959364 86 107.83548942 86 105 C53.66 104.67 21.32 104.34 -12 104 C-12.061875 91.233125 -12.12375 78.46625 -12.1875 65.3125 C-12.21481201 61.30649658 -12.24212402 57.30049316 -12.27026367 53.1730957 C-12.28381348 48.21716309 -12.28381348 48.21716309 -12.28633118 45.88468933 C-12.29088709 44.28273506 -12.30133049 42.68078996 -12.31672668 41.0789032 C-12.45028067 26.42943717 -12.10777535 12.40293474 -1.3125 1.2578125 C-0.879375 0.84273438 -0.44625 0.42765625 0 0 Z " fill="#316FB1" transform="translate(425,273)"/>
<path d="M0 0 C0.33 0 0.66 0 1 0 C0.51153548 11.60103234 -0.68684625 22.91060682 -2.5 34.375 C-2.95240212 37.27796722 -3.39976258 40.18167198 -3.84375 43.0859375 C-3.94953369 43.77202087 -4.05531738 44.45810425 -4.16430664 45.16497803 C-4.91298693 50.12671105 -5.42986356 55.0754461 -5.77148438 60.08056641 C-6 62 -6 62 -7 63 C-35.38 63 -63.76 63 -93 63 C-93 148.14 -93 233.28 -93 321 C-93.99 321 -94.98 321 -96 321 C-96 235.53 -96 150.06 -96 62 C-67.62 61.67 -39.24 61.34 -10 61 C-9.34 60.67 -8.68 60.34 -8 60 C-8.02320313 58.83082031 -8.04640625 57.66164063 -8.0703125 56.45703125 C-8.08907821 54.90886058 -8.10727755 53.36068297 -8.125 51.8125 C-8.14175781 51.04357422 -8.15851563 50.27464844 -8.17578125 49.48242188 C-8.18222656 48.73154297 -8.18867188 47.98066406 -8.1953125 47.20703125 C-8.20578613 46.5210083 -8.21625977 45.83498535 -8.22705078 45.12817383 C-8 43 -8 43 -7.03442383 40.64428711 C-5.81809526 37.53499877 -5.53634249 34.80921537 -5.25390625 31.484375 C-5.13853516 30.23269531 -5.02316406 28.98101562 -4.90429688 27.69140625 C-4.67780622 25.07964545 -4.45381677 22.46766645 -4.23242188 19.85546875 C-3.57629422 12.78669019 -2.5943821 6.61964904 0 0 Z " fill="#B5DBF4" transform="translate(506,415)"/>
<path d="M0 0 C0.94059265 0.00332336 1.8811853 0.00664673 2.85028076 0.0100708 C18.09813988 0.07228873 33.28779194 0.72906554 48.5 1.75 C49.4618219 1.8129425 50.4236438 1.87588501 51.41461182 1.94073486 C54.12380922 2.12283295 56.83142611 2.31955347 59.5390625 2.5234375 C60.34315552 2.57876648 61.14724854 2.63409546 61.97570801 2.69110107 C65.69259521 2.99303849 67.71234574 3.26656382 70.875 5.375 C71.16650272 8.21044618 71.26355856 10.82718049 71.23144531 13.66430664 C71.23348969 14.52130661 71.23553406 15.37830658 71.23764038 16.26127625 C71.24065614 19.10278442 71.22214898 21.94371676 71.203125 24.78515625 C71.20006892 26.75288245 71.19819165 28.7206108 71.19744873 30.68833923 C71.19284081 34.81517799 71.17839522 38.94182214 71.15625 43.06860352 C71.12794871 48.37081977 71.11703727 53.67288266 71.1125679 58.97516727 C71.10842043 63.03878834 71.09860891 67.10237808 71.08669281 71.1659832 C71.08097721 73.12170598 71.07622281 75.07743181 71.07242584 77.03315926 C71.06558635 79.76052326 71.05196555 82.48776317 71.03613281 85.21508789 C71.03501495 86.03121552 71.03389709 86.84734314 71.03274536 87.6882019 C70.98968639 93.26031361 70.98968639 93.26031361 69.875 94.375 C67.98582557 94.48285335 66.0926555 94.52127841 64.20043945 94.53271484 C62.37637321 94.54810806 62.37637321 94.54810806 60.51545715 94.56381226 C59.53257689 94.56896914 59.53257689 94.56896914 58.52984047 94.57423019 C56.47171581 94.58603249 54.41379977 94.60549846 52.35575867 94.62734985 C46.50148712 94.68884969 40.64722655 94.74258745 34.79272461 94.77636719 C31.21222791 94.7975812 27.63209498 94.83311146 24.05180931 94.87712479 C22.04823539 94.89781828 20.04452231 94.90329128 18.04084778 94.90829468 C3.31108553 95.10242022 -11.25495099 97.21976019 -22.39453125 107.4921875 C-24.91361843 110.23304534 -26.49073279 113.03837112 -28.125 116.375 C-29.125 113.375 -29.125 113.375 -27.75 110.4375 C-27.21375 109.426875 -26.6775 108.41625 -26.125 107.375 C-25.43863375 105.13974965 -25.43863375 105.13974965 -25.125 103.375 C-24.568125 103.2925 -24.01125 103.21 -23.4375 103.125 C-21.00134358 102.49103202 -21.00134358 102.49103202 -19 100.625 C-2.75752547 87.91349819 20.4976926 91.12216235 39.9375 91.25 C53.2715625 91.311875 53.2715625 91.311875 66.875 91.375 C66.875 63.325 66.875 35.275 66.875 6.375 C43.52237272 4.42894773 20.64106919 3.27115514 -2.72485352 3.14483643 C-4.89236851 3.13170854 -7.05986043 3.11383535 -9.22729492 3.09100342 C-12.31573467 3.06084706 -15.40361597 3.05131971 -18.4921875 3.046875 C-19.4143808 3.03457855 -20.3365741 3.0222821 -21.28671265 3.00961304 C-26.90654063 3.02837974 -31.56166072 3.86146339 -36.85964966 5.76080322 C-40.50942373 6.75035412 -43.45673372 6.12223943 -47.125 5.375 C-42.63903223 2.90529582 -38.2173968 2.4432689 -33.1953125 1.7734375 C-32.21716583 1.642789 -31.23901917 1.5121405 -30.23123169 1.37753296 C-20.13928579 0.12051171 -10.15734578 -0.08616161 0 0 Z " fill="#E7FDFD" transform="translate(445.125,168.625)"/>
<path d="M0 0 C0.66 0.33 1.32 0.66 2 1 C1.09121094 1.54785156 0.18242187 2.09570312 -0.75390625 2.66015625 C-14.48435801 11.21403597 -26.52078835 22.09693508 -35 36 C-35.48210937 36.72574219 -35.96421875 37.45148438 -36.4609375 38.19921875 C-45.71630479 52.62094186 -50.80820767 68.27661025 -54 85 C-54.17204956 85.85624969 -54.34409912 86.71249939 -54.5213623 87.59469604 C-56.42567309 98.23370858 -56.35185504 108.83619636 -56.4140625 119.61328125 C-56.43280671 121.67979172 -56.45238246 123.74629479 -56.4727478 125.81278992 C-56.52373163 131.20978404 -56.56353641 136.60680289 -56.60089111 142.00390625 C-56.64114419 147.52805527 -56.69213855 153.05210446 -56.7421875 158.57617188 C-56.83854635 169.38404411 -56.92307727 180.19197316 -57 191 C-57.33 191 -57.66 191 -58 191 C-58.07000345 178.82860624 -58.12306393 166.65726162 -58.15543652 154.48570633 C-58.17098621 148.83186907 -58.19202508 143.17817116 -58.22631836 137.52441406 C-58.2592983 132.05193494 -58.27693305 126.57958848 -58.28463173 121.10701752 C-58.29010682 119.03579372 -58.30079434 116.96457586 -58.31719017 114.89340973 C-58.43764942 99.02226284 -58.02834596 83.10310911 -52.70132732 67.99078751 C-51.32533517 64.08489665 -50.2267885 60.08641576 -49.0625 56.11328125 C-47.96298736 52.89154753 -46.5812905 50.01139819 -45 47 C-44.61457031 46.22914063 -44.22914063 45.45828125 -43.83203125 44.6640625 C-42.88802083 42.77604167 -41.94401042 40.88802083 -41 39 C-40.34 39 -39.68 39 -39 39 C-38.896875 38.236875 -38.79375 37.47375 -38.6875 36.6875 C-37.9472899 33.79395144 -37.29010706 32.83208565 -35 31 C-34.34 30.67 -33.68 30.34 -33 30 C-32.855625 29.34 -32.71125 28.68 -32.5625 28 C-32.376875 27.34 -32.19125 26.68 -32 26 C-31.01 25.67 -30.02 25.34 -29 25 C-28.32843384 23.06381575 -28.32843384 23.06381575 -28 21 C-27.67 20.34 -27.34 19.68 -27 19 C-25.68 19 -24.36 19 -23 19 C-22.67 17.35 -22.34 15.7 -22 14 C-21.01 14 -20.02 14 -19 14 C-19 12.02 -19 10.04 -19 8 C-17.88625 7.54625 -16.7725 7.0925 -15.625 6.625 C-12.03800992 5.27534014 -12.03800992 5.27534014 -10 3 C-7.66752239 2.66073053 -5.33414529 2.32759934 -3 2 C-2.01 1.34 -1.02 0.68 0 0 Z " fill="#4883BF" transform="translate(365,185)"/>
<path d="M0 0 C0.66 0.33 1.32 0.66 2 1 C2 1.66 2 2.32 2 3 C1.34 3 0.68 3 0 3 C-0.04898437 3.55945313 -0.09796875 4.11890625 -0.1484375 4.6953125 C-0.6367145 9.93166241 -1.22001624 15.15696272 -1.875 20.375 C-2.01679688 21.53773438 -2.15859375 22.70046875 -2.3046875 23.8984375 C-3.03196454 27.14258342 -4.02846335 28.41749236 -6 31 C-6.75881397 33.88855435 -6.75881397 33.88855435 -7.125 37.0625 C-7.27195312 38.10535156 -7.41890625 39.14820313 -7.5703125 40.22265625 C-7.71210938 41.46917969 -7.85390625 42.71570313 -8 44 C-8.08490189 44.69268982 -8.16980377 45.38537964 -8.25727844 46.09906006 C-9.27043616 55.4630384 -9.12581941 64.82562896 -9.09765625 74.23046875 C-9.09578775 76.07562725 -9.09436589 77.92078626 -9.09336853 79.76594543 C-9.08957737 84.58763026 -9.0797767 89.40928426 -9.06866455 94.23095703 C-9.05837673 99.16503482 -9.05385522 104.09911767 -9.04882812 109.03320312 C-9.0381509 118.68881552 -9.02111606 128.34440518 -9 138 C-10.98 138.99 -10.98 138.99 -13 140 C-12.96162348 128.14096514 -12.90180762 116.28223816 -12.81609726 104.4234457 C-12.77692205 98.91436673 -12.74458907 93.40544045 -12.72900391 87.89624023 C-12.71363693 82.55971843 -12.67884771 77.22361733 -12.63169098 71.88728523 C-12.61708045 69.87163047 -12.60897098 67.85591558 -12.60811615 65.84020805 C-12.58874972 43.02920603 -9.23435118 20.98472848 0 0 Z " fill="#DBF5FC" transform="translate(320,237)"/>
<path d="M0 0 C5.23285854 0.49142325 10.49477047 0.34272316 15.74560547 0.30273438 C17.45973633 0.2959668 17.45973633 0.2959668 19.20849609 0.2890625 C21.99175657 0.27741706 24.77490119 0.26106434 27.55810547 0.24023438 C27.55810547 1.23023438 27.55810547 2.22023437 27.55810547 3.24023438 C26.57664047 3.23579315 25.59517548 3.23135193 24.58396912 3.22677612 C15.27333722 3.18599424 5.96272376 3.15613786 -3.34797764 3.13661003 C-8.13314641 3.12623267 -12.9182423 3.11218586 -17.70336914 3.08935547 C-22.33291769 3.06740899 -26.96239673 3.05562045 -31.59199333 3.05047989 C-33.34636464 3.04682284 -35.10073273 3.03968335 -36.85507393 3.02877426 C-47.59114039 2.96475109 -57.8337194 3.53705066 -68.44189453 5.24023438 C-70.77476941 5.57676127 -73.10798339 5.91097102 -75.44189453 6.24023438 C-75.44189453 6.90023437 -75.44189453 7.56023437 -75.44189453 8.24023438 C-76.61365234 8.61535156 -77.78541016 8.99046875 -78.99267578 9.37695312 C-87.05459851 11.99244275 -94.88472563 14.62573711 -102.47314453 18.45507812 C-103.44767578 18.84373047 -103.44767578 18.84373047 -104.44189453 19.24023438 C-105.10189453 18.91023438 -105.76189453 18.58023438 -106.44189453 18.24023438 C-105.45189453 16.75523437 -105.45189453 16.75523437 -104.44189453 15.24023438 C-103.78189453 15.24023438 -103.12189453 15.24023438 -102.44189453 15.24023438 C-102.44189453 14.58023438 -102.44189453 13.92023438 -102.44189453 13.24023438 C-101.12189453 13.24023438 -99.80189453 13.24023438 -98.44189453 13.24023438 C-98.11189453 12.25023437 -97.78189453 11.26023438 -97.44189453 10.24023438 C-91.03140523 7.63257771 -84.46524261 6.35125935 -77.67626953 5.08398438 C-74.47223386 4.44709784 -74.47223386 4.44709784 -72.26904297 2.72802734 C-68.54190197 0.76661135 -65.09309198 0.69774293 -60.97314453 0.59179688 C-60.14383423 0.55970123 -59.31452393 0.52760559 -58.46008301 0.49453735 C-55.78763173 0.39536022 -53.11507908 0.31686887 -50.44189453 0.24023438 C-48.67234143 0.18065866 -46.90280988 0.12043895 -45.13330078 0.05957031 C-40.64547096 -0.08838802 -36.15740552 -0.20904004 -31.66845703 -0.31738281 C-28.91564137 -0.38541443 -26.16319752 -0.46314991 -23.41064453 -0.54101562 C-15.54295673 -0.74541653 -7.83298776 -0.90504948 0 0 Z " fill="#2976CF" transform="translate(473.44189453125,165.759765625)"/>
<path d="M0 0 C12.7603387 -0.02312121 25.52067245 -0.04091395 38.28102779 -0.05181217 C44.20550715 -0.05704149 50.12997222 -0.06414001 56.05444336 -0.07543945 C61.76672571 -0.08626661 67.47899428 -0.09227647 73.19128609 -0.09487724 C75.37588277 -0.0967318 77.56047865 -0.100353 79.7450695 -0.10573006 C82.79352349 -0.11293821 85.84191979 -0.11399104 88.89038086 -0.11352539 C89.80315796 -0.11712067 90.71593506 -0.12071594 91.65637207 -0.12442017 C97.88594784 -0.11405216 97.88594784 -0.11405216 99 1 C98.78305696 11.01275569 97.2249361 21.06969278 96 31 C95.67 31 95.34 31 95 31 C95 23.08 95 15.16 95 7 C94.01 7.33 93.02 7.66 92 8 C91.4465236 5.92446352 91 4.15634036 91 2 C89.84921463 2.16389725 88.69842926 2.32779449 87.51277161 2.49665833 C83.26639673 3.02463354 79.07041953 3.11211559 74.7956543 3.0534668 C73.63070183 3.04387436 73.63070183 3.04387436 72.44221497 3.03408813 C69.90278953 3.01150354 67.36354669 2.98083501 64.82421875 2.94921875 C63.04922187 2.92996553 61.27422283 2.91091043 59.4992218 2.89204407 C55.79328886 2.85121455 52.08743914 2.80600546 48.3815918 2.75805664 C43.62913632 2.69720495 38.87665557 2.65041381 34.12401104 2.60722637 C30.46514235 2.57192048 26.80642209 2.52768206 23.1476841 2.48087502 C21.39460522 2.45982165 19.64148556 2.4419217 17.8883419 2.4272213 C15.44446305 2.40569965 13.00105849 2.37179793 10.55737305 2.3347168 C9.83266815 2.33098557 9.10796326 2.32725433 8.36129761 2.32341003 C4.69771126 2.25401963 3.13341143 2.08894096 0 0 Z " fill="#D7F5FD" transform="translate(413,377)"/>
<path d="M0 0 C0.33 0 0.66 0 1 0 C1.02312241 11.45650016 1.04091457 22.91299481 1.05181217 34.36951351 C1.05704122 39.68865213 1.06413927 45.00777484 1.07543945 50.3269043 C1.08626755 55.45563985 1.09227667 60.58436006 1.09487724 65.71310616 C1.09673163 67.67441614 1.10035251 69.63572524 1.10573006 71.59702873 C1.11293946 74.33415447 1.11399099 77.07121597 1.11352539 79.80834961 C1.11712067 80.62761932 1.12071594 81.44688904 1.12442017 82.29098511 C1.11405216 87.88594784 1.11405216 87.88594784 0 89 C-1.88917443 89.10785335 -3.7823445 89.14627841 -5.67456055 89.15771484 C-7.49862679 89.17310806 -7.49862679 89.17310806 -9.35954285 89.18881226 C-10.34242311 89.19396914 -10.34242311 89.19396914 -11.34515953 89.19923019 C-13.40328419 89.21103249 -15.46120023 89.23049846 -17.51924133 89.25234985 C-23.37351288 89.31384969 -29.22777345 89.36758745 -35.08227539 89.40136719 C-38.66277209 89.4225812 -42.24290502 89.45811146 -45.82319069 89.50212479 C-47.82676461 89.52281828 -49.83047769 89.52829128 -51.83415222 89.53329468 C-66.56391447 89.72742022 -81.12995099 91.84476019 -92.26953125 102.1171875 C-94.78861843 104.85804534 -96.36573279 107.66337112 -98 111 C-99 108 -99 108 -97.625 105.0625 C-97.08875 104.051875 -96.5525 103.04125 -96 102 C-95.31363375 99.76474965 -95.31363375 99.76474965 -95 98 C-94.443125 97.9175 -93.88625 97.835 -93.3125 97.75 C-90.87634358 97.11603202 -90.87634358 97.11603202 -88.875 95.25 C-79.23011336 87.70182785 -70.39794617 87.31449877 -58.6171875 87.51171875 C-57.13811182 87.51908618 -55.65902302 87.52417719 -54.17993164 87.52697754 C-48.74475337 87.55300674 -43.30985565 87.62281297 -37.875 87.6875 C-25.70625 87.790625 -13.5375 87.89375 -1 88 C-0.67 58.96 -0.34 29.92 0 0 Z " fill="#CAF0FE" transform="translate(515,174)"/>
<path d="M0 0 C28.38 0 56.76 0 86 0 C82.33407928 2.44394715 79.55771713 2.30641861 75.31567383 2.31884766 C74.5349501 2.32889328 73.75422638 2.3389389 72.94984436 2.34928894 C70.36891416 2.38018321 67.78808798 2.39717329 65.20703125 2.4140625 C63.41769003 2.43276914 61.62835768 2.45234217 59.83903503 2.4727478 C55.12909161 2.52412831 50.41911957 2.56372231 45.70904541 2.60089111 C40.90296312 2.64089369 36.09700048 2.6920031 31.29101562 2.7421875 C21.86076107 2.83901684 12.43043904 2.92339918 3 3 C1.94549751 6.47288591 1.84455209 9.70964847 1.79467773 13.32910156 C1.77473251 14.61012756 1.75478729 15.89115356 1.73423767 17.21099854 C1.71725591 18.60420614 1.70037701 19.99741499 1.68359375 21.390625 C1.66301206 22.81980983 1.64201527 24.24898873 1.62062073 25.67816162 C1.56552551 29.4329345 1.51606112 33.18776118 1.46777344 36.94262695 C1.41746655 40.77690395 1.36182852 44.6111032 1.30664062 48.4453125 C1.19921264 55.96347575 1.09773384 63.48170382 1 71 C0.67 71 0.34 71 0 71 C0 47.57 0 24.14 0 0 Z " fill="#DAF9FE" transform="translate(221,377)"/>
<path d="M0 0 C0.33 0 0.66 0 1 0 C0.51153548 11.60103234 -0.68684625 22.91060682 -2.5 34.375 C-2.95240212 37.27796722 -3.39976258 40.18167198 -3.84375 43.0859375 C-3.94953369 43.77202087 -4.05531738 44.45810425 -4.16430664 45.16497803 C-4.91298693 50.12671105 -5.42986356 55.0754461 -5.77148438 60.08056641 C-6 62 -6 62 -7 63 C-9.67787973 63.09512944 -12.32988869 63.12555279 -15.00805664 63.11352539 C-15.84700974 63.11367142 -16.68596283 63.11381744 -17.55033875 63.1139679 C-20.33697044 63.1132685 -23.12353616 63.10547485 -25.91015625 63.09765625 C-27.83686791 63.09579217 -29.76358005 63.09436822 -31.69029236 63.09336853 C-36.77187397 63.08954259 -41.8534272 63.07971166 -46.93499756 63.06866455 C-52.11616634 63.05845206 -57.29733969 63.05387126 -62.47851562 63.04882812 C-72.65235625 63.03808946 -82.82617577 63.02101213 -93 63 C-93 62.67 -93 62.34 -93 62 C-91.44691635 61.9845388 -91.44691635 61.9845388 -89.86245728 61.96876526 C-80.12093262 61.87115182 -70.37947356 61.76842934 -60.6380558 61.66066074 C-55.62949478 61.60541681 -50.62092793 61.55199445 -45.61230469 61.50268555 C-40.78177061 61.4550637 -35.95130894 61.40272168 -31.12086105 61.34705925 C-29.27483287 61.32662581 -27.42878481 61.30791438 -25.58272171 61.29092598 C-23.00380498 61.26690385 -20.42502578 61.23684636 -17.84619141 61.20532227 C-16.69281029 61.19668907 -16.69281029 61.19668907 -15.51612854 61.18788147 C-11.62988885 61.20544022 -11.62988885 61.20544022 -8 60 C-8.02320313 58.83082031 -8.04640625 57.66164063 -8.0703125 56.45703125 C-8.08907821 54.90886058 -8.10727755 53.36068297 -8.125 51.8125 C-8.14175781 51.04357422 -8.15851563 50.27464844 -8.17578125 49.48242188 C-8.18222656 48.73154297 -8.18867188 47.98066406 -8.1953125 47.20703125 C-8.20578613 46.5210083 -8.21625977 45.83498535 -8.22705078 45.12817383 C-8 43 -8 43 -7.03442383 40.64428711 C-5.81809526 37.53499877 -5.53634249 34.80921537 -5.25390625 31.484375 C-5.13853516 30.23269531 -5.02316406 28.98101562 -4.90429688 27.69140625 C-4.67780622 25.07964545 -4.45381677 22.46766645 -4.23242188 19.85546875 C-3.57629422 12.78669019 -2.5943821 6.61964904 0 0 Z " fill="#C8EBFC" transform="translate(506,415)"/>
<path d="M0 0 C0.94026031 0.00332336 1.88052063 0.00664673 2.84927368 0.0100708 C18.11812334 0.07239981 33.32918294 0.73027695 48.5625 1.75 C49.52859192 1.8129425 50.49468384 1.87588501 51.49005127 1.94073486 C54.20668219 2.12253439 56.92168156 2.31933581 59.63671875 2.5234375 C60.44597305 2.57876648 61.25522736 2.63409546 62.08900452 2.69110107 C67.64215956 3.14215956 67.64215956 3.14215956 69.875 5.375 C60.23534565 5.49955004 50.71590163 5.17943433 41.09759521 4.51913452 C26.22459219 3.52671847 11.36242096 3.13272669 -3.54251099 3.07543945 C-5.66515737 3.0668764 -7.78778997 3.05328046 -9.91036987 3.03442383 C-12.91181698 3.01049777 -15.91253653 3.00787029 -18.9140625 3.01171875 C-19.79817307 3.00258957 -20.68228363 2.99346039 -21.59318542 2.98405457 C-27.09019077 3.02403529 -31.66092027 3.91474631 -36.84481812 5.76203918 C-40.50322294 6.74549529 -43.4493531 6.12374289 -47.125 5.375 C-42.63903223 2.90529582 -38.2173968 2.4432689 -33.1953125 1.7734375 C-32.21716583 1.642789 -31.23901917 1.5121405 -30.23123169 1.37753296 C-20.13928725 0.12051189 -10.15734536 -0.08617024 0 0 Z " fill="#CBEFFB" transform="translate(445.125,168.625)"/>
<path d="M0 0 C1.43730215 0.00561473 2.87461015 0.00987591 4.31192017 0.01286316 C8.04374841 0.02416464 11.7752106 0.05349939 15.50689697 0.0869751 C19.33527681 0.11799858 23.16371744 0.1314365 26.9921875 0.14648438 C34.46631037 0.17838799 41.94013461 0.22939909 49.4140625 0.29296875 C49.0840625 0.95296875 48.7540625 1.61296875 48.4140625 2.29296875 C47.52980591 2.31136307 46.64554932 2.32975739 45.73449707 2.34870911 C37.37785403 2.5250468 29.02165048 2.71493648 20.66565704 2.91983509 C16.37032841 3.02468907 12.0750116 3.12440488 7.77929688 3.2121582 C3.62923587 3.29712893 -0.52029411 3.39588386 -4.66981506 3.50397301 C-6.24842683 3.54271361 -7.82716614 3.57658967 -9.4059906 3.60538673 C-20.81414694 3.78477231 -20.81414694 3.78477231 -31.5859375 7.29296875 C-33.41252688 7.87699667 -35.2449595 8.44351683 -37.0859375 8.98046875 C-38.36984375 9.35751953 -38.36984375 9.35751953 -39.6796875 9.7421875 C-40.30875 9.92394531 -40.9378125 10.10570312 -41.5859375 10.29296875 C-31.77858939 -0.39491526 -13.31337392 -0.15593408 0 0 Z " fill="#4C86BE" transform="translate(467.5859375,262.70703125)"/>
<path d="M0 0 C0.66 0 1.32 0 2 0 C1.86042877 0.65470276 1.72085754 1.30940552 1.57705688 1.98394775 C-0.23132023 11.42123123 -0.34797543 20.66543704 -0.4140625 30.234375 C-0.43281196 31.9660124 -0.45238806 33.69764103 -0.4727478 35.42926025 C-0.52367648 39.94672428 -0.56351007 44.4642178 -0.60089111 48.98181152 C-0.64117953 53.60773782 -0.69215744 58.23354562 -0.7421875 62.859375 C-0.83848068 71.90616628 -0.9230318 80.95302509 -1 90 C-1.66 89.67 -2.32 89.34 -3 89 C-3.01030746 88.24181976 -3.02061493 87.48363953 -3.03123474 86.70248413 C-3.12992732 79.49587068 -3.23253154 72.28932781 -3.33933926 65.08283043 C-3.39409408 61.37946479 -3.44742822 57.67609093 -3.49731445 53.97265625 C-3.54567032 50.38696285 -3.59802048 46.80134648 -3.65294075 43.21574783 C-3.682715 41.20770237 -3.70853646 39.19959952 -3.73423767 37.1914978 C-3.85230168 29.73155746 -4.21392571 22.35190958 -4.89002991 14.92056274 C-4.98982199 12.27030556 -4.81553987 10.49015735 -4 8 C-3.649375 6.9275 -3.29875 5.855 -2.9375 4.75 C-2.4734375 3.38875 -2.4734375 3.38875 -2 2 C-1.34 2 -0.68 2 0 2 C0 1.34 0 0.68 0 0 Z " fill="#BDE0F5" transform="translate(414,286)"/>
<path d="M0 0 C0.33 0 0.66 0 1 0 C1 26.07 1 52.14 1 79 C-26.39 79 -53.78 79 -82 79 C-82 79.66 -82 80.32 -82 81 C-82.7115625 81.680625 -82.7115625 81.680625 -83.4375 82.375 C-85.22093737 84.22977487 -85.5691993 85.50135592 -86 88 C-86.66 88 -87.32 88 -88 88 C-88.3125 85.25 -88.3125 85.25 -88 82 C-85.16009346 78.94090742 -83.44824136 78.06263053 -79.28569031 77.48101807 C-77.82573337 77.45186893 -76.36524425 77.44429177 -74.9050293 77.45410156 C-73.70424492 77.43859505 -73.70424492 77.43859505 -72.47920227 77.42277527 C-69.84400179 77.39337392 -67.20957027 77.39184869 -64.57421875 77.390625 C-62.74288978 77.37564151 -60.91157433 77.35891401 -59.08027649 77.34051514 C-54.2683754 77.29684821 -49.4566566 77.27684399 -44.64459229 77.26177979 C-38.86663763 77.2387629 -33.08888391 77.18633399 -27.31108856 77.13883972 C-18.54067325 77.07003643 -9.77083494 77.03857856 -1 77 C-0.67 51.59 -0.34 26.18 0 0 Z " fill="#1B78E4" transform="translate(304,295)"/>
<path d="M0 0 C2.05913283 4.11826565 2.30487733 6.8964009 2.31884766 11.33886719 C2.32889328 12.07096909 2.3389389 12.80307098 2.34928894 13.55735779 C2.3801113 15.97052241 2.39715324 18.38357613 2.4140625 20.796875 C2.43277493 22.47268629 2.4523484 24.14848818 2.4727478 25.82427979 C2.52406715 30.23006642 2.5636939 34.6358836 2.60089111 39.04180908 C2.640932 43.53966833 2.69202396 48.03740052 2.7421875 52.53515625 C2.83894443 61.35668158 2.92334997 70.17827865 3 79 C1.02 79.99 1.02 79.99 -1 81 C-0.67 54.27 -0.34 27.54 0 0 Z " fill="#DEFAFE" transform="translate(308,296)"/>
<path d="M0 0 C0 0.33 0 0.66 0 1 C-10.14294301 1.63156834 -20.26279016 2.07241865 -30.42578125 2.17578125 C-31.88272903 2.19365189 -31.88272903 2.19365189 -33.36911011 2.21188354 C-37.35749836 2.26046693 -41.34556656 2.30820321 -45.33422852 2.32592773 C-57.31090273 2.38903952 -67.63009065 2.96588047 -79 7 C-80.85685425 7.46660034 -80.85685425 7.46660034 -82.7512207 7.94262695 C-86.25556439 8.71219338 -86.25556439 8.71219338 -88 12 C-89.32 11.67 -90.64 11.34 -92 11 C-88.55552221 6.83792267 -84.93167091 5.66806516 -80 4 C-78.9275 3.48953125 -77.855 2.9790625 -76.75 2.453125 C-70.0791593 -0.04112912 -62.78103242 0.41484953 -55.75 0.3125 C-54.17218366 0.27952452 -52.59438407 0.24573825 -51.01660156 0.21118164 C-34.01384382 -0.13275847 -17.0051473 -0.09872585 0 0 Z " fill="#2477DB" transform="translate(516,265)"/>
<path d="M0 0 C1.68964597 0.00186847 3.3792925 0.00329034 5.06893921 0.00428772 C9.48457371 0.00807915 13.90017456 0.01788007 18.3157959 0.0289917 C22.83422389 0.03927891 27.35265739 0.0438009 31.87109375 0.04882812 C40.713557 0.05950584 49.55599304 0.07654102 58.3984375 0.09765625 C58.3984375 0.75765625 58.3984375 1.41765625 58.3984375 2.09765625 C60.0484375 2.09765625 61.6984375 2.09765625 63.3984375 2.09765625 C63.3984375 2.42765625 63.3984375 2.75765625 63.3984375 3.09765625 C56.17128795 3.21443245 49.02313867 3.04922209 41.8125 2.609375 C31.85749745 2.05032795 21.91706398 1.87785303 11.94750977 1.85742188 C9.09817485 1.84769801 6.24955869 1.81650616 3.40039062 1.78515625 C-7.4385836 1.72606101 -17.8715343 2.39725097 -28.5818634 4.13104248 C-29.4445433 4.26858948 -30.30722321 4.40613647 -31.19604492 4.54785156 C-32.33054329 4.7418454 -32.33054329 4.7418454 -33.48796082 4.9397583 C-35.75788182 5.10933418 -37.4387224 4.76778516 -39.6015625 4.09765625 C-37.81249096 3.60888928 -36.0201033 3.13225956 -34.2265625 2.66015625 C-33.22882813 2.39332031 -32.23109375 2.12648437 -31.203125 1.8515625 C-20.90289016 -0.30456041 -10.4699835 -0.03423244 0 0 Z " fill="#3973AD" transform="translate(437.6015625,167.90234375)"/>
<path d="M0 0 C0 3.20395416 -0.74335022 5.09399739 -2 8 C-2.66 8 -3.32 8 -4 8 C-4.33 9.32 -4.66 10.64 -5 12 C-5.66 12 -6.32 12 -7 12 C-9.27165181 23.85077883 -10.46141818 35.23216146 -10.51171875 47.2890625 C-10.5286326 48.85518738 -10.54679135 50.42129925 -10.56611633 51.98739624 C-10.61289678 56.04117758 -10.6431652 60.09490628 -10.66955566 64.14886475 C-10.699732 68.31289084 -10.746131 72.47673608 -10.79101562 76.640625 C-10.87622589 84.76032623 -10.94392895 92.8800454 -11 101 C-11.33 101 -11.66 101 -12 101 C-12.06987943 91.3153865 -12.12300223 81.6308614 -12.15543652 71.94604969 C-12.17101274 67.44774709 -12.19210173 62.94961851 -12.22631836 58.45141602 C-12.25920168 54.10067247 -12.27691329 49.75009503 -12.28463173 45.39923668 C-12.29012375 43.74925819 -12.30084636 42.09928755 -12.31719017 40.44938087 C-12.45440995 26.00689785 -11.93670839 12.22632394 -1.3125 1.2578125 C-0.879375 0.84273438 -0.44625 0.42765625 0 0 Z " fill="#2865AD" transform="translate(425,273)"/>
<path d="M0 0 C-3.8553875 3.8553875 -6.6796845 4.47705569 -11.9140625 4.62890625 C-14.51211868 5.09110726 -15.29368426 6.04710684 -17 8 C-19.67643887 9.58913558 -20.8180056 10 -24 10 C-24.33 12.31 -24.66 14.62 -25 17 C-25.66 17 -26.32 17 -27 17 C-27 16.34 -27 15.68 -27 15 C-31.76350585 15.71452588 -36.34201396 16.79534844 -41 18 C-33.99894706 10.4906739 -10.60841234 -4.08015859 0 0 Z " fill="#CDEDF9" transform="translate(398,175)"/>
<path d="M0 0 C0.25 2.25 0.25 2.25 0 5 C-1.29103643 6.3743291 -2.6256709 7.70896357 -4 9 C-4.12375 9.70125 -4.2475 10.4025 -4.375 11.125 C-4.58125 11.74375 -4.7875 12.3625 -5 13 C-8.0625 14.25 -8.0625 14.25 -11 15 C-11.33 17.64 -11.66 20.28 -12 23 C-13.65 23 -15.3 23 -17 23 C-16.67 21.02 -16.34 19.04 -16 17 C-16.66 16.67 -17.32 16.34 -18 16 C-15.5457323 13.51677995 -13.08591435 11.03913187 -10.625 8.5625 C-9.92632812 7.85544922 -9.22765625 7.14839844 -8.5078125 6.41992188 C-7.8375 5.74638672 -7.1671875 5.07285156 -6.4765625 4.37890625 C-5.85861816 3.7557251 -5.24067383 3.13254395 -4.60400391 2.49047852 C-1.92383292 0 -1.92383292 0 0 0 Z " fill="#F7F9F2" transform="translate(356,193)"/>
<path d="M0 0 C0.33 0 0.66 0 1 0 C1.1875 2.8125 1.1875 2.8125 1 6 C-0.5 7.625 -0.5 7.625 -2 9 C-2 10.32 -2 11.64 -2 13 C-4.125 15.3125 -4.125 15.3125 -7 18 C-8.58659401 19.79219177 -10.12812241 21.61684223 -11.66796875 23.44921875 C-12.72555357 24.68048318 -13.85228537 25.85228537 -15 27 C-15.33 26.34 -15.66 25.68 -16 25 C-12.74027539 17.42902671 -7.86593689 10.60966246 -3 4 C-2.45730469 3.24589844 -1.91460937 2.49179688 -1.35546875 1.71484375 C-0.90816406 1.14894531 -0.46085937 0.58304688 0 0 Z " fill="#E8F8F7" transform="translate(337,210)"/>
<path d="M0 0 C-2.62721461 1.7514764 -4.75585302 2.77208691 -7.67578125 3.875 C-8.58650391 4.22046875 -9.49722656 4.5659375 -10.43554688 4.921875 C-11.38494141 5.27765625 -12.33433594 5.6334375 -13.3125 6 C-14.25029297 6.35578125 -15.18808594 6.7115625 -16.15429688 7.078125 C-20.74188735 8.8109992 -25.33027311 10.49817829 -30 12 C-29.34 10.68 -28.68 9.36 -28 8 C-27.34 8 -26.68 8 -26 8 C-26 7.34 -26 6.68 -26 6 C-24.68 6 -23.36 6 -22 6 C-21.67 5.01 -21.34 4.02 -21 3 C-14.56724994 -0.712965 -7.17365331 -0.32773035 0 0 Z " fill="#2976C9" transform="translate(397,173)"/>
<path d="M0 0 C5.21709963 0.50262733 10.46789531 0.34480716 15.70385742 0.30493164 C17.41798828 0.29816406 17.41798828 0.29816406 19.16674805 0.29125977 C21.95000852 0.27961432 24.73315314 0.26326161 27.51635742 0.24243164 C27.51635742 1.23243164 27.51635742 2.22243164 27.51635742 3.24243164 C26.89446533 3.21737549 26.27257324 3.19231934 25.63183594 3.16650391 C0.26846857 2.16862318 -25.10614277 1.71847924 -50.48364258 1.24243164 C-50.48364258 0.91243164 -50.48364258 0.58243164 -50.48364258 0.24243164 C-44.70381664 0.07337259 -38.92383521 -0.08701608 -33.14355469 -0.23974609 C-31.18157654 -0.29276382 -29.21965835 -0.34805553 -27.2578125 -0.40576172 C-8.18545105 -0.96400086 -8.18545105 -0.96400086 0 0 Z " fill="#2276DC" transform="translate(473.483642578125,165.757568359375)"/>
<path d="M0 0 C0.89203125 0.01804687 1.7840625 0.03609375 2.703125 0.0546875 C3.71632813 0.08949219 3.71632813 0.08949219 4.75 0.125 C1.9204979 2.01133474 0.27785336 2.58756652 -2.9375 3.375 C-10.446478 5.54547831 -15.71104293 9.80288123 -20.25 16.125 C-21.58333333 17.79166667 -22.91666667 19.45833333 -24.25 21.125 C-22.53571429 11.41071429 -22.53571429 11.41071429 -19.25 8.125 C-17.91666667 7.45833333 -16.58333333 6.79166667 -15.25 6.125 C-14.26 5.465 -13.27 4.805 -12.25 4.125 C-7.88774859 1.21683239 -5.30739378 -0.13966826 0 0 Z " fill="#D3F0FA" transform="translate(440.25,263.875)"/>
<path d="M0 0 C2.67927341 4.01891012 2.15601248 6.24161923 2 11 C1.34 11 0.68 11 0 11 C0.02320313 11.69222656 0.04640625 12.38445312 0.0703125 13.09765625 C0.46500789 34.49578505 0.46500789 34.49578505 -4 42 C-5.5110011 38.97799781 -4.67951109 36.08030591 -4.2578125 32.83203125 C-4.12607132 31.76247444 -4.12607132 31.76247444 -3.9916687 30.67131042 C-3.70849681 28.38428608 -3.41678125 26.09844024 -3.125 23.8125 C-2.93565234 22.29108343 -2.74684396 20.76959963 -2.55859375 19.24804688 C-1.75919633 12.82395202 -0.93000751 6.40666065 0 0 Z " fill="#4380BE" transform="translate(504,437)"/>
<path d="M0 0 C1.15043541 0.03753891 1.15043541 0.03753891 2.32411194 0.07583618 C4.74912433 0.15733647 7.17323463 0.25419036 9.59765625 0.3515625 C11.2519175 0.40987387 12.90621466 0.46717549 14.56054688 0.5234375 C18.59425919 0.66280949 22.62723634 0.81594404 26.66015625 0.9765625 C26.66015625 1.3065625 26.66015625 1.6365625 26.66015625 1.9765625 C25.08717773 1.99843628 25.08717773 1.99843628 23.48242188 2.02075195 C19.56086543 2.07908883 15.6398621 2.15631687 11.71875 2.23901367 C10.02743564 2.27209759 8.33601526 2.30018009 6.64453125 2.32299805 C4.20136686 2.35685086 1.7591597 2.40917758 -0.68359375 2.46484375 C-1.80284241 2.47442863 -1.80284241 2.47442863 -2.94470215 2.48420715 C-8.32534661 2.63210189 -12.37389589 3.8954418 -17.33984375 5.9765625 C-19.16643313 6.56059042 -20.99886575 7.12711058 -22.83984375 7.6640625 C-24.12375 8.04111328 -24.12375 8.04111328 -25.43359375 8.42578125 C-26.06265625 8.60753906 -26.69171875 8.78929687 -27.33984375 8.9765625 C-25.1336552 6.52601762 -23.10929444 5.21791621 -20.08984375 3.9140625 C-19.3628125 3.59308594 -18.63578125 3.27210938 -17.88671875 2.94140625 C-11.70131489 0.59816276 -6.53013239 -0.28822467 0 0 Z " fill="#347ACE" transform="translate(453.33984375,264.0234375)"/>
<path d="M0 0 C0.66 0.33 1.32 0.66 2 1 C0.41058594 2.04800781 0.41058594 2.04800781 -1.2109375 3.1171875 C-2.59903934 4.03633601 -3.98705574 4.95561356 -5.375 5.875 C-6.42300781 6.56529297 -6.42300781 6.56529297 -7.4921875 7.26953125 C-8.1625 7.71425781 -8.8328125 8.15898437 -9.5234375 8.6171875 C-10.14138184 9.02565918 -10.75932617 9.43413086 -11.39599609 9.85498047 C-13.15142015 11.04163143 -13.15142015 11.04163143 -15 13 C-17.125 12.625 -17.125 12.625 -19 12 C-18.67 10.35 -18.34 8.7 -18 7 C-17.05125 6.71125 -16.1025 6.4225 -15.125 6.125 C-11.94788422 5.23174891 -11.94788422 5.23174891 -10 3 C-7.66752239 2.66073053 -5.33414529 2.32759934 -3 2 C-2.01 1.34 -1.02 0.68 0 0 Z " fill="#2875CC" transform="translate(365,185)"/>
<path d="M0 0 C4.33769533 0.11989186 8.67523658 0.24420989 13.01269531 0.37231445 C14.48271396 0.41514455 15.95276601 0.45684581 17.42285156 0.49731445 C26.30839413 0.74278817 35.14855483 1.13502065 44 2 C44 2.33 44 2.66 44 3 C42.08416353 3.1958009 40.16727461 3.38132214 38.25 3.5625 C36.64898437 3.71912109 36.64898437 3.71912109 35.015625 3.87890625 C32.27519511 3.98894942 30.59523178 3.68935844 28 3 C25.91765408 2.93256652 23.83331443 2.91485528 21.75 2.9375 C20.13351562 2.95103516 20.13351562 2.95103516 18.484375 2.96484375 C17.25460937 2.98224609 17.25460937 2.98224609 16 3 C16 3.33 16 3.66 16 4 C13.03 3.67 10.06 3.34 7 3 C7 2.34 7 1.68 7 1 C4.69 1 2.38 1 0 1 C0 0.67 0 0.34 0 0 Z " fill="#EEFCFA" transform="translate(456,171)"/>
<path d="M0 0 C-1.32 0.33 -2.64 0.66 -4 1 C-4.33 3.31 -4.66 5.62 -5 8 C-5.66 8 -6.32 8 -7 8 C-7 7.34 -7 6.68 -7 6 C-11.76350585 6.71452588 -16.34201396 7.79534844 -21 9 C-16.36923175 4.01301881 -7.30710139 -3.6535507 0 0 Z " fill="#F0FAF7" transform="translate(378,184)"/>
<path d="M0 0 C0 3.20395416 -0.74335022 5.09399739 -2 8 C-2.66 8 -3.32 8 -4 8 C-4.33 9.32 -4.66 10.64 -5 12 C-5.66 12 -6.32 12 -7 12 C-7.99 17.94 -8.98 23.88 -10 30 C-10.66 29.67 -11.32 29.34 -12 29 C-11.28377453 17.1699311 -8.5106797 8.5106797 0 0 Z " fill="#447ABB" transform="translate(425,273)"/>
<path d="M0 0 C1.02480469 0.00644531 2.04960937 0.01289063 3.10546875 0.01953125 C4.16894531 0.03628906 5.23242188 0.05304688 6.328125 0.0703125 C7.94654297 0.08384766 7.94654297 0.08384766 9.59765625 0.09765625 C12.25803778 0.12119945 14.91796836 0.15408451 17.578125 0.1953125 C17.578125 0.8553125 17.578125 1.5153125 17.578125 2.1953125 C19.228125 2.1953125 20.878125 2.1953125 22.578125 2.1953125 C22.578125 2.5253125 22.578125 2.8553125 22.578125 3.1953125 C11.8764861 3.36822947 1.25723127 2.82681192 -9.421875 2.1953125 C-6.16433576 0.25821612 -3.76577572 -0.04184195 0 0 Z " fill="#3A78BC" transform="translate(478.421875,167.8046875)"/>
<path d="M0 0 C0.66 0 1.32 0 2 0 C2.05425013 2.87525669 2.09379277 5.74947646 2.125 8.625 C2.14175781 9.43324219 2.15851563 10.24148438 2.17578125 11.07421875 C2.21437996 15.82185962 1.78823867 19.52940333 0 24 C-0.38517422 25.28866931 -0.76234747 26.5798124 -1.125 27.875 C-1.41375 28.90625 -1.7025 29.9375 -2 31 C-2.66 30.67 -3.32 30.34 -4 30 C-3.505 28.515 -3.505 28.515 -3 27 C-2.71551697 24.93789987 -2.46957171 22.87038148 -2.24609375 20.80078125 C-2.11396484 19.59228516 -1.98183594 18.38378906 -1.84570312 17.13867188 C-1.71099609 15.87603516 -1.57628906 14.61339844 -1.4375 13.3125 C-1.22963867 11.40114258 -1.22963867 11.40114258 -1.01757812 9.45117188 C-0.67543424 6.30108855 -0.33636628 3.15070463 0 0 Z " fill="#2777D9" transform="translate(504,448)"/>
<path d="M0 0 C0.33 0 0.66 0 1 0 C1.0580476 3.27075883 1.09361165 6.54138524 1.125 9.8125 C1.14175781 10.74126953 1.15851562 11.67003906 1.17578125 12.62695312 C1.18222656 13.51962891 1.18867187 14.41230469 1.1953125 15.33203125 C1.20578613 16.15421143 1.21625977 16.9763916 1.22705078 17.82348633 C1 20 1 20 -1 23 C-1.29452584 25.38677076 -1.4928217 27.78626094 -1.625 30.1875 C-1.69976562 31.45980469 -1.77453125 32.73210937 -1.8515625 34.04296875 C-1.92503906 35.50669922 -1.92503906 35.50669922 -2 37 C-2.33 37 -2.66 37 -3 37 C-3.02690844 34.37493198 -3.04679404 31.75013827 -3.0625 29.125 C-3.07087891 28.37863281 -3.07925781 27.63226563 -3.08789062 26.86328125 C-3.11328125 21.2265625 -3.11328125 21.2265625 -2 19 C-1.78217533 17.55487563 -1.61026332 16.10263322 -1.46484375 14.6484375 C-1.37783203 13.79765625 -1.29082031 12.946875 -1.20117188 12.0703125 C-1.11416016 11.18085938 -1.02714844 10.29140625 -0.9375 9.375 C-0.84662109 8.4778125 -0.75574219 7.580625 -0.66210938 6.65625 C-0.43790708 4.43782728 -0.21735434 2.2191024 0 0 Z " fill="#2475D8" transform="translate(512,389)"/>
<path d="M0 0 C-5 5 -10 10 -15 15 C-15 13.68 -15 12.36 -15 11 C-14.34 11 -13.68 11 -13 11 C-12.7834375 10.071875 -12.7834375 10.071875 -12.5625 9.125 C-12 7 -12 7 -11 5 C-9.68 5 -8.36 5 -7 5 C-6.67 3.35 -6.34 1.7 -6 0 C-3 -1 -3 -1 0 0 Z " fill="#407DC3" transform="translate(349,199)"/>
<path d="M0 0 C-0.268125 0.515625 -0.53625 1.03125 -0.8125 1.5625 C-3.73361007 7.55846278 -5.6894909 13.25472497 -7.25390625 19.7421875 C-7.50011719 20.48726562 -7.74632812 21.23234375 -8 22 C-8.66 22.33 -9.32 22.66 -10 23 C-9.41278164 19.28095039 -8.75766317 15.57523862 -8.0625 11.875 C-7.90910156 11.04742187 -7.75570313 10.21984375 -7.59765625 9.3671875 C-6.59995891 5.41552354 -4.70936014 0 0 0 Z " fill="#2476DA" transform="translate(322,229)"/>
<path d="M0 0 C-3.70821628 2.35108558 -7.48605238 2.43155058 -11.75 2.625 C-12.79607422 2.68300781 -12.79607422 2.68300781 -13.86328125 2.7421875 C-15.57510818 2.83598624 -17.28751682 2.91906174 -19 3 C-19 3.66 -19 4.32 -19 5 C-20.65 5 -22.3 5 -24 5 C-24 4.34 -24 3.68 -24 3 C-16.19436658 -0.90281671 -8.51207047 -0.27891493 0 0 Z " fill="#EDFCFA" transform="translate(432,171)"/>
<path d="M0 0 C0 0.33 0 0.66 0 1 C-1.90533443 1.47633361 -3.8110684 1.95112413 -5.71875 2.41796875 C-7.16414433 2.7867423 -8.60322186 3.1821266 -10.03125 3.61328125 C-15.06883435 5.08257669 -18.83028275 4.92316379 -24 4 C-16.91697905 -0.01371187 -7.9787809 -0.30687619 0 0 Z " fill="#C4E8F7" transform="translate(422,170)"/>
<path d="M0 0 C0.33 0 0.66 0 1 0 C0.85856168 2.7294586 0.71200471 5.45848123 0.5625 8.1875 C0.52318359 8.95642578 0.48386719 9.72535156 0.44335938 10.51757812 C0.22492966 14.43251075 -0.08692108 18.17120688 -1 22 C-1.33 22 -1.66 22 -2 22 C-2.05416741 19.27056463 -2.09375225 16.54221436 -2.125 13.8125 C-2.14175781 13.04357422 -2.15851563 12.27464844 -2.17578125 11.48242188 C-2.21266851 7.1850566 -1.9958504 3.92098169 0 0 Z " fill="#C7EDFB" transform="translate(506,415)"/>
<path d="M0 0 C0.33 0 0.66 0 1 0 C1 5.28 1 10.56 1 16 C0.01 16 -0.98 16 -2 16 C-3.13314263 11.89517207 -2.78328091 9.24049263 -1.5625 5.1875 C-1.27503906 4.21167969 -0.98757813 3.23585938 -0.69140625 2.23046875 C-0.46324219 1.49441406 -0.23507812 0.75835937 0 0 Z " fill="#F6FDF0" transform="translate(507,384)"/>
<path d="M0 0 C0.33 0 0.66 0 1 0 C1.10414253 5.75098214 1.20116938 11.35450392 0 17 C-0.66 17.33 -1.32 17.66 -2 18 C-3.04894965 13.37350684 -2.82806355 10.18102877 -1.5625 5.625 C-1.27503906 4.56539063 -0.98757813 3.50578125 -0.69140625 2.4140625 C-0.46324219 1.61742187 -0.23507812 0.82078125 0 0 Z " fill="#F2FDF4" transform="translate(501,436)"/>
<path d="M0 0 C0.33 0 0.66 0 1 0 C1.0810206 2.10353495 1.13919907 4.20795952 1.1875 6.3125 C1.22230469 7.48425781 1.25710938 8.65601563 1.29296875 9.86328125 C1 13 1 13 -2 16 C-2.33 13.03 -2.66 10.06 -3 7 C-2.34 7 -1.68 7 -1 7 C-0.67 4.69 -0.34 2.38 0 0 Z " fill="#E3F9FD" transform="translate(507,400)"/>
<path d="M0 0 C0.33 0.99 0.66 1.98 1 3 C0.01 4.485 0.01 4.485 -1 6 C-0.01 6.33 0.98 6.66 2 7 C1.01 7.66 0.02 8.32 -1 9 C-2.9375 8.25 -2.9375 8.25 -5 7 C-5.75 4.875 -5.75 4.875 -6 3 C-4.02 2.01 -2.04 1.02 0 0 Z " fill="#F4FBF6" transform="translate(310,375)"/>
<path d="M0 0 C0 3.20395416 -0.74335022 5.09399739 -2 8 C-2.66 8 -3.32 8 -4 8 C-4.33 9.32 -4.66 10.64 -5 12 C-5.66 12 -6.32 12 -7 12 C-6.67566492 6.64847115 -3.50295176 3.71719957 0 0 Z " fill="#3777B5" transform="translate(425,273)"/>
<path d="M0 0 C1.01573289 3.04719867 1.0097124 3.98833004 0.44140625 7.01171875 C0.30283203 7.76904297 0.16425781 8.52636719 0.02148438 9.30664062 C-0.12998047 10.09232422 -0.28144531 10.87800781 -0.4375 11.6875 C-0.58509766 12.48478516 -0.73269531 13.28207031 -0.88476562 14.10351562 C-1.24984964 16.07025852 -1.62405289 18.03530467 -2 20 C-2.33 20 -2.66 20 -3 20 C-3.08165496 17.79229195 -3.13948488 15.58369575 -3.1875 13.375 C-3.23970703 11.53035156 -3.23970703 11.53035156 -3.29296875 9.6484375 C-2.9787947 5.73592336 -1.96906533 3.35929782 0 0 Z " fill="#2577D7" transform="translate(311,252)"/>
<path d="M0 0 C1.134375 0.020625 2.26875 0.04125 3.4375 0.0625 C1.9736389 4.45408329 -0.54081338 4.94197433 -4.5625 7.0625 C-4.60504356 5.06295254 -4.60330783 3.06208364 -4.5625 1.0625 C-3.5625 0.0625 -3.5625 0.0625 0 0 Z " fill="#F7FAF0" transform="translate(428.5625,263.9375)"/>
<path d="M0 0 C0.66 0.33 1.32 0.66 2 1 C2 1.66 2 2.32 2 3 C1.34 3 0.68 3 0 3 C-0.04898437 3.68707031 -0.09796875 4.37414062 -0.1484375 5.08203125 C-0.22320312 5.98308594 -0.29796875 6.88414062 -0.375 7.8125 C-0.44460938 8.70582031 -0.51421875 9.59914062 -0.5859375 10.51953125 C-1 13 -1 13 -3 16 C-4.64451156 9.5589964 -3.05498079 5.78217394 0 0 Z " fill="#D3F0F7" transform="translate(320,237)"/>
<path d="M0 0 C0.3125 2.3125 0.3125 2.3125 0 5 C-2.5 6.8125 -2.5 6.8125 -5 8 C-5.99 7.34 -6.98 6.68 -8 6 C-6.85675161 4.9970458 -5.71032809 3.99770973 -4.5625 3 C-3.92441406 2.443125 -3.28632813 1.88625 -2.62890625 1.3125 C-1 0 -1 0 0 0 Z " fill="#CCEDF7" transform="translate(356,193)"/>
<path d="M0 0 C0.33 1.32 0.66 2.64 1 4 C0.34 4 -0.32 4 -1 4 C-0.67 4.99 -0.34 5.98 0 7 C-0.556875 7.12375 -1.11375 7.2475 -1.6875 7.375 C-4.22114364 8.05976855 -6.57921032 8.99133763 -9 10 C-8.06409496 8.8944811 -7.12620142 7.79064547 -6.1875 6.6875 C-5.66542969 6.07261719 -5.14335937 5.45773438 -4.60546875 4.82421875 C-3.12827531 3.14575321 -1.59960869 1.56117966 0 0 Z " fill="#DAF4F8" transform="translate(347,200)"/>
<path d="M0 0 C0.33 0.66 0.66 1.32 1 2 C-0.89575251 2.02721176 -2.79161979 2.04649136 -4.6875 2.0625 C-6.27111328 2.07990234 -6.27111328 2.07990234 -7.88671875 2.09765625 C-10.72410262 2.00865425 -13.2438919 1.64939838 -16 1 C-16 0.67 -16 0.34 -16 0 C-10.66632103 -1.26323976 -5.35003168 -1.15866976 0 0 Z " fill="#2770CD" transform="translate(512,169)"/>
<path d="M0 0 C0.66 0.33 1.32 0.66 2 1 C1.3203125 2.890625 1.3203125 2.890625 0 5 C-2.3828125 6.046875 -2.3828125 6.046875 -5.125 6.75 C-6.03507812 6.99234375 -6.94515625 7.2346875 -7.8828125 7.484375 C-8.93082031 7.73960937 -8.93082031 7.73960937 -10 8 C-6.97727468 4.74475735 -3.74281699 2.38179263 0 0 Z " fill="#D5F0F9" transform="translate(367,185)"/>
<path d="M0 0 C0.33 0 0.66 0 1 0 C0.85930804 2.12534659 0.71229079 4.25027529 0.5625 6.375 C0.48128906 7.55835938 0.40007812 8.74171875 0.31640625 9.9609375 C0 13 0 13 -1 15 C-1.66 15 -2.32 15 -3 15 C-2.44854729 9.76119922 -1.57077907 5.02649303 0 0 Z " fill="#C4EAF8" transform="translate(315,249)"/>
<path d="M0 0 C2.64 0 5.28 0 8 0 C8 1.32 8 2.64 8 4 C6.35 4.33 4.7 4.66 3 5 C3 4.34 3 3.68 3 3 C2.34 3 1.68 3 1 3 C0.67 2.01 0.34 1.02 0 0 Z " fill="#F7F5EB" transform="translate(408,472)"/>
<path d="M0 0 C1.65 0 3.3 0 5 0 C4.34 1.98 3.68 3.96 3 6 C1.68 5.67 0.36 5.34 -1 5 C-0.67 3.35 -0.34 1.7 0 0 Z " fill="#2676D4" transform="translate(347,192)"/>
<path d="M0 0 C-2.87078299 1.91385532 -5.33411656 2.96432952 -8.5625 4.125 C-9.53316406 4.47820312 -10.50382812 4.83140625 -11.50390625 5.1953125 C-14 6 -14 6 -16 6 C-16 5.34 -16 4.68 -16 4 C-5.62642369 -0.59225513 -5.62642369 -0.59225513 0 0 Z " fill="#3A7AB5" transform="translate(397,173)"/>
<path d="M0 0 C-1.423125 0.6496875 -1.423125 0.6496875 -2.875 1.3125 C-6.20041937 2.79302201 -6.20041937 2.79302201 -8 6 C-9.32 5.67 -10.64 5.34 -12 5 C-5.5 -1.96428571 -5.5 -1.96428571 0 0 Z " fill="#2B75CF" transform="translate(436,271)"/>
<path d="M0 0 C0.33 0.66 0.66 1.32 1 2 C0.29296875 4.09375 0.29296875 4.09375 -0.8125 6.5 C-1.16957031 7.2940625 -1.52664063 8.088125 -1.89453125 8.90625 C-3 11 -3 11 -5 13 C-5.33 12.34 -5.66 11.68 -6 11 C-4.78515625 8.3984375 -4.78515625 8.3984375 -3.0625 5.375 C-2.21365234 3.87066406 -2.21365234 3.87066406 -1.34765625 2.3359375 C-0.90292969 1.56507813 -0.45820313 0.79421875 0 0 Z " fill="#C1E9FA" transform="translate(327,224)"/>
<path d="M0 0 C1.32 0 2.64 0 4 0 C3.67 2.31 3.34 4.62 3 7 C1.68 7 0.36 7 -1 7 C-0.67 4.69 -0.34 2.38 0 0 Z " fill="#F5F8F0" transform="translate(356,193)"/>
<path d="M0 0 C0.66 0.33 1.32 0.66 2 1 C-1.63 3.31 -5.26 5.62 -9 8 C-9 7.01 -9 6.02 -9 5 C-7.54735962 4.1361871 -6.0876837 3.28419546 -4.625 2.4375 C-3.40683594 1.72400391 -3.40683594 1.72400391 -2.1640625 0.99609375 C-1.44992187 0.66738281 -0.73578125 0.33867187 0 0 Z " fill="#407BB2" transform="translate(365,185)"/>
<path d="M0 0 C2.125 0.375 2.125 0.375 4 1 C3.2884375 1.61875 3.2884375 1.61875 2.5625 2.25 C0.83733482 4.182185 0.43415125 5.48192275 0 8 C-0.66 8 -1.32 8 -2 8 C-2.125 5.125 -2.125 5.125 -2 2 C-1.34 1.34 -0.68 0.68 0 0 Z " fill="#1E79D7" transform="translate(218,375)"/>
<path d="M0 0 C-0.33 0.99 -0.66 1.98 -1 3 C-3.28515625 3.94921875 -3.28515625 3.94921875 -6.0625 4.6875 C-7.44115234 5.06455078 -7.44115234 5.06455078 -8.84765625 5.44921875 C-9.55792969 5.63097656 -10.26820313 5.81273437 -11 6 C-8.05970059 2.8666063 -4.47443154 0 0 0 Z " fill="#4680BB" transform="translate(437,267)"/>
<path d="M0 0 C0.928125 0.0825 1.85625 0.165 2.8125 0.25 C0.87995228 2.2745738 -0.81908688 3.67105792 -3.1875 5.25 C-4.1775 4.92 -5.1675 4.59 -6.1875 4.25 C-4.36434338 1.00883268 -3.82500054 0.30000004 0 0 Z " fill="#2878D3" transform="translate(365.1875,182.75)"/>
<path d="M0 0 C2.97 0 5.94 0 9 0 C5.55549263 2.29633824 3.06187717 2.54016485 -1 3 C-0.67 2.01 -0.34 1.02 0 0 Z " fill="#F9F9EF" transform="translate(383,181)"/>
<path d="M0 0 C-1.33333333 0.66666667 -2.66666667 1.33333333 -4 2 C-4.680625 2.37125 -5.36125 2.7425 -6.0625 3.125 C-8 4 -8 4 -11 4 C-10.67 3.01 -10.34 2.02 -10 1 C-6.76421296 -0.31828361 -3.44785988 -0.07836045 0 0 Z " fill="#3276B1" transform="translate(448,265)"/>
<path d="M0 0 C0 0.66 0 1.32 0 2 C-0.99 2.66 -1.98 3.32 -3 4 C-3.33 4.99 -3.66 5.98 -4 7 C-4.66 7 -5.32 7 -6 7 C-5.625 4.0625 -5.625 4.0625 -5 1 C-3 0 -3 0 0 0 Z " fill="#2274DF" transform="translate(336,208)"/>
<path d="M0 0 C0.93423645 3.01031744 1.04449911 3.86650268 0 7 C-2.0625 8.1875 -2.0625 8.1875 -4 9 C-3.625 6.5625 -3.625 6.5625 -3 4 C-2.34 3.67 -1.68 3.34 -1 3 C-0.67 2.01 -0.34 1.02 0 0 Z " fill="#2679DC" transform="translate(421,281)"/>
<path d="M0 0 C0.33 0.99 0.66 1.98 1 3 C-0.8125 5.6875 -0.8125 5.6875 -3 8 C-3.66 8 -4.32 8 -5 8 C-3.62845496 5.04590299 -2.01136276 2.55991624 0 0 Z " fill="#C5E9F9" transform="translate(337,210)"/>
</svg>
