<?xml version="1.0" encoding="UTF-8"?>
<svg version="1.1" xmlns="http://www.w3.org/2000/svg" width="500" height="500">
<path d="M0 0 C165 0 330 0 500 0 C500 165 500 330 500 500 C335 500 170 500 0 500 C0 335 0 170 0 0 Z " fill="#0172B0" transform="translate(0,0)"/>
<path d="M0 0 C1.10214844 -0.00322266 2.20429688 -0.00644531 3.33984375 -0.00976562 C19.27095736 0.09417402 33.29092909 4.33202997 45.875 14.3125 C46.56078125 14.82296875 47.2465625 15.3334375 47.953125 15.859375 C63.32356911 28.08311402 70.86856372 48.71498747 73.16414547 67.70435047 C73.84009567 74.70861345 74.01168565 81.63489207 73.98852539 88.66870117 C73.98867142 89.8504895 73.98881744 91.03227783 73.9889679 92.24987793 C73.98827662 96.11842751 73.98052128 99.98692768 73.97265625 103.85546875 C73.97023 106.55259677 73.96931744 109.24972475 73.96836853 111.94685364 C73.96527495 118.29657861 73.95708846 124.64628612 73.94701904 130.99600345 C73.9346929 138.94329581 73.92925966 146.89059107 73.92382812 154.83789062 C73.91412166 168.99610731 73.89408401 183.15428596 73.875 197.3125 C52.425 197.3125 30.975 197.3125 8.875 197.3125 C8.83761719 189.00578125 8.80023438 180.6990625 8.76171875 172.140625 C8.72757004 166.19152435 8.69157431 160.2424572 8.65292263 154.29338646 C8.60316623 146.59746436 8.55769008 138.90159722 8.52856445 131.20556641 C8.50300405 124.45569487 8.46201471 117.70605434 8.41181374 110.95632172 C8.39519017 108.38730385 8.38364793 105.81824768 8.37738609 103.24918365 C8.36769611 99.63756836 8.33957731 96.0265145 8.30737305 92.41503906 C8.30880814 91.36414597 8.31024323 90.31325287 8.3117218 89.23051453 C8.16665631 77.64956914 6.05597005 66.90557115 -2.125 58.3125 C-6.96580333 54.55168602 -11.89096153 51.56695055 -18.125 51.3125 C-18.92421875 51.25191406 -19.7234375 51.19132812 -20.546875 51.12890625 C-29.92635346 50.69172717 -37.6517186 52.90872946 -44.9375 58.9375 C-52.94929412 66.66213304 -57.07379671 75.5711277 -57.4034729 86.67834473 C-57.42681135 88.74185527 -57.43962591 90.80550243 -57.44384766 92.86914062 C-57.45389328 94.00172302 -57.4639389 95.13430542 -57.47428894 96.3012085 C-57.50504032 100.02371744 -57.52213392 103.74615471 -57.5390625 107.46875 C-57.55778059 110.05807102 -57.57735448 112.64738597 -57.5977478 115.23669434 C-57.64377531 121.34211469 -57.6812077 127.44753164 -57.71442068 133.55303335 C-57.75650496 141.19166879 -57.81183443 148.83020116 -57.8671875 156.46875 C-57.96578764 170.08327655 -58.04446489 183.69782801 -58.125 197.3125 C-79.245 197.3125 -100.365 197.3125 -122.125 197.3125 C-122.125 133.6225 -122.125 69.9325 -122.125 4.3125 C-101.005 4.3125 -79.885 4.3125 -58.125 4.3125 C-57.63 16.6875 -57.63 16.6875 -57.125 29.3125 C-56.01125 27.848125 -54.8975 26.38375 -53.75 24.875 C-39.61787015 7.38278334 -22.37500481 -0.32943176 0 0 Z " fill="#FDFEFE" transform="translate(324.125,195.6875)"/>
<path d="M0 0 C21.45 0 42.9 0 65 0 C65 63.69 65 127.38 65 193 C43.55 193 22.1 193 0 193 C0 129.31 0 65.62 0 0 Z " fill="#FEFEFE" transform="translate(102,200)"/>
<path d="M0 0 C6.4147376 5.20824133 10.43577347 11.44780685 12.66015625 19.390625 C13.64839856 31.10420302 12.11827777 40.12811925 4.66015625 49.390625 C-1.4892634 56.02552515 -9.30695555 59.7782258 -18.33984375 60.390625 C-19.21253906 60.45378906 -20.08523437 60.51695312 -20.984375 60.58203125 C-31.43316212 61.00655602 -40.73178506 59.0841481 -48.83984375 52.203125 C-56.72151311 44.42398142 -59.43841687 37.084674 -59.65234375 26.140625 C-59.68047736 19.70818849 -58.67389514 14.90463306 -55.33984375 9.390625 C-54.80359375 8.359375 -54.26734375 7.328125 -53.71484375 6.265625 C-40.67898755 -9.51462198 -16.40198143 -11.28149641 0 0 Z " fill="#FCFEFD" transform="translate(158.33984375,113.609375)"/>
<path d="M0 0 C21.45 0 42.9 0 65 0 C65 63.69 65 127.38 65 193 C43.55 193 22.1 193 0 193 C0 129.31 0 65.62 0 0 Z M2 1 C2 63.37 2 125.74 2 190 C20.18912984 199.09456492 42.66393461 191 63 191 C63 128.63 63 66.26 63 2 C42.94062866 -1.34322856 22.33606539 1 2 1 Z " fill="#BEE8F5" transform="translate(102,200)"/>
<path d="M0 0 C1.29789459 -0.0030011 2.59578918 -0.0060022 3.93301392 -0.00909424 C5.35036618 0.00290969 6.76771446 0.01539259 8.18505859 0.02832031 C9.63568934 0.03137787 11.08632301 0.03325402 12.53695679 0.03399658 C15.57504533 0.03859794 18.61286856 0.05301949 21.65087891 0.07519531 C25.55294389 0.10352801 29.45480031 0.11441194 33.35695839 0.11887741 C36.35086163 0.12302519 39.34472237 0.13283644 42.33860397 0.1447525 C43.77797478 0.15046464 45.21734971 0.15522021 46.65672684 0.15901947 C48.66310311 0.1658619 50.66944881 0.18038832 52.67578125 0.1953125 C54.39095444 0.2055545 54.39095444 0.2055545 56.14077759 0.21600342 C58.70849609 0.35644531 58.70849609 0.35644531 59.70849609 1.35644531 C59.80623514 3.87318893 59.83845154 6.36246358 59.82875061 8.87965393 C59.82960504 9.67680107 59.83045946 10.4739482 59.83133978 11.29525131 C59.83299701 13.98697696 59.82746925 16.67864135 59.82202148 19.37036133 C59.82173964 21.29166665 59.82189729 23.21297208 59.82246399 25.13427734 C59.82275207 30.36753165 59.81685369 35.60076326 59.80989003 40.83401227 C59.8036582 46.29664321 59.80305283 51.75927462 59.80186462 57.22190857 C59.7987508 67.57396756 59.79053674 77.92601604 59.78051513 88.27807039 C59.76935557 100.06021383 59.76384394 111.84235776 59.7588197 123.62450516 C59.74835416 147.86849105 59.73075375 172.11246759 59.70849609 196.35644531 C56.42185826 197.45199126 53.98515585 197.48997617 50.5246582 197.50170898 C48.61268898 197.51127876 48.61268898 197.51127876 46.66209412 197.52104187 C45.27000974 197.5225702 43.87792486 197.52368434 42.48583984 197.52441406 C41.06002265 197.52762692 39.63420578 197.53099102 38.20838928 197.53450012 C35.22168208 197.54048594 32.2350038 197.54234048 29.24829102 197.54174805 C25.4157892 197.54164622 21.58347179 197.55532199 17.75101376 197.57252026 C14.80769493 197.58361928 11.86442107 197.58566794 8.92108345 197.58513832 C7.50764897 197.5863207 6.09421341 197.59075688 4.68079948 197.59847069 C2.7082036 197.60823186 0.73555371 197.60413836 -1.23706055 197.59936523 C-2.92225548 197.60150276 -2.92225548 197.60150276 -4.64149475 197.60368347 C-7.29150391 197.35644531 -7.29150391 197.35644531 -9.29150391 195.35644531 C-9.49114567 192.81753447 -9.56518821 190.38733658 -9.55220032 187.84706116 C-9.55602586 187.06342695 -9.55985141 186.27979275 -9.56379288 185.47241205 C-9.57415678 182.83220818 -9.57012437 180.19222042 -9.56616211 177.55200195 C-9.57050672 175.66497088 -9.57568902 173.77794158 -9.58164978 171.89091492 C-9.59507815 166.75461232 -9.59561419 161.61838313 -9.59308648 156.48206639 C-9.59201935 152.20002217 -9.5968935 147.91799296 -9.6016919 143.63595194 C-9.61280038 133.53699372 -9.61321698 123.4380727 -9.60717773 113.33911133 C-9.60113573 102.90764096 -9.61345167 92.4763054 -9.6347478 82.04485804 C-9.65233919 73.10046242 -9.65836906 64.15610981 -9.65511006 55.21169752 C-9.65329311 49.86446848 -9.65597427 44.51733559 -9.6698246 39.17012215 C-9.68235833 34.14276295 -9.68050127 29.11561453 -9.66741371 24.08825874 C-9.66503862 22.23991323 -9.66781577 20.39155309 -9.67603683 18.54322433 C-9.68642756 16.02617262 -9.6784661 13.50983827 -9.66572571 10.99281311 C-9.67678714 9.88737415 -9.67678714 9.88737415 -9.68807203 8.75960308 C-9.65688077 5.844346 -9.62686623 3.84299606 -7.94447041 1.40214062 C-5.34008013 -0.24544189 -3.05149168 -0.00971548 0 0 Z M-7.29150391 2.35644531 C-7.29150391 66.04644531 -7.29150391 129.73644531 -7.29150391 195.35644531 C14.15849609 195.35644531 35.60849609 195.35644531 57.70849609 195.35644531 C57.70849609 131.66644531 57.70849609 67.97644531 57.70849609 2.35644531 C36.25849609 2.35644531 14.80849609 2.35644531 -7.29150391 2.35644531 Z " fill="#146C9A" transform="translate(109.29150390625,197.6435546875)"/>
<path d="M0 0 C0.66 0 1.32 0 2 0 C2.65844127 1.49450855 3.301021 2.99600692 3.9375 4.5 C4.47697266 5.75296875 4.47697266 5.75296875 5.02734375 7.03125 C7.39161223 14.24749115 7.16361847 21.85738844 7.20532227 29.37304688 C7.21522186 30.48612213 7.22512146 31.59919739 7.23532104 32.7460022 C7.26676018 36.4035636 7.29162361 40.06113796 7.31640625 43.71875 C7.33699098 46.2632276 7.35798784 48.8077019 7.37937927 51.35217285 C7.42882328 57.35135002 7.47412882 63.35054447 7.51740164 69.34976816 C7.5717977 76.85560889 7.63257312 84.36139627 7.69335938 91.8671875 C7.80167066 105.24475054 7.90038832 118.62236308 8 132 C27.8 132 47.6 132 68 132 C68 89.1 68 46.2 68 2 C68.33 2 68.66 2 69 2 C69.85037072 9.80785188 70.13937477 17.50570216 70.11352539 25.35620117 C70.11367142 26.5379895 70.11381744 27.71977783 70.1139679 28.93737793 C70.11327662 32.80592751 70.10552128 36.67442768 70.09765625 40.54296875 C70.09523 43.24009677 70.09431744 45.93722475 70.09336853 48.63435364 C70.09027495 54.98407861 70.08208846 61.33378612 70.07201904 67.68350345 C70.0596929 75.63079581 70.05425966 83.57809107 70.04882812 91.52539062 C70.03912166 105.68360731 70.01908401 119.84178596 70 134 C48.55 134 27.1 134 5 134 C4.96261719 125.69328125 4.92523438 117.3865625 4.88671875 108.828125 C4.85257004 102.87902435 4.81657431 96.9299572 4.77792263 90.98088646 C4.72816623 83.28496436 4.68269008 75.58909722 4.65356445 67.89306641 C4.62800405 61.14319487 4.58701471 54.39355434 4.53681374 47.64382172 C4.52019017 45.07480385 4.50864793 42.50574768 4.50238609 39.93668365 C4.49269611 36.32506836 4.46457731 32.7140145 4.43237305 29.10253906 C4.43380814 28.05164597 4.43524323 27.00075287 4.4367218 25.91801453 C4.32882995 17.30473498 3.16494746 8.66543681 -1 1 C-0.67 0.67 -0.34 0.34 0 0 Z " fill="#C1E8F4" transform="translate(328,259)"/>
<path d="M0 0 C0.94875 0.04125 1.8975 0.0825 2.875 0.125 C2.875 0.785 2.875 1.445 2.875 2.125 C3.60971527 2.1080307 4.34443054 2.0910614 5.10140991 2.07357788 C12.01718097 1.91564938 18.93309897 1.76744338 25.84930992 1.63022423 C29.40521705 1.55932936 32.96096116 1.48464438 36.51660156 1.40136719 C40.60203331 1.30584643 44.6876382 1.22668659 48.7734375 1.1484375 C50.05366791 1.11624115 51.33389832 1.0840448 52.65292358 1.0508728 C53.83399689 1.03070099 55.01507019 1.01052917 56.23193359 0.98974609 C57.27562103 0.96753998 58.31930847 0.94533386 59.3946228 0.92245483 C61.875 1.125 61.875 1.125 63.875 3.125 C64.02017744 6.0343558 64.06130796 8.844946 64 11.75 C63.99097656 12.55179688 63.98195313 13.35359375 63.97265625 14.1796875 C63.94906223 16.16158523 63.91319065 18.14332981 63.875 20.125 C64.535 20.125 65.195 20.125 65.875 20.125 C66.1225 19.50625 66.37 18.8875 66.625 18.25 C68.10270762 15.73789704 69.31455177 15.36392656 71.875 14.125 C72.205 13.135 72.535 12.145 72.875 11.125 C73.865 10.795 74.855 10.465 75.875 10.125 C76.205 9.465 76.535 8.805 76.875 8.125 C77.535 8.125 78.195 8.125 78.875 8.125 C78.875 7.465 78.875 6.805 78.875 6.125 C80.54265872 5.41028912 82.21101479 4.69716244 83.8828125 3.9921875 C85.71681153 3.19385851 87.51696694 2.3189435 89.3125 1.4375 C93.5368096 -0.11882459 96.41555614 -0.10970757 100.875 0.125 C97.76485757 1.75727333 94.59278024 3.00078542 91.3125 4.25 C81.27992748 8.43634109 73.859505 14.59739413 66.84765625 22.828125 C64.96278837 25.02278304 62.9206357 27.0793643 60.875 29.125 C60.875 20.545 60.875 11.965 60.875 3.125 C39.755 3.125 18.635 3.125 -3.125 3.125 C-3.125 66.815 -3.125 130.505 -3.125 196.125 C-3.785 195.795 -4.445 195.465 -5.125 195.125 C-5.17166317 169.9954756 -5.2069609 144.86595766 -5.22862434 119.7363987 C-5.23894916 108.06904276 -5.25303244 96.40171369 -5.27587891 84.734375 C-5.29577597 74.56842894 -5.30870766 64.40250233 -5.31317699 54.23653734 C-5.31579063 48.85075814 -5.32195869 43.46503462 -5.33646011 38.07927322 C-5.3499859 33.01505929 -5.35423283 27.95092423 -5.35121536 22.88669395 C-5.35176778 21.02341344 -5.3557749 19.16013041 -5.36341095 17.29686546 C-5.37329403 14.76199031 -5.37099339 12.22741687 -5.36550903 9.6925354 C-5.37133472 8.94740806 -5.3771604 8.20228072 -5.38316262 7.43457377 C-5.3406438 0.21362575 -5.3406438 0.21362575 0 0 Z " fill="#156D9B" transform="translate(205.125,196.875)"/>
<path d="M0 0 C4.52723595 1.34593501 5.72648517 2.96967825 8 7 C8.99 7.33 9.98 7.66 11 8 C11.12375 9.134375 11.2475 10.26875 11.375 11.4375 C11.684375 13.2009375 11.684375 13.2009375 12 15 C12.99 15.495 12.99 15.495 14 16 C14 17.98 14 19.96 14 22 C14.66 22 15.32 22 16 22 C18.38763291 27.01067021 19.64349747 31.52476192 20.16162109 37.0715332 C20.24111181 37.8810333 20.32060253 38.69053339 20.40250206 39.52456379 C21.45424829 51.5750052 21.35740787 63.68657271 21.40471697 75.77340865 C21.4205918 79.31011092 21.44730096 82.84673307 21.4727478 86.38337708 C21.51911258 93.04799863 21.55605804 99.71263599 21.58942068 106.37733394 C21.62794543 113.97864745 21.67727349 121.57987965 21.72740483 129.18112409 C21.83009365 144.78735688 21.91955423 160.39363571 22 176 C17.08190985 177.35071142 12.8401142 178.24727751 7.70751953 178.15112305 C6.5333548 178.13417892 5.35919006 178.1172348 4.14944458 178.09977722 C2.90645599 178.07071793 1.66346741 178.04165863 0.3828125 178.01171875 C-0.91069122 177.98906448 -2.20419495 177.96641022 -3.53689575 177.94306946 C-6.25849687 177.89482386 -8.97982621 177.83951641 -11.70117188 177.77856445 C-15.19140077 177.70058766 -18.68171248 177.6363982 -22.17230034 177.57690716 C-25.50821132 177.51906296 -28.84392974 177.45283599 -32.1796875 177.38671875 C-33.43482147 177.36373215 -34.68995544 177.34074554 -35.98312378 177.31706238 C-37.13837555 177.29066177 -38.29362732 177.26426117 -39.48388672 177.23706055 C-40.50344452 177.21548386 -41.52300232 177.19390717 -42.57345581 177.17167664 C-45 177 -45 177 -47 176 C-46.99907821 175.43199991 -46.99815641 174.86399982 -46.99720669 174.27878761 C-46.97506832 160.42224926 -46.95861197 146.56571404 -46.94818783 132.70916176 C-46.94304383 126.00808655 -46.93591136 119.30702493 -46.92456055 112.60595703 C-46.91366857 106.13502248 -46.9077098 99.66410021 -46.90512276 93.1931572 C-46.90327987 90.72851747 -46.89968122 88.2638784 -46.89426994 85.79924393 C-46.88697575 82.33831598 -46.88601259 78.87743834 -46.88647461 75.41650391 C-46.88287933 74.40517395 -46.87928406 73.39384399 -46.87557983 72.35186768 C-46.78385988 59.69752213 -46.78385988 59.69752213 -51 48 C-51 47.01 -51 46.02 -51 45 C-51.99 45 -52.98 45 -54 45 C-54 42.69 -54 40.38 -54 38 C-45.61276549 47.28586678 -44.84632432 57.44462319 -44.88647461 69.42138672 C-44.88632858 70.56343063 -44.88618256 71.70547455 -44.8860321 72.88212585 C-44.88672744 76.64799922 -44.89450216 80.4138228 -44.90234375 84.1796875 C-44.90420927 86.79428073 -44.90563254 89.40887431 -44.90663147 92.02346802 C-44.90973443 98.19627984 -44.91793382 104.36907387 -44.92798096 110.54187787 C-44.94027318 118.26229016 -44.94573283 125.98270536 -44.95117188 133.703125 C-44.96089986 147.46876385 -44.98093402 161.23436389 -45 175 C-23.55 175 -2.1 175 20 175 C19.87309295 152.84520151 19.87309295 152.84520151 19.72766876 130.69054604 C19.67245476 122.76165641 19.61998103 114.8327812 19.578125 106.90380859 C19.54495476 100.62194763 19.50499022 94.34017091 19.45720994 88.05840349 C19.43219053 84.73905232 19.41135495 81.41980986 19.39665604 78.10038757 C19.26601787 49.59832835 17.49131298 23.6056676 0 0 Z " fill="#156D98" transform="translate(378,218)"/>
<path d="M0 0 C0.33 0 0.66 0 1 0 C1 63.03 1 126.06 1 191 C21.13 190.67 41.26 190.34 62 190 C62.04898438 181.56308594 62.09796875 173.12617188 62.1484375 164.43359375 C62.18832461 158.40797526 62.22944072 152.38237497 62.27233124 146.35677814 C62.32772066 138.55224748 62.38021546 130.74773257 62.421875 122.94311523 C62.45839896 116.10253676 62.50512412 109.26208837 62.55806351 102.42161751 C62.57659238 99.8121769 62.59170589 97.20270973 62.60334396 94.59322929 C62.62023181 90.93759343 62.64927396 87.28224062 62.68115234 83.62670898 C62.68331253 82.54848877 62.68547272 81.47026855 62.68769836 80.359375 C62.76696833 73.24084671 63.46066194 67.32024654 67 61 C67.66 61.33 68.32 61.66 69 62 C70.52299523 59.06279492 71.80100302 56.0831351 73 53 C72.34 52.67 71.68 52.34 71 52 C70.505 52.99 70.505 52.99 70 54 C70 52.35 70 50.7 70 49 C73 48 73 48 75.8125 49.1875 C76.864375 49.455625 77.91625 49.72375 79 50 C81.0133653 48.68693567 83.01231606 47.35162508 85 46 C87.76521043 45.64933926 90.19866314 45.80680435 93 46 C90.92333772 47.06214607 88.85174586 48.06278109 86.703125 48.97265625 C77.47565543 53.07212123 71.29187314 59.92103759 67 69 C64.95876386 75.59106815 64.69521172 81.68425851 64.68115234 88.55664062 C64.67110672 89.68922302 64.6610611 90.82180542 64.65071106 91.9887085 C64.61995968 95.71121744 64.60286608 99.43365471 64.5859375 103.15625 C64.56721941 105.74557102 64.54764552 108.33488597 64.5272522 110.92419434 C64.48122469 117.02961469 64.4437923 123.13503164 64.41057932 129.24053335 C64.36849504 136.87916879 64.31316557 144.51770116 64.2578125 152.15625 C64.15921236 165.77077655 64.08053511 179.38532801 64 193 C42.88 193 21.76 193 0 193 C0 129.31 0 65.62 0 0 Z " fill="#BDE6F3" transform="translate(202,200)"/>
<path d="M0 0 C1.02931641 -0.00128906 2.05863281 -0.00257812 3.11914062 -0.00390625 C8.96573738 0.07923863 14.18238517 0.53430491 19.75 2.375 C21 4.4375 21 4.4375 21.75 6.375 C23.64179203 7.0564823 23.64179203 7.0564823 25.75 7.375 C27.8125 8 27.8125 8 29.75 9.375 C30.97923367 11.7310312 31.86137219 13.88859312 32.75 16.375 C33.28173828 17.62796875 33.28173828 17.62796875 33.82421875 18.90625 C36.25614053 25.11831686 37.11719046 30.70278688 37.125 37.3125 C37.12653076 38.03421387 37.12806152 38.75592773 37.12963867 39.49951172 C37.04600283 43.50001494 36.73732813 46.8604969 34.75 50.375 C33.265 50.87 33.265 50.87 31.75 51.375 C30.90937223 53.38076437 30.90937223 53.38076437 30.375 55.75 C29.35352167 59.14952312 29.040397 60.14126583 26.1875 62.4375 C23.75 63.375 23.75 63.375 21.75 63.375 C21.255 65.355 21.255 65.355 20.75 67.375 C12.93425303 69.22175878 5.37607336 69.56778734 -2.625 69.5625 C-3.57584473 69.56314453 -4.52668945 69.56378906 -5.50634766 69.56445312 C-10.19369561 69.52805939 -14.64124628 69.33836825 -19.25 68.375 C-19.25 67.715 -19.25 67.055 -19.25 66.375 C-20.9 66.375 -22.55 66.375 -24.25 66.375 C-24.58 65.385 -24.91 64.395 -25.25 63.375 C-26.24 62.92125 -27.23 62.4675 -28.25 62 C-31.25 60.375 -31.25 60.375 -32.125 57.6875 C-32.16625 56.924375 -32.2075 56.16125 -32.25 55.375 C-32.91 55.375 -33.57 55.375 -34.25 55.375 C-38.86933718 50.19574316 -39.03291675 45.1234576 -39.25 38.375 C-39.28996094 37.60800781 -39.32992187 36.84101563 -39.37109375 36.05078125 C-39.58524088 29.03431355 -38.46878722 22.03136167 -36.25 15.375 C-35.26 15.375 -34.27 15.375 -33.25 15.375 C-33.25 14.385 -33.25 13.395 -33.25 12.375 C-31.93 12.705 -30.61 13.035 -29.25 13.375 C-30.48697917 15.00260417 -31.72395833 16.63020833 -32.9609375 18.2578125 C-37.59728903 25.87266866 -37.36646126 35.60525859 -35.71484375 44.140625 C-33.18820738 52.25899759 -28.35985583 58.70668449 -21.25 63.375 C-9.37322416 68.66909224 3.17308121 69.02546133 15.28125 64.41015625 C23.54758651 60.71271356 29.41670591 54.89341824 32.75 46.375 C34.94119549 35.16860018 34.5446288 25.41607433 28.75 15.375 C23.64248641 8.14488335 15.92427986 5.09975995 7.75 2.375 C-5.52134612 1.74021926 -17.61001599 2.50834666 -28.25 11.375 C-27.92 9.725 -27.59 8.075 -27.25 6.375 C-26.26 6.375 -25.27 6.375 -24.25 6.375 C-24.25 5.715 -24.25 5.055 -24.25 4.375 C-16.2495071 0.44493331 -8.78166495 -0.0106768 0 0 Z " fill="#1B729B" transform="translate(136.25,105.625)"/>
<path d="M0 0 C0.33 0 0.66 0 1 0 C1.19665429 3.93709911 1.38075477 7.87468672 1.5625 11.8125 C1.64661133 13.49182617 1.64661133 13.49182617 1.73242188 15.20507812 C1.78076172 16.27822266 1.82910156 17.35136719 1.87890625 18.45703125 C1.94960327 19.9416687 1.94960327 19.9416687 2.02172852 21.45629883 C2 24 2 24 1 27 C-19.46 27 -39.92 27 -61 27 C-61 27.66 -61 28.32 -61 29 C-61.66 29 -62.32 29 -63 29 C-63.33 29.99 -63.66 30.98 -64 32 C-64.33 32 -64.66 32 -65 32 C-65 29.69 -65 27.38 -65 25 C-43.55 25 -22.1 25 0 25 C0 16.75 0 8.5 0 0 Z " fill="#146C99" transform="translate(267,368)"/>
<path d="M0 0 C0.66 0.33 1.32 0.66 2 1 C0.98506163 3.36818953 0.05408817 4.94777694 -1.8125 6.75 C-7.5741591 12.67627793 -9.85824662 18.01038174 -10.19921875 26.33984375 C-9.97024732 30.54663266 -9.32857387 34.46573341 -8.375 38.5625 C-8.22297119 39.24119141 -8.07094238 39.91988281 -7.91430664 40.61914062 C-6.67328543 45.30365799 -4.92551362 47.28137963 -1 50 C0.8125 52.75 0.8125 52.75 2 55 C-4.66261115 52.12995212 -9.35911077 45.60222307 -12 39 C-14.17247287 30.23307049 -14.46728306 19.94309505 -10.13671875 11.859375 C-9.76160156 11.24578125 -9.38648437 10.6321875 -9 10 C-8.360625 8.906875 -7.72125 7.81375 -7.0625 6.6875 C-4.95484463 3.94116118 -2.79820438 2.02092539 0 0 Z " fill="#E1F9FC" transform="translate(112,113)"/>
<path d="M0 0 C-3.11014243 1.63227333 -6.28221976 2.87578542 -9.5625 4.125 C-19.59507252 8.31134109 -27.015495 14.47239413 -34.02734375 22.703125 C-35.91221163 24.89778304 -37.9543643 26.9543643 -40 29 C-40 20.42 -40 11.84 -40 3 C-39.67 3 -39.34 3 -39 3 C-38.67 9.27 -38.34 15.54 -38 22 C-34.94874415 20.33990719 -34.94874415 20.33990719 -34.0625 18 C-32.74429236 15.51866798 -31.47027678 15.19529522 -29 14 C-28.67 13.01 -28.34 12.02 -28 11 C-27.01 10.67 -26.02 10.34 -25 10 C-24.67 9.34 -24.34 8.68 -24 8 C-23.34 8 -22.68 8 -22 8 C-22 7.34 -22 6.68 -22 6 C-20.33234128 5.28528912 -18.66398521 4.57216244 -16.9921875 3.8671875 C-15.15818847 3.06885851 -13.35803306 2.1939435 -11.5625 1.3125 C-7.3381904 -0.24382459 -4.45944386 -0.23470757 0 0 Z " fill="#267498" transform="translate(306,197)"/>
<path d="M0 0 C4.52723595 1.34593501 5.72648517 2.96967825 8 7 C8.99 7.33 9.98 7.66 11 8 C11.12375 9.134375 11.2475 10.26875 11.375 11.4375 C11.58125 12.613125 11.7875 13.78875 12 15 C12.66 15.33 13.32 15.66 14 16 C14 17.98 14 19.96 14 22 C14.66 22 15.32 22 16 22 C19.04794773 28.01192996 19.77083973 33.57392703 20.3125 40.25 C20.46041992 41.73886719 20.46041992 41.73886719 20.61132812 43.2578125 C21.25460467 50.61809299 21.25460467 50.61809299 19 54 C18.90203125 53.01902344 18.8040625 52.03804688 18.703125 51.02734375 C16.65840906 31.96239325 11.46971397 15.47912703 0 0 Z " fill="#21749C" transform="translate(378,218)"/>
<path d="M0 0 C-2.07666228 1.06214607 -4.14825414 2.06278109 -6.296875 2.97265625 C-17.39305286 7.90232762 -22.75675405 16.49071137 -28 27 C-28.05422947 25.5629191 -28.09289723 24.12524538 -28.125 22.6875 C-28.14820313 21.88699219 -28.17140625 21.08648437 -28.1953125 20.26171875 C-28 18 -28 18 -26 15 C-25.34 15.33 -24.68 15.66 -24 16 C-22.47700477 13.06279492 -21.19899698 10.0831351 -20 7 C-20.66 6.67 -21.32 6.34 -22 6 C-22.33 6.66 -22.66 7.32 -23 8 C-23 6.35 -23 4.7 -23 3 C-20 2 -20 2 -17.1875 3.1875 C-15.6096875 3.5896875 -15.6096875 3.5896875 -14 4 C-8.54131572 0.43998851 -6.4460888 -0.44455785 0 0 Z " fill="#EAF9FB" transform="translate(295,246)"/>
<path d="M0 0 C-3 1 -3 1 -5.1796875 0.08203125 C-8.83770535 -1.32139111 -12.2631894 -1.33952367 -16.125 -1.3125 C-16.87547607 -1.31193604 -17.62595215 -1.31137207 -18.39916992 -1.31079102 C-23.84465851 -1.22144413 -28.64015748 -0.38142004 -33.80078125 1.44140625 C-36.26702285 2.06782285 -37.62225273 1.82160146 -40 1 C-38.79731319 0.34371151 -37.58747446 -0.29947505 -36.375 -0.9375 C-35.70210938 -1.29714844 -35.02921875 -1.65679687 -34.3359375 -2.02734375 C-23.8959139 -6.37444388 -9.79903495 -5.27640343 0 0 Z " fill="#D0F3FA" transform="translate(154,111)"/>
<path d="M0 0 C5.6718352 -0.32537255 9.80909666 0.67063198 15.0625 2.75 C16.0844043 3.12898437 16.0844043 3.12898437 17.12695312 3.515625 C21.51781913 5.20279734 25.17871014 7.2577327 29 10 C25.87725512 11.37400775 24.79099641 10.92162365 21.5 9.6875 C15.88679245 6.98113208 15.88679245 6.98113208 14 6 C14 5.34 14 4.68 14 4 C12.02 4 10.04 4 8 4 C8 3.34 8 2.68 8 2 C5.36 2 2.72 2 0 2 C0 1.34 0 0.68 0 0 Z " fill="#D7F6FC" transform="translate(337,197)"/>
<path d="M0 0 C2.5 1.625 2.5 1.625 4 3 C3.34 3.33 2.68 3.66 2 4 C1.113125 3.525625 0.22625 3.05125 -0.6875 2.5625 C-7.25458399 -0.45780445 -16.47485916 -0.18646903 -23.21484375 2.08203125 C-26.08385573 3.02763828 -27.23498531 3.06346719 -30 2 C-19.74662732 -2.44246708 -10.69972195 -3.56657398 0 0 Z " fill="#3682A1" transform="translate(314,248)"/>
<path d="M0 0 C-1.18078125 0.06058594 -2.3615625 0.12117187 -3.578125 0.18359375 C-5.1354277 0.26802582 -6.69271879 0.35267249 -8.25 0.4375 C-9.02730469 0.47681641 -9.80460937 0.51613281 -10.60546875 0.55664062 C-11.73662109 0.61948242 -11.73662109 0.61948242 -12.890625 0.68359375 C-13.92751465 0.73858032 -13.92751465 0.73858032 -14.98535156 0.79467773 C-17.06740729 1.00686979 -18.97427868 1.48634969 -21 2 C-22.91561254 2.06688591 -24.83335592 2.08531719 -26.75 2.0625 C-27.73484375 2.05347656 -28.7196875 2.04445312 -29.734375 2.03515625 C-30.48203125 2.02355469 -31.2296875 2.01195312 -32 2 C-31.67 1.34 -31.34 0.68 -31 0 C-22.92802432 -2.22421228 -7.1487272 -4.76581813 0 0 Z " fill="#146E9C" transform="translate(332,195)"/>
<path d="M0 0 C-8.80135489 4.93734543 -19.99460974 5.44317944 -29.75 3 C-30.8225 2.67 -31.895 2.34 -33 2 C-31.1875 0.9375 -31.1875 0.9375 -29 0 C-28.01 0.33 -27.02 0.66 -26 1 C-23.19637366 1.12276572 -20.42849845 1.18513218 -17.625 1.1875 C-16.86960938 1.19974609 -16.11421875 1.21199219 -15.3359375 1.22460938 C-10.03393278 1.23851323 -4.84598005 -1.79480743 0 0 Z " fill="#C9EBF7" transform="translate(153,170)"/>
<path d="M0 0 C0.33 0 0.66 0 1 0 C1.33 6.27 1.66 12.54 2 19 C5.0109362 16.9927092 5.63016497 16.16115776 7 13 C7.66 13 8.32 13 9 13 C8.39237431 16.67951114 6.80451225 18.85991496 4.5 21.75 C3.8709375 22.54921875 3.241875 23.3484375 2.59375 24.171875 C2.0678125 24.77515625 1.541875 25.3784375 1 26 C0.67 26 0.34 26 0 26 C0 17.42 0 8.84 0 0 Z " fill="#3F82A3" transform="translate(266,200)"/>
<path d="M0 0 C1.32 0.33 2.64 0.66 4 1 C2.8553125 2.36125 2.8553125 2.36125 1.6875 3.75 C-2.93535528 10.18009049 -3.77162948 18.34543187 -5 26 C-5.33 26 -5.66 26 -6 26 C-6.25915764 18.09569203 -5.51278915 10.53836745 -3 3 C-2.01 3 -1.02 3 0 3 C0 2.01 0 1.02 0 0 Z " fill="#1B719A" transform="translate(103,118)"/>
<path d="M0 0 C0 0.33 0 0.66 0 1 C-0.83402344 1.04898438 -1.66804688 1.09796875 -2.52734375 1.1484375 C-9.22137501 1.59317268 -15.49749359 2.3468204 -22 4 C-22 4.66 -22 5.32 -22 6 C-24.64 6.33 -27.28 6.66 -30 7 C-22.36114527 -1.49932342 -10.5421617 -0.38412735 0 0 Z " fill="#0970A3" transform="translate(309,248)"/>
<path d="M0 0 C0.66 0 1.32 0 2 0 C6.44371561 8.43115686 6.44682233 15.69120137 6 25 C5.67 25 5.34 25 5 25 C4.81824219 23.85402344 4.63648438 22.70804687 4.44921875 21.52734375 C4.19577898 19.99731849 3.94184643 18.4673748 3.6875 16.9375 C3.56955078 16.18533203 3.45160156 15.43316406 3.33007812 14.65820312 C2.49325111 9.70161236 1.15466601 5.5447157 -1 1 C-0.67 0.67 -0.34 0.34 0 0 Z " fill="#D1F4F9" transform="translate(328,259)"/>
<path d="M0 0 C3.3 0 6.6 0 10 0 C10 7.59 10 15.18 10 23 C7.75040218 18.50080435 7.92077725 16.65560575 8.375 11.75 C8.48585938 10.48671875 8.59671875 9.2234375 8.7109375 7.921875 C8.85402344 6.47554687 8.85402344 6.47554687 9 5 C8.34 5 7.68 5 7 5 C7 3.68 7 2.36 7 1 C4.69 1 2.38 1 0 1 C0 0.67 0 0.34 0 0 Z " fill="#EAFCFE" transform="translate(256,201)"/>
<path d="M0 0 C0.33 0.66 0.66 1.32 1 2 C-8.57 1.67 -18.14 1.34 -28 1 C-28 0.67 -28 0.34 -28 0 C-6.84173632 -1.61229442 -6.84173632 -1.61229442 0 0 Z " fill="#408DB0" transform="translate(343,195)"/>
<path d="M0 0 C0.66 0.33 1.32 0.66 2 1 C-0.00844092 5.92980953 -3.64105074 9.09403383 -8 12 C-8.33 12.99 -8.66 13.98 -9 15 C-9.66 15 -10.32 15 -11 15 C-8.73612498 8.58568745 -5.52844328 3.99276459 0 0 Z " fill="#CBEFF8" transform="translate(112,113)"/>
<path d="M0 0 C3.69227317 4.08787387 6.45393891 8.6978641 8 14 C7.60546875 16.27734375 7.60546875 16.27734375 7 18 C6.32591692 16.73308493 5.66099503 15.46129251 5 14.1875 C4.443125 13.12595703 4.443125 13.12595703 3.875 12.04296875 C3 10 3 10 3 7 C2.01 7 1.02 7 0 7 C0 4.69 0 2.38 0 0 Z " fill="#29799F" transform="translate(324,256)"/>
<path d="M0 0 C6.19518473 0.41588046 11.26689311 1.60251894 17 4 C17 4.66 17 5.32 17 6 C14.64282126 6.82422508 13.42200179 7.15185353 11.03515625 6.29296875 C10.05869141 5.74576172 10.05869141 5.74576172 9.0625 5.1875 C6.09319833 3.58352209 3.16668417 2.18750656 0 1 C0 0.67 0 0.34 0 0 Z " fill="#367EA5" transform="translate(350,199)"/>
<path d="M0 0 C0.66 0.33 1.32 0.66 2 1 C1.27683594 2.12148438 1.27683594 2.12148438 0.5390625 3.265625 C-0.40839844 4.74289062 -0.40839844 4.74289062 -1.375 6.25 C-2.31472656 7.71179688 -2.31472656 7.71179688 -3.2734375 9.203125 C-4.65134852 11.43521615 -5.88312642 13.63087422 -7 16 C-7.05422947 14.5629191 -7.09289723 13.12524538 -7.125 11.6875 C-7.14820313 10.88699219 -7.17140625 10.08648437 -7.1953125 9.26171875 C-7 7 -7 7 -5 4 C-4.34 4.33 -3.68 4.66 -3 5 C-2.690625 4.360625 -2.38125 3.72125 -2.0625 3.0625 C-1 1 -1 1 0 0 Z " fill="#D7F3FA" transform="translate(274,257)"/>
<path d="M0 0 C0.66 0.33 1.32 0.66 2 1 C-0.03378022 3.78703215 -1.63865179 5.78491178 -4.625 7.5625 C-7.13183038 8.79118991 -7.13183038 8.79118991 -8.0625 11.125 C-9 13 -9 13 -11.125 13.75 C-12.053125 13.87375 -12.053125 13.87375 -13 14 C-10.38256198 8.10428565 -5.28256657 3.59214527 0 0 Z " fill="#C9EFF8" transform="translate(285,206)"/>
<path d="M0 0 C2.31043468 2.07939121 3.83512277 3.56032739 4.9375 6.5 C6.3020741 9.71076259 8.27552642 10.8735816 11 13 C12.8125 15.75 12.8125 15.75 14 18 C7.32140376 15.12306624 2.67305228 8.60401152 0 2 C0 1.34 0 0.68 0 0 Z " fill="#C7F0FA" transform="translate(100,150)"/>
<path d="M0 0 C5.21779088 1.42303388 8.62805264 4.9300958 12 9 C12.33 9.99 12.66 10.98 13 12 C12.34 12 11.68 12 11 12 C11 11.34 11 10.68 11 10 C10.01 9.67 9.02 9.34 8 9 C6.97702078 8.02351983 5.98095748 7.01868662 5 6 C4.113125 5.319375 3.22625 4.63875 2.3125 3.9375 C1.549375 3.298125 0.78625 2.65875 0 2 C0 1.34 0 0.68 0 0 Z " fill="#CFF1F9" transform="translate(154,112)"/>
<path d="M0 0 C2.05710856 3.08566284 2.78346093 5.36985312 3.6875 8.9375 C3.95949219 9.97777344 4.23148437 11.01804688 4.51171875 12.08984375 C4.97828785 14.8705956 4.93894816 16.38480882 4 19 C0.75428718 12.79081025 0.33055741 6.94170563 0 0 Z " fill="#C9EFF7" transform="translate(391,241)"/>
<path d="M0 0 C0 2.97 0 5.94 0 9 C-1.65 9 -3.3 9 -5 9 C-5 8.34 -5 7.68 -5 7 C-5.66 7 -6.32 7 -7 7 C-5.83127689 4.66255379 -2.83012032 0 0 0 Z " fill="#E4F6F8" transform="translate(272,220)"/>
<path d="M0 0 C5.65394631 -0.34615998 9.03006806 0.56574762 14 3 C14 3.66 14 4.32 14 5 C7.84765625 4.4140625 7.84765625 4.4140625 6 4 C5.67 3.34 5.34 2.68 5 2 C2.47266765 1.34444881 2.47266765 1.34444881 0 1 C0 0.67 0 0.34 0 0 Z " fill="#0F739F" transform="translate(338,194)"/>
<path d="M0 0 C-0.57492187 0.28617188 -1.14984375 0.57234375 -1.7421875 0.8671875 C-3.1891389 1.59316658 -4.63225808 2.3268655 -6.0703125 3.0703125 C-6.74835938 3.41835937 -7.42640625 3.76640625 -8.125 4.125 C-8.80820312 4.47820312 -9.49140625 4.83140625 -10.1953125 5.1953125 C-12 6 -12 6 -14 6 C-13 3 -13 3 -10.9375 1.3125 C-7.03411191 -0.43156702 -4.25018665 -0.21611119 0 0 Z " fill="#DAF9FE" transform="translate(295,246)"/>
<path d="M0 0 C0.33 0 0.66 0 1 0 C1.13277344 0.97582031 1.26554687 1.95164063 1.40234375 2.95703125 C1.57894531 4.22933594 1.75554687 5.50164062 1.9375 6.8125 C2.11152344 8.07707031 2.28554687 9.34164062 2.46484375 10.64453125 C2.90392455 13.98321703 2.90392455 13.98321703 4 17 C3.34 17.33 2.68 17.66 2 18 C-0.45391569 14.31912647 -0.22802759 11.55644412 -0.125 7.3125 C-0.11597656 6.61060547 -0.10695313 5.90871094 -0.09765625 5.18554688 C-0.07413704 3.45688475 -0.03826713 1.72839855 0 0 Z " fill="#3481A7" transform="translate(98,138)"/>
<path d="M0 0 C2.9375 1.625 2.9375 1.625 6 4 C6.875 7.25 6.875 7.25 7 10 C4 7 1 4 -2 1 C-1.34 0.67 -0.68 0.34 0 0 Z " fill="#CDF1F9" transform="translate(320,249)"/>
<path d="M0 0 C-0.33 0.99 -0.66 1.98 -1 3 C-6.13691161 4.99186369 -10.52450293 5.1921227 -16 5 C-16 4.67 -16 4.34 -16 4 C-15.39671875 3.87882813 -14.7934375 3.75765625 -14.171875 3.6328125 C-13.37265625 3.46523437 -12.5734375 3.29765625 -11.75 3.125 C-10.96109375 2.96257812 -10.1721875 2.80015625 -9.359375 2.6328125 C-6.98229161 2.08209363 -6.98229161 2.08209363 -4.890625 0.9296875 C-3 0 -3 0 0 0 Z " fill="#2E7A9E" transform="translate(156,169)"/>
<path d="M0 0 C0 0.66 0 1.32 0 2 C-0.99 2 -1.98 2 -3 2 C-3.33 3.32 -3.66 4.64 -4 6 C-6.31 6 -8.62 6 -11 6 C-8.24029211 2.78034079 -4.3526723 0 0 0 Z " fill="#D0F1FA" transform="translate(298,200)"/>
<path d="M0 0 C-2.46301423 2.46301423 -4.27360036 2.76766521 -7.625 3.625 C-9.12933594 4.01558594 -9.12933594 4.01558594 -10.6640625 4.4140625 C-11.43492188 4.60742188 -12.20578125 4.80078125 -13 5 C-8.49251112 0.34226149 -6.53321609 -0.12098548 0 0 Z " fill="#066FA7" transform="translate(126,105)"/>
<path d="M0 0 C-3.75 3 -3.75 3 -6 3 C-6.33 4.32 -6.66 5.64 -7 7 C-8.65 7 -10.3 7 -12 7 C-11.01 6.34 -10.02 5.68 -9 5 C-8.71125 4.34 -8.4225 3.68 -8.125 3 C-7 1 -7 1 -4.5 -0.3125 C-2 -1 -2 -1 0 0 Z " fill="#0D72A4" transform="translate(164,166)"/>
<path d="M0 0 C0.66 1.32 1.32 2.64 2 4 C0.02 6.97 0.02 6.97 -2 10 C-2.66 9.67 -3.32 9.34 -4 9 C-2.94124926 5.59687262 -1.99097846 2.98646769 0 0 Z " fill="#D3F3F8" transform="translate(166,152)"/>
<path d="M0 0 C0.7425 0.0825 1.485 0.165 2.25 0.25 C1.92 1.24 1.59 2.23 1.25 3.25 C-1.39 3.58 -4.03 3.91 -6.75 4.25 C-3.42692308 0.31153846 -3.42692308 0.31153846 0 0 Z " fill="#1B739E" transform="translate(285.75,250.75)"/>
<path d="M0 0 C-2.85410334 1.50560497 -5.68124642 2.63216796 -8.75 3.625 C-9.54921875 3.88539063 -10.3484375 4.14578125 -11.171875 4.4140625 C-11.77515625 4.60742188 -12.3784375 4.80078125 -13 5 C-12 2 -12 2 -10.4375 0.8125 C-6.88877617 -0.37040794 -3.73298379 -0.12443279 0 0 Z " fill="#2F77A0" transform="translate(306,197)"/>
<path d="M0 0 C-1.65 0.33 -3.3 0.66 -5 1 C-5 1.66 -5 2.32 -5 3 C-7.31 3.33 -9.62 3.66 -12 4 C-8.66437635 0.13769893 -4.98576775 -1.84658065 0 0 Z " fill="#BCE7F4" transform="translate(126,109)"/>
<path d="M0 0 C2.96052484 3.36423277 3.92289822 6.69159287 5 11 C1.87729874 8.48169253 1.05476902 7.2738451 0.25 3.25 C0.1675 2.1775 0.085 1.105 0 0 Z " fill="#CCEEF6" transform="translate(386,230)"/>
<path d="M0 0 C1.875 0.1875 1.875 0.1875 4 1 C5.25 3.5625 5.25 3.5625 6 6 C4.02 5.01 2.04 4.02 0 3 C0 2.01 0 1.02 0 0 Z " fill="#D6F3F9" transform="translate(380,224)"/>
<path d="M0 0 C2.64 0.33 5.28 0.66 8 1 C8 1.66 8 2.32 8 3 C6.25 3.75 6.25 3.75 4 4 C1.75 2.0625 1.75 2.0625 0 0 Z " fill="#20739D" transform="translate(359,202)"/>
<path d="M0 0 C3.82097239 0.53069061 6.06171403 1.49701566 9 4 C8.01 4.495 8.01 4.495 7 5 C4.64018187 4.06421005 2.30368736 3.06652192 0 2 C0 1.34 0 0.68 0 0 Z " fill="#2C799C" transform="translate(309,247)"/>
<path d="M0 0 C0.66 0.33 1.32 0.66 2 1 C-1.465 3.97 -1.465 3.97 -5 7 C-5.33 6.01 -5.66 5.02 -6 4 C-4.02 2.68 -2.04 1.36 0 0 Z " fill="#C6EBF7" transform="translate(161,162)"/>
<path d="M0 0 C1.9375 0.6875 1.9375 0.6875 4 2 C4.75 4.625 4.75 4.625 5 7 C4.34 7 3.68 7 3 7 C1.61061923 5.03852126 0.2739589 3.03833424 -1 1 C-0.67 0.67 -0.34 0.34 0 0 Z " fill="#1472A0" transform="translate(99,154)"/>
<path d="M0 0 C1.4606285 2.64738916 2 3.89448334 2 7 C1.34 7 0.68 7 0 7 C0 8.65 0 10.3 0 12 C-0.33 12 -0.66 12 -1 12 C-1.08159574 7.83861737 -0.98248524 4.0527516 0 0 Z " fill="#0970A8" transform="translate(269,271)"/>
<path d="M0 0 C0.66 0.33 1.32 0.66 2 1 C1.54625 1.7425 1.0925 2.485 0.625 3.25 C-0.68640796 5.46930578 -1.88280803 7.67967822 -3 10 C-3.36923077 4.58461538 -3.36923077 4.58461538 -1.5 1.625 C-1.005 1.08875 -0.51 0.5525 0 0 Z " fill="#BFEAF5" transform="translate(270,263)"/>
<path d="M0 0 C3.35595828 0.59927826 5.37801226 1.84622436 8 4 C7.67 4.99 7.34 5.98 7 7 C5.83040013 6.02433888 4.66438823 5.044375 3.5 4.0625 C2.8503125 3.51722656 2.200625 2.97195312 1.53125 2.41015625 C1.0259375 1.94480469 0.520625 1.47945312 0 1 C0 0.67 0 0.34 0 0 Z " fill="#307DA0" transform="translate(365,206)"/>
<path d="M0 0 C0.66 0 1.32 0 2 0 C2 2.64 2 5.28 2 8 C1.34 8 0.68 8 0 8 C-0.38063221 5.6739143 -0.71269945 3.33944736 -1 1 C-0.67 0.67 -0.34 0.34 0 0 Z " fill="#F2FFF6" transform="translate(262,208)"/>
<path d="M0 0 C0.66 0.33 1.32 0.66 2 1 C0.375 3 0.375 3 -2 5 C-5.25 5.25 -5.25 5.25 -8 5 C-7.4225 4.731875 -6.845 4.46375 -6.25 4.1875 C-3.9674132 2.98280141 -2.0262058 1.59201885 0 0 Z " fill="#136FA0" transform="translate(292,199)"/>
</svg>
