<?xml version="1.0" encoding="UTF-8"?>
<svg version="1.1" xmlns="http://www.w3.org/2000/svg" width="492" height="492">
<path d="M0 0 C162.36 0 324.72 0 492 0 C492 162.36 492 324.72 492 492 C329.64 492 167.28 492 0 492 C0 329.64 0 167.28 0 0 Z " fill="#34D950" transform="translate(0,0)"/>
<path d="M0 0 C6.42234739 5.34610702 10.68955755 12.3825994 14.89453125 19.5 C17.16138056 23.32700698 19.63473967 27.00340005 22.125 30.6875 C25.38881743 35.53756335 28.53349603 40.42125177 31.5 45.4609375 C33.3414745 48.57801674 35.22933735 51.66572454 37.125 54.75 C37.76695312 55.79671875 38.40890625 56.8434375 39.0703125 57.921875 C40.99209517 60.98739067 42.98465974 63.99538522 45 67 C45.90364671 68.39078779 46.80067556 69.78592572 47.6875 71.1875 C48.10386719 71.84105469 48.52023438 72.49460937 48.94921875 73.16796875 C51.24252288 77.16633171 51.43130768 80.47126941 51 85 C50.06958008 87.21166992 50.06958008 87.21166992 48.83203125 89.60546875 C48.37828125 90.48452881 47.92453125 91.36358887 47.45703125 92.26928711 C44.66248581 97.50671854 41.76309901 102.68400016 38.84179688 107.8515625 C35.04424603 114.66096401 32.71517768 120.06051116 32.75 128 C32.74484375 129.175625 32.7396875 130.35125 32.734375 131.5625 C33.00544575 135.0704744 33.56623819 137.78837355 35 141 C35.99 141.33 36.98 141.66 38 142 C39.5078125 143.6796875 39.5078125 143.6796875 41.125 145.875 C47.34770238 154.12400252 53.91779958 162.01367275 60.87109375 169.65625 C62.83201684 171.81506441 64.76704085 173.99268954 66.6875 176.1875 C67.24953125 176.82945312 67.8115625 177.47140625 68.390625 178.1328125 C69.43554439 179.34512188 70.46768584 180.56860752 71.484375 181.8046875 C74.81917216 185.83871632 78.4079944 189.20279691 82.4609375 192.51953125 C82.96882812 193.00808594 83.47671875 193.49664062 84 194 C84 194.66 84 195.32 84 196 C84.58523437 196.26683594 85.17046875 196.53367187 85.7734375 196.80859375 C88.04730176 198.02531059 89.71165914 199.34049323 91.625 201.0625 C92.32496094 201.68640625 93.02492187 202.3103125 93.74609375 202.953125 C95.26478782 204.33232031 96.7777143 205.71789013 98.28515625 207.109375 C114.36082728 222.77559958 114.36082728 222.77559958 135.015625 228.4453125 C146.21862994 226.77365993 156.00339749 220.44409606 165.3984375 214.4765625 C170.75341204 211.225999 175.64531981 208.99297418 182 210 C190.72989904 213.57656657 198.60912691 218.84865187 206.31640625 224.23828125 C208.97144808 226.05819698 208.97144808 226.05819698 211.8984375 227.4375 C215.50459491 229.25420399 218.73593464 231.41048803 222.0625 233.6875 C226.87733306 236.94335181 231.7217945 240.10369726 236.6875 243.125 C240.99738849 245.75557312 245.27256305 248.42598746 249.5 251.1875 C250.4384375 251.79980469 251.376875 252.41210938 252.34375 253.04296875 C255.2231156 255.1643837 257.64792531 257.30289826 260 260 C260.97764414 268.65913378 257.89336771 275.80067501 253.875 283.3125 C253.47901611 284.05725586 253.08303223 284.80201172 252.67504883 285.56933594 C249.38482656 291.60064558 245.53225703 296.83691491 241 302 C240.41347656 302.82628906 239.82695312 303.65257812 239.22265625 304.50390625 C236.41524767 307.65669023 233.47214812 309.28184931 229.75 311.1875 C229.11964844 311.52974609 228.48929687 311.87199219 227.83984375 312.22460938 C209.3341842 321.92971596 189.52548328 315.37044342 170.85522461 309.55175781 C161.467288 306.51036534 152.7295759 302.77487099 144.05273438 298.09326172 C141.85876162 296.92477813 139.64385682 295.80564567 137.421875 294.69140625 C121.98534393 286.88146359 107.83118637 277.36166843 94 267 C93.32195312 266.49210937 92.64390625 265.98421875 91.9453125 265.4609375 C90.66426142 264.498863 89.38428417 263.53535671 88.10546875 262.5703125 C84.63713413 259.98353974 81.12336736 257.45938776 77.61328125 254.9296875 C74.04535329 252.29507403 70.66914298 249.67020175 67.53125 246.52734375 C64.98419447 243.98421887 62.32557673 241.78883222 59.5 239.5625 C55.43779639 236.285474 52.20901666 233.08420302 49 229 C47.67098936 227.99426222 46.33926199 226.99204592 45 226 C45 225.34 45 224.68 45 224 C44.01 223.67 43.02 223.34 42 223 C38.64657351 219.90452939 35.84395874 216.55494842 33 213 C30.8531101 210.79508605 28.66989305 208.63799338 26.44140625 206.515625 C21.15286285 201.38586004 16.60910786 195.73802786 12 190 C10.54294385 188.22811564 9.08461199 186.45727954 7.625 184.6875 C6.08058107 182.79390809 4.53907408 180.89793865 3 179 C2.56929199 178.47035645 2.13858398 177.94071289 1.69482422 177.39501953 C-5.42971967 168.60166356 -11.8945996 159.52655076 -18 150 C-18.4110498 149.36336426 -18.82209961 148.72672852 -19.24560547 148.07080078 C-37.60496036 119.56039298 -61.00370009 80.48078245 -56 45 C-54.28062584 37.95557381 -51.95772878 28.66257035 -46 24 C-45.34 24 -44.68 24 -44 24 C-43.75765625 23.41734375 -43.5153125 22.8346875 -43.265625 22.234375 C-37.47272163 12.00739745 -20.1470095 4.0728804 -9.38671875 0.6484375 C-3.58191574 -0.92864482 -3.58191574 -0.92864482 0 0 Z " fill="#FDFEFD" transform="translate(146,85)"/>
<path d="M0 0 C0 0.66 0 1.32 0 2 C1.32 2 2.64 2 4 2 C4.495 3.485 4.495 3.485 5 5 C5.66 4.67 6.32 4.34 7 4 C7.226875 4.556875 7.45375 5.11375 7.6875 5.6875 C8.93961401 8.17872831 8.93961401 8.17872831 11.4375 10.1875 C13.97073918 12.96788447 14.48252526 14.09503219 15.4375 17.5625 C16.7700543 22.25742968 18.92179124 23.37182102 23 26 C23.375 29.25 23.375 29.25 23 32 C24.98 32.495 24.98 32.495 27 33 C26.67 33.99 26.34 34.98 26 36 C27.65 36.33 29.3 36.66 31 37 C30.67 37.99 30.34 38.98 30 40 C30.66 40.99 31.32 41.98 32 43 C32 44.32 32 45.64 32 47 C33.98 47.66 35.96 48.32 38 49 C38.12375 49.721875 38.2475 50.44375 38.375 51.1875 C38.9904931 53.95721894 39.88444374 56.3970354 41 59 C41.66 59 42.32 59 43 59 C43.64771508 60.91603157 44.29309948 62.83285113 44.9375 64.75 C45.29714844 65.81734375 45.65679687 66.8846875 46.02734375 67.984375 C47 71 47 71 47.44140625 73.328125 C47.62574219 73.87984375 47.81007813 74.4315625 48 75 C49.485 75.495 49.485 75.495 51 76 C54.07588135 78.93757733 54.94726181 80.49107646 55.390625 84.76953125 C55.36431837 86.11774585 55.31701804 87.46569518 55.25 88.8125 C55.23195313 89.50537109 55.21390625 90.19824219 55.1953125 90.91210938 C55.14851064 92.60867664 55.07677624 94.30452476 55 96 C53.515 96.495 53.515 96.495 52 97 C48.57169364 102.35672869 45.84536798 107.98082866 44.125 114.125 C43 117 43 117 40.4375 119.5 C35.87400561 124.18050707 36.55923881 131.52145696 36.56640625 137.79296875 C37.14697316 142.08707178 38.79334932 144.38308827 41.6875 147.51171875 C43 149 43 149 43 151 C43.66 151 44.32 151 45 151 C45 151.99 45 152.98 45 154 C47.97 154.66 50.94 155.32 54 156 C53.67 158.97 53.34 161.94 53 165 C49.21203738 161.3749605 46.00839712 157.57202733 42.875 153.375 C39.7978283 149.19331744 39.7978283 149.19331744 36.3203125 145.3515625 C32.88517951 141.83512458 32.65403592 138.28140595 32.5625 133.5 C32.7242571 123.10441061 37.01318853 115.35015964 42.375 106.70703125 C44.32104734 103.46517835 46.12985512 100.165272 47.875 96.8125 C48.47054687 95.68457031 49.06609375 94.55664062 49.6796875 93.39453125 C51.5682905 88.53892177 51.72082489 84.76602098 49.75 79.9375 C47.92998931 76.88248205 45.9856831 73.95015775 44 71 C43.07505169 69.48418919 42.15925265 67.96277749 41.25 66.4375 C37.93001127 60.8682189 34.54387817 55.3416392 31.13134766 49.82861328 C30.34610461 48.55941379 29.56200523 47.28950628 28.77880859 46.01904297 C24.24596672 38.67042418 19.69007567 31.39226422 14.65234375 24.375 C12.79310544 21.70261964 11.08704428 18.95622537 9.375 16.1875 C5.83283228 10.50282411 5.83283228 10.50282411 1 6 C-10.27371363 3.69924212 -24.7366535 14.04738955 -34 20 C-39.24799572 23.83295104 -39.24799572 23.83295104 -43 29 C-43.66 29 -44.32 29 -45 29 C-45.33 29.99 -45.66 30.98 -46 32 C-46.66 32 -47.32 32 -48 32 C-48.28617188 32.8765625 -48.57234375 33.753125 -48.8671875 34.65625 C-49.55710313 36.69269063 -50.28268831 38.71806958 -51.0703125 40.71875 C-57.64908828 58.0672254 -52.92138209 78.26318177 -46.46411133 95.14916992 C-46 97 -46 97 -47 100 C-47.66 98.68 -48.32 97.36 -49 96 C-49.66 96 -50.32 96 -51 96 C-51.268125 94.865625 -51.53625 93.73125 -51.8125 92.5625 C-52.4003125 90.7990625 -52.4003125 90.7990625 -53 89 C-53.99 88.67 -54.98 88.34 -56 88 C-56.6886447 84.78632472 -57.073179 82.37402599 -56.4375 79.125 C-55.96508657 75.75061836 -56.65555469 73.50975693 -57.51293945 70.26513672 C-58.35351588 66.35592966 -58.36860342 62.48506941 -58.375 58.5 C-58.39949219 57.69691406 -58.42398438 56.89382812 -58.44921875 56.06640625 C-58.47446845 50.87338564 -57.5923351 47.31835773 -54.96557617 42.82495117 C-53.90901573 40.82803858 -53.42147941 39.01456797 -52.9375 36.8125 C-52.06008344 33.24433932 -50.94906852 31.05071595 -49 28 C-48.87625 27.278125 -48.7525 26.55625 -48.625 25.8125 C-48.41875 25.214375 -48.2125 24.61625 -48 24 C-46.7934375 23.5359375 -46.7934375 23.5359375 -45.5625 23.0625 C-42.75492583 22.22618194 -42.75492583 22.22618194 -41.6875 19.375 C-41.460625 18.59125 -41.23375 17.8075 -41 17 C-39.329375 16.87625 -39.329375 16.87625 -37.625 16.75 C-36.42875 16.5025 -35.2325 16.255 -34 16 C-33.73960938 15.37867187 -33.47921875 14.75734375 -33.2109375 14.1171875 C-31.36596332 10.89145845 -28.373209 10.40457383 -25 9.375 C-20.08683428 7.95008282 -20.08683428 7.95008282 -16 5 C-16.495 3.515 -16.495 3.515 -17 2 C-16.443125 2.391875 -15.88625 2.78375 -15.3125 3.1875 C-14.549375 3.455625 -13.78625 3.72375 -13 4 C-10.49759982 2.69882448 -10.49759982 2.69882448 -8 1 C-5.18396481 0.26246697 -2.91769558 0 0 0 Z " fill="#62DD79" transform="translate(145,80)"/>
<path d="M0 0 C8.56529913 1.82571002 17.09354617 3.65688 25.5 6.125 C38.44192491 9.89478088 50.79264904 11.91328917 64 8 C65.32 8 66.64 8 68 8 C68 8.66 68 9.32 68 10 C67.01 10.66 66.02 11.32 65 12 C64.27034634 14.56282742 64.27034634 14.56282742 64 17 C63.01 16.67 62.02 16.34 61 16 C59.43881572 15.93259135 57.8749748 15.91485544 56.3125 15.9375 C55.50425781 15.94652344 54.69601562 15.95554687 53.86328125 15.96484375 C53.24839844 15.97644531 52.63351562 15.98804688 52 16 C52 15.34 52 14.68 52 14 C51.484375 14.33 50.96875 14.66 50.4375 15 C47.22671378 16.31724563 44.44156508 16.06373269 41 16 C40.01 16.495 40.01 16.495 39 17 C36.5 15.625 36.5 15.625 34 14 C33.34 13.67 32.68 13.34 32 13 C32 12.34 32 11.68 32 11 C26.67012044 9.88421213 21.64879206 8.84267439 16.1875 9.1875 C11.26247389 9.3545991 9.51137295 7.26639344 6 4 C4.68 4 3.36 4 2 4 C2 3.34 2 2.68 2 2 C1.34 2 0.68 2 0 2 C0 1.34 0 0.68 0 0 Z " fill="#35B34D" transform="translate(304,391)"/>
<path d="M0 0 C4.59859817 1.61261053 8.47664948 4.02500212 12.5625 6.625 C13.61497925 7.2905188 13.61497925 7.2905188 14.6887207 7.96948242 C16.79640753 9.30694691 18.89892035 10.65218512 21 12 C21.60489258 12.38591309 22.20978516 12.77182617 22.83300781 13.16943359 C33.79262389 20.18622271 33.79262389 20.18622271 38 25 C38.97761561 33.65888115 35.89371111 40.80099367 31.875 48.3125 C31.47974121 49.05508057 31.08448242 49.79766113 30.67724609 50.56274414 C26.87795274 57.52104308 22.6974203 64.53505313 16 69 C16.41774084 66.57710315 16.69612938 65.29120935 18.5 63.5625 C20.46573078 61.51486377 20.62668561 59.76252651 21 57 C22.98 56.505 22.98 56.505 25 56 C25 55.34 25 54.68 25 54 C25.66 54 26.32 54 27 54 C26.896875 52.80375 26.79375 51.6075 26.6875 50.375 C26.66586907 46.21465105 27.84424215 45.0032466 30.7421875 42.0390625 C33.6585902 37.31122955 34.05053059 30.43835501 34 25 C32.23184769 22.41285689 30.76574626 21.8875582 27.875 20.5 C25 19 25 19 24 16 C21.525 15.505 21.525 15.505 19 15 C19 14.34 19 13.68 19 13 C16.36095629 11.58622659 13.92879371 10.62759865 11 10 C11 9.34 11 8.68 11 8 C9.6696875 7.566875 9.6696875 7.566875 8.3125 7.125 C5.49617576 6.16851252 2.74916844 5.13201054 0 4 C0 2.68 0 1.36 0 0 Z " fill="#D2F6D3" transform="translate(368,320)"/>
<path d="M0 0 C0.33 0 0.66 0 1 0 C1 3.96 1 7.92 1 12 C0.01 12.33 -0.98 12.66 -2 13 C-5.42830636 18.35672869 -8.15463202 23.98082866 -9.875 30.125 C-11 33 -11 33 -13.5625 35.5 C-18.12599439 40.18050707 -17.44076119 47.52145696 -17.43359375 53.79296875 C-16.85302684 58.08707178 -15.20665068 60.38308827 -12.3125 63.51171875 C-11 65 -11 65 -11 67 C-10.34 67 -9.68 67 -9 67 C-9 67.99 -9 68.98 -9 70 C-6.03 70.66 -3.06 71.32 0 72 C-0.33 74.97 -0.66 77.94 -1 81 C-4.78796262 77.3749605 -7.99160288 73.57202733 -11.125 69.375 C-14.2021717 65.19331744 -14.2021717 65.19331744 -17.6796875 61.3515625 C-21.11482049 57.83512458 -21.34596408 54.28140595 -21.4375 49.5 C-21.25077935 37.50008593 -15.23986635 25.84963277 -7.375 16.875 C-3.17205569 11.78722531 -0.66235751 6.62357508 0 0 Z " fill="#4BCF64" transform="translate(199,164)"/>
<path d="M0 0 C5.15614639 -0.54275225 8.74922511 0.93271207 13.38671875 2.91015625 C17.18622405 4.4947033 21.08009038 5.75017375 25 7 C25 7.66 25 8.32 25 9 C25.84820312 8.95875 26.69640625 8.9175 27.5703125 8.875 C31.33656857 9.01226674 34.29915876 9.83237837 37.875 11 C39.02742188 11.37125 40.17984375 11.7425 41.3671875 12.125 C42.23601562 12.41375 43.10484375 12.7025 44 13 C44 13.66 44 14.32 44 15 C47.31087419 15.25858421 50.62329062 15.47633307 53.9375 15.6875 C55.32678711 15.79674805 55.32678711 15.79674805 56.74414062 15.90820312 C62.43908328 16.24790146 66.81430981 15.79984414 72.12719727 13.66723633 C74 13 74 13 77 13 C77 12.34 77 11.68 77 11 C78.32 11 79.64 11 81 11 C81 10.34 81 9.68 81 9 C81.639375 8.896875 82.27875 8.79375 82.9375 8.6875 C83.618125 8.460625 84.29875 8.23375 85 8 C85.33 7.01 85.66 6.02 86 5 C87.32 5 88.64 5 90 5 C88.59699827 9.20900519 85.66873039 10.13057572 81.9375 12.0625 C81.29361328 12.41376953 80.64972656 12.76503906 79.98632812 13.12695312 C62.14487078 22.53685436 43.45180941 16.86239519 25.3359375 11.28515625 C16.59280712 8.50186011 7.95856355 5.65500887 0 1 C0 0.67 0 0.34 0 0 Z " fill="#C8F9D3" transform="translate(294,384)"/>
<path d="M0 0 C1.68591498 2.52887247 2.59586477 4.39344593 3.625 7.1875 C10.35893445 24.30809348 19.88991154 40.67787836 30 56 C30.39364746 56.60263672 30.78729492 57.20527344 31.19287109 57.82617188 C32.49873971 59.8248392 33.81084546 61.81927245 35.125 63.8125 C35.53290771 64.43519775 35.94081543 65.05789551 36.36108398 65.69946289 C39.0144915 69.69323495 41.87170924 73.36517106 45 77 C44.67 77.66 44.34 78.32 44 79 C43.01 78.34 42.02 77.68 41 77 C41 76.34 41 75.68 41 75 C40.01 74.67 39.02 74.34 38 74 C35.92469613 71.07920195 35 69.62453269 35 66 C33.68 65.67 32.36 65.34 31 65 C31 63.68 31 62.36 31 61 C30.34 61 29.68 61 29 61 C28.67 59.68 28.34 58.36 28 57 C27.34 57 26.68 57 26 57 C25.01 54.69 24.02 52.38 23 50 C22.01 50.495 22.01 50.495 21 51 C21 49.68 21 48.36 21 47 C20.34 47 19.68 47 19 47 C18.34 44.03 17.68 41.06 17 38 C16.34 38 15.68 38 15 38 C10.14141061 29.53107542 10.14141061 29.53107542 8.3125 25.0625 C7.20697293 21.95937914 7.20697293 21.95937914 5 20 C4.05935023 17.776646 3.1942466 15.5208941 2.375 13.25 C1.92898437 12.03828125 1.48296875 10.8265625 1.0234375 9.578125 C0.04818474 6.16846267 -0.20505618 3.51833241 0 0 Z " fill="#65CE75" transform="translate(99,179)"/>
<path d="M0 0 C0.66 0 1.32 0 2 0 C2 0.66 2 1.32 2 2 C2.66 2 3.32 2 4 2 C4.25394531 3.03640625 4.50789063 4.0728125 4.76953125 5.140625 C5.11670147 6.51053993 5.46438479 7.8803249 5.8125 9.25 C6.0609668 10.27287109 6.0609668 10.27287109 6.31445312 11.31640625 C7.31424776 15.2024005 8.47786644 17.90465426 11 21 C11.1875 23.75 11.1875 23.75 11 26 C11.99 26.33 12.98 26.66 14 27 C14.7136591 29.31939207 15.3747292 31.65523449 16 34 C16.94726954 35.69719127 17.94228261 37.36935236 19 39 C19.33 39.680625 19.66 40.36125 20 41.0625 C20.96214378 43.08576695 20.96214378 43.08576695 22.5625 44.9375 C24 47 24 47 24.4375 49.5625 C24.74550606 52.13800407 24.74550606 52.13800407 26.90234375 53.33203125 C29.48079743 55.38231006 30.05466446 57.03991522 31.125 60.125 C32.17352898 63.81823308 32.17352898 63.81823308 35 66 C34.505 67.98 34.505 67.98 34 70 C25.55390299 57.7780008 18.31796478 45.07879513 11.85058594 31.72314453 C10.74945487 29.49243757 9.55453992 27.31503749 8.375 25.125 C4.89211048 18.20676894 0 7.78635803 0 0 Z " fill="#D7FCDE" transform="translate(95,166)"/>
<path d="M0 0 C5.4611399 0.88082902 5.4611399 0.88082902 8 2 C9.5 5.125 9.5 5.125 10 8 C11.9490625 7.7215625 11.9490625 7.7215625 13.9375 7.4375 C16.15234375 7.12109375 16.15234375 7.12109375 18 7 C19 8 19 8 19.0625 10.5625 C19.041875 11.366875 19.02125 12.17125 19 13 C19.99 12.67 20.98 12.34 22 12 C22.268125 12.804375 22.53625 13.60875 22.8125 14.4375 C23.204375 15.283125 23.59625 16.12875 24 17 C24.99 17.33 25.98 17.66 27 18 C27.33 18.33 27.66 18.66 28 19 C35.91209797 19.63787456 42.9582565 18.84502988 50.5390625 16.55859375 C53 16 53 16 56 17 C54.25197854 17.81674796 52.50149811 18.62823451 50.75 19.4375 C49.77546875 19.88996094 48.8009375 20.34242188 47.796875 20.80859375 C43.68774939 22.55898944 40.2143797 23.19132398 35.75 23.3125 C34.41195312 23.36857422 34.41195312 23.36857422 33.046875 23.42578125 C25.38033533 22.35443148 19.62877433 17.4127433 13.875 12.5625 C13.19824219 12.00240234 12.52148438 11.44230469 11.82421875 10.86523438 C10.50131058 9.76878147 9.18183106 8.66817546 7.86621094 7.56298828 C6.64187401 6.53758208 5.41091992 5.52001466 4.17285156 4.51123047 C2.7644922 3.3618275 1.37946112 2.18393003 0 1 C0 0.67 0 0.34 0 0 Z " fill="#4EC562" transform="translate(243,291)"/>
<path d="M0 0 C0 0.66 0 1.32 0 2 C-0.99 2 -1.98 2 -3 2 C-3.33 2.99 -3.66 3.98 -4 5 C-5.65071396 6.02611949 -7.31970006 7.02308143 -9 8 C-9.598125 8.639375 -10.19625 9.27875 -10.8125 9.9375 C-14.77210351 13.67084045 -19.97522155 15.09753671 -25 17 C-25.84949219 17.33644531 -26.69898438 17.67289062 -27.57421875 18.01953125 C-32.10542573 19.7043094 -35.18525031 20.35800632 -40 19 C-40 18.34 -40 17.68 -40 17 C-41.093125 16.896875 -42.18625 16.79375 -43.3125 16.6875 C-46.9618448 16.00711368 -47.81168 15.76419369 -50 13 C-50.66 12.67 -51.32 12.34 -52 12 C-52 11.01 -52 10.02 -52 9 C-49.27844151 10.04059589 -46.86037528 11.08643435 -44.375 12.625 C-35.99110359 16.0406615 -28.36974953 13.94769992 -20.29296875 10.5703125 C-14.75561614 7.92972442 -5.93613583 0 0 0 Z " fill="#DEFCE5" transform="translate(314,299)"/>
<path d="M0 0 C0.33 0.66 0.66 1.32 1 2 C4.465 1.505 4.465 1.505 8 1 C10 4.75 10 4.75 10 7 C10.60328125 7.02578125 11.2065625 7.0515625 11.828125 7.078125 C18.44912823 7.54800265 18.44912823 7.54800265 21.4375 10 C22.2109375 10.99 22.2109375 10.99 23 12 C23.66 12.33 24.32 12.66 25 13 C25 13.66 25 14.32 25 15 C25.99 14.67 26.98 14.34 28 14 C28 14.66 28 15.32 28 16 C30.64 16.66 33.28 17.32 36 18 C36 19.65 36 21.3 36 23 C33 24 33 24 31.30175781 23.27490234 C30.69170898 22.88254395 30.08166016 22.49018555 29.453125 22.0859375 C28.4321875 21.43818359 28.4321875 21.43818359 27.390625 20.77734375 C26.68421875 20.31457031 25.9778125 19.85179687 25.25 19.375 C24.5590625 18.93542969 23.868125 18.49585938 23.15625 18.04296875 C19.79822201 15.89054855 16.51042929 13.66941068 13.28125 11.328125 C10.00826542 8.96243785 6.59419502 7.0752974 3.015625 5.2109375 C1.00840584 4.00505002 -0.42684831 2.72250153 -2 1 C-1.34 0.67 -0.68 0.34 0 0 Z " fill="#32C548" transform="translate(348,304)"/>
<path d="M0 0 C3.43539157 1.54592621 6.46696387 3.26797209 9.4375 5.5625 C23.21286494 16.15691235 38.32826885 25.5453387 54 33 C54 33.33 54 33.66 54 34 C50.37471432 34.20140476 48.13498292 33.85776765 45 32 C45 31.34 45 30.68 45 30 C44.484375 29.87625 43.96875 29.7525 43.4375 29.625 C40.2731198 28.81362046 37.14096679 27.89741908 34 27 C33.236875 26.835 32.47375 26.67 31.6875 26.5 C30 26 30 26 28 24 C28 22.68 28 21.36 28 20 C27.13375 19.9175 26.2675 19.835 25.375 19.75 C21.48892222 18.88642716 19.11499979 17.44749984 16 15 C16 14.34 16 13.68 16 13 C14.35 12.67 12.7 12.34 11 12 C11 11.34 11 10.68 11 10 C10.236875 9.731875 9.47375 9.46375 8.6875 9.1875 C6.05793439 8.02559892 4.86299008 7.11703418 3 5 C2.1646875 4.2265625 2.1646875 4.2265625 1.3125 3.4375 C0 2 0 2 0 0 Z " fill="#49BB5B" transform="translate(234,348)"/>
<path d="M0 0 C0 0.66 0 1.32 0 2 C1.32 2.33 2.64 2.66 4 3 C3.31035156 3.02578125 2.62070313 3.0515625 1.91015625 3.078125 C-5.41775706 3.52041332 -12.5514353 4.51638891 -17.921875 9.94140625 C-22.37408824 14.35177538 -28.76368536 17.65219662 -34.875 19.0625 C-38.69666445 20.20899934 -40.33485285 22.10641166 -43 25 C-43.66 25 -44.32 25 -45 25 C-45 25.66 -45 26.32 -45 27 C-45.66 27 -46.32 27 -47 27 C-47.66 28.32 -48.32 29.64 -49 31 C-48.67 28.69 -48.34 26.38 -48 24 C-47.21625 23.773125 -46.4325 23.54625 -45.625 23.3125 C-42.78125 22.21875 -42.78125 22.21875 -41.6875 19.375 C-41.460625 18.59125 -41.23375 17.8075 -41 17 C-39.329375 16.87625 -39.329375 16.87625 -37.625 16.75 C-36.42875 16.5025 -35.2325 16.255 -34 16 C-33.73960938 15.37867187 -33.47921875 14.75734375 -33.2109375 14.1171875 C-31.36596332 10.89145845 -28.373209 10.40457383 -25 9.375 C-20.08683428 7.95008282 -20.08683428 7.95008282 -16 5 C-16.495 3.515 -16.495 3.515 -17 2 C-16.443125 2.391875 -15.88625 2.78375 -15.3125 3.1875 C-14.549375 3.455625 -13.78625 3.72375 -13 4 C-10.49759982 2.69882448 -10.49759982 2.69882448 -8 1 C-5.18396481 0.26246697 -2.91769558 0 0 0 Z " fill="#72DC88" transform="translate(145,80)"/>
<path d="M0 0 C0.33 0 0.66 0 1 0 C0.8066989 8.06592759 0.8066989 8.06592759 -2.375 11.75 C-3.674375 12.86375 -3.674375 12.86375 -5 14 C-6.88368225 16.69097464 -7.92006476 18.42713081 -8.375 21.6875 C-8.684375 22.8321875 -8.684375 22.8321875 -9 24 C-10.66666667 24.66666667 -12.33333333 25.33333333 -14 26 C-14.89386164 28.54775306 -14.89386164 28.54775306 -15 31 C-15.886875 30.979375 -16.77375 30.95875 -17.6875 30.9375 C-20.62169631 30.99286219 -23.15493696 31.3305734 -26 32 C-25.7421875 30.1171875 -25.7421875 30.1171875 -25 28 C-23.3203125 27.0078125 -23.3203125 27.0078125 -21.125 26.125 C-11.47279148 21.16012597 -4.56243213 9.52817319 0 0 Z " fill="#21BE3D" transform="translate(399,368)"/>
<path d="M0 0 C1.98 0.66 3.96 1.32 6 2 C6 2.66 6 3.32 6 4 C9.465 3.505 9.465 3.505 13 3 C13.33 3.99 13.66 4.98 14 6 C17.63052854 8.96369677 20.83163562 11.07326389 25.25 12.625 C28.63257374 13.86527704 29.82898339 14.35993659 32 17 C32 17.66 32 18.32 32 19 C32.721875 19.12375 33.44375 19.2475 34.1875 19.375 C36.95721894 19.9904931 39.3970354 20.88444374 42 22 C42 22.66 42 23.32 42 24 C42.66 24 43.32 24 44 24 C44 24.66 44 25.32 44 26 C38.74498489 24.44357833 34.07908386 22.16693616 29.25 19.625 C28.02047607 18.97821289 28.02047607 18.97821289 26.76611328 18.31835938 C20.6013143 15.00564874 14.69896318 11.37832109 8.875 7.5 C7.71145996 6.7258374 7.71145996 6.7258374 6.52441406 5.93603516 C1.13523222 2.27046444 1.13523222 2.27046444 0 0 Z " fill="#D0FADB" transform="translate(250,358)"/>
<path d="M0 0 C0.99 0.33 1.98 0.66 3 1 C2.36191406 1.55429688 1.72382812 2.10859375 1.06640625 2.6796875 C0.24011719 3.40414062 -0.58617188 4.12859375 -1.4375 4.875 C-2.26121094 5.59429687 -3.08492187 6.31359375 -3.93359375 7.0546875 C-6.05982155 8.83238745 -6.05982155 8.83238745 -7 11 C-7.66 11 -8.32 11 -9 11 C-9.33 11.99 -9.66 12.98 -10 14 C-10.66 14 -11.32 14 -12 14 C-12.28617187 14.8765625 -12.57234375 15.753125 -12.8671875 16.65625 C-13.55710313 18.69269063 -14.28268831 20.71806958 -15.0703125 22.71875 C-19.24117308 33.71746383 -18.48338243 44.50378614 -17 56 C-20.66711452 50.49932822 -20.18354137 46.18361347 -20.1875 39.6875 C-20.19974609 38.64142578 -20.21199219 37.59535156 -20.22460938 36.51757812 C-20.22654297 35.50501953 -20.22847656 34.49246094 -20.23046875 33.44921875 C-20.23457764 32.52455811 -20.23868652 31.59989746 -20.24291992 30.6472168 C-19.97837207 27.76430995 -19.16687611 25.63479111 -18 23 C-17.68429754 21.60940585 -17.39057283 20.21353219 -17.125 18.8125 C-16 15 -16 15 -13.9375 13.75 C-13.298125 13.5025 -12.65875 13.255 -12 13 C-11.19471111 10.94999129 -11.19471111 10.94999129 -11 9 C-10.34 9 -9.68 9 -9 9 C-9 8.34 -9 7.68 -9 7 C-7.13671875 5.23828125 -7.13671875 5.23828125 -4.6875 3.3125 C-3.88699219 2.66925781 -3.08648437 2.02601562 -2.26171875 1.36328125 C-1.51535156 0.91339844 -0.76898438 0.46351562 0 0 Z " fill="#6ED481" transform="translate(109,98)"/>
<path d="M0 0 C2.84276007 0.08361059 4.52758254 0.52994462 6.5625 2.5546875 C7.58646763 3.7885685 8.59012844 5.03965276 9.5703125 6.30859375 C11.08080282 8.25419066 11.08080282 8.25419066 14 10 C14 10.66 14 11.32 14 12 C14.99 12.33 15.98 12.66 17 13 C17 13.66 17 14.32 17 15 C18.98 15.66 20.96 16.32 23 17 C23.33 18.65 23.66 20.3 24 22 C24.66 22 25.32 22 26 22 C27.625 23.25 27.625 23.25 29 25 C29 26.32 29 27.64 29 29 C29.66 29 30.32 29 31 29 C30.67 29.66 30.34 30.32 30 31 C29.319375 30.29875 28.63875 29.5975 27.9375 28.875 C25.23957261 26.15381461 22.33406548 23.73904225 19.35546875 21.33203125 C18.90816406 20.89246094 18.46085937 20.45289063 18 20 C18 19.34 18 18.68 18 18 C17.01 17.67 16.02 17.34 15 17 C11.64657351 13.90452939 8.84395874 10.55494842 6 7 C5.113125 6.113125 4.22625 5.22625 3.3125 4.3125 C1 2 1 2 0 0 Z " fill="#D1FAD9" transform="translate(173,291)"/>
<path d="M0 0 C1.30324219 -0.00386719 1.30324219 -0.00386719 2.6328125 -0.0078125 C4.875 0.125 4.875 0.125 6.875 1.125 C6.875 1.785 6.875 2.445 6.875 3.125 C7.46667969 3.27195312 8.05835938 3.41890625 8.66796875 3.5703125 C14.61002586 5.25696493 17.36708135 7.03286002 20.875 12.125 C16.83165177 10.65265323 13.3703775 8.64902084 9.6875 6.4375 C4.59891907 3.70145761 1.08332616 2.17189334 -4.6484375 3.2734375 C-10.83383192 5.40027659 -16.30233695 8.84437837 -21.6875 12.5 C-24.125 14.125 -24.125 14.125 -26.125 14.125 C-26.125 12.805 -26.125 11.485 -26.125 10.125 C-24.805 10.125 -23.485 10.125 -22.125 10.125 C-21.795 9.135 -21.465 8.145 -21.125 7.125 C-17.14936956 5.09967883 -14.6199298 4.125 -10.125 4.125 C-9.795 3.135 -9.465 2.145 -9.125 1.125 C-6.13943284 -0.03977284 -3.17602675 -0.00948068 0 0 Z " fill="#52C068" transform="translate(325.125,292.875)"/>
<path d="M0 0 C2.19877645 2.0653247 3.81630923 4.10886057 5.375 6.6875 C5.80039063 7.38617188 6.22578125 8.08484375 6.6640625 8.8046875 C7.10492188 9.52914062 7.54578125 10.25359375 8 11 C9.32564104 13.08103426 10.65288322 15.16098553 11.984375 17.23828125 C14.2679994 21.19949127 14.42716243 24.51479445 14 29 C11.01047098 36.74864471 6.23922746 43.88982599 2 51 C1 48 1 48 2.4375 44.8125 C2.953125 43.884375 3.46875 42.95625 4 42 C4.66 42 5.32 42 6 42 C6 40.68 6 39.36 6 38 C6.66 38 7.32 38 8 38 C9.99056079 31.28185734 12.07536266 23.96370136 8.65625 17.43359375 C7.58649751 15.86176403 6.47383303 14.31793171 5.3125 12.8125 C4 11 4 11 4 9 C3.01 8.67 2.02 8.34 1 8 C1 6.35 1 4.7 1 3 C0.34 2.67 -0.32 2.34 -1 2 C-0.67 1.34 -0.34 0.68 0 0 Z " fill="#CEFBD9" transform="translate(183,141)"/>
<path d="M0 0 C3.43970309 2.7953783 6.59837123 5.51598584 9.4375 8.9375 C12.17534189 12.20955494 15.13760093 14.78575751 18.42578125 17.484375 C19.20501953 18.23460937 19.20501953 18.23460937 20 19 C20 19.66 20 20.32 20 21 C20.556875 21.226875 21.11375 21.45375 21.6875 21.6875 C24.63246684 23.35896766 26.68156544 25.55276352 29 28 C27.35 27.67 25.7 27.34 24 27 C23.67 26.01 23.34 25.02 23 24 C21.6078125 23.9071875 21.6078125 23.9071875 20.1875 23.8125 C17 23 17 23 15.4375 20.625 C14.7259375 19.325625 14.7259375 19.325625 14 18 C13.195625 17.525625 12.39125 17.05125 11.5625 16.5625 C8.33163862 14.59246258 7.04553259 12.13648331 5 9 C4.01 8.67 3.02 8.34 2 8 C0.5522078 5.10441559 0 3.25811062 0 0 Z " fill="#CFFAD6" transform="translate(210,260)"/>
<path d="M0 0 C4.59859817 1.61261053 8.47664948 4.02500212 12.5625 6.625 C13.61497925 7.2905188 13.61497925 7.2905188 14.6887207 7.96948242 C16.79640753 9.30694691 18.89892035 10.65218512 21 12 C21.60489258 12.38591309 22.20978516 12.77182617 22.83300781 13.16943359 C28.3898518 16.72714968 33.5416484 20.07573057 38 25 C38 25.66 38 26.32 38 27 C37.34 27 36.68 27 36 27 C36 26.34 36 25.68 36 25 C35.42765625 24.7215625 34.8553125 24.443125 34.265625 24.15625 C32.03382434 23.01726208 29.89129126 21.80063617 27.75 20.5 C27.04359375 20.0771875 26.3371875 19.654375 25.609375 19.21875 C25.07828125 18.8165625 24.5471875 18.414375 24 18 C24 17.34 24 16.68 24 16 C21.525 15.505 21.525 15.505 19 15 C19 14.34 19 13.68 19 13 C16.36095629 11.58622659 13.92879371 10.62759865 11 10 C11 9.34 11 8.68 11 8 C9.6696875 7.566875 9.6696875 7.566875 8.3125 7.125 C5.49617576 6.16851252 2.74916844 5.13201054 0 4 C0 2.68 0 1.36 0 0 Z " fill="#C8FAD2" transform="translate(368,320)"/>
<path d="M0 0 C1.75 0.125 1.75 0.125 4 1 C5.33333333 3 6.66666667 5 8 7 C9.051875 7.680625 10.10375 8.36125 11.1875 9.0625 C14 11 14 11 14.875 13.75 C14.936875 14.86375 14.936875 14.86375 15 16 C15.9075 16.226875 16.815 16.45375 17.75 16.6875 C21.57683707 18.23295343 22.55243728 19.73658304 25 23 C27.26309986 25.08637189 29.6171475 27.05221889 32 29 C31.67 29.99 31.34 30.98 31 32 C25.95658962 28.31270663 21.37120915 24.6919622 17.484375 19.7734375 C14.6855938 16.42963049 11.48119542 13.46838253 8.359375 10.4296875 C7.06773437 9.16511719 7.06773437 9.16511719 5.75 7.875 C4.44289062 6.60269531 4.44289062 6.60269531 3.109375 5.3046875 C1 3 1 3 0 0 Z " fill="#54C466" transform="translate(208,256)"/>
<path d="M0 0 C4.75 0.75 4.75 0.75 7 3 C9.06043854 3.56883273 11.12186341 3.94855684 13.22265625 4.33984375 C13.80917969 4.55769531 14.39570313 4.77554687 15 5 C15.33 5.99 15.66 6.98 16 8 C15.67 8.66 15.34 9.32 15 10 C15.66 10 16.32 10 17 10 C17 10.66 17 11.32 17 12 C17.66 12 18.32 12 19 12 C19 12.66 19 13.32 19 14 C20.65 14.66 22.3 15.32 24 16 C23.67 16.99 23.34 17.98 23 19 C18.63510694 16.15820407 14.48240818 13.13801549 10.375 9.9375 C6.04039564 6.5571906 6.04039564 6.5571906 1.6015625 3.31640625 C0.80878906 2.66478516 0.80878906 2.66478516 0 2 C0 1.34 0 0.68 0 0 Z " fill="#EFFDEF" transform="translate(216,332)"/>
<path d="M0 0 C0.66 0 1.32 0 2 0 C2.33 0.99 2.66 1.98 3 3 C5.31 3.33 7.62 3.66 10 4 C9.34 4.66 8.68 5.32 8 6 C8.99 7.485 8.99 7.485 10 9 C10 10.32 10 11.64 10 13 C10.99 13.33 11.98 13.66 13 14 C14 16.5 14 16.5 15 19 C15.99 19.33 16.98 19.66 18 20 C18 21.32 18 22.64 18 24 C18.66 24 19.32 24 20 24 C21.06775224 25.96466413 22.06553465 27.96855359 23 30 C22.67 30.66 22.34 31.32 22 32 C20.39826716 29.94744831 18.79930952 27.89280942 17.203125 25.8359375 C15.63451846 23.81677376 14.06133512 21.80166686 12.484375 19.7890625 C0 3.792579 0 3.792579 0 0 Z " fill="#D4FADE" transform="translate(130,236)"/>
<path d="M0 0 C-0.66 1.98 -1.32 3.96 -2 6 C-2.99 5.67 -3.98 5.34 -5 5 C-6.56118428 4.93259135 -8.1250252 4.91485544 -9.6875 4.9375 C-10.49574219 4.94652344 -11.30398438 4.95554687 -12.13671875 4.96484375 C-12.75160156 4.97644531 -13.36648438 4.98804688 -14 5 C-14 4.34 -14 3.68 -14 3 C-14.515625 3.33 -15.03125 3.66 -15.5625 4 C-18.77328622 5.31724563 -21.55843492 5.06373269 -25 5 C-25.99 5.495 -25.99 5.495 -27 6 C-29.5 4.625 -29.5 4.625 -32 3 C-32.66 2.67 -33.32 2.34 -34 2 C-33 1 -33 1 -30.59155273 0.97827148 C-29.02836304 1.04896851 -29.02836304 1.04896851 -27.43359375 1.12109375 C-26.30888672 1.16943359 -25.18417969 1.21777344 -24.02539062 1.26757812 C-22.24938477 1.35168945 -22.24938477 1.35168945 -20.4375 1.4375 C-19.24962891 1.48970703 -18.06175781 1.54191406 -16.83789062 1.59570312 C-13.89168934 1.7258566 -10.94578724 1.8608364 -8 2 C-8 1.34 -8 0.68 -8 0 C-2.25 -1.125 -2.25 -1.125 0 0 Z " fill="#19C236" transform="translate(370,402)"/>
<path d="M0 0 C3.63599518 2.69727009 6.14987704 5.32487313 8.6875 9.0625 C12.39968162 14.33733331 16.45567957 18.92013379 20.8984375 23.58984375 C22.73568379 25.69687156 23.92115421 27.44515091 25 30 C23.35 30 21.7 30 20 30 C20 29.01 20 28.02 20 27 C19.34 27 18.68 27 18 27 C16.88671875 25.42578125 16.88671875 25.42578125 15.6875 23.3125 C13.5015875 19.66503896 11.09490266 16.94015753 8 14 C0 5.04761905 0 5.04761905 0 0 Z " fill="#59C86D" transform="translate(144,258)"/>
<path d="M0 0 C3.34538635 3.07032125 5.55780221 6.29293263 7.875 10.1875 C10.72222442 14.9382247 13.68088836 19.56878157 16.87109375 24.09765625 C18.0396779 26.06686208 18.56642816 27.7623706 19 30 C18.01 30.33 17.02 30.66 16 31 C16 30.34 16 29.68 16 29 C15.01 28.67 14.02 28.34 13 28 C12.2265625 26.14453125 12.2265625 26.14453125 11.625 23.8125 C10.65417533 20.56614448 9.71726269 18.32625592 7.4375 15.8125 C4.89874397 12.88316612 4.10506542 10.65521638 3 7 C2.34 6.67 1.68 6.34 1 6 C0.375 2.9375 0.375 2.9375 0 0 Z " fill="#D2FADD" transform="translate(164,111)"/>
<path d="M0 0 C0.63615234 0.56267578 0.63615234 0.56267578 1.28515625 1.13671875 C4.30541903 3.771981 7.32425127 6.28462065 10.625 8.5625 C13.7658924 10.74928539 16.29122733 13.29122733 19 16 C21.01399489 17.56908872 23.06083239 19.0788093 25.1328125 20.5703125 C26.9143092 21.93438738 28.4542605 23.37745357 30 25 C26.5625 24.1875 26.5625 24.1875 23 23 C22.67 22.01 22.34 21.02 22 20 C20.68 20 19.36 20 18 20 C17.67 18.68 17.34 17.36 17 16 C15.6696875 15.9071875 15.6696875 15.9071875 14.3125 15.8125 C10.20688614 14.80546264 8.67600409 13.21120491 6 10 C5.67 9.01 5.34 8.02 5 7 C4.34 6.71125 3.68 6.4225 3 6.125 C1 5 1 5 0.25 2.375 C0.1675 1.59125 0.085 0.8075 0 0 Z " fill="#42BD59" transform="translate(202,321)"/>
<path d="M0 0 C-1.74802146 0.81674796 -3.49850189 1.62823451 -5.25 2.4375 C-6.22453125 2.88996094 -7.1990625 3.34242188 -8.203125 3.80859375 C-14.54760898 6.51120215 -21.81700578 7.40097108 -28.4609375 5.17578125 C-33.67893325 2.64213349 -33.67893325 2.64213349 -35 0 C-33.6696875 0.495 -33.6696875 0.495 -32.3125 1 C-23.3138902 3.52178783 -14.24994008 2.20943233 -5.4609375 -0.44140625 C-3 -1 -3 -1 0 0 Z " fill="#50BE62" transform="translate(299,308)"/>
<path d="M0 0 C0.66 0.33 1.32 0.66 2 1 C-2.53782597 5.8403477 -7.59800548 10.14689594 -13 14 C-13.66 14 -14.32 14 -15 14 C-15.4021875 15.36125 -15.4021875 15.36125 -15.8125 16.75 C-16.90131632 19.72991834 -17.86391101 21.68590359 -20 24 C-20.66 24 -21.32 24 -22 24 C-20.74809374 19.51400257 -19.20614467 16.40652872 -16 13 C-15.34 13 -14.68 13 -14 13 C-13.773125 12.42636719 -13.54625 11.85273437 -13.3125 11.26171875 C-11.64156789 8.38234467 -9.62557543 6.84655771 -7 4.8125 C-6.113125 4.11769531 -5.22625 3.42289062 -4.3125 2.70703125 C-2 1 -2 1 0 0 Z " fill="#D6FBDD" transform="translate(116,96)"/>
<path d="M0 0 C2.375 0.3125 2.375 0.3125 5 1 C5.66 1.99 6.32 2.98 7 4 C8.175625 4.4125 9.35125 4.825 10.5625 5.25 C11.696875 5.8275 12.83125 6.405 14 7 C14.93623513 10.49527781 15 13.40524936 15 17 C9.00847112 12.54476058 4.48542429 6.94069529 0 1 C0 0.67 0 0.34 0 0 Z " fill="#D8FBE0" transform="translate(158,274)"/>
<path d="M0 0 C0.33 0.66 0.66 1.32 1 2 C4.465 1.505 4.465 1.505 8 1 C10 4.75 10 4.75 10 7 C10.721875 7.268125 11.44375 7.53625 12.1875 7.8125 C19.28571429 10.80952381 19.28571429 10.80952381 21.3125 14.1875 C21.539375 14.785625 21.76625 15.38375 22 16 C18.1408396 14.7136132 15.21993381 12.78027974 11.96875 10.36328125 C9.11894913 8.38990724 6.08673781 6.81092284 3.015625 5.2109375 C1.00840584 4.00505002 -0.42684831 2.72250153 -2 1 C-1.34 0.67 -0.68 0.34 0 0 Z " fill="#42C55A" transform="translate(348,304)"/>
<path d="M0 0 C0.63301025 0.3616626 1.26602051 0.7233252 1.91821289 1.09594727 C2.5750708 1.45954346 3.23192871 1.82313965 3.90869141 2.19775391 C8.54972423 4.78656299 13.13399454 7.43897368 17.54321289 10.40844727 C17.54321289 10.73844727 17.54321289 11.06844727 17.54321289 11.40844727 C14.16821289 11.09594727 14.16821289 11.09594727 10.54321289 10.40844727 C9.88321289 9.41844727 9.22321289 8.42844727 8.54321289 7.40844727 C6.2417718 6.33708676 3.90919159 5.32855009 1.54321289 4.40844727 C1.54321289 3.74844727 1.54321289 3.08844727 1.54321289 2.40844727 C-4.52706069 0.25012777 -10.05049287 0.19992413 -16.45678711 0.40844727 C-16.78678711 1.06844727 -17.11678711 1.72844727 -17.45678711 2.40844727 C-18.11678711 1.74844727 -18.77678711 1.08844727 -19.45678711 0.40844727 C-12.10559706 -2.63342448 -7.41993667 -4.03482659 0 0 Z " fill="#C4F9CF" transform="translate(333.456787109375,297.591552734375)"/>
<path d="M0 0 C5.01945702 1.32090974 8.9551589 3.70231713 13.3203125 6.40234375 C17.42437062 8.84922388 21.69623625 10.93053062 26 13 C26 13.33 26 13.66 26 14 C22.37471432 14.20140476 20.13498292 13.85776765 17 12 C17 11.34 17 10.68 17 10 C16.484375 9.87625 15.96875 9.7525 15.4375 9.625 C12.2731198 8.81362046 9.14096679 7.89741908 6 7 C5.236875 6.835 4.47375 6.67 3.6875 6.5 C2 6 2 6 0 4 C0 2.68 0 1.36 0 0 Z " fill="#42B551" transform="translate(262,368)"/>
<path d="M0 0 C0 0.66 0 1.32 0 2 C0.66 2 1.32 2 2 2 C5.41164857 15.43336624 5.41164857 15.43336624 2.625 20.5 C1.820625 21.7375 1.820625 21.7375 1 23 C0.27833809 25.31691454 -0.40059529 27.64848923 -1 30 C-1.99 30 -2.98 30 -4 30 C-2.99806563 26.20696275 -2.18975773 23.28463659 0 20 C1.47392264 15.13605528 1.08790438 10.03008423 1 5 C0.0409375 4.566875 0.0409375 4.566875 -0.9375 4.125 C-3 3 -3 3 -4 1 C-2 0 -2 0 0 0 Z " fill="#3EB857" transform="translate(404,338)"/>
<path d="M0 0 C3.40871106 3.31869229 6.51593201 6.73368322 9.5 10.4375 C10.27214844 11.39140625 11.04429687 12.3453125 11.83984375 13.328125 C12.90912109 14.65070313 12.90912109 14.65070313 14 16 C15.65849943 18.00705242 17.32789369 20.00426022 19 22 C18.01 22.33 17.02 22.66 16 23 C14.29115995 21.37660195 12.62553283 19.70680947 11 18 C11 17.34 11 16.68 11 16 C10.34 16 9.68 16 9 16 C7.7109375 14.5390625 7.7109375 14.5390625 6.375 12.625 C5.92898437 11.99851563 5.48296875 11.37203125 5.0234375 10.7265625 C4 9 4 9 4 7 C3.34 7 2.68 7 2 7 C0 4 0 4 0 0 Z " fill="#D2FBD6" transform="translate(191,237)"/>
<path d="M0 0 C2.4375 2.5 2.4375 2.5 4 5 C3.01 4.67 2.02 4.34 1 4 C-4.95230202 3.67774161 -11.20244911 3.51977424 -17 5 C-18.51294288 6.93597032 -18.51294288 6.93597032 -19 9 C-20.65 9 -22.3 9 -24 9 C-24 9.66 -24 10.32 -24 11 C-25.32 10.67 -26.64 10.34 -28 10 C-9.85251207 -1.80964507 -9.85251207 -1.80964507 0 0 Z " fill="#C8FACF" transform="translate(146,85)"/>
<path d="M0 0 C0.33 0 0.66 0 1 0 C1.04241723 2.33294775 1.04092937 4.66702567 1 7 C0.67 7.33 0.34 7.66 0 8 C-0.10070248 10.92629572 -0.13867335 13.82390339 -0.125 16.75 C-0.12886719 17.56210938 -0.13273437 18.37421875 -0.13671875 19.2109375 C-0.13006117 23.29868897 0.10651778 26.99691826 1 31 C1.06371368 32.60303627 1.08644214 34.20837672 1.0625 35.8125 C1.05347656 36.60269531 1.04445313 37.39289063 1.03515625 38.20703125 C1.01775391 39.09455078 1.01775391 39.09455078 1 40 C0.67 40 0.34 40 0 40 C-2.9680603 26.39639028 -5.18632385 13.39800328 0 0 Z " fill="#C8FBD0" transform="translate(93,120)"/>
<path d="M0 0 C1.32 0 2.64 0 4 0 C2.59699827 4.20900519 -0.33126961 5.13057572 -4.0625 7.0625 C-5.02833008 7.5894043 -5.02833008 7.5894043 -6.01367188 8.12695312 C-13.10674965 11.86796822 -19.44709745 13.27986351 -27.5 13.125 C-28.7271875 13.10695313 -29.954375 13.08890625 -31.21875 13.0703125 C-32.1365625 13.04710937 -33.054375 13.02390625 -34 13 C-34 12.67 -34 12.34 -34 12 C-33.16597656 11.96261719 -32.33195312 11.92523438 -31.47265625 11.88671875 C-25.20473324 11.52055143 -19.66497929 10.932039 -13.8046875 8.62109375 C-12 8 -12 8 -9 8 C-9 7.34 -9 6.68 -9 6 C-7.68 6 -6.36 6 -5 6 C-5 5.34 -5 4.68 -5 4 C-4.360625 3.896875 -3.72125 3.79375 -3.0625 3.6875 C-2.381875 3.460625 -1.70125 3.23375 -1 3 C-0.67 2.01 -0.34 1.02 0 0 Z " fill="#AFEFBC" transform="translate(380,389)"/>
<path d="M0 0 C0.66 0.33 1.32 0.66 2 1 C1.855625 1.82242188 1.71125 2.64484375 1.5625 3.4921875 C-0.61756956 15.30307014 -0.61756956 15.30307014 1 27 C1.14573058 28.47965926 1.24663268 29.96403843 1.31640625 31.44921875 C1.35830078 32.29677734 1.40019531 33.14433594 1.44335938 34.01757812 C1.48267578 34.89865234 1.52199219 35.77972656 1.5625 36.6875 C1.62727539 38.02651367 1.62727539 38.02651367 1.69335938 39.39257812 C1.79935353 41.59490108 1.90142051 43.79733473 2 46 C-0.3411874 42.4882189 -0.67715115 39.52107141 -1.125 35.4375 C-1.20919189 34.69822266 -1.29338379 33.95894531 -1.38012695 33.19726562 C-1.97412904 27.46306916 -2.18169098 21.76312536 -2.1875 16 C-2.18830566 15.21681396 -2.18911133 14.43362793 -2.18994141 13.62670898 C-2.13482041 8.13482041 -2.13482041 8.13482041 -1 7 C-0.63239269 4.67182036 -0.29758419 2.3381615 0 0 Z " fill="#E8FDEC" transform="translate(94,120)"/>
<path d="M0 0 C0.33 0 0.66 0 1 0 C1 3.96 1 7.92 1 12 C0.01 12.33 -0.98 12.66 -2 13 C-3.41564888 15.31222651 -4.71727035 17.61648816 -6 20 C-6.81707836 21.44680118 -7.65049477 22.88449735 -8.5 24.3125 C-8.8815625 24.96863281 -9.263125 25.62476563 -9.65625 26.30078125 C-11.22552475 28.28518392 -12.68683455 29.03454747 -15 30 C-13.19926521 24.89791809 -10.4772901 20.75428199 -7 16.625 C-3.12556121 11.53979909 -0.64210315 6.42103147 0 0 Z " fill="#5AD46F" transform="translate(199,164)"/>
<path d="M0 0 C2.38564077 0.57584432 4.66682784 1.22227595 7 2 C7 2.66 7 3.32 7 4 C11.455 4.99 11.455 4.99 16 6 C16 6.99 16 7.98 16 9 C13.03 8.67 10.06 8.34 7 8 C6.67 7.01 6.34 6.02 6 5 C5.01 5 4.02 5 3 5 C2.67 5.99 2.34 6.98 2 8 C1.34 8 0.68 8 0 8 C0 5.36 0 2.72 0 0 Z " fill="#26BF41" transform="translate(272,376)"/>
<path d="M0 0 C0.66 0.33 1.32 0.66 2 1 C-1.38546481 8.61729582 -5.95156756 16.30104504 -13 21 C-12.58225916 18.57710315 -12.30387062 17.29120935 -10.5 15.5625 C-8.53426922 13.51486377 -8.37331439 11.76252651 -8 9 C-6.68 8.67 -5.36 8.34 -4 8 C-4 7.34 -4 6.68 -4 6 C-3.34 6 -2.68 6 -2 6 C-1.34 4.02 -0.68 2.04 0 0 Z " fill="#C6F8CE" transform="translate(397,368)"/>
<path d="M0 0 C0.66 1.32 1.32 2.64 2 4 C3.32 4 4.64 4 6 4 C6.33 4.66 6.66 5.32 7 6 C9.28662504 7.04657069 11.61570254 7.91857153 13.96875 8.8046875 C16 10 16 10 16.78125 12.1328125 C16.8534375 12.74898438 16.925625 13.36515625 17 14 C11.25 12.125 11.25 12.125 9 11 C9 11.66 9 12.32 9 13 C8.34 13 7.68 13 7 13 C7 12.34 7 11.68 7 11 C6.34 10.67 5.68 10.34 5 10 C4.855625 9.34 4.71125 8.68 4.5625 8 C4.376875 7.34 4.19125 6.68 4 6 C3.01 5.67 2.02 5.34 1 5 C0.67 3.35 0.34 1.7 0 0 Z " fill="#2BC645" transform="translate(218,337)"/>
<path d="M0 0 C1.49080078 0.02707031 1.49080078 0.02707031 3.01171875 0.0546875 C3.77097656 0.07789063 4.53023438 0.10109375 5.3125 0.125 C-0.91906373 5.14601714 -7.9544711 5.62344569 -15.6875 5.125 C-17.6954077 4.84318839 -19.7012698 4.53243184 -21.6875 4.125 C-21.6875 3.795 -21.6875 3.465 -21.6875 3.125 C-20.78386719 3.07601563 -19.88023437 3.02703125 -18.94921875 2.9765625 C-17.76972656 2.90179688 -16.59023438 2.82703125 -15.375 2.75 C-13.61736328 2.64558594 -13.61736328 2.64558594 -11.82421875 2.5390625 C-7.25890183 1.93641792 -4.85491693 -0.11423334 0 0 Z " fill="#E5FEED" transform="translate(365.6875,395.875)"/>
<path d="M0 0 C4.15187618 1.5164982 5.63529148 4.08470168 7.9375 7.75 C10.73941289 12.10736734 13.56157468 16.13177152 17 20 C16.67 20.66 16.34 21.32 16 22 C15.01 21.34 14.02 20.68 13 20 C13 19.34 13 18.68 13 18 C12.01 17.67 11.02 17.34 10 17 C7.92469613 14.07920195 7 12.62453269 7 9 C5.68 8.67 4.36 8.34 3 8 C3 6.68 3 5.36 3 4 C2.34 4 1.68 4 1 4 C0.67 2.68 0.34 1.36 0 0 Z " fill="#56CA6C" transform="translate(127,236)"/>
<path d="M0 0 C0.66 0 1.32 0 2 0 C2.47294943 6.62129208 1.33734634 10.34478488 -2 16 C-2.60199219 17.04671875 -3.20398438 18.0934375 -3.82421875 19.171875 C-5.53287168 22.12475999 -7.25916381 25.06600642 -9 28 C-10 25 -10 25 -8.5625 21.8125 C-8.046875 20.884375 -7.53125 19.95625 -7 19 C-6.34 19 -5.68 19 -5 19 C-5 17.68 -5 16.36 -5 15 C-4.34 15 -3.68 15 -3 15 C-2.01 10.05 -1.02 5.1 0 0 Z " fill="#D2FCD6" transform="translate(194,164)"/>
<path d="M0 0 C0.33 0 0.66 0 1 0 C5.22323462 16.70842825 5.22323462 16.70842825 7 25 C6.34 25.33 5.68 25.66 5 26 C4.67 24.68 4.34 23.36 4 22 C3.34 22 2.68 22 2 22 C-0.29612756 7.40318907 -0.29612756 7.40318907 0 0 Z " fill="#6CD57D" transform="translate(92,154)"/>
<path d="M0 0 C0.66 0 1.32 0 2 0 C2 0.66 2 1.32 2 2 C2.66 2 3.32 2 4 2 C5.03480605 5.4334517 6.05040959 8.87229026 7.0625 12.3125 C7.35705078 13.28896484 7.65160156 14.26542969 7.95507812 15.27148438 C8.22900391 16.20927734 8.50292969 17.14707031 8.78515625 18.11328125 C9.04176025 18.97735596 9.29836426 19.84143066 9.56274414 20.73168945 C10 23 10 23 9 26 C6.61437967 20.21587027 4.37211116 14.38586986 2.25 8.5 C1.82203125 7.3140625 1.3940625 6.128125 0.953125 4.90625 C0 2 0 2 0 0 Z " fill="#CEFDD5" transform="translate(95,166)"/>
<path d="M0 0 C0.66 0 1.32 0 2 0 C0.93225611 3.28536581 -0.1936326 6.44922762 -1.5625 9.625 C-3.59475324 14.9006473 -3.72947658 20.40296378 -4 26 C-4.66 26 -5.32 26 -6 26 C-6.45755719 18.37404682 -4.74536299 11.3970146 -3 4 C-2.34 4 -1.68 4 -1 4 C-0.67 2.68 -0.34 1.36 0 0 Z " fill="#C9FAD5" transform="translate(182,192)"/>
<path d="M0 0 C3.82267864 3.56872446 6.52914841 7.10755557 9.25 11.625 C9.93578125 12.75164062 10.6215625 13.87828125 11.328125 15.0390625 C13 18 13 18 14 21 C13.01 21.33 12.02 21.66 11 22 C10.32845067 20.71086513 9.66291141 19.41859796 9 18.125 C8.62875 17.40570313 8.2575 16.68640625 7.875 15.9453125 C7 14 7 14 7 12 C6.34 12 5.68 12 5 12 C4.16180842 10.37750059 3.3295884 8.75191503 2.5 7.125 C2.0359375 6.22007813 1.571875 5.31515625 1.09375 4.3828125 C0 2 0 2 0 0 Z " fill="#CAFBD5" transform="translate(150,90)"/>
<path d="M0 0 C0 0.66 0 1.32 0 2 C1.32 2.33 2.64 2.66 4 3 C2.98292969 3.02126953 2.98292969 3.02126953 1.9453125 3.04296875 C-4.60947607 3.37887897 -9.16459762 4.67312082 -14.80859375 8.0390625 C-17.37159239 9.16294426 -18.42874775 8.97227306 -21 8 C-19.35 7.01 -17.7 6.02 -16 5 C-16.33 4.01 -16.66 3.02 -17 2 C-16.443125 2.391875 -15.88625 2.78375 -15.3125 3.1875 C-14.549375 3.455625 -13.78625 3.72375 -13 4 C-10.49759982 2.69882448 -10.49759982 2.69882448 -8 1 C-5.18396481 0.26246697 -2.91769558 0 0 0 Z " fill="#56EC71" transform="translate(145,80)"/>
<path d="M0 0 C2.87355849 0.08451643 4.54298589 0.54522068 6.59765625 2.58984375 C7.6421364 3.8447597 8.66649466 5.11675301 9.66796875 6.40625 C10.92936016 8.13113625 10.92936016 8.13113625 13 9 C13 10.32 13 11.64 13 13 C13.66 13 14.32 13 15 13 C14.67 13.66 14.34 14.32 14 15 C8.79814679 10.75358921 4.15632577 6.29331458 0 1 C0 0.67 0 0.34 0 0 Z " fill="#CAF9CF" transform="translate(173,291)"/>
<path d="M0 0 C2.64 0.66 5.28 1.32 8 2 C8 2.66 8 3.32 8 4 C8.99902344 4.19335938 9.99804688 4.38671875 11.02734375 4.5859375 C12.31769531 4.84632813 13.60804688 5.10671875 14.9375 5.375 C16.22527344 5.63023437 17.51304687 5.88546875 18.83984375 6.1484375 C19.88269531 6.42945313 20.92554688 6.71046875 22 7 C22.33 7.66 22.66 8.32 23 9 C13.33824134 9.77362836 13.33824134 9.77362836 10.07421875 7.88671875 C8.6910762 6.61794457 7.34347357 5.31070592 6 4 C4.68 4 3.36 4 2 4 C2 3.34 2 2.68 2 2 C1.34 2 0.68 2 0 2 C0 1.34 0 0.68 0 0 Z " fill="#20BD3E" transform="translate(304,391)"/>
<path d="M0 0 C8.07529955 3.16313577 16.04011123 6.55912589 24 10 C19.13547291 11.62150903 14.74446692 9.59776901 10 8 C7.125 6.4375 7.125 6.4375 5 5 C3.34630643 4.30177383 1.68272986 3.62501395 0 3 C0 2.01 0 1.02 0 0 Z " fill="#42B459" transform="translate(288,382)"/>
<path d="M0 0 C1.32 0 2.64 0 4 0 C4 0.66 4 1.32 4 2 C4.77085937 2.12117188 5.54171875 2.24234375 6.3359375 2.3671875 C7.84027344 2.61855469 7.84027344 2.61855469 9.375 2.875 C10.37273437 3.03742188 11.37046875 3.19984375 12.3984375 3.3671875 C15 4 15 4 17 6 C17.625 8.625 17.625 8.625 18 11 C13.74693457 9.47017797 10.00735822 7.31799136 6.1875 4.9375 C5.59001953 4.57333984 4.99253906 4.20917969 4.37695312 3.83398438 C2.89859629 2.91993746 1.44651932 1.96364025 0 1 C0 0.67 0 0.34 0 0 Z " fill="#51BF62" transform="translate(382,328)"/>
<path d="M0 0 C6.1965447 1.46760269 11.06869466 5.11148057 16 9 C16 9.33 16 9.66 16 10 C13.125 10.125 13.125 10.125 10 10 C9.34 9.34 8.68 8.68 8 8 C5.93125966 7.3574765 5.93125966 7.3574765 4 7 C4 5.68 4 4.36 4 3 C2.68 2.67 1.36 2.34 0 2 C0 1.34 0 0.68 0 0 Z " fill="#D0FADA" transform="translate(352,310)"/>
<path d="M0 0 C8.1698614 1.43066697 16.05394988 3.64137417 24 6 C24 6.33 24 6.66 24 7 C15.1708786 7.3603723 8.17094629 5.15369857 0 2 C0 1.34 0 0.68 0 0 Z " fill="#44B557" transform="translate(312,393)"/>
<path d="M0 0 C0.33 0 0.66 0 1 0 C0.97125751 6.33771959 -0.16341003 10.0579493 -4.4296875 14.78515625 C-6 16 -6 16 -9 16 C-7.30947142 12.49371851 -5.31590972 9.27361517 -3.21875 6 C-2.02744311 4.04503484 -0.99381218 2.06124007 0 0 Z " fill="#45BA56" transform="translate(399,368)"/>
<path d="M0 0 C2.17815278 3.26722917 2.81509115 5.75369065 3.6875 9.5625 C3.95949219 10.71878906 4.23148437 11.87507812 4.51171875 13.06640625 C5 16 5 16 4 18 C2.0625 17.375 2.0625 17.375 0 16 C-1.26575293 11.71591317 -0.84630301 8.32554872 0 4 C0 2.68 0 1.36 0 0 Z " fill="#4DDC66" transform="translate(89,152)"/>
<path d="M0 0 C0.99 0.33 1.98 0.66 3 1 C2.36191406 1.55429688 1.72382812 2.10859375 1.06640625 2.6796875 C0.24011719 3.40414062 -0.58617188 4.12859375 -1.4375 4.875 C-2.26121094 5.59429687 -3.08492188 6.31359375 -3.93359375 7.0546875 C-6.05982155 8.83238745 -6.05982155 8.83238745 -7 11 C-7.66 11 -8.32 11 -9 11 C-9.33 11.99 -9.66 12.98 -10 14 C-10.33 14 -10.66 14 -11 14 C-11 12.35 -11 10.7 -11 9 C-10.34 9 -9.68 9 -9 9 C-9 8.34 -9 7.68 -9 7 C-7.13671875 5.23828125 -7.13671875 5.23828125 -4.6875 3.3125 C-3.48673828 2.34763672 -3.48673828 2.34763672 -2.26171875 1.36328125 C-1.51535156 0.91339844 -0.76898438 0.46351562 0 0 Z " fill="#73DA83" transform="translate(109,98)"/>
<path d="M0 0 C0.33 0.66 0.66 1.32 1 2 C-0.93637547 6.08790378 -3.44806133 8.28930996 -7 11 C-7.33 11.66 -7.66 12.32 -8 13 C-10.31 13 -12.62 13 -15 13 C-10.44680851 9.20567376 -10.44680851 9.20567376 -8.03125 8.09375 C-5.68373738 6.82970474 -4.42762426 5.43390251 -2.75 3.375 C-2.22921875 2.74335938 -1.7084375 2.11171875 -1.171875 1.4609375 C-0.78515625 0.97882813 -0.3984375 0.49671875 0 0 Z " fill="#43B953" transform="translate(389,384)"/>
<path d="M0 0 C5 1.66666667 10 3.33333333 15 5 C14.67 5.66 14.34 6.32 14 7 C9.91124013 7.18585272 7.60290612 6.80145306 4 5 C1.80252869 5.29805007 1.80252869 5.29805007 0 6 C0 4.02 0 2.04 0 0 Z " fill="#1FC33C" transform="translate(288,385)"/>
<path d="M0 0 C5.73849846 4.42684167 10.44384499 9.40243813 15 15 C14.01 15.495 14.01 15.495 13 16 C11 14.625 11 14.625 9 13 C9 12.34 9 11.68 9 11 C8.01 10.67 7.02 10.34 6 10 C5.71125 9.195625 5.4225 8.39125 5.125 7.5625 C4.22055781 4.76071559 4.22055781 4.76071559 1.375 3.6875 C0.59125 3.460625 -0.1925 3.23375 -1 3 C-0.67 2.01 -0.34 1.02 0 0 Z " fill="#53BE66" transform="translate(186,305)"/>
<path d="M0 0 C2.77461808 1.66134539 3.86240464 2.61858568 4.9765625 5.70703125 C5.19054687 6.73183594 5.40453125 7.75664062 5.625 8.8125 C6.54877914 12.9770781 7.54833279 16.97999851 9 21 C7.5 19.625 7.5 19.625 6 18 C6 17.34 6 16.68 6 16 C4.35 16 2.7 16 1 16 C1.391875 15.34 1.78375 14.68 2.1875 14 C3.22494013 10.16945182 2.30352821 8.39136304 0.7265625 4.8671875 C0 3 0 3 0 0 Z " fill="#4AD961" transform="translate(95,176)"/>
<path d="M0 0 C0 0.66 0 1.32 0 2 C-1.36125 2.61875 -1.36125 2.61875 -2.75 3.25 C-5.80952394 4.89743597 -7.61885918 6.53381843 -10 9 C-10.66 9 -11.32 9 -12 9 C-12 9.66 -12 10.32 -12 11 C-12.66 11 -13.32 11 -14 11 C-14.66 12.32 -15.32 13.64 -16 15 C-15.67 12.69 -15.34 10.38 -15 8 C-13.824375 7.6596875 -13.824375 7.6596875 -12.625 7.3125 C-9.31827043 5.65913521 -9.28226023 4.33387661 -8 1 C-5.20408963 -0.21156116 -3.12576931 0 0 0 Z " fill="#55E46D" transform="translate(112,96)"/>
<path d="M0 0 C2.97 0.495 2.97 0.495 6 1 C6 1.99 6 2.98 6 4 C7.65 4.33 9.3 4.66 11 5 C11 5.66 11 6.32 11 7 C13.475 7.99 13.475 7.99 16 9 C15.67 9.99 15.34 10.98 15 12 C9.77262551 8.64911892 4.74151617 5.01448369 0 1 C0 0.67 0 0.34 0 0 Z " fill="#C2F6CD" transform="translate(224,339)"/>
<path d="M0 0 C4.88049925 3.9419417 9.0580583 8.11950075 13 13 C12.67 13.66 12.34 14.32 12 15 C11.34 15 10.68 15 10 15 C9.773125 14.401875 9.54625 13.80375 9.3125 13.1875 C8.13034106 10.80893684 8.13034106 10.80893684 5.5625 9.625 C2.30999537 7.56243609 1.42457967 5.52396023 0 2 C0 1.34 0 0.68 0 0 Z " fill="#4FC262" transform="translate(169,288)"/>
<path d="M0 0 C8.23329621 2.27839644 8.23329621 2.27839644 11.125 5 C12 7 12 7 11 10 C9.53737408 8.9015258 8.08004497 7.7959964 6.625 6.6875 C5.81289062 6.07261719 5.00078125 5.45773437 4.1640625 4.82421875 C2 3 2 3 0 0 Z " fill="#D7FCDD" transform="translate(204,322)"/>
<path d="M0 0 C0 0.66 0 1.32 0 2 C-0.99 2 -1.98 2 -3 2 C-3.33 2.99 -3.66 3.98 -4 5 C-6.34432548 6.35327565 -8.62026711 7.5439716 -11.0625 8.6875 C-11.72572266 9.00783203 -12.38894531 9.32816406 -13.07226562 9.65820312 C-14.71050858 10.4478598 -16.35471454 11.22512362 -18 12 C-18.66 11.34 -19.32 10.68 -20 10 C-19.20335937 9.61328125 -18.40671875 9.2265625 -17.5859375 8.828125 C-10.79275849 5.55622506 -10.79275849 5.55622506 -4.375 1.625 C-2 0 -2 0 0 0 Z " fill="#C5F8D1" transform="translate(314,299)"/>
<path d="M0 0 C4.52615993 3.67832017 8.39424999 7.41086363 12 12 C11.01 12.495 11.01 12.495 10 13 C9.67 12.34 9.34 11.68 9 11 C7.865625 10.566875 6.73125 10.13375 5.5625 9.6875 C2 8 2 8 0.5625 5.5 C0 3 0 3 0 0 Z " fill="#C8F4C7" transform="translate(210,260)"/>
<path d="M0 0 C0.33 0 0.66 0 1 0 C0.67 4.62 0.34 9.24 0 14 C0.66 14 1.32 14 2 14 C2.99 16.64 3.98 19.28 5 22 C4.01 22.33 3.02 22.66 2 23 C-0.6773761 18.39914054 -1.363673 15.11534546 -1.25 9.8125 C-1.23453125 8.60207031 -1.2190625 7.39164063 -1.203125 6.14453125 C-1 3 -1 3 0 0 Z " fill="#64CC7C" transform="translate(179,203)"/>
<path d="M0 0 C1.98 0.66 3.96 1.32 6 2 C6.12375 2.721875 6.2475 3.44375 6.375 4.1875 C6.9904931 6.95721894 7.88444374 9.3970354 9 12 C8.01 11.67 7.02 11.34 6 11 C6 10.34 6 9.68 6 9 C5.01 9 4.02 9 3 9 C2.01 6.03 1.02 3.06 0 0 Z " fill="#59DC6F" transform="translate(177,127)"/>
<path d="M0 0 C4.78775956 3.53613714 9.46451416 7.14483704 14 11 C12.68 11.33 11.36 11.66 10 12 C9.7525 11.360625 9.505 10.72125 9.25 10.0625 C8.8375 9.381875 8.425 8.70125 8 8 C7.071875 7.7834375 7.071875 7.7834375 6.125 7.5625 C2.91818037 6.71363598 1.81930558 4.66398317 0 2 C0 1.34 0 0.68 0 0 Z " fill="#CDFAD1" transform="translate(248,296)"/>
<path d="M0 0 C0.99 0.33 1.98 0.66 3 1 C3 2.65 3 4.3 3 6 C3.99 5.67 4.98 5.34 6 5 C6.268125 5.804375 6.53625 6.60875 6.8125 7.4375 C7.204375 8.283125 7.59625 9.12875 8 10 C8.99 10.33 9.98 10.66 11 11 C8.2044578 10.81964244 5.70109219 10.657321 3 10 C0.60474172 7.18817506 0.49034559 3.59586765 0 0 Z " fill="#42C755" transform="translate(259,298)"/>
<path d="M0 0 C4.13937592 3.30015998 7.58662205 6.17324411 10 11 C8.35 11 6.7 11 5 11 C5 10.01 5 9.02 5 8 C4.34 8 3.68 8 3 8 C1.02 4.535 1.02 4.535 -1 1 C-0.67 0.67 -0.34 0.34 0 0 Z " fill="#53C466" transform="translate(159,277)"/>
<path d="M0 0 C0.99 0 1.98 0 3 0 C3 1.32 3 2.64 3 4 C4.32 4.33 5.64 4.66 7 5 C7.66 8.3 8.32 11.6 9 15 C6.3415435 12.3415435 4.71488004 10.12692234 2.8125 6.9375 C2.01779297 5.62072266 2.01779297 5.62072266 1.20703125 4.27734375 C0 2 0 2 0 0 Z " fill="#6FD981" transform="translate(170,118)"/>
<path d="M0 0 C0.33 0 0.66 0 1 0 C1.304 9.12 1.304 9.12 -1 12 C-3.125 12.75 -3.125 12.75 -5 13 C-5 8.22502694 -3.92518777 7.54568215 -1 4 C-0.22166466 1.81785432 -0.22166466 1.81785432 0 0 Z " fill="#E2FCE7" transform="translate(401,356)"/>
<path d="M0 0 C0 0.66 0 1.32 0 2 C0.66 2 1.32 2 2 2 C2.41659944 3.93314127 2.80764837 5.87180347 3.1875 7.8125 C3.40792969 8.89144531 3.62835938 9.97039062 3.85546875 11.08203125 C3.90316406 12.04496094 3.95085937 13.00789063 4 14 C3.01 14.99 2.02 15.98 1 17 C1 13.04 1 9.08 1 5 C-0.32 4.34 -1.64 3.68 -3 3 C-3.33 2.34 -3.66 1.68 -4 1 C-2 0 -2 0 0 0 Z " fill="#54BF66" transform="translate(404,338)"/>
<path d="M0 0 C0.99 0.33 1.98 0.66 3 1 C3 1.66 3 2.32 3 3 C3.78375 3.103125 4.5675 3.20625 5.375 3.3125 C8 4 8 4 10 7 C9.625 9.1875 9.625 9.1875 9 11 C8.34 10.01 7.68 9.02 7 8 C5.7625 7.319375 5.7625 7.319375 4.5 6.625 C1.55505695 4.71078701 0.98275834 3.30564167 0 0 Z " fill="#E2FBE2" transform="translate(217,270)"/>
<path d="M0 0 C1.32 0.33 2.64 0.66 4 1 C2.68 5.29 1.36 9.58 0 14 C-0.33 12.68 -0.66 11.36 -1 10 C-1.226875 9.195625 -1.45375 8.39125 -1.6875 7.5625 C-2.064247 4.47317461 -1.34306673 2.76513739 0 0 Z " fill="#4DE569" transform="translate(90,112)"/>
<path d="M0 0 C1 2 1 2 0.375 4.875 C-1.18787818 8.42699587 -2.83496039 9.83444658 -6 12 C-5.75 8.625 -5.75 8.625 -5 5 C-3 3.75 -3 3.75 -1 3 C-0.67 2.01 -0.34 1.02 0 0 Z " fill="#4BD65D" transform="translate(189,189)"/>
<path d="M0 0 C4.455 0.99 4.455 0.99 9 2 C9 2.66 9 3.32 9 4 C10.98 4 12.96 4 15 4 C15 4.33 15 4.66 15 5 C4.44191344 5.3690205 4.44191344 5.3690205 0 3 C0 2.01 0 1.02 0 0 Z " fill="#D3FADA" transform="translate(310,389)"/>
<path d="M0 0 C3.96996957 1.32332319 5.76036395 4.0089399 8.14453125 7.24609375 C9 9 9 9 8 12 C5.03 8.7 2.06 5.4 -1 2 C-0.67 1.34 -0.34 0.68 0 0 Z " fill="#53C96A" transform="translate(199,244)"/>
<path d="M0 0 C-0.33 0.99 -0.66 1.98 -1 3 C-1.33 2.67 -1.66 2.34 -2 2 C-7.09401701 1.58416188 -10.64009971 2.38804487 -15.203125 4.44140625 C-17 5 -17 5 -20 4 C-13.20780865 -0.17981006 -7.88602342 -0.4731614 0 0 Z " fill="#71DB83" transform="translate(148,84)"/>
<path d="M0 0 C5.72822227 1.40282994 12.09251898 3.01437754 15.4375 8.25 C15.623125 8.8275 15.80875 9.405 16 10 C11.99243877 8.66414626 9.00249087 6.65836661 5.6484375 4.17578125 C3.85131916 2.8939504 2.02016614 1.8888731 0 1 C0 0.67 0 0.34 0 0 Z " fill="#53BE62" transform="translate(354,310)"/>
<path d="M0 0 C5.44520597 0.43561648 8.7160481 1.59231099 13 5 C14.875 7.25 14.875 7.25 16 9 C12.20950293 7.57250019 8.72877544 5.83763458 5.1875 3.875 C4.21167969 3.33617187 3.23585938 2.79734375 2.23046875 2.2421875 C1.49441406 1.83226562 0.75835937 1.42234375 0 1 C0 0.67 0 0.34 0 0 Z " fill="#62C572" transform="translate(330,296)"/>
<path d="M0 0 C1.30324219 -0.00386719 1.30324219 -0.00386719 2.6328125 -0.0078125 C4.875 0.125 4.875 0.125 6.875 1.125 C6.875 1.785 6.875 2.445 6.875 3.125 C1.265 3.125 -4.345 3.125 -10.125 3.125 C-9.125 1.125 -9.125 1.125 -7.3828125 0.5078125 C-4.88381769 0.0841075 -2.53431595 -0.00756512 0 0 Z " fill="#45C15C" transform="translate(325.125,292.875)"/>
<path d="M0 0 C0.66 0 1.32 0 2 0 C5 3.46153846 5 3.46153846 5 6 C5.66 6 6.32 6 7 6 C7 6.99 7 7.98 7 9 C7.99 9.33 8.98 9.66 10 10 C9.67 11.32 9.34 12.64 9 14 C7.49412261 12.04594482 5.99521356 10.08718716 4.5 8.125 C4.07074219 7.56941406 3.64148438 7.01382813 3.19921875 6.44140625 C0 2.2265625 0 2.2265625 0 0 Z " fill="#57C969" transform="translate(183,225)"/>
<path d="M0 0 C3.93555372 1.96777686 5.45173659 7.05685724 7 11 C7.36869008 13.52308389 7.27765473 15.44557648 7 18 C6.67 18 6.34 18 6 18 C6 16.02 6 14.04 6 12 C5.34 12 4.68 12 4 12 C3.3291288 10.3767313 2.66342971 8.75132422 2 7.125 C1.62875 6.22007812 1.2575 5.31515625 0.875 4.3828125 C0 2 0 2 0 0 Z " fill="#BDF6C6" transform="translate(190,152)"/>
<path d="M0 0 C0.33 0.99 0.66 1.98 1 3 C0.01 3.33 -0.98 3.66 -2 4 C-2.70626239 5.98636298 -3.36893571 7.98848259 -4 10 C-5.5 12.375 -5.5 12.375 -7 14 C-7.66 14 -8.32 14 -9 14 C-7.74809374 9.51400257 -6.20614467 6.40652872 -3 3 C-2.34 3 -1.68 3 -1 3 C-0.67 2.01 -0.34 1.02 0 0 Z " fill="#BBFACA" transform="translate(103,106)"/>
<path d="M0 0 C1.6498275 0.42218816 3.29483665 0.86324425 4.9375 1.3125 C6.31228516 1.67794922 6.31228516 1.67794922 7.71484375 2.05078125 C8.46894531 2.36402344 9.22304688 2.67726563 10 3 C10.33 3.99 10.66 4.98 11 6 C11.99 6.33 12.98 6.66 14 7 C13.01 7.33 12.02 7.66 11 8 C8.30078125 6.6015625 8.30078125 6.6015625 5.3125 4.625 C4.31863281 3.97789062 3.32476562 3.33078125 2.30078125 2.6640625 C1.16189453 1.84035156 1.16189453 1.84035156 0 1 C0 0.67 0 0.34 0 0 Z " fill="#54C065" transform="translate(370,320)"/>
<path d="M0 0 C5.68502535 1.64566523 10.76681636 4.29032784 16 7 C16 7.33 16 7.66 16 8 C12.37471432 8.20140476 10.13498292 7.85776765 7 6 C7 5.34 7 4.68 7 4 C6.1028125 3.7834375 6.1028125 3.7834375 5.1875 3.5625 C3.43849596 3.1127561 1.71322977 2.57107659 0 2 C0 1.34 0 0.68 0 0 Z " fill="#4CB360" transform="translate(272,374)"/>
<path d="M0 0 C0.33 0 0.66 0 1 0 C1.36637589 6.35051546 1.36637589 6.35051546 -0.375 9.4375 C-2 11 -2 11 -4 11 C-3.56534471 6.47958496 -3.21201178 3.3458456 0 0 Z " fill="#1DC63B" transform="translate(407,357)"/>
<path d="M0 0 C0 3.51384107 -0.61462887 5.76746737 -2 9 C-4.625 11.375 -4.625 11.375 -7 13 C-6.58225916 10.57710315 -6.30387062 9.29120935 -4.5 7.5625 C-2.53897444 5.51976504 -2.50362739 3.73397725 -2 1 C-1.34 0.67 -0.68 0.34 0 0 Z " fill="#D9F9E0" transform="translate(391,376)"/>
<path d="M0 0 C1.98 0.99 1.98 0.99 4 2 C4 2.66 4 3.32 4 4 C6.64 4.33 9.28 4.66 12 5 C11.67 5.99 11.34 6.98 11 8 C8.00309792 7.86060921 5.77158295 7.69781403 3.48828125 5.6328125 C0 1.45487106 0 1.45487106 0 0 Z " fill="#EDFCEF" transform="translate(340,304)"/>
<path d="M0 0 C4.07763771 2.86536704 6.02677065 5.43041625 8 10 C6.68 10 5.36 10 4 10 C3.32845067 8.71086513 2.66291141 7.41859796 2 6.125 C1.62875 5.40570313 1.2575 4.68640625 0.875 3.9453125 C0 2 0 2 0 0 Z " fill="#62CB73" transform="translate(144,258)"/>
<path d="M0 0 C0.33 0.66 0.66 1.32 1 2 C1.639375 2.309375 2.27875 2.61875 2.9375 2.9375 C5 4 5 4 7 7 C6.67 7.99 6.34 8.98 6 10 C5.67 9.01 5.34 8.02 5 7 C3.01954441 6.33820153 3.01954441 6.33820153 1 6 C0 5 0 5 -0.0625 2.4375 C-0.041875 1.633125 -0.02125 0.82875 0 0 Z " fill="#41CD59" transform="translate(139,254)"/>
<path d="M0 0 C-3.21552139 2.14368092 -6.4410057 3.51169329 -10 5 C-10.99 5.495 -10.99 5.495 -12 6 C-12.66 5.34 -13.32 4.68 -14 4 C-13 2 -13 2 -9.8125 0.875 C-6.36250398 0.08319763 -3.515707 -0.1714979 0 0 Z " fill="#EBFEEE" transform="translate(142,88)"/>
<path d="M0 0 C1.98 0.66 3.96 1.32 6 2 C6 2.66 6 3.32 6 4 C7.98 4.66 9.96 5.32 12 6 C12 6.99 12 7.98 12 9 C10.18381144 7.88096454 8.37214474 6.75458716 6.5625 5.625 C5.55316406 4.99851562 4.54382813 4.37203125 3.50390625 3.7265625 C1 2 1 2 0 0 Z " fill="#C2F8CB" transform="translate(250,358)"/>
<path d="M0 0 C3.15140423 0.34069235 4.60781561 0.58076841 6.8125 2.9375 C8 5 8 5 8 7 C5.05043472 5.63055898 2.47531189 4.12169591 0 2 C0 1.34 0 0.68 0 0 Z " fill="#C0F2C8" transform="translate(216,332)"/>
<path d="M0 0 C2.4375 2.5 2.4375 2.5 4 5 C2.7625 4.5359375 2.7625 4.5359375 1.5 4.0625 C-2.39126155 2.88122417 -5.96166953 2.41775832 -10 2 C-6.26744552 -0.48836965 -4.41559065 -0.54226552 0 0 Z " fill="#BEF8C6" transform="translate(146,85)"/>
<path d="M0 0 C0.66 0.66 1.32 1.32 2 2 C1.625 4.125 1.625 4.125 1 6 C-0.65 6.33 -2.3 6.66 -4 7 C-4 4 -4 4 -2 1.8125 C-1.34 1.214375 -0.68 0.61625 0 0 Z " fill="#1DC437" transform="translate(398,377)"/>
<path d="M0 0 C0 0.66 0 1.32 0 2 C1.29233607 3.37310707 2.62437146 4.71034824 4 6 C2.35 6 0.7 6 -1 6 C-1.33 5.01 -1.66 4.02 -2 3 C-3.99665314 1.31461399 -3.99665314 1.31461399 -6 0 C-3 -1 -3 -1 0 0 Z " fill="#E6FAE8" transform="translate(264,362)"/>
<path d="M0 0 C0 0.66 0 1.32 0 2 C-0.99 2.33 -1.98 2.66 -3 3 C-3.309375 3.66 -3.61875 4.32 -3.9375 5 C-5 7 -5 7 -7.125 7.75 C-8.053125 7.87375 -8.053125 7.87375 -9 8 C-9 6.68 -9 5.36 -9 4 C-7.68 4 -6.36 4 -5 4 C-4.67 3.01 -4.34 2.02 -4 1 C-2 0 -2 0 0 0 Z " fill="#4BC25E" transform="translate(308,299)"/>
<path d="M0 0 C1.485 0.99 1.485 0.99 3 2 C3 2.66 3 3.32 3 4 C3.8971875 3.6596875 3.8971875 3.6596875 4.8125 3.3125 C5.8953125 3.1578125 5.8953125 3.1578125 7 3 C8.75 4.3125 8.75 4.3125 10 6 C10 6.66 10 7.32 10 8 C9.01 8 8.02 8 7 8 C6.67 7.34 6.34 6.68 6 6 C4.02111039 5.27306096 2.02045442 4.60183749 0 4 C0 2.68 0 1.36 0 0 Z " fill="#37C251" transform="translate(176,299)"/>
<path d="M0 0 C8.03501094 -0.63019694 8.03501094 -0.63019694 12.0625 2 C12.701875 2.66 13.34125 3.32 14 4 C9.13103697 3.40380045 4.67209049 2.43023178 0 1 C0 0.67 0 0.34 0 0 Z " fill="#BEF8C9" transform="translate(318,394)"/>
<path d="M0 0 C1.32 0 2.64 0 4 0 C2.74464015 3.76607955 1.47116415 4.26441793 -2 6 C-2.99 6 -3.98 6 -5 6 C-5 5.34 -5 4.68 -5 4 C-4.0409375 3.8453125 -4.0409375 3.8453125 -3.0625 3.6875 C-2.381875 3.460625 -1.70125 3.23375 -1 3 C-0.67 2.01 -0.34 1.02 0 0 Z " fill="#C7F7CF" transform="translate(380,389)"/>
<path d="M0 0 C3.73487777 0.4979837 5.81237635 0.87491756 9 3 C9 3.99 9 4.98 9 6 C5.06326356 4.68775452 2.77280706 3.08089673 0 0 Z " fill="#C9F6D4" transform="translate(241,352)"/>
<path d="M0 0 C0.99 0.33 1.98 0.66 3 1 C2.67 1.99 2.34 2.98 2 4 C2.66 4 3.32 4 4 4 C3.67 5.32 3.34 6.64 3 8 C1.29115995 6.37660195 -0.37446717 4.70680947 -2 3 C-2 2.34 -2 1.68 -2 1 C-1.34 0.67 -0.68 0.34 0 0 Z " fill="#46E369" transform="translate(195,152)"/>
<path d="M0 0 C1 3 1 3 -0.4375 6.1875 C-1.2109375 7.5796875 -1.2109375 7.5796875 -2 9 C-2.99 8.67 -3.98 8.34 -5 8 C-4.1875 5.5625 -4.1875 5.5625 -3 3 C-2.01 2.67 -1.02 2.34 0 2 C0 1.34 0 0.68 0 0 Z " fill="#61DB7A" transform="translate(97,109)"/>
<path d="M0 0 C0.66 0.33 1.32 0.66 2 1 C1.34 2.98 0.68 4.96 0 7 C-1.98 7 -3.96 7 -6 7 C-4.02 4.69 -2.04 2.38 0 0 Z " fill="#F3FCF0" transform="translate(118,96)"/>
<path d="M0 0 C0.99 0.495 0.99 0.495 2 1 C2.625 3.5625 2.625 3.5625 3 6 C3.66 6 4.32 6 5 6 C5.99 7.98 6.98 9.96 8 12 C6 12 6 12 3.4375 9.9375 C0.60023333 6.51822991 0.25702474 4.3694206 0 0 Z " fill="#ECFDF3" transform="translate(152,96)"/>
<path d="M0 0 C2.83374881 3.20336822 3.5205537 5.78087253 4 10 C3.01 10.33 2.02 10.66 1 11 C0.63890458 9.35567294 0.28629924 7.7094792 -0.0625 6.0625 C-0.25972656 5.14597656 -0.45695312 4.22945313 -0.66015625 3.28515625 C-0.77230469 2.53105469 -0.88445312 1.77695312 -1 1 C-0.67 0.67 -0.34 0.34 0 0 Z " fill="#30C04A" transform="translate(407,342)"/>
<path d="M0 0 C0.33 0.66 0.66 1.32 1 2 C1.66 2 2.32 2 3 2 C3 3.65 3 5.3 3 7 C1.35 7 -0.3 7 -2 7 C-1.34 4.69 -0.68 2.38 0 0 Z " fill="#E2FCE9" transform="translate(403,345)"/>
<path d="M0 0 C3.7910119 1.44950455 7.3874638 3.15172566 11 5 C11 5.33 11 5.66 11 6 C6.94393835 5.53199289 3.53411321 5.12046792 0 3 C0 2.01 0 1.02 0 0 Z " fill="#CAFAD4" transform="translate(262,308)"/>
<path d="M0 0 C3 3.75 3 3.75 3 6 C3.99 6.33 4.98 6.66 6 7 C6.33 7.99 6.66 8.98 7 10 C6.34 10 5.68 10 5 10 C5 9.34 5 8.68 5 8 C3.68 8 2.36 8 1 8 C0.67 5.36 0.34 2.72 0 0 Z " fill="#C8F9D6" transform="translate(178,220)"/>
<path d="M0 0 C2.475 0.495 2.475 0.495 5 1 C5.33 2.32 5.66 3.64 6 5 C5.01 5.33 4.02 5.66 3 6 C3 5.34 3 4.68 3 4 C2.01 3.67 1.02 3.34 0 3 C0 2.01 0 1.02 0 0 Z " fill="#DCFAE5" transform="translate(177,136)"/>
<path d="M0 0 C1.98 0.495 1.98 0.495 4 1 C4.33 2.65 4.66 4.3 5 6 C2.525 5.01 2.525 5.01 0 4 C0 2.68 0 1.36 0 0 Z " fill="#48C45F" transform="translate(395,333)"/>
<path d="M0 0 C3.3125 0.1875 3.3125 0.1875 7 1 C8.9375 3.5625 8.9375 3.5625 10 6 C6.00499382 4.6302836 3.19990508 2.74277578 0 0 Z " fill="#BFF2C6" transform="translate(264,368)"/>
<path d="M0 0 C2.64 0 5.28 0 8 0 C7.01 0.33 6.02 0.66 5 1 C5 1.66 5 2.32 5 3 C5.66 3 6.32 3 7 3 C6.67 3.66 6.34 4.32 6 5 C5.34 4.67 4.68 4.34 4 4 C4 3.34 4 2.68 4 2 C2.68 2.33 1.36 2.66 0 3 C0 2.01 0 1.02 0 0 Z " fill="#28C541" transform="translate(400,336)"/>
<path d="M0 0 C1.65 0.33 3.3 0.66 5 1 C4.01 1.495 4.01 1.495 3 2 C3 2.66 3 3.32 3 4 C0.69 4.33 -1.62 4.66 -4 5 C-3.01 4.67 -2.02 4.34 -1 4 C-0.26676204 1.98491642 -0.26676204 1.98491642 0 0 Z " fill="#2DCC46" transform="translate(289,305)"/>
<path d="M0 0 C1.31611677 0.95336021 2.62778961 1.91285774 3.9375 2.875 C4.66839844 3.40867187 5.39929688 3.94234375 6.15234375 4.4921875 C8 6 8 6 9 8 C2.18181818 6.03030303 2.18181818 6.03030303 0 3 C0 2.01 0 1.02 0 0 Z " fill="#CDFBCF" transform="translate(239,288)"/>
<path d="M0 0 C2.475 0.495 2.475 0.495 5 1 C5.66 3.31 6.32 5.62 7 8 C3.75700849 5.61042731 1.49097658 3.7952131 0 0 Z " fill="#CEFBD6" transform="translate(158,274)"/>
<path d="M0 0 C1.75 0.125 1.75 0.125 4 1 C6.25 4.0625 6.25 4.0625 8 7 C7.67 7.66 7.34 8.32 7 9 C5.83037314 7.69013727 4.66437056 6.3770374 3.5 5.0625 C2.8503125 4.33160156 2.200625 3.60070312 1.53125 2.84765625 C0 1 0 1 0 0 Z " fill="#60C56F" transform="translate(208,256)"/>
<path d="M0 0 C3.32368224 1.10789408 3.61563093 1.48436217 5.25 4.375 C5.60578125 4.98085937 5.9615625 5.58671875 6.328125 6.2109375 C7 8 7 8 6 11 C4.99735282 9.35577799 3.99794896 7.70957779 3 6.0625 C2.443125 5.14597656 1.88625 4.22945312 1.3125 3.28515625 C0 1 0 1 0 0 Z " fill="#C4FCCF" transform="translate(114,211)"/>
<path d="M0 0 C-0.99 0.33 -1.98 0.66 -3 1 C-3 1.66 -3 2.32 -3 3 C-4.98 3.66 -6.96 4.32 -9 5 C-8.875 3.125 -8.875 3.125 -8 1 C-2.71910112 -1.35955056 -2.71910112 -1.35955056 0 0 Z " fill="#55E76F" transform="translate(121,91)"/>
<path d="M0 0 C1.67542976 0.28604898 3.34385343 0.61781233 5 1 C5 2.32 5 3.64 5 5 C6.32 5.33 7.64 5.66 9 6 C7.35 6 5.7 6 4 6 C4 5.34 4 4.68 4 4 C3.34 4 2.68 4 2 4 C2 3.34 2 2.68 2 2 C1.01 1.67 0.02 1.34 -1 1 C-0.67 0.67 -0.34 0.34 0 0 Z " fill="#ECFCEF" transform="translate(290,378)"/>
<path d="M0 0 C0.66 0 1.32 0 2 0 C2 0.66 2 1.32 2 2 C4.475 2.99 4.475 2.99 7 4 C6.67 4.99 6.34 5.98 6 7 C1.2 4.53846154 1.2 4.53846154 0.1875 1.8125 C0.125625 1.214375 0.06375 0.61625 0 0 Z " fill="#CFF9DB" transform="translate(233,344)"/>
<path d="M0 0 C2.31 0.33 4.62 0.66 7 1 C7.66 2.65 8.32 4.3 9 6 C7.68 5.34 6.36 4.68 5 4 C5 3.34 5 2.68 5 2 C3.35 1.67 1.7 1.34 0 1 C0 0.67 0 0.34 0 0 Z " fill="#D9FDDC" transform="translate(387,334)"/>
<path d="M0 0 C2.4375 0.75 2.4375 0.75 5 2 C5.8125 4.125 5.8125 4.125 6 6 C4.02 5.34 2.04 4.68 0 4 C0 2.68 0 1.36 0 0 Z " fill="#D1FCDE" transform="translate(368,320)"/>
<path d="M0 0 C2.64 0 5.28 0 8 0 C8.66 1.65 9.32 3.3 10 5 C8.68 4.67 7.36 4.34 6 4 C6 3.34 6 2.68 6 2 C3.03 1.505 3.03 1.505 0 1 C0 0.67 0 0.34 0 0 Z " fill="#38CC4D" transform="translate(326,292)"/>
<path d="M0 0 C1 3 1 3 0.375 5.5625 C-1 8 -1 8 -6 10 C-4.02 6.7 -2.04 3.4 0 0 Z " fill="#45DD61" transform="translate(197,176)"/>
<path d="M0 0 C2.5654594 2.5654594 2.54046087 4.47686668 3 8 C2.01 8 1.02 8 0 8 C-1.125 2.25 -1.125 2.25 0 0 Z " fill="#42E75A" transform="translate(89,160)"/>
<path d="M0 0 C2.375 0.625 2.375 0.625 5 2 C6.3125 5.125 6.3125 5.125 7 8 C6.01 7.67 5.02 7.34 4 7 C4 6.34 4 5.68 4 5 C3.34 5 2.68 5 2 5 C1.34 3.35 0.68 1.7 0 0 Z " fill="#EFFBED" transform="translate(145,88)"/>
<path d="M0 0 C0.33 0.66 0.66 1.32 1 2 C-0.25 4.5625 -0.25 4.5625 -2 7 C-2.99 7.33 -3.98 7.66 -5 8 C-4.45773019 4.20411134 -2.79872437 2.52788007 0 0 Z " fill="#49BA60" transform="translate(389,384)"/>
<path d="M0 0 C2.78388975 1.70625501 3.85384206 2.47626739 4.75 5.6875 C4.8325 6.450625 4.915 7.21375 5 8 C4.01 8 3.02 8 2 8 C0.74335022 5.09399739 0 3.20395416 0 0 Z " fill="#DCFADC" transform="translate(210,260)"/>
<path d="M0 0 C0.66 0 1.32 0 2 0 C2 2.64 2 5.28 2 8 C1.01 8.33 0.02 8.66 -1 9 C-0.67 6.03 -0.34 3.06 0 0 Z " fill="#DAFEE0" transform="translate(194,164)"/>
<path d="M0 0 C0.33 0.99 0.66 1.98 1 3 C-1.39509338 5.89932357 -3.31245243 6.50168276 -7 7 C-7 6.34 -7 5.68 -7 5 C-5.46875 3.7109375 -5.46875 3.7109375 -3.5 2.375 C-2.8503125 1.92898437 -2.200625 1.48296875 -1.53125 1.0234375 C-1.0259375 0.68570313 -0.520625 0.34796875 0 0 Z " fill="#EFFDF4" transform="translate(108,105)"/>
<path d="M0 0 C0.66 0.33 1.32 0.66 2 1 C-0.57404971 4.86107457 -2.61020259 4.94319692 -7 6 C-2.25 1.125 -2.25 1.125 0 0 Z " fill="#BEF9CB" transform="translate(116,96)"/>
<path d="M0 0 C2.475 0.495 2.475 0.495 5 1 C5.33 2.32 5.66 3.64 6 5 C6.66 5 7.32 5 8 5 C7.67 5.66 7.34 6.32 7 7 C5.83040013 6.02433888 4.66438823 5.044375 3.5 4.0625 C2.8503125 3.51722656 2.200625 2.97195313 1.53125 2.41015625 C1.0259375 1.94480469 0.520625 1.47945313 0 1 C0 0.67 0 0.34 0 0 Z " fill="#B6F3C0" transform="translate(204,322)"/>
<path d="M0 0 C0.66 0 1.32 0 2 0 C3.32 2.31 4.64 4.62 6 7 C4.68 6.67 3.36 6.34 2 6 C2 5.34 2 4.68 2 4 C1.34 4 0.68 4 0 4 C0 2.68 0 1.36 0 0 Z " fill="#E7FDED" transform="translate(202,316)"/>
<path d="M0 0 C1.98 0.495 1.98 0.495 4 1 C4.33 2.32 4.66 3.64 5 5 C2.03 4.505 2.03 4.505 -1 4 C-0.67 2.68 -0.34 1.36 0 0 Z " fill="#2BD04B" transform="translate(154,275)"/>
<path d="M0 0 C4.875 4.625 4.875 4.625 6 8 C4.125 7.6875 4.125 7.6875 2 7 C0 4 0 4 0 0 Z " fill="#C1F9C9" transform="translate(191,237)"/>
<path d="M0 0 C4.875 4.75 4.875 4.75 6 7 C4.35 6.67 2.7 6.34 1 6 C0.67 4.02 0.34 2.04 0 0 Z " fill="#C1F5CC" transform="translate(185,230)"/>
<path d="M0 0 C1.0326802 2.78823655 1.04509293 3.8677274 0.0625 6.75 C-0.288125 7.4925 -0.63875 8.235 -1 9 C-1.66 9 -2.32 9 -3 9 C-2.44271087 5.65626525 -1.64826111 2.96687001 0 0 Z " fill="#6BD37F" transform="translate(183,194)"/>
<path d="M0 0 C1.98 0.99 1.98 0.99 4 2 C3.34 3.65 2.68 5.3 2 7 C1.34 7 0.68 7 0 7 C0 4.69 0 2.38 0 0 Z " fill="#1DC535" transform="translate(272,377)"/>
<path d="M0 0 C2.64 0.33 5.28 0.66 8 1 C8 1.66 8 2.32 8 3 C5.36 3 2.72 3 0 3 C0 2.01 0 1.02 0 0 Z " fill="#29BE3F" transform="translate(264,372)"/>
<path d="M0 0 C4.455 2.97 4.455 2.97 9 6 C8.01 6.495 8.01 6.495 7 7 C3.9375 5.8125 3.9375 5.8125 1 4 C0.67 2.68 0.34 1.36 0 0 Z " fill="#53BB66" transform="translate(223,339)"/>
<path d="M0 0 C0.99 0.66 1.98 1.32 3 2 C3 2.99 3 3.98 3 5 C1.35 4.67 -0.3 4.34 -2 4 C-1.34 2.68 -0.68 1.36 0 0 Z " fill="#2CD447" transform="translate(147,267)"/>
<path d="M0 0 C2.12508244 3.18762365 2.5020163 5.26512223 3 9 C2.01 9.495 2.01 9.495 1 10 C-0.60725635 6.78548731 -0.05748185 3.56387464 0 0 Z " fill="#75D385" transform="translate(96,170)"/>
<path d="M0 0 C3.08089673 2.77280706 4.68775452 5.06326356 6 9 C3.5625 7.875 3.5625 7.875 1 6 C0.1875 2.8125 0.1875 2.8125 0 0 Z " fill="#C3F8CC" transform="translate(164,111)"/>
<path d="M0 0 C1.32 0.33 2.64 0.66 4 1 C4.33 3.31 4.66 5.62 5 8 C2.27573689 5.64722731 1.1858237 3.37503669 0 0 Z " fill="#73D985" transform="translate(155,95)"/>
<path d="M0 0 C3.125 -0.1875 3.125 -0.1875 6 0 C4.8125 1.5 4.8125 1.5 3 3 C0.3125 3.1875 0.3125 3.1875 -2 3 C-1.34 2.01 -0.68 1.02 0 0 Z " fill="#66DF7E" transform="translate(122,89)"/>
</svg>
