<?xml version="1.0" encoding="UTF-8"?>
<svg version="1.1" xmlns="http://www.w3.org/2000/svg" width="640" height="640">
<path d="M0 0 C211.2 0 422.4 0 640 0 C640 211.2 640 422.4 640 640 C428.8 640 217.6 640 0 640 C0 428.8 0 217.6 0 0 Z " fill="#30A2E5" transform="translate(0,0)"/>
<path d="M0 0 C4.1376851 3.28822657 5.33957454 6.9771928 6.1875 12.0625 C7.02913193 23.70002175 5.28495726 35.23375552 3.78881836 46.74755859 C3.37688929 49.9229363 2.97938908 53.09987058 2.58398438 56.27734375 C1.15081488 67.63334274 -0.60068179 78.83406545 -2.8125 90.0625 C-3.77911025 95.41168277 -4.70494652 100.76763891 -5.625 106.125 C-5.75122742 106.85652283 -5.87745483 107.58804565 -6.00750732 108.34173584 C-7.55889913 117.3515843 -9.03297106 126.36958498 -10.39453125 135.41015625 C-10.52444962 136.2702681 -10.65436798 137.13037994 -10.78822327 138.01655579 C-11.41365536 142.16847117 -12.02995899 146.32144765 -12.63208008 150.47680664 C-13.69489534 157.68708767 -14.90225428 164.7710869 -16.671875 171.84765625 C-19.70350389 184.04628817 -21.5524133 196.48849438 -23.60620117 208.88049316 C-24.15915577 212.20942657 -24.71855117 215.5372769 -25.27734375 218.86523438 C-26.09830502 223.76096496 -26.91668178 228.65710799 -27.73095703 233.55395508 C-27.91112366 234.63610291 -28.09129028 235.71825073 -28.2769165 236.83319092 C-28.64078922 239.02716714 -29.00215073 241.22156103 -29.36126709 243.4163208 C-29.53579407 244.47848816 -29.71032104 245.54065552 -29.89013672 246.63500977 C-30.04392792 247.57699722 -30.19771912 248.51898468 -30.35617065 249.48951721 C-30.99903378 253.11425838 -31.87656357 256.62655436 -32.8125 260.1875 C-33.92371746 264.48180798 -34.99950921 268.76243334 -35.8125 273.125 C-41.01175072 299.93504938 -41.01175072 299.93504938 -50.8125 308.0625 C-51.616875 308.825625 -52.42125 309.58875 -53.25 310.375 C-59.59755573 313.38173693 -66.75572696 313.05038853 -73.5234375 311.40234375 C-82.30597887 308.11954916 -90.57414549 302.96437842 -97.8125 297.0625 C-99.7718528 295.57301218 -101.74362991 294.10085736 -103.71582031 292.62841797 C-105.72947689 291.12450631 -107.73676253 289.61252033 -109.7421875 288.09765625 C-116.22612614 283.20877947 -122.72136205 278.37038519 -129.40625 273.7578125 C-132.16935571 271.81107893 -134.86533069 269.78707261 -137.5625 267.75 C-142.56189511 263.97468359 -147.62577868 260.30459604 -152.74121094 256.68823242 C-155.75518561 254.55266452 -158.73420989 252.3803815 -161.68359375 250.15625 C-165.20283775 247.50436585 -168.77115448 244.92907695 -172.3581543 242.36987305 C-202.40497755 220.89861055 -202.40497755 220.89861055 -204.21875 210.80078125 C-204.53474857 202.62431821 -201.22296792 197.93855097 -195.93560791 191.92938232 C-193.87298021 189.76245768 -191.7661422 187.65200395 -189.6328125 185.5546875 C-188.86121796 184.78496613 -188.08962341 184.01524475 -187.29464722 183.22219849 C-185.67276613 181.60699678 -184.04731281 179.99537482 -182.41845703 178.38720703 C-179.94434015 175.944254 -177.48105692 173.49078957 -175.01953125 171.03515625 C-173.43291195 169.4577092 -171.84569214 167.88086587 -170.2578125 166.3046875 C-169.53046906 165.58159393 -168.80312561 164.85850037 -168.05374146 164.11349487 C-164.00501988 160.12028067 -159.8687004 156.28694376 -155.5463562 152.59085083 C-153.92820523 151.16449126 -152.42966044 149.68115331 -150.9375 148.125 C-148.8125 146.0625 -148.8125 146.0625 -146.8125 146.0625 C-146.8125 145.4025 -146.8125 144.7425 -146.8125 144.0625 C-145.4140625 142.6875 -145.4140625 142.6875 -143.4375 141.0625 C-140.06454852 138.20204645 -136.91576523 135.21380339 -133.8125 132.0625 C-130.27355256 128.48032878 -126.64279178 125.12075085 -122.8203125 121.84765625 C-118.97787637 118.43132685 -115.41736391 114.72561126 -111.8125 111.0625 C-109.1273528 108.36850553 -106.43212492 105.68517633 -103.7265625 103.01171875 C-91.86405592 92.98883197 -91.86405592 92.98883197 -85.6875 80 C-85.47601983 77.17351184 -85.47601983 77.17351184 -86.8125 76.0625 C-91.57062569 75.63925209 -94.2150453 76.45357044 -98.25 78.9375 C-99.28898437 79.57429688 -100.32796875 80.21109375 -101.3984375 80.8671875 C-106.38566941 84.04724011 -111.30091352 87.33544401 -116.203125 90.64453125 C-120.06818959 93.24805342 -123.9989841 95.73952781 -127.95703125 98.19921875 C-130.48016092 99.84563852 -132.94309067 101.54717212 -135.40625 103.28125 C-141.04035166 107.24324178 -146.76205829 111.06554176 -152.5 114.875 C-153.55509766 115.57713623 -154.61019531 116.27927246 -155.69726562 117.00268555 C-160.17766031 119.9840137 -164.66040933 122.96178176 -169.14453125 125.9375 C-175.34091637 130.05317719 -181.50321019 134.21150952 -187.625 138.4375 C-197.84887423 145.49523907 -208.20476312 152.35377805 -218.56640625 159.20703125 C-220.12780975 160.24187737 -221.68901053 161.27702945 -223.25 162.3125 C-224.00458496 162.81193115 -224.75916992 163.3113623 -225.53662109 163.82592773 C-229.73269924 166.61944937 -233.79856573 169.51394233 -237.8125 172.5625 C-242.56992696 176.07255282 -247.2554981 178.13859208 -252.8125 180.0625 C-253.69808594 180.43375 -254.58367187 180.805 -255.49609375 181.1875 C-262.19415324 183.92372856 -267.63411259 184.53257175 -274.8125 184.0625 C-275.80894531 184.041875 -276.80539062 184.02125 -277.83203125 184 C-286.31243723 183.66538472 -293.81396259 181.46012358 -301.76855469 178.74755859 C-304.42051908 177.85871338 -307.09236793 177.04397904 -309.76806641 176.22998047 C-318.88105341 173.44826307 -327.87787193 170.37080809 -336.8125 167.0625 C-337.56837402 166.78647949 -338.32424805 166.51045898 -339.10302734 166.22607422 C-357.50338128 159.43024639 -357.50338128 159.43024639 -360.8125 153.0625 C-361.64220841 149.83961905 -361.63301452 147.28552826 -360.8125 144.0625 C-355.77661832 135.77766241 -346.79760266 131.84787087 -338.08203125 128.39453125 C-334.61623177 126.98253887 -331.25474186 125.41926252 -327.875 123.8125 C-321.5902065 120.84585808 -315.2505328 118.01609827 -308.875 115.25 C-307.9991626 114.86489258 -307.1233252 114.47978516 -306.22094727 114.08300781 C-301.13165066 111.89183006 -296.22713271 110.24832339 -290.8125 109.0625 C-290.8125 108.4025 -290.8125 107.7425 -290.8125 107.0625 C-290.26948242 106.84634033 -289.72646484 106.63018066 -289.16699219 106.4074707 C-270.89513552 99.22787839 -270.89513552 99.22787839 -252.9375 91.3125 C-246.04067529 88.0889841 -239.0055377 85.23397281 -231.94189453 82.39746094 C-226.46801592 80.18969293 -221.08536973 77.84144333 -215.72265625 75.37670898 C-210.31914221 72.93651468 -204.84244507 70.66739711 -199.375 68.375 C-197.08412325 67.4139804 -194.79373682 66.45179092 -192.50390625 65.48828125 C-191.50560791 65.06973877 -190.50730957 64.65119629 -189.47875977 64.2199707 C-186.8706079 63.13566118 -186.8706079 63.13566118 -184.70678711 61.91088867 C-182.8125 61.0625 -182.8125 61.0625 -178.8125 61.0625 C-178.8125 60.4025 -178.8125 59.7425 -178.8125 59.0625 C-178.27995605 58.85157715 -177.74741211 58.6406543 -177.19873047 58.42333984 C-167.46225502 54.5618541 -157.74704321 50.67913842 -148.1484375 46.484375 C-144.60825296 44.97544388 -141.04218274 43.54576463 -137.46630859 42.12402344 C-134.83788538 41.07265415 -132.21898631 40.00030276 -129.6015625 38.921875 C-127.88020833 38.21875 -126.15885417 37.515625 -124.4375 36.8125 C-123.56222656 36.44898438 -122.68695313 36.08546875 -121.78515625 35.7109375 C-120.94082031 35.36804688 -120.09648437 35.02515625 -119.2265625 34.671875 C-118.4732666 34.36217773 -117.7199707 34.05248047 -116.94384766 33.73339844 C-114.8125 33.0625 -114.8125 33.0625 -110.8125 33.0625 C-110.8125 32.4025 -110.8125 31.7425 -110.8125 31.0625 C-110.00095459 30.74498779 -109.18940918 30.42747559 -108.35327148 30.1003418 C-105.31320661 28.91031712 -102.27354072 27.71928402 -99.23413086 26.52758789 C-97.92406556 26.01416867 -96.61384714 25.50114 -95.3034668 24.98852539 C-93.40892797 24.24730963 -91.514963 23.50464341 -89.62109375 22.76171875 C-88.48470459 22.31658936 -87.34831543 21.87145996 -86.17749023 21.4128418 C-81.56566127 19.56215428 -77.01359375 17.59086913 -72.46484375 15.58984375 C-62.90197861 11.46015782 -53.12679243 8.03837664 -43.25 4.75 C-42.26916946 4.42224075 -42.26916946 4.42224075 -41.26852417 4.08786011 C-11.092317 -5.96803697 -11.092317 -5.96803697 0 0 Z " fill="#FDFEFD" transform="translate(468.8125,189.9375)"/>
<path d="M0 0 C2 2 2 2 2.4375 4.6875 C1.55857226 11.34223859 -3.38894602 15.45491245 -8 20 C-9.05291772 21.05124828 -10.10496087 22.10337306 -11.15625 23.15625 C-13.38541667 25.38541667 -15.61458333 27.61458333 -17.84375 29.84375 C-18.3795166 30.37967773 -18.9152832 30.91560547 -19.46728516 31.46777344 C-20.8494233 32.84947127 -22.23320539 34.22952418 -23.6171875 35.609375 C-25.20578023 37.20317623 -26.78397173 38.80741274 -28.3515625 40.421875 C-29.10179687 41.19015625 -29.85203125 41.9584375 -30.625 42.75 C-31.38039063 43.52859375 -32.13578125 44.3071875 -32.9140625 45.109375 C-35 47 -35 47 -38 48 C-37.67 45.36 -37.34 42.72 -37 40 C-34.03 39.505 -34.03 39.505 -31 39 C-31.495 37.515 -31.495 37.515 -32 36 C-31.34 36 -30.68 36 -30 36 C-29.67 35.34 -29.34 34.68 -29 34 C-28.34 34.33 -27.68 34.66 -27 35 C-27 34.34 -27 33.68 -27 33 C-25.68 33 -24.36 33 -23 33 C-23 32.34 -23 31.68 -23 31 C-22.34 31 -21.68 31 -21 31 C-20.67 29.02 -20.34 27.04 -20 25 C-20.66 24.67 -21.32 24.34 -22 24 C-19.64031256 21.90250005 -18.45383006 21.03094296 -15.25 20.8125 C-14.13625 20.9053125 -14.13625 20.9053125 -13 21 C-12.7525 20.401875 -12.505 19.80375 -12.25 19.1875 C-10.80807503 16.66413131 -9.47450374 15.49969924 -7 14 C-6.01 14 -5.02 14 -4 14 C-4 13.34 -4 12.68 -4 12 C-3.34 12 -2.68 12 -2 12 C-2.495 7.545 -2.495 7.545 -3 3 C-6.19758266 3.79939566 -8.29182708 4.55973338 -11.125 6.0625 C-14.77935943 8 -14.77935943 8 -17 8 C-17 8.66 -17 9.32 -17 10 C-19.1171875 11.54296875 -19.1171875 11.54296875 -21.875 13.1875 C-23.23238281 14.01314453 -23.23238281 14.01314453 -24.6171875 14.85546875 C-25.79667969 15.42201172 -25.79667969 15.42201172 -27 16 C-27.66 15.67 -28.32 15.34 -29 15 C-23.94768423 10.84141518 -18.55243742 7.44331011 -13 4 C-12.32066406 3.55785156 -11.64132812 3.11570312 -10.94140625 2.66015625 C-7.17291141 0.30169957 -4.44113233 -0.61969288 0 0 Z " fill="#4BA2CF" transform="translate(382,265)"/>
<path d="M0 0 C0.33 0 0.66 0 1 0 C0.67508974 10.31590082 -0.4838548 20.46467077 -1.875 30.6875 C-2.03645508 31.89752686 -2.19791016 33.10755371 -2.36425781 34.35424805 C-3.15045629 39.97404054 -4.0586529 45.4855215 -5.40234375 51 C-7.72929869 60.66304075 -9.12849165 70.50296382 -10.6875 80.3125 C-11.01066352 82.32493474 -11.33422818 84.3373051 -11.65820312 86.34960938 C-12.44342562 91.23234357 -13.22322554 96.11591503 -14 101 C-14.33 101 -14.66 101 -15 101 C-15.02696365 99.20841511 -15.04637917 97.41671527 -15.0625 95.625 C-15.07410156 94.62726563 -15.08570313 93.62953125 -15.09765625 92.6015625 C-15 90 -15 90 -14 88 C-13.72377665 86.45401698 -13.49074665 84.90017989 -13.28125 83.34375 C-13.15363281 82.40273438 -13.02601563 81.46171875 -12.89453125 80.4921875 C-12.76433594 79.50476563 -12.63414062 78.51734375 -12.5 77.5 C-12.36980469 76.54351562 -12.23960937 75.58703125 -12.10546875 74.6015625 C-11.27511008 68.41161605 -10.57893149 62.2184053 -10 56 C-9.34 56 -8.68 56 -8 56 C-7.93941406 55.30132812 -7.87882812 54.60265625 -7.81640625 53.8828125 C-7.73261719 52.97273438 -7.64882813 52.06265625 -7.5625 51.125 C-7.48128906 50.22007812 -7.40007812 49.31515625 -7.31640625 48.3828125 C-7 46 -7 46 -6 44 C-5.91599471 42.40552536 -5.89272533 40.80759455 -5.90234375 39.2109375 C-5.90556641 38.26992188 -5.90878906 37.32890625 -5.91210938 36.359375 C-5.92048828 35.37453125 -5.92886719 34.3896875 -5.9375 33.375 C-5.94201172 32.38242187 -5.94652344 31.38984375 -5.95117188 30.3671875 C-5.96297855 27.9113984 -5.979446 25.45572896 -6 23 C-5.34 22.67 -4.68 22.34 -4 22 C-2.89485234 18.68455701 -2.67892369 15.79589889 -2.4375 12.3125 C-2.35371094 11.13300781 -2.26992188 9.95351562 -2.18359375 8.73828125 C-2.12300781 7.83464844 -2.06242187 6.93101562 -2 6 C-1.34 6 -0.68 6 0 6 C0 4.02 0 2.04 0 0 Z " fill="#CAEDFA" transform="translate(471,232)"/>
<path d="M0 0 C0.33 0 0.66 0 1 0 C0.2633771 8.73297516 -1.05260569 17.34905259 -2.41918945 26.00097656 C-2.8071299 28.46587933 -3.18601561 30.93206039 -3.56445312 33.3984375 C-8.03212736 62.06425472 -8.03212736 62.06425472 -11 68 C-11.66 68 -12.32 68 -13 68 C-12.67 64.7 -12.34 61.4 -12 58 C-11.34 58 -10.68 58 -10 58 C-10 53.71 -10 49.42 -10 45 C-9.67 45 -9.34 45 -9 45 C-8.95101563 44.26394531 -8.90203125 43.52789062 -8.8515625 42.76953125 C-8.73941406 41.30580078 -8.73941406 41.30580078 -8.625 39.8125 C-8.55539062 38.84957031 -8.48578125 37.88664062 -8.4140625 36.89453125 C-7.99502693 33.96523544 -7.09354563 31.73386407 -6 29 C-5.7240522 27.07096868 -5.51550097 25.1310968 -5.375 23.1875 C-5.26285156 21.72376953 -5.26285156 21.72376953 -5.1484375 20.23046875 C-5.09945313 19.49441406 -5.05046875 18.75835937 -5 18 C-4.34 18 -3.68 18 -3 18 C-3.04125 16.865625 -3.0825 15.73125 -3.125 14.5625 C-3.13334549 9.88902634 -2.34120542 5.47394802 -1 1 C-0.67 0.67 -0.34 0.34 0 0 Z " fill="#DBF8FD" transform="translate(445,390)"/>
<path d="M0 0 C0.33 0 0.66 0 1 0 C1.08834684 3.31232698 1.14083584 6.62434435 1.1875 9.9375 C1.21263672 10.86369141 1.23777344 11.78988281 1.26367188 12.74414062 C1.32233423 18.31706436 0.69185331 22.73869607 -1.27172852 27.9519043 C-2.32020723 30.90050905 -2.69007412 33.83877208 -3.0625 36.9375 C-3.70532586 41.88354026 -4.47108544 46.74178797 -5.5 51.62109375 C-5.85222646 53.29692123 -6.18367035 54.97718365 -6.5 56.66015625 C-7.31388103 60.97754076 -8.12831571 64.98924795 -10 69 C-11.45677854 65.09734096 -10.5766501 61.62540239 -9.7890625 57.67578125 C-9.50098478 56.14310517 -9.21495961 54.6100423 -8.93066406 53.07666016 C-8.77778931 52.25651428 -8.62491455 51.43636841 -8.46740723 50.59136963 C-7.64363491 46.02426319 -6.92996453 41.44003382 -6.2109375 36.85546875 C-6.06062073 35.9029422 -5.91030396 34.95041565 -5.75543213 33.96902466 C-5.13522821 30.03527419 -4.51823403 26.101023 -3.90136719 22.16674805 C-3.44352496 19.25025512 -2.98355998 16.33410265 -2.5234375 13.41796875 C-2.38489349 12.52949753 -2.24634949 11.64102631 -2.10360718 10.72563171 C-1.97322052 9.89989151 -1.84283386 9.07415131 -1.70849609 8.22338867 C-1.53886856 7.14114265 -1.53886856 7.14114265 -1.36581421 6.03703308 C-0.99918647 3.99546986 -0.5265132 2.00572511 0 0 Z " fill="#50A6D5" transform="translate(462,298)"/>
<path d="M0 0 C0.33 0 0.66 0 1 0 C1.2363228 6.02623129 0.49297594 11.5802202 -0.48828125 17.5234375 C-1.29331421 22.99274542 -1.65701268 28.48512498 -2 34 C-2.66 34 -3.32 34 -4 34 C-4.04898437 34.5993335 -4.09796875 35.19866699 -4.1484375 35.81616211 C-4.71822436 42.16302285 -5.73422462 48.32075982 -7 54.5625 C-8.04350754 59.73088699 -9.03101359 64.84037736 -9.5625 70.08984375 C-10 74 -10 74 -11 75 C-11.39943176 77.52195967 -11.75079848 80.02963656 -12.0625 82.5625 C-12.15337891 83.27341797 -12.24425781 83.98433594 -12.33789062 84.71679688 C-12.56239503 86.47738403 -12.78168397 88.23863478 -13 90 C-15.55139742 87.44860258 -15.23818862 85.75004488 -15.265625 82.265625 C-15 80 -15 80 -14.07128906 77.23608398 C-9.97746393 64.86970931 -8.53773233 51.51499172 -6.5 38.6875 C-5.90809612 34.98277553 -5.31404639 31.27839953 -4.71875 27.57421875 C-4.57566406 26.68241913 -4.43257813 25.79061951 -4.28515625 24.87179565 C-2.94501483 16.56529837 -1.49342351 8.28015809 0 0 Z " fill="#489ECF" transform="translate(448,378)"/>
<path d="M0 0 C-6.13750891 4.51831686 -12.4801894 8.56281228 -19 12.5 C-25.51630112 16.44118774 -31.82584339 20.53758873 -38 25 C-40.26342506 26.61484533 -42.53638032 28.21561447 -44.8125 29.8125 C-46.39998047 30.93591797 -46.39998047 30.93591797 -48.01953125 32.08203125 C-50.65314041 33.77679153 -53.05509188 34.97118737 -56 36 C-55.67 35.01 -55.34 34.02 -55 33 C-54.01 33 -53.02 33 -52 33 C-51.67 32.01 -51.34 31.02 -51 30 C-49.66666667 29.66666667 -48.33333333 29.33333333 -47 29 C-46.67 28.01 -46.34 27.02 -46 26 C-44.68 26 -43.36 26 -42 26 C-41.79375 25.360625 -41.5875 24.72125 -41.375 24.0625 C-40 22 -40 22 -36.875 21.25 C-35.451875 21.12625 -35.451875 21.12625 -34 21 C-34 20.34 -34 19.68 -34 19 C-33.360625 18.896875 -32.72125 18.79375 -32.0625 18.6875 C-31.381875 18.460625 -30.70125 18.23375 -30 18 C-29.67 17.01 -29.34 16.02 -29 15 C-27.68 15 -26.36 15 -25 15 C-25 14.34 -25 13.68 -25 13 C-24.34 13 -23.68 13 -23 13 C-23 12.34 -23 11.68 -23 11 C-21.02 10.67 -19.04 10.34 -17 10 C-16.67 9.01 -16.34 8.02 -16 7 C-13.9375 6.3125 -13.9375 6.3125 -12 6 C-12 5.34 -12 4.68 -12 4 C-10.56988027 3.13353333 -9.13059381 2.28218171 -7.6875 1.4375 C-6.48673828 0.72400391 -6.48673828 0.72400391 -5.26171875 -0.00390625 C-3 -1 -3 -1 0 0 Z " fill="#D4F5FD" transform="translate(370,269)"/>
<path d="M0 0 C0.66 0.33 1.32 0.66 2 1 C0.8125 3.4375 0.8125 3.4375 -1 6 C-2.66321482 6.35015049 -4.33034549 6.68197057 -6 7 C-8.70848923 9.37505218 -8.70848923 9.37505218 -11 12 C-11.66 12.66 -12.32 13.32 -13 14 C-13.99 14 -14.98 14 -16 14 C-16 14.66 -16 15.32 -16 16 C-17.0725 16.4125 -18.145 16.825 -19.25 17.25 C-21.71025883 18.2959783 -23.01406478 19.01406478 -24.9375 20.9375 C-27.40864634 23.40864634 -29.9151329 24.58060793 -33.05078125 26.05859375 C-35.15658299 27.03388064 -35.15658299 27.03388064 -37.625 28.625 C-40.99917791 30.57847142 -44.24338671 32.36452083 -48.18359375 31.546875 C-48.78300781 31.36640625 -49.38242188 31.1859375 -50 31 C-48.43880578 30.20576139 -46.87598036 29.41472877 -45.3125 28.625 C-44.44238281 28.18414062 -43.57226562 27.74328125 -42.67578125 27.2890625 C-40 26 -40 26 -37.4296875 25.015625 C-34.91512418 23.96452136 -33.00852134 22.73301563 -30.8125 21.125 C-25.13774995 17.05695629 -19.33252337 13.20228201 -13.5090332 9.35205078 C-8.93857115 6.32168447 -4.44372419 3.21360716 0 0 Z " fill="#50A4CF" transform="translate(262,340)"/>
<path d="M0 0 C0.66 0.33 1.32 0.66 2 1 C0.02 1.99 0.02 1.99 -2 3 C-2 3.66 -2 4.32 -2 5 C-3.66279327 6.0064275 -5.32983484 7.00585407 -7 8 C-7.66 8.99 -8.32 9.98 -9 11 C-12.27029809 12.27968186 -15.58046607 13.21087678 -19 14 C-19 14.66 -19 15.32 -19 16 C-19.66 16 -20.32 16 -21 16 C-21.268125 16.598125 -21.53625 17.19625 -21.8125 17.8125 C-23.8586137 21.58165682 -26.01203838 23.23758265 -30.0625 24.5625 C-32.80368039 25.46601756 -33.90700794 25.90700794 -36 28 C-36.845625 28.33 -37.69125 28.66 -38.5625 29 C-41.14841441 29.74870114 -41.14841441 29.74870114 -42 32 C-44.5625 32.625 -44.5625 32.625 -47 33 C-43.7595233 29.60159393 -40.56679475 26.85755235 -36.625 24.3125 C-35.57183594 23.62542969 -34.51867187 22.93835938 -33.43359375 22.23046875 C-32.59610596 21.687854 -32.59610596 21.687854 -31.74169922 21.13427734 C-28.70619173 19.15741054 -25.69881935 17.13843462 -22.6875 15.125 C-21.4298135 14.28626936 -20.17199941 13.44773002 -18.9140625 12.609375 C-18.27887695 12.18591797 -17.64369141 11.76246094 -16.98925781 11.32617188 C-11.32617188 7.55078125 -5.66308594 3.77539062 0 0 Z " fill="#4BA0D1" transform="translate(319,302)"/>
<path d="M0 0 C0.4375 2.0625 0.4375 2.0625 0 5 C-2.09136599 7.59353014 -4.53405887 9.76767435 -7 12 C-7.78375 12.78375 -8.5675 13.5675 -9.375 14.375 C-10.674375 15.674375 -10.674375 15.674375 -12 17 C-12.72703125 17.75023437 -13.4540625 18.50046875 -14.203125 19.2734375 C-15.00234375 20.09070313 -15.8015625 20.90796875 -16.625 21.75 C-17.38039063 22.52859375 -18.13578125 23.3071875 -18.9140625 24.109375 C-21 26 -21 26 -24 27 C-23.67 24.36 -23.34 21.72 -23 19 C-21.02 18.67 -19.04 18.34 -17 18 C-17.33 17.01 -17.66 16.02 -18 15 C-17.34 15 -16.68 15 -16 15 C-15.67 14.34 -15.34 13.68 -15 13 C-14.34 13.33 -13.68 13.66 -13 14 C-13 13.34 -13 12.68 -13 12 C-11.68 12 -10.36 12 -9 12 C-9 11.34 -9 10.68 -9 10 C-8.34 10 -7.68 10 -7 10 C-6.67 8.02 -6.34 6.04 -6 4 C-6.66 3.67 -7.32 3.34 -8 3 C-4.93882432 0.37613513 -4.26826873 0 0 0 Z " fill="#35A1E7" transform="translate(368,286)"/>
<path d="M0 0 C-11.36206538 5.212748 -22.77747974 10.21356985 -34.37475586 14.88208008 C-40.04809154 17.17236048 -45.60169241 19.57957099 -51.07421875 22.3203125 C-53 23 -53 23 -56 22 C-54.68 21.67 -53.36 21.34 -52 21 C-52 20.34 -52 19.68 -52 19 C-50.9378125 18.61328125 -49.875625 18.2265625 -48.78125 17.828125 C-39.84642846 14.62126059 -39.84642846 14.62126059 -31.25 10.625 C-28 9 -28 9 -24 9 C-24 8.34 -24 7.68 -24 7 C-20.535 6.505 -20.535 6.505 -17 6 C-16.67 5.01 -16.34 4.02 -16 3 C-15.34 3 -14.68 3 -14 3 C-13.67 2.01 -13.34 1.02 -13 0 C-11.58456585 -0.19658808 -10.16755969 -0.38187546 -8.75 -0.5625 C-7.96109375 -0.66691406 -7.1721875 -0.77132812 -6.359375 -0.87890625 C-3.98020513 -1.00101596 -2.27793584 -0.6241208 0 0 Z " fill="#4B9FCB" transform="translate(288,251)"/>
<path d="M0 0 C0.66 0.99 1.32 1.98 2 3 C-0.36292656 5.52588702 -1.66462511 6.88820837 -5 8 C-6.05771739 9.63064764 -7.05273046 11.30280873 -8 13 C-8.53625 13.680625 -9.0725 14.36125 -9.625 15.0625 C-11.05021833 17.07076219 -11.57066644 18.59573204 -12 21 C-11.34 21 -10.68 21 -10 21 C-9.67 22.65 -9.34 24.3 -9 26 C-10.65 26 -12.3 26 -14 26 C-13.2575 27.0828125 -13.2575 27.0828125 -12.5 28.1875 C-10.92080715 31.14848659 -10.71821688 32.71253029 -11 36 C-13.99024127 33.28159885 -15.6841988 30.75816243 -16.40625 26.73828125 C-16.68549697 19.51276581 -14.67716383 15.41710577 -10 10 C-6.76071212 6.563077 -3.4295742 3.2465732 0 0 Z " fill="#E1FBFC" transform="translate(281,374)"/>
<path d="M0 0 C-2.982289 4.47343351 -7.08186281 5.18272129 -12 7 C-13.34578125 7.56654297 -13.34578125 7.56654297 -14.71875 8.14453125 C-21.39555275 10.85938064 -26.84559375 11.49042301 -34 11 C-35.1240625 10.94457031 -36.248125 10.88914062 -37.40625 10.83203125 C-42.69810193 10.51618874 -47.12682514 10.21180999 -52 8 C-52 7.67 -52 7.34 -52 7 C-50.04174127 6.97305149 -48.08337774 6.95362782 -46.125 6.9375 C-45.03445312 6.92589844 -43.94390625 6.91429687 -42.8203125 6.90234375 C-40 7 -40 7 -38 8 C-27.29080658 8.70929511 -17.91868097 9.07315511 -9.375 1.75 C-6.17906364 -0.60490048 -3.86941077 -0.3034832 0 0 Z " fill="#D0F2FB" transform="translate(228,363)"/>
<path d="M0 0 C7.41239727 0.75380311 7.41239727 0.75380311 10.38671875 2 C19.02650664 5.30610717 31.88193729 5.13417228 40.9375 3.25 C41.948125 3.1675 42.95875 3.085 44 3 C46.19140625 4.984375 46.19140625 4.984375 48 7 C43.19450253 7.02468447 38.38904182 7.04285255 33.58349609 7.05493164 C31.94807289 7.05996621 30.3126542 7.06679427 28.67724609 7.07543945 C26.32909025 7.08754335 23.98099381 7.093237 21.6328125 7.09765625 C20.53273361 7.10539818 20.53273361 7.10539818 19.41043091 7.11329651 C14.22774341 7.11387171 14.22774341 7.11387171 12 6 C12 5.34 12 4.68 12 4 C11.38511719 3.96261719 10.77023438 3.92523438 10.13671875 3.88671875 C9.32847656 3.82097656 8.52023438 3.75523437 7.6875 3.6875 C6.88699219 3.62949219 6.08648437 3.57148438 5.26171875 3.51171875 C2.63727666 2.91793306 1.69179328 2.04219706 0 0 Z " fill="#3D9AD0" transform="translate(168,369)"/>
<path d="M0 0 C-0.81791016 0.34611328 -0.81791016 0.34611328 -1.65234375 0.69921875 C-15.78904551 6.38030778 -15.78904551 6.38030778 -26 17 C-26.65214181 21.05318516 -26.88303089 24.58406125 -24.66015625 28.1484375 C-23.17516088 29.8605498 -21.66268064 31.46103072 -20 33 C-22.31 33 -24.62 33 -27 33 C-27.92696405 29.07143808 -28.13426944 25.40720774 -28.125 21.375 C-28.12757812 20.24835938 -28.13015625 19.12171875 -28.1328125 17.9609375 C-28 15 -28 15 -27 12 C-24.9375 11.3125 -24.9375 11.3125 -23 11 C-23 10.34 -23 9.68 -23 9 C-22.36191406 8.66226562 -21.72382812 8.32453125 -21.06640625 7.9765625 C-20.24011719 7.53054688 -19.41382812 7.08453125 -18.5625 6.625 C-17.32693359 5.96371094 -17.32693359 5.96371094 -16.06640625 5.2890625 C-13.86533422 4.16581441 -13.86533422 4.16581441 -13 2 C-11.02 2 -9.04 2 -7 2 C-7 1.34 -7 0.68 -7 0 C-3.98968256 -0.93423645 -3.13349732 -1.04449911 0 0 Z " fill="#50A4D0" transform="translate(135,317)"/>
<path d="M0 0 C3.69268106 1.32675089 6.5476833 2.97190937 9.6875 5.3125 C18.07418831 11.31731868 25.50166589 15.11615053 35.875 15.25 C37.66550781 15.28867187 37.66550781 15.28867187 39.4921875 15.328125 C43.3049138 14.971478 45.71256738 13.91012905 49 12 C49 12.99 49 13.98 49 15 C43.13242599 19.02347932 36.89683931 18.79144058 30 18 C21.73357915 15.98489199 14.8917957 12.80673595 8.28125 7.453125 C5.53338802 5.70277456 3.21152141 5.35068337 0 5 C0 3.33333333 0 1.66666667 0 0 Z " fill="#51A0CD" transform="translate(369,486)"/>
<path d="M0 0 C0.69416016 -0.02900391 1.38832031 -0.05800781 2.10351562 -0.08789062 C5.88068029 -0.13452229 7.76654016 0.19726371 10.93359375 2.33203125 C11.59488281 2.98558594 12.25617188 3.63914063 12.9375 4.3125 C11.9475 4.6425 10.9575 4.9725 9.9375 5.3125 C9.9375 4.6525 9.9375 3.9925 9.9375 3.3125 C6.47946269 3.19454019 3.02195443 3.12467248 -0.4375 3.0625 C-1.40300781 3.02898437 -2.36851562 2.99546875 -3.36328125 2.9609375 C-10.46532208 2.86560809 -15.66536481 4.31747076 -22.0625 7.3125 C-24.04973268 8.01631157 -26.05027953 8.6836811 -28.0625 9.3125 C-28.86945313 9.58320313 -29.67640625 9.85390625 -30.5078125 10.1328125 C-31.39210938 10.41898438 -32.27640625 10.70515625 -33.1875 11 C-34.01507813 11.27199219 -34.84265625 11.54398438 -35.6953125 11.82421875 C-38.22173841 12.34534621 -39.64865272 12.14121715 -42.0625 11.3125 C-12.81995444 0.17955118 -12.81995444 0.17955118 0 0 Z " fill="#CAEFFA" transform="translate(456.0625,187.6875)"/>
<path d="M0 0 C4.02992782 0.55312735 8.02022924 1.1558062 12 2 C12 2.66 12 3.32 12 4 C14.97 4 17.94 4 21 4 C21.33 4.99 21.66 5.98 22 7 C27.445 7.495 27.445 7.495 33 8 C33.495 9.98 33.495 9.98 34 12 C36.31 12.33 38.62 12.66 41 13 C41 13.66 41 14.32 41 15 C34.08058546 13.62603232 27.66554367 11.5902585 21.0625 9.125 C19.67514648 8.61646484 19.67514648 8.61646484 18.25976562 8.09765625 C12.12958425 5.83803789 6.0536048 3.45694019 0 1 C0 0.67 0 0.34 0 0 Z " fill="#CEF1F9" transform="translate(122,352)"/>
<path d="M0 0 C0.33 0 0.66 0 1 0 C1.11720169 9.1547545 1.18080727 17.9408516 -0.90625 26.8828125 C-2.33646259 33.21856317 -3.202674 39.63696223 -4.125 46.0625 C-4.30675781 47.30966797 -4.48851562 48.55683594 -4.67578125 49.84179688 C-5.12017936 52.8941102 -5.56150824 55.94683356 -6 59 C-6.66 59 -7.32 59 -8 59 C-7.18564292 52.34533957 -6.28580646 45.70404337 -5.37109375 39.0625 C-5.1401577 37.38148193 -5.1401577 37.38148193 -4.90455627 35.66650391 C-4.41599189 32.11093998 -3.926756 28.55546882 -3.4375 25 C-3.10477326 22.57943319 -2.7720905 20.15886034 -2.43945312 17.73828125 C-1.62681115 11.82545076 -0.81361882 5.91269615 0 0 Z " fill="#4FA2D1" transform="translate(473,226)"/>
<path d="M0 0 C0.66 0.33 1.32 0.66 2 1 C-2.32120137 4.28411304 -5.75058679 6.44903701 -11 8 C-11.99 8.66 -12.98 9.32 -14 10 C-13.67 10.66 -13.34 11.32 -13 12 C-16.37097383 13.49821059 -18.20442119 14 -22 14 C-22 13.34 -22 12.68 -22 12 C-23.65 12 -25.3 12 -27 12 C-27.33 12.66 -27.66 13.32 -28 14 C-28.66 13.34 -29.32 12.68 -30 12 C-29.20078125 11.69707031 -28.4015625 11.39414063 -27.578125 11.08203125 C-20.89049442 8.53099846 -14.2515222 5.89452928 -7.65625 3.11328125 C-6.7796875 2.74589844 -5.903125 2.37851563 -5 2 C-3.65421875 1.40251953 -3.65421875 1.40251953 -2.28125 0.79296875 C-1.15203125 0.40044922 -1.15203125 0.40044922 0 0 Z " fill="#F5FBF7" transform="translate(347,226)"/>
<path d="M0 0 C-5.71378629 3.09496758 -11.60859121 5.40606631 -17.69970703 7.63378906 C-23.67252417 9.8337883 -29.48874077 12.31504431 -35.3046875 14.8984375 C-38 16 -38 16 -40 16 C-40 15.34 -40 14.68 -40 14 C-39.01 14 -38.02 14 -37 14 C-37 13.34 -37 12.68 -37 12 C-27.58997722 8.74031891 -27.58997722 8.74031891 -23 8 C-22.67 7.01 -22.34 6.02 -22 5 C-16.77821528 2.70974354 -11.52950654 1.33470847 -6 0 C-3.50907189 -1.24546405 -2.58919267 -0.7767578 0 0 Z " fill="#47A1CC" transform="translate(336,231)"/>
<path d="M0 0 C0.495 1.485 0.495 1.485 1 3 C0.33613281 2.67515625 -0.32773437 2.3503125 -1.01171875 2.015625 C-4.65789319 0.77640231 -8.01033661 0.70707812 -11.8125 0.75 C-12.48603516 0.74226562 -13.15957031 0.73453125 -13.85351562 0.7265625 C-22.50971608 0.75969628 -30.40144456 3.68728044 -38.52734375 6.40820312 C-43.78292411 8.10853795 -43.78292411 8.10853795 -46 7 C-11.07059225 -7.95285983 -11.07059225 -7.95285983 0 0 Z " fill="#51A2D1" transform="translate(468,188)"/>
<path d="M0 0 C0.33 0.66 0.66 1.32 1 2 C-2.7924658 6.26652402 -6.67233976 8.89480975 -12 11 C-12.66 11 -13.32 11 -14 11 C-14.66 12.32 -15.32 13.64 -16 15 C-17.32 15 -18.64 15 -20 15 C-20.28875 15.78375 -20.5775 16.5675 -20.875 17.375 C-22 20 -22 20 -24 22 C-24.33 21.34 -24.66 20.68 -25 20 C-25.66 20 -26.32 20 -27 20 C-25.69259605 16.07778815 -23.34277061 15.07669509 -20 13 C-18.76655372 12.18024384 -17.53617491 11.35585711 -16.30859375 10.52734375 C-15.01823772 9.66404972 -13.72787303 8.80076862 -12.4375 7.9375 C-11.79103516 7.50373047 -11.14457031 7.06996094 -10.47851562 6.62304688 C-7.03575112 4.32203336 -3.57525551 2.09299987 0 0 Z " fill="#55A8D4" transform="translate(349,282)"/>
<path d="M0 0 C3.59159375 2.09024285 6.96264582 4.35464751 10.3125 6.8125 C11.73949219 7.85857422 11.73949219 7.85857422 13.1953125 8.92578125 C16.81042543 11.59935363 20.41405819 14.28742511 24 17 C23.34 17.33 22.68 17.66 22 18 C21.52949219 17.65066406 21.05898438 17.30132812 20.57421875 16.94140625 C19.95160156 16.48636719 19.32898438 16.03132813 18.6875 15.5625 C18.07261719 15.11003906 17.45773437 14.65757812 16.82421875 14.19140625 C14.90322899 12.82663692 14.90322899 12.82663692 12 12 C10 10 10 10 9 8 C7.68 8 6.36 8 5 8 C5 9.32 5 10.64 5 12 C2.525 11.01 2.525 11.01 0 10 C0.66 8.68 1.32 7.36 2 6 C1.01 4.68 0.02 3.36 -1 2 C-0.67 1.34 -0.34 0.68 0 0 Z " fill="#3DA2DB" transform="translate(321,450)"/>
<path d="M0 0 C0.33 0 0.66 0 1 0 C0.4950552 10.98449145 -1.12751575 21.57031563 -3.0625 32.375 C-3.34764914 33.99728278 -3.63215812 35.61967822 -3.91601562 37.2421875 C-4.60332923 41.16279182 -5.29919926 45.081785 -6 49 C-6.33 49 -6.66 49 -7 49 C-7.02696365 47.20841511 -7.04637917 45.41671527 -7.0625 43.625 C-7.07410156 42.62726563 -7.08570313 41.62953125 -7.09765625 40.6015625 C-7 38 -7 38 -6 36 C-5.72377665 34.45401698 -5.49074665 32.90017989 -5.28125 31.34375 C-5.15363281 30.40273438 -5.02601563 29.46171875 -4.89453125 28.4921875 C-4.69923828 27.01105469 -4.69923828 27.01105469 -4.5 25.5 C-4.36980469 24.54351562 -4.23960937 23.58703125 -4.10546875 22.6015625 C-3.27511008 16.41161605 -2.57893149 10.2184053 -2 4 C-1.34 4 -0.68 4 0 4 C0 2.68 0 1.36 0 0 Z " fill="#D6F9FE" transform="translate(463,284)"/>
<path d="M0 0 C1.32 0.33 2.64 0.66 4 1 C4.33 2.32 4.66 3.64 5 5 C5.66 5 6.32 5 7 5 C7.94043777 7.82131331 8.12864329 9.57075934 8.1328125 12.4921875 C8.13474609 13.79736328 8.13474609 13.79736328 8.13671875 15.12890625 C8.13285156 16.03511719 8.12898438 16.94132812 8.125 17.875 C8.12886719 18.77347656 8.13273437 19.67195313 8.13671875 20.59765625 C8.13043221 24.85364451 8.09290756 28.85389036 7 33 C6.34 33 5.68 33 5 33 C5.01047363 32.38068604 5.02094727 31.76137207 5.03173828 31.12329102 C5.07376099 28.26973665 5.09947127 25.41624774 5.125 22.5625 C5.14175781 21.58861328 5.15851563 20.61472656 5.17578125 19.61132812 C5.29726118 10.61258401 5.29726118 10.61258401 3 2 C2.01 1.67 1.02 1.34 0 1 C0 0.67 0 0.34 0 0 Z " fill="#49A1D3" transform="translate(469,191)"/>
<path d="M0 0 C0.66 0.99 1.32 1.98 2 3 C1.67 3.66 1.34 4.32 1 5 C0.01 5 -0.98 5 -2 5 C-2 4.34 -2 3.68 -2 3 C-6.25586138 3.53198267 -9.50551586 5.15879533 -13.23046875 7.16015625 C-15 8 -15 8 -17 8 C-17 8.66 -17 9.32 -17 10 C-19.1171875 11.54296875 -19.1171875 11.54296875 -21.875 13.1875 C-22.77992188 13.73792969 -23.68484375 14.28835938 -24.6171875 14.85546875 C-25.40351563 15.23316406 -26.18984375 15.61085938 -27 16 C-27.66 15.67 -28.32 15.34 -29 15 C-23.94768423 10.84141518 -18.55243742 7.44331011 -13 4 C-12.32066406 3.55785156 -11.64132812 3.11570312 -10.94140625 2.66015625 C-7.1904043 0.31264723 -4.42409669 -0.72020179 0 0 Z " fill="#50A2CF" transform="translate(382,265)"/>
<path d="M0 0 C1.09570312 0.00902344 2.19140625 0.01804688 3.3203125 0.02734375 C4.16335938 0.03894531 5.00640625 0.05054688 5.875 0.0625 C2.92316899 3.01433101 -0.08011947 3.14913988 -4.125 4.0625 C-4.125 4.7225 -4.125 5.3825 -4.125 6.0625 C-6.70732914 7.04438561 -9.29078683 8.02309589 -11.875 9 C-12.60460937 9.27779297 -13.33421875 9.55558594 -14.0859375 9.84179688 C-15.14941406 10.24301758 -15.14941406 10.24301758 -16.234375 10.65234375 C-16.88374023 10.89847412 -17.53310547 11.14460449 -18.20214844 11.39819336 C-20.157576 12.07375435 -22.11165757 12.59050046 -24.125 13.0625 C-24.125 12.4025 -24.125 11.7425 -24.125 11.0625 C-22.546924 10.21925328 -20.9622958 9.38826082 -19.375 8.5625 C-18.49328125 8.0984375 -17.6115625 7.634375 -16.703125 7.15625 C-14.125 6.0625 -14.125 6.0625 -10.125 6.0625 C-10.125 5.4025 -10.125 4.7425 -10.125 4.0625 C-8.805 4.0625 -7.485 4.0625 -6.125 4.0625 C-6.125 3.4025 -6.125 2.7425 -6.125 2.0625 C-6.785 1.7325 -7.445 1.4025 -8.125 1.0625 C-5.36047967 -0.31976016 -3.0788637 -0.03275387 0 0 Z " fill="#3E9ED1" transform="translate(362.125,216.9375)"/>
<path d="M0 0 C2.64 0.66 5.28 1.32 8 2 C8 1.34 8 0.68 8 0 C8.66 0 9.32 0 10 0 C8.59155282 3.21524305 6.89655214 5.32183868 4.375 7.75 C3.42753906 8.67039062 3.42753906 8.67039062 2.4609375 9.609375 C1.97882813 10.06828125 1.49671875 10.5271875 1 11 C-1 10 -1 10 -2 8 C-2.66 8 -3.32 8 -4 8 C-4 6.68 -4 5.36 -4 4 C-3.01 3.67 -2.02 3.34 -1 3 C-0.67 2.01 -0.34 1.02 0 0 Z " fill="#3CA1DA" transform="translate(292,352)"/>
<path d="M0 0 C0.33 0 0.66 0 1 0 C1.17151487 5.05968873 1.03461345 8.33235737 -1 13 C-1.3813074 15.32597511 -1.72460254 17.65912158 -2 20 C-2.99 20.33 -3.98 20.66 -5 21 C-5.33 22.98 -5.66 24.96 -6 27 C-6.66 27 -7.32 27 -8 27 C-8 27.66 -8 28.32 -8 29 C-8.66 29 -9.32 29 -10 29 C-10.33 29.99 -10.66 30.98 -11 32 C-11.99 31.67 -12.98 31.34 -14 31 C-13.01 30.67 -12.02 30.34 -11 30 C-9.97549761 27.81862203 -9.97549761 27.81862203 -9 25 C-8.401875 23.9275 -7.80375 22.855 -7.1875 21.75 C-3.70306374 14.96521091 -2.02877537 7.31689477 0 0 Z " fill="#53A6D3" transform="translate(432,466)"/>
<path d="M0 0 C-1.4098361 4.2295083 -4.16421847 5.08210924 -8 7 C-8.763125 7.12375 -9.52625 7.2475 -10.3125 7.375 C-13.05145695 7.86001391 -13.05145695 7.86001391 -15.3125 9.4375 C-19.16098333 11.67499031 -23.6506642 13.53714544 -28.12280273 12.51464844 C-28.74227783 12.34481445 -29.36175293 12.17498047 -30 12 C-27.42047597 10.82421696 -24.83696062 9.659209 -22.25 8.5 C-21.52039063 8.16613281 -20.79078125 7.83226562 -20.0390625 7.48828125 C-19.33007812 7.17246094 -18.62109375 6.85664063 -17.890625 6.53125 C-16.91657715 6.09135742 -16.91657715 6.09135742 -15.92285156 5.64257812 C-14 5 -14 5 -10 5 C-10 4.34 -10 3.68 -10 3 C-8.70990357 2.49596232 -7.41786211 1.99690074 -6.125 1.5 C-5.04605469 1.08234375 -5.04605469 1.08234375 -3.9453125 0.65625 C-2 0 -2 0 0 0 Z " fill="#CBEFF9" transform="translate(300,246)"/>
<path d="M0 0 C-7.80656137 5.69181564 -15.58232627 11.22869185 -24 16 C-24.33 15.34 -24.66 14.68 -25 14 C-22.87330165 11.66063182 -20.93775144 10.19346152 -18 9 C-17.01 9 -16.02 9 -15 9 C-15 8.01 -15 7.02 -15 6 C-14.030625 5.566875 -13.06125 5.13375 -12.0625 4.6875 C-8.72268235 3.2985139 -8.72268235 3.2985139 -8 0 C-4.99093136 -1.24513185 -3.0590674 -0.84653438 0 0 Z " fill="#D6F6FC" transform="translate(259,343)"/>
<path d="M0 0 C-3.22838633 1.4600652 -6.45784485 2.91774383 -9.6875 4.375 C-10.59951172 4.7875 -11.51152344 5.2 -12.45117188 5.625 C-13.78051758 6.22441406 -13.78051758 6.22441406 -15.13671875 6.8359375 C-16.35427856 7.38580322 -16.35427856 7.38580322 -17.59643555 7.94677734 C-24.56420955 11 -24.56420955 11 -28 11 C-28 10.01 -28 9.02 -28 8 C-27.34 8 -26.68 8 -26 8 C-26 7.34 -26 6.68 -26 6 C-23.69 6.33 -21.38 6.66 -19 7 C-19 6.34 -19 5.68 -19 5 C-18.01 5 -17.02 5 -16 5 C-16 4.34 -16 3.68 -16 3 C-15.30132812 2.79503906 -14.60265625 2.59007812 -13.8828125 2.37890625 C-12.97273437 2.10949219 -12.06265625 1.84007812 -11.125 1.5625 C-9.76761719 1.16224609 -9.76761719 1.16224609 -8.3828125 0.75390625 C-3.07978723 -0.92393617 -3.07978723 -0.92393617 0 0 Z " fill="#459FCA" transform="translate(216,282)"/>
<path d="M0 0 C0.33 0.99 0.66 1.98 1 3 C0.67 3.33 0.34 3.66 0 4 C-0.41725678 7.37400578 -0.41725678 7.37400578 0 11 C1.89584109 13.31377147 1.89584109 13.31377147 4 15 C4 15.66 4 16.32 4 17 C6.31 17.66 8.62 18.32 11 19 C11 19.99 11 20.98 11 22 C5.5196669 20.99340821 2.14537932 19.17484003 -1.67578125 15.0703125 C-3.62424327 12.02404444 -3.72380325 9.57116745 -3.4453125 6.0234375 C-2.87694942 3.44087544 -1.90570891 1.82630437 0 0 Z " fill="#E3FCFD" transform="translate(111,330)"/>
<path d="M0 0 C0.33 0 0.66 0 1 0 C1.2363228 6.02623129 0.49297594 11.5802202 -0.48828125 17.5234375 C-1.29331421 22.99274542 -1.65701268 28.48512498 -2 34 C-2.66 34 -3.32 34 -4 34 C-4.33 35.32 -4.66 36.64 -5 38 C-5.4437387 29.55170826 -4.07731588 21.65377687 -2.5 13.375 C-2.26152344 12.08464844 -2.02304687 10.79429687 -1.77734375 9.46484375 C-1.19280436 6.30833102 -0.60019294 3.15356694 0 0 Z " fill="#5EA9D2" transform="translate(448,378)"/>
<path d="M0 0 C0.7115625 0.71929687 1.423125 1.43859375 2.15625 2.1796875 C4.87555719 4.89707968 7.6685397 7.52419236 10.5 10.125 C11.4178125 10.97320312 12.335625 11.82140625 13.28125 12.6953125 C15.75470298 14.79206143 18.17078203 16.43162917 21 18 C20.34 18.33 19.68 18.66 19 19 C12.5684108 15.94095757 6.7276902 12.33771475 2 7 C1.01 6.34 0.02 5.68 -1 5 C-0.67 3.35 -0.34 1.7 0 0 Z " fill="#50A4CF" transform="translate(267,407)"/>
<path d="M0 0 C0.99 0.33 1.98 0.66 3 1 C-3.98752362 6.70034822 -9.03813916 6.57632546 -18 6 C-21.21543896 5.26160814 -23.93923004 4.2665255 -27 3 C-22.44109813 1.75303559 -18.03614407 1.16465884 -13.5625 3 C-9.93981287 4.41373156 -6.87476832 4.13134808 -3 4 C-3 3.34 -3 2.68 -3 2 C-2.01 2 -1.02 2 0 2 C0 1.34 0 0.68 0 0 Z " fill="#D3F4FC" transform="translate(416,496)"/>
<path d="M0 0 C4.44391119 1.48130373 7.81135419 3.93278888 11.4375 6.8125 C12.25831055 7.45155273 12.25831055 7.45155273 13.09570312 8.10351562 C16.79297632 10.99570212 20.40607873 13.98067248 24 17 C22 18 22 18 19.9375 17.75 C19.298125 17.5025 18.65875 17.255 18 17 C17.67 16.01 17.34 15.02 17 14 C16.01 13.67 15.02 13.34 14 13 C14 12.34 14 11.68 14 11 C13.42765625 10.7215625 12.8553125 10.443125 12.265625 10.15625 C10.03382434 9.01726208 7.89129126 7.80063617 5.75 6.5 C5.04359375 6.0771875 4.3371875 5.654375 3.609375 5.21875 C3.07828125 4.8165625 2.5471875 4.414375 2 4 C2 3.34 2 2.68 2 2 C1.34 2 0.68 2 0 2 C0 1.34 0 0.68 0 0 Z " fill="#4A9CCE" transform="translate(345,468)"/>
<path d="M0 0 C6.69938372 1.79701116 13.0928956 4.17443438 19.50634766 6.79394531 C24.28541521 8.73884355 29.08142679 10.44676635 34 12 C30.68853915 13.1155431 28.84738509 12.88917519 25.5859375 11.70703125 C24.74643555 11.40804932 23.90693359 11.10906738 23.04199219 10.80102539 C22.16188477 10.47481201 21.28177734 10.14859863 20.375 9.8125 C19.03163574 9.32801392 19.03163574 9.32801392 17.66113281 8.83374023 C11.72600538 6.67958476 5.81465807 4.46357881 0 2 C0 1.34 0 0.68 0 0 Z " fill="#54A0CB" transform="translate(115,350)"/>
<path d="M0 0 C0 4.92968246 -3.69666507 7.58762294 -7 11 C-11.71614207 15.64890583 -11.71614207 15.64890583 -14 17 C-14.99 16.67 -15.98 16.34 -17 16 C-5.47835991 4.29384966 -5.47835991 4.29384966 0 0 Z " fill="#D8F4FC" transform="translate(313,343)"/>
<path d="M0 0 C0.33 0.66 0.66 1.32 1 2 C0.67 2.99 0.34 3.98 0 5 C-0.66 5 -1.32 5 -2 5 C-2.2475 5.61875 -2.495 6.2375 -2.75 6.875 C-4 9 -4 9 -6.0625 10 C-8.20707235 10.82144377 -8.20707235 10.82144377 -8.6875 13.0625 C-8.790625 13.701875 -8.89375 14.34125 -9 15 C-10 16 -10 16 -12.5625 16.0625 C-13.366875 16.041875 -14.17125 16.02125 -15 16 C-11.49169027 11.81655163 -7.91593271 7.81288185 -4 4 C-3.236875 3.236875 -2.47375 2.47375 -1.6875 1.6875 C-1.130625 1.130625 -0.57375 0.57375 0 0 Z " fill="#D6F3FB" transform="translate(366,292)"/>
<path d="M0 0 C0.66 0.33 1.32 0.66 2 1 C-5.56892179 6.73403166 -14.24757959 11.46270608 -24 11 C-20.81237635 8.87491756 -18.73487777 8.4979837 -15 8 C-15 7.34 -15 6.68 -15 6 C-12.54524486 4.96971956 -10.08685649 3.95054496 -7.625 2.9375 C-6.92632812 2.64294922 -6.22765625 2.34839844 -5.5078125 2.04492188 C-3.69495092 1.30408902 -1.84876857 0.64603036 0 0 Z " fill="#CEEFF9" transform="translate(373,215)"/>
<path d="M0 0 C0.66 0.33 1.32 0.66 2 1 C-3.67793686 5.29788276 -7.81595146 7.73876187 -15 8 C-15 8.99 -15 9.98 -15 11 C-17.64 11 -20.28 11 -23 11 C-21.70988854 8.41977708 -20.76792095 8.33768471 -18.10546875 7.34375 C-17.31462891 7.04339844 -16.52378906 6.74304688 -15.70898438 6.43359375 C-14.87689453 6.12550781 -14.04480469 5.81742187 -13.1875 5.5 C-11.55534171 4.88713931 -9.92380891 4.2726097 -8.29296875 3.65625 C-7.5661792 3.38619141 -6.83938965 3.11613281 -6.09057617 2.83789062 C-3.95226611 2.02809708 -3.95226611 2.02809708 -1.85668945 0.83398438 C-1.24398193 0.55876953 -0.63127441 0.28355469 0 0 Z " fill="#C4EBF8" transform="translate(268,259)"/>
<path d="M0 0 C-2.19730187 2.19730187 -3.59714109 2.71894434 -6.5 3.7265625 C-7.386875 4.0359375 -8.27375 4.3453125 -9.1875 4.6640625 C-10.115625 4.98117188 -11.04375 5.29828125 -12 5.625 C-12.928125 5.94984375 -13.85625 6.2746875 -14.8125 6.609375 C-21.72321429 9 -21.72321429 9 -24 9 C-24 8.34 -24 7.68 -24 7 C-15.65809297 2.52084795 -9.52576657 -0.28865959 0 0 Z " fill="#51A2D2" transform="translate(392,208)"/>
<path d="M0 0 C1.98135871 4.98378572 -0.7048594 9.17648746 -2.5859375 13.84765625 C-4.11074664 17.24688547 -5.7323991 20.06051736 -8 23 C-8.33 21.68 -8.66 20.36 -9 19 C-8.34 19 -7.68 19 -7 19 C-6.87753906 18.47921875 -6.75507813 17.9584375 -6.62890625 17.421875 C-5.82683683 14.33316046 -4.8823707 11.29797002 -3.9375 8.25 C-3.39416016 6.49429687 -3.39416016 6.49429687 -2.83984375 4.703125 C-2.56269531 3.81109375 -2.28554688 2.9190625 -2 2 C-1.34 2 -0.68 2 0 2 C0 1.34 0 0.68 0 0 Z " fill="#D1F6FC" transform="translate(429,473)"/>
<path d="M0 0 C1.32 0.66 2.64 1.32 4 2 C2.06852571 3.9853759 0.13033391 5.96329392 -1.8125 7.9375 C-2.35970703 8.50146484 -2.90691406 9.06542969 -3.47070312 9.64648438 C-7.66015625 13.88671875 -7.66015625 13.88671875 -11 15 C-11 13.68 -11 12.36 -11 11 C-9.68 10.34 -8.36 9.68 -7 9 C-7 8.34 -7 7.68 -7 7 C-5.68 7 -4.36 7 -3 7 C-3 6.34 -3 5.68 -3 5 C-2.34 5 -1.68 5 -1 5 C-0.67 3.35 -0.34 1.7 0 0 Z " fill="#49A2D2" transform="translate(332,320)"/>
<path d="M0 0 C1.32 0 2.64 0 4 0 C2.65469371 2.93638969 1.08714488 5.17260476 -1 7.625 C-4.45662245 12.09331683 -5.34303369 16.47242137 -6 22 C-6.66 21.67 -7.32 21.34 -8 21 C-7.52060632 16.28596212 -7.03165952 12.33420699 -5 8 C-4.34 8 -3.68 8 -3 8 C-2.67 6.68 -2.34 5.36 -2 4 C-1.34 4 -0.68 4 0 4 C0 2.68 0 1.36 0 0 Z " fill="#4CA3CD" transform="translate(271,379)"/>
<path d="M0 0 C0.66 0.33 1.32 0.66 2 1 C-3.04890268 6.50789383 -8.60658413 10.19272057 -16 12 C-18.17578125 11.54296875 -18.17578125 11.54296875 -20 11 C-18.43880578 10.20576139 -16.87598036 9.41472877 -15.3125 8.625 C-14.44238281 8.18414062 -13.57226562 7.74328125 -12.67578125 7.2890625 C-10 6 -10 6 -7.34375 4.96875 C-4.44763145 3.77168767 -2.36763963 2.0294054 0 0 Z " fill="#5BA9D4" transform="translate(232,360)"/>
<path d="M0 0 C0.66 0.33 1.32 0.66 2 1 C-3.11021928 5.7363008 -7.27151508 7.86441873 -14.4375 8.125 C-15.283125 8.08375 -16.12875 8.0425 -17 8 C-14.26965065 5.26965065 -11.02687784 4.21336269 -7.5 2.8125 C-6.81035156 2.52697266 -6.12070313 2.24144531 -5.41015625 1.94726562 C-3.63095824 1.23454595 -1.81682212 0.6104689 0 0 Z " fill="#D1F2FA" transform="translate(203,287)"/>
<path d="M0 0 C-2.5654594 2.5654594 -4.47686668 2.54046087 -8 3 C-7.67 3.99 -7.34 4.98 -7 6 C-10.38023517 6 -12.83468937 5.12544378 -16 4 C-11.5684609 -0.4315391 -5.99629956 -1.64898238 0 0 Z " fill="#E2F7FB" transform="translate(392,211)"/>
<path d="M0 0 C0.96998805 3.07813008 0.98169275 5.12473547 0.2578125 8.2578125 C0.07863281 9.04800781 -0.10054688 9.83820313 -0.28515625 10.65234375 C-0.47980469 11.46832031 -0.67445313 12.28429687 -0.875 13.125 C-1.06191406 13.94871094 -1.24882812 14.77242188 -1.44140625 15.62109375 C-2.83928571 21.67857143 -2.83928571 21.67857143 -4 24 C-4.66 24 -5.32 24 -6 24 C-5.67 20.7 -5.34 17.4 -5 14 C-4.34 14 -3.68 14 -3 14 C-2.87625 12.80375 -2.7525 11.6075 -2.625 10.375 C-2.17674946 6.72403187 -1.29553163 3.45475101 0 0 Z " fill="#BEE4F6" transform="translate(438,434)"/>
<path d="M0 0 C1.65625 1.546875 1.65625 1.546875 3 3 C-0.87525126 2.86041196 -4.75012805 2.71222112 -8.625 2.5625 C-9.71941406 2.52318359 -10.81382812 2.48386719 -11.94140625 2.44335938 C-13.00488281 2.40146484 -14.06835938 2.35957031 -15.1640625 2.31640625 C-16.13811035 2.27974854 -17.1121582 2.24309082 -18.11572266 2.20532227 C-21.1254852 1.99106712 -24.03295916 1.54068643 -27 1 C-27 0.67 -27 0.34 -27 0 C-26.44014404 0.00523682 -25.88028809 0.01047363 -25.3034668 0.01586914 C-22.76482263 0.03666691 -20.22619641 0.04966904 -17.6875 0.0625 C-16.80642578 0.07087891 -15.92535156 0.07925781 -15.01757812 0.08789062 C-14.17001953 0.09111328 -13.32246094 0.09433594 -12.44921875 0.09765625 C-11.66893311 0.10289307 -10.88864746 0.10812988 -10.0847168 0.11352539 C-1.22906135 -0.36871841 -1.22906135 -0.36871841 0 0 Z " fill="#61AFD9" transform="translate(213,373)"/>
<path d="M0 0 C-2.263916 3.395874 -3.28812787 3.7546286 -7 5.125 C-7.886875 5.45757812 -8.77375 5.79015625 -9.6875 6.1328125 C-10.450625 6.41898437 -11.21375 6.70515625 -12 7 C-12.99 7.495 -12.99 7.495 -14 8 C-15.99960012 8.039992 -18.00047242 8.04346799 -20 8 C-19.443125 7.731875 -18.88625 7.46375 -18.3125 7.1875 C-15.01857104 5.49602297 -11.88616706 3.79755036 -9.125 1.3125 C-6.08182541 -0.56710784 -3.49640039 -0.20171541 0 0 Z " fill="#E4FAFE" transform="translate(228,363)"/>
<path d="M0 0 C1 1 1 1 1.09765625 3.28515625 C1.08605469 4.20167969 1.07445312 5.11820312 1.0625 6.0625 C1.05347656 6.98160156 1.04445313 7.90070313 1.03515625 8.84765625 C1.02355469 9.55792969 1.01195312 10.26820313 1 11 C0.01 11.495 0.01 11.495 -1 12 C-0.95117188 8.92382812 -0.95117188 8.92382812 -0.90234375 5.84765625 C-0.79438816 3.98267859 -0.79438816 3.98267859 -2 3 C-6.21571713 2.71256474 -9.18009548 3.20239787 -13 5 C-13 4.34 -13 3.68 -13 3 C-12.34 3 -11.68 3 -11 3 C-11 2.34 -11 1.68 -11 1 C-6.89951993 -0.62112003 -4.26246425 -1.33963162 0 0 Z " fill="#DAF8FB" transform="translate(384,263)"/>
<path d="M0 0 C3 1 3 1 3.94921875 2.57421875 C6.43523617 9.69027919 6.28699866 16.52740515 6 24 C5.67 24 5.34 24 5 24 C5 21.03 5 18.06 5 15 C4.34 15 3.68 15 3 15 C2.67 10.71 2.34 6.42 2 2 C1.34 2 0.68 2 0 2 C0 1.34 0 0.68 0 0 Z " fill="#CBF0FB" transform="translate(469,192)"/>
<path d="M0 0 C-0.66 0 -1.32 0 -2 0 C-2.12375 0.598125 -2.2475 1.19625 -2.375 1.8125 C-3 4 -3 4 -5 7 C-6.9375 6.625 -6.9375 6.625 -9 6 C-9.33 5.34 -9.66 4.68 -10 4 C-12.02463255 3.34786708 -12.02463255 3.34786708 -14 3 C-12.42274653 2.29866401 -10.83788667 1.614417 -9.25 0.9375 C-7.92742187 0.36322266 -7.92742187 0.36322266 -6.578125 -0.22265625 C-3.84743691 -1.04600008 -2.63098653 -0.9773992 0 0 Z " fill="#DBF1F9" transform="translate(414,201)"/>
<path d="M0 0 C0.66 0.33 1.32 0.66 2 1 C1.01 1.33 0.02 1.66 -1 2 C-1.30164063 2.65355469 -1.60328125 3.30710937 -1.9140625 3.98046875 C-3 6 -3 6 -5.0234375 6.86328125 C-5.79945313 7.01152344 -6.57546875 7.15976562 -7.375 7.3125 C-8.14585937 7.47363281 -8.91671875 7.63476562 -9.7109375 7.80078125 C-12.09466526 8.00823879 -13.71535252 7.63048581 -16 7 C-13.3789879 5.80293183 -10.75385304 4.61711354 -8.125 3.4375 C-7.00544922 2.92413086 -7.00544922 2.92413086 -5.86328125 2.40039062 C-3.93450668 1.54026143 -1.9688967 0.76383202 0 0 Z " fill="#C9EFF9" transform="translate(221,279)"/>
<path d="M0 0 C0 1.65 0 3.3 0 5 C-0.556875 5.06058594 -1.11375 5.12117188 -1.6875 5.18359375 C-6.79793457 5.74470565 -11.89999553 6.35090852 -17 7 C-14.03171001 5.02114001 -11.22552946 3.74135003 -7.9375 2.375 C-6.87402344 1.92898438 -5.81054688 1.48296875 -4.71484375 1.0234375 C-2 0 -2 0 0 0 Z " fill="#D0F2F9" transform="translate(240,272)"/>
<path d="M0 0 C-5.77874846 3.25711277 -10.37822074 4.69343615 -17 5 C-16.67 4.34 -16.34 3.68 -16 3 C-15.34 3 -14.68 3 -14 3 C-13.67 2.01 -13.34 1.02 -13 0 C-11.58456585 -0.19658808 -10.16755969 -0.38187546 -8.75 -0.5625 C-7.96109375 -0.66691406 -7.1721875 -0.77132812 -6.359375 -0.87890625 C-3.99467126 -1.00027349 -2.2488963 -0.69633257 0 0 Z " fill="#409FD6" transform="translate(288,251)"/>
<path d="M0 0 C1.32 0 2.64 0 4 0 C4.33 1.65 4.66 3.3 5 5 C3.35 5 1.7 5 0 5 C0.495 5.721875 0.99 6.44375 1.5 7.1875 C3.07919285 10.14848659 3.28178312 11.71253029 3 15 C-0.01066983 12.12022886 -0.96788456 10.88317459 -1.125 6.5625 C-1 3 -1 3 0 0 Z " fill="#E7F8FB" transform="translate(267,395)"/>
<path d="M0 0 C0.99 0.33 1.98 0.66 3 1 C1.29798107 2.756532 -0.41115103 4.50507087 -2.125 6.25 C-2.599375 6.74113281 -3.07375 7.23226563 -3.5625 7.73828125 C-6.8004632 11.02000071 -10.08565821 13.56079592 -14 16 C-14 15.01 -14 14.02 -14 13 C-10.66666667 10 -10.66666667 10 -8 10 C-7.71125 9.401875 -7.4225 8.80375 -7.125 8.1875 C-4.55172414 3.18390805 -4.55172414 3.18390805 -1 2 C-0.67 1.34 -0.34 0.68 0 0 Z " fill="#489ECC" transform="translate(317,336)"/>
<path d="M0 0 C0.36458333 4.49652778 0.36458333 4.49652778 -1.3125 6.8125 C-3 8 -3 8 -6 8 C-6 6.68 -6 5.36 -6 4 C-6.66 3.67 -7.32 3.34 -8 3 C-4.93882432 0.37613513 -4.26826873 0 0 0 Z " fill="#39A0DE" transform="translate(368,286)"/>
<path d="M0 0 C-5.58426918 4.73448909 -9.7229646 5.83893885 -17 6 C-17 6.66 -17 7.32 -17 8 C-18.32 7.67 -19.64 7.34 -21 7 C-3.98165138 -1.99082569 -3.98165138 -1.99082569 0 0 Z " fill="#D0F1FB" transform="translate(349,227)"/>
<path d="M0 0 C0 0.66 0 1.32 0 2 C-1.32 2.33 -2.64 2.66 -4 3 C-4 3.66 -4 4.32 -4 5 C-7.11910856 6.79275866 -9.67682428 7.34290718 -13.25 7.625 C-14.14203125 7.69976562 -15.0340625 7.77453125 -15.953125 7.8515625 C-16.62859375 7.90054687 -17.3040625 7.94953125 -18 8 C-14.83936913 5.39667844 -11.6568348 3.85961424 -7.875 2.3125 C-6.82054687 1.87550781 -5.76609375 1.43851562 -4.6796875 0.98828125 C-2 0 -2 0 0 0 Z " fill="#D0F1FB" transform="translate(172,301)"/>
<path d="M0 0 C1.32 0.33 2.64 0.66 4 1 C-0.29 5.29 -4.58 9.58 -9 14 C-9.33 13.34 -9.66 12.68 -10 12 C-9.67 11.34 -9.34 10.68 -9 10 C-8.34 10 -7.68 10 -7 10 C-6.67 9.01 -6.34 8.02 -6 7 C-5.34 7 -4.68 7 -4 7 C-3.8453125 6.0409375 -3.8453125 6.0409375 -3.6875 5.0625 C-3.460625 4.381875 -3.23375 3.70125 -3 3 C-2.01 2.67 -1.02 2.34 0 2 C0 1.34 0 0.68 0 0 Z " fill="#54A8D8" transform="translate(288,363)"/>
<path d="M0 0 C0 0.99 0 1.98 0 3 C-6.625 6 -6.625 6 -10 6 C-10.33 6.99 -10.66 7.98 -11 9 C-12.65 9.33 -14.3 9.66 -16 10 C-12.15364338 5.6573393 -6.12239358 0 0 0 Z " fill="#C9F1F8" transform="translate(128,320)"/>
<path d="M0 0 C4.41257263 1.12477341 8.38447839 2.15140721 12 5 C12 6.32 12 7.64 12 9 C12.66 9 13.32 9 14 9 C13.67 9.66 13.34 10.32 13 11 C10.83040701 9.35790421 8.66427468 7.71157832 6.5 6.0625 C5.87996094 5.59392578 5.25992187 5.12535156 4.62109375 4.64257812 C3.06233214 3.45209536 1.52890836 2.22858708 0 1 C0 0.67 0 0.34 0 0 Z " fill="#CCF1FB" transform="translate(350,470)"/>
<path d="M0 0 C8.08363636 1.31272727 8.08363636 1.31272727 11.5 3.875 C12.98677994 5.98127159 13.63774648 7.46422538 14 10 C8.20287534 8.12445967 4.20199196 4.26415161 0 0 Z " fill="#CAEDF7" transform="translate(330,456)"/>
<path d="M0 0 C-5.29955157 5.72556054 -5.29955157 5.72556054 -9.46875 6.3984375 C-11.67399586 6.37750162 -13.81173329 6.26795103 -16 6 C-14.42840514 2.85681028 -11.77138608 2.53911691 -8.5625 1.3125 C-7.38816406 0.85488281 -6.21382813 0.39726562 -5.00390625 -0.07421875 C-2 -1 -2 -1 0 0 Z " fill="#D1EFF8" transform="translate(317,240)"/>
<path d="M0 0 C6.01893759 3.08453491 11.00623769 6.43123874 16 11 C14 12 14 12 10.875 11.0625 C9.451875 10.5365625 9.451875 10.5365625 8 10 C8 8.68 8 7.36 8 6 C7.236875 5.71125 6.47375 5.4225 5.6875 5.125 C3 4 3 4 0 2 C0 1.34 0 0.68 0 0 Z " fill="#4EA3D0" transform="translate(296,432)"/>
<path d="M0 0 C-2.89399469 2.34211663 -5.67155428 3.86862171 -9.125 5.25 C-10.42824219 5.78367187 -10.42824219 5.78367187 -11.7578125 6.328125 C-14 7 -14 7 -16 6 C-15.67 4.68 -15.34 3.36 -15 2 C-12.36 2.33 -9.72 2.66 -7 3 C-7 2.34 -7 1.68 -7 1 C-4.53721199 -0.231394 -2.7204945 -0.07159196 0 0 Z " fill="#429ECF" transform="translate(232,274)"/>
<path d="M0 0 C7.68490153 4.11378556 7.68490153 4.11378556 9 7.8125 C9 8.534375 9 9.25625 9 10 C4.91036181 7.71461395 1.53637896 5.04293074 -2 2 C-1.34 1.34 -0.68 0.68 0 0 Z " fill="#DAF5FC" transform="translate(277,414)"/>
<path d="M0 0 C-0.66 0.66 -1.32 1.32 -2 2 C-3.32 2 -4.64 2 -6 2 C-6.28875 2.78375 -6.5775 3.5675 -6.875 4.375 C-8 7 -8 7 -10 9 C-10.33 8.34 -10.66 7.68 -11 7 C-11.66 7 -12.32 7 -13 7 C-11.64905419 2.94716257 -9.62004582 2.12943872 -6 0 C-2.51612903 -1.25806452 -2.51612903 -1.25806452 0 0 Z " fill="#43A0D5" transform="translate(335,295)"/>
<path d="M0 0 C2.31 0.33 4.62 0.66 7 1 C7.33 1.99 7.66 2.98 8 4 C8.639375 4.309375 9.27875 4.61875 9.9375 4.9375 C12.45468915 6.2342338 12.96886948 7.4221737 14 10 C10.67312232 8.45315734 7.75296022 6.54045021 4.75 4.4375 C3.85796875 3.81746094 2.9659375 3.19742187 2.046875 2.55859375 C1.37140625 2.04425781 0.6959375 1.52992188 0 1 C0 0.67 0 0.34 0 0 Z " fill="#CFF2FB" transform="translate(300,434)"/>
<path d="M0 0 C0.33 0.66 0.66 1.32 1 2 C1.99 2 2.98 2 4 2 C3.67 3.98 3.34 5.96 3 8 C-2.75 5.375 -2.75 5.375 -5 2 C-4.34 1.67 -3.68 1.34 -3 1 C-3 1.66 -3 2.32 -3 3 C-2.34 3 -1.68 3 -1 3 C-0.67 2.01 -0.34 1.02 0 0 Z " fill="#E1F4FA" transform="translate(371,480)"/>
<path d="M0 0 C0.66 0.33 1.32 0.66 2 1 C-2.75 4 -2.75 4 -5 4 C-5.33 4.99 -5.66 5.98 -6 7 C-9 8 -9 8 -11.1875 7.0625 C-11.785625 6.711875 -12.38375 6.36125 -13 6 C-10.87959258 4.96966118 -8.75352092 3.95097146 -6.625 2.9375 C-5.44164062 2.36902344 -4.25828125 1.80054688 -3.0390625 1.21484375 C-2.03617188 0.81394531 -1.03328125 0.41304688 0 0 Z " fill="#C8ECF7" transform="translate(147,311)"/>
<path d="M0 0 C-3.91981366 2.12495161 -8.0774907 3.58426777 -12.25 5.125 C-12.99507813 5.40214844 -13.74015625 5.67929688 -14.5078125 5.96484375 C-16.33780118 6.64522416 -18.16880153 7.32288243 -20 8 C-20 7.34 -20 6.68 -20 6 C-18.44148245 5.17988688 -16.87798284 4.36923787 -15.3125 3.5625 C-14.44238281 3.11003906 -13.57226562 2.65757812 -12.67578125 2.19140625 C-8.42516625 0.29879665 -4.62017299 -0.13200494 0 0 Z " fill="#58A7D3" transform="translate(358,222)"/>
<path d="M0 0 C-4.29 2.97 -8.58 5.94 -13 9 C-13.33 8.01 -13.66 7.02 -14 6 C-11 4 -11 4 -8 4 C-8 3.34 -8 2.68 -8 2 C-7.34 2 -6.68 2 -6 2 C-6 1.34 -6 0.68 -6 0 C-3 -1 -3 -1 0 0 Z " fill="#D4F6FD" transform="translate(299,316)"/>
<path d="M0 0 C0.99 0.33 1.98 0.66 3 1 C-0.06093224 4.93548431 -2.49115974 7.68116787 -7 10 C-6.67 8.02 -6.34 6.04 -6 4 C-4.68 4 -3.36 4 -2 4 C-2 3.34 -2 2.68 -2 2 C-1.34 2 -0.68 2 0 2 C0 1.34 0 0.68 0 0 Z " fill="#4EA3D3" transform="translate(361,294)"/>
<path d="M0 0 C1.32 0 2.64 0 4 0 C4 0.99 4 1.98 4 3 C6.64 2.67 9.28 2.34 12 2 C8.79663178 4.83374881 6.21912747 5.5205537 2 6 C2.33 5.01 2.66 4.02 3 3 C2.01 3 1.02 3 0 3 C0 2.01 0 1.02 0 0 Z " fill="#3B9ED5" transform="translate(176,291)"/>
<path d="M0 0 C3.34373475 0.55728913 6.03312999 1.35173889 9 3 C9 3.66 9 4.32 9 5 C9.66 5 10.32 5 11 5 C11.33 6.32 11.66 7.64 12 9 C7.79532209 6.57912484 3.88751695 3.89658126 0 1 C0 0.67 0 0.34 0 0 Z " fill="#D4F5FB" transform="translate(318,447)"/>
<path d="M0 0 C4.71403788 0.47939368 8.66579301 0.96834048 13 3 C13 3.66 13 4.32 13 5 C13.99 5.33 14.98 5.66 16 6 C14.68 6 13.36 6 12 6 C12 5.34 12 4.68 12 4 C11.38511719 3.96261719 10.77023438 3.92523438 10.13671875 3.88671875 C9.32847656 3.82097656 8.52023438 3.75523437 7.6875 3.6875 C6.88699219 3.62949219 6.08648437 3.57148438 5.26171875 3.51171875 C2.63727666 2.91793306 1.69179328 2.04219706 0 0 Z " fill="#4EA0D7" transform="translate(168,369)"/>
<path d="M0 0 C-0.66 2.31 -1.32 4.62 -2 7 C-3.875 7.625 -3.875 7.625 -6 8 C-6.66 7.34 -7.32 6.68 -8 6 C-7.0479279 4.99403703 -6.08812654 3.99538437 -5.125 3 C-4.59132813 2.443125 -4.05765625 1.88625 -3.5078125 1.3125 C-2 0 -2 0 0 0 Z " fill="#DBF3FA" transform="translate(322,336)"/>
<path d="M0 0 C0.99 0.33 1.98 0.66 3 1 C2.34 1 1.68 1 1 1 C0.79375 1.556875 0.5875 2.11375 0.375 2.6875 C-1.55000774 5.92501302 -4.03850902 7.68231141 -7 10 C-7 7 -7 7 -6 4 C-4.34795544 3.29788106 -2.68076231 2.63028587 -1 2 C-0.67 1.34 -0.34 0.68 0 0 Z " fill="#F1FCF8" transform="translate(118,326)"/>
<path d="M0 0 C0.33 0.99 0.66 1.98 1 3 C-0.375 4.5 -0.375 4.5 -2 6 C-2.66 6 -3.32 6 -4 6 C-4 6.99 -4 7.98 -4 9 C-6.88834003 11.10770759 -8.38462395 12 -12 12 C-8 8 -4 4 0 0 Z " fill="#C2ECF7" transform="translate(345,312)"/>
<path d="M0 0 C0.66 0.33 1.32 0.66 2 1 C-0.24173899 4.53958788 -2.12257263 5.57147413 -6 7 C-6.33 7.66 -6.66 8.32 -7 9 C-9.5625 9.625 -9.5625 9.625 -12 10 C-8.29909479 6.0747975 -4.45040344 3.05419844 0 0 Z " fill="#4EA3CA" transform="translate(284,325)"/>
<path d="M0 0 C0.33 0 0.66 0 1 0 C0.67 5.28 0.34 10.56 0 16 C-0.66 16 -1.32 16 -2 16 C-2 12.7 -2 9.4 -2 6 C-1.34 6 -0.68 6 0 6 C0 4.02 0 2.04 0 0 Z " fill="#DAF6FE" transform="translate(471,232)"/>
<path d="M0 0 C0 0.99 0 1.98 0 3 C0.66 3 1.32 3 2 3 C1.67 4.32 1.34 5.64 1 7 C0.34 7 -0.32 7 -1 7 C-1.33 6.34 -1.66 5.68 -2 5 C-4.02463255 4.34786708 -4.02463255 4.34786708 -6 4 C-2.25 0 -2.25 0 0 0 Z " fill="#E3F8FA" transform="translate(334,325)"/>
<path d="M0 0 C0.33 0 0.66 0 1 0 C0.03644647 12.66970387 0.03644647 12.66970387 -1 18 C-1.33 18 -1.66 18 -2 18 C-2.054138 15.75026553 -2.09285491 13.50015617 -2.125 11.25 C-2.14820313 9.99703125 -2.17140625 8.7440625 -2.1953125 7.453125 C-2.01537302 4.27179508 -1.68998582 2.63478104 0 0 Z " fill="#DDF6FC" transform="translate(448,372)"/>
<path d="M0 0 C4.21878192 -0.19622241 7.17010894 0.19769832 11 2 C11 2.33 11 2.66 11 3 C8.69 2.67 6.38 2.34 4 2 C3.67 2.66 3.34 3.32 3 4 C2.34 3.67 1.68 3.34 1 3 C0.67 3.66 0.34 4.32 0 5 C-0.66 4.34 -1.32 3.68 -2 3 C-1.34 2.34 -0.68 1.68 0 1 C0 0.67 0 0.34 0 0 Z " fill="#3C9DD3" transform="translate(146,363)"/>
<path d="M0 0 C-1.09779824 1.15193623 -2.20349446 2.29634937 -3.3125 3.4375 C-3.92738281 4.07558594 -4.54226563 4.71367187 -5.17578125 5.37109375 C-7 7 -7 7 -10 8 C-9.34 6.68 -8.68 5.36 -8 4 C-7.34 4 -6.68 4 -6 4 C-6 2.68 -6 1.36 -6 0 C-2.25 -1.125 -2.25 -1.125 0 0 Z " fill="#4FA2CE" transform="translate(354,305)"/>
<path d="M0 0 C-6.435 2.97 -6.435 2.97 -13 6 C-13 5.01 -13 4.02 -13 3 C-11.5903653 2.29819469 -10.17192359 1.61406042 -8.75 0.9375 C-7.96109375 0.55464844 -7.1721875 0.17179687 -6.359375 -0.22265625 C-4 -1 -4 -1 0 0 Z " fill="#539ECA" transform="translate(216,282)"/>
<path d="M0 0 C-2.20029834 2.20029834 -3.5781256 2.68582609 -6.5 3.625 C-7.2940625 3.88539063 -8.088125 4.14578125 -8.90625 4.4140625 C-11 5 -11 5 -13 5 C-13 4.34 -13 3.68 -13 3 C-12.01 3 -11.02 3 -10 3 C-10 2.34 -10 1.68 -10 1 C-6.59437148 0.22157062 -3.49234244 -0.09978121 0 0 Z " fill="#439ECC" transform="translate(421,196)"/>
<path d="M0 0 C0.33 0 0.66 0 1 0 C1.16682272 4.92127034 1.24828052 8.50343896 -1 13 C-1.66 13 -2.32 13 -3 13 C-2.01 8.71 -1.02 4.42 0 0 Z " fill="#5DABD7" transform="translate(432,466)"/>
<path d="M0 0 C4.63708939 2.60836278 8.78744458 5.77002574 13 9 C12.01 9.495 12.01 9.495 11 10 C10.52949219 9.65066406 10.05898438 9.30132812 9.57421875 8.94140625 C8.95160156 8.48636719 8.32898438 8.03132813 7.6875 7.5625 C7.07261719 7.11003906 6.45773437 6.65757812 5.82421875 6.19140625 C3.90322899 4.82663692 3.90322899 4.82663692 1 4 C0.3125 1.9375 0.3125 1.9375 0 0 Z " fill="#549FC7" transform="translate(332,458)"/>
<path d="M0 0 C1.53760842 3.07521683 0.36599236 5.34675118 -0.4375 8.625 C-0.72496094 9.81351562 -1.01242187 11.00203125 -1.30859375 12.2265625 C-1.53675781 13.14179688 -1.76492188 14.05703125 -2 15 C-2.33 15 -2.66 15 -3 15 C-3.55353075 4.44191344 -3.55353075 4.44191344 0 0 Z " fill="#BDECFA" transform="translate(268,388)"/>
<path d="M0 0 C2.88575819 0.39803561 3.82189513 0.79009069 5.75 3.0625 C6.1625 3.701875 6.575 4.34125 7 5 C4.69 5 2.38 5 0 5 C0 3.35 0 1.7 0 0 Z " fill="#44A5D2" transform="translate(108,345)"/>
<path d="M0 0 C0.66 0.66 1.32 1.32 2 2 C1.9765625 4.3828125 1.9765625 4.3828125 1.625 7.125 C1.51414062 8.03507812 1.40328125 8.94515625 1.2890625 9.8828125 C1.19367188 10.58148438 1.09828125 11.28015625 1 12 C-1 10 -1 10 -1.23046875 8.125 C-1.21628906 7.42375 -1.20210938 6.7225 -1.1875 6 C-1.18105469 5.29875 -1.17460937 4.5975 -1.16796875 3.875 C-1 2 -1 2 0 0 Z " fill="#54A7D5" transform="translate(434,456)"/>
<path d="M0 0 C5.52628901 1.19194469 8.17819158 2.5991297 12 7 C11.67 7.66 11.34 8.32 11 9 C9.16384919 7.69144447 7.33114211 6.37805538 5.5 5.0625 C4.4790625 4.33160156 3.458125 3.60070312 2.40625 2.84765625 C1.6121875 2.23792969 0.818125 1.62820313 0 1 C0 0.67 0 0.34 0 0 Z " fill="#C7F0FB" transform="translate(288,425)"/>
<path d="M0 0 C0.99 0.33 1.98 0.66 3 1 C2.39816251 3.02045442 1.72693904 5.02111039 1 7 C0.01 7.495 0.01 7.495 -1 8 C-1 6.68 -1 5.36 -1 4 C-1.66 3.67 -2.32 3.34 -3 3 C-2.01 2.01 -1.02 1.02 0 0 Z " fill="#3FA5DD" transform="translate(276,372)"/>
<path d="M0 0 C0.8971875 0.309375 0.8971875 0.309375 1.8125 0.625 C-1.02180453 3.8792015 -2.87357774 5.1456753 -7.1875 5.625 C-5.69046729 2.17030914 -4.27938051 -0.73360809 0 0 Z " fill="#40A1D0" transform="translate(251.1875,349.375)"/>
<path d="M0 0 C0 3.99191204 -1.25498212 5.18079244 -4 8 C-6.75 8.8125 -6.75 8.8125 -9 9 C-6 6 -3 3 0 0 Z " fill="#CAF0FB" transform="translate(313,343)"/>
<path d="M0 0 C-2.48952921 2.66735273 -4.63408134 4.55746343 -8 6 C-7.75 3.625 -7.75 3.625 -7 1 C-4.12732844 -1.10662581 -3.46720491 -1.15573497 0 0 Z " fill="#DBF5FB" transform="translate(314,305)"/>
<path d="M0 0 C0.66 0.33 1.32 0.66 2 1 C0.59447701 2.03612271 -0.82491694 3.05344925 -2.25 4.0625 C-3.43335938 4.91521484 -3.43335938 4.91521484 -4.640625 5.78515625 C-7 7 -7 7 -9.296875 6.68359375 C-9.85890625 6.45800781 -10.4209375 6.23242188 -11 6 C-7.57874946 3.12614955 -4.16111563 1.54115394 0 0 Z " fill="#D0F5FD" transform="translate(268,259)"/>
<path d="M0 0 C0.99 0.33 1.98 0.66 3 1 C2.34 4.63 1.68 8.26 1 12 C0.67 12 0.34 12 0 12 C0 8.04 0 4.08 0 0 Z " fill="#D8F5FC" transform="translate(449,359)"/>
<path d="M0 0 C1 3 1 3 0.0625 5.3125 C-1.14926993 8.37756511 -1.15192141 10.73368961 -1 14 C-1.66 13.67 -2.32 13.34 -3 13 C-3.4726477 4.80743982 -3.4726477 4.80743982 -1.5 1.4375 C-0.7575 0.7259375 -0.7575 0.7259375 0 0 Z " fill="#C6F1FB" transform="translate(111,330)"/>
<path d="M0 0 C0.33 0.66 0.66 1.32 1 2 C0.39671875 2.19335938 -0.2065625 2.38671875 -0.828125 2.5859375 C-1.62734375 2.84632813 -2.4265625 3.10671875 -3.25 3.375 C-4.03890625 3.63023437 -4.8278125 3.88546875 -5.640625 4.1484375 C-7.86627958 4.95173667 -9.90931672 5.89711662 -12 7 C-12 6.01 -12 5.02 -12 4 C-10.75108386 3.51801537 -9.50081192 3.03954323 -8.25 2.5625 C-7.55390625 2.29566406 -6.8578125 2.02882813 -6.140625 1.75390625 C-4.10940997 1.03853307 -2.0964709 0.48634348 0 0 Z " fill="#ECFCFE" transform="translate(278,257)"/>
<path d="M0 0 C0.66 0.33 1.32 0.66 2 1 C0.375 3 0.375 3 -2 5 C-5.25 5.25 -5.25 5.25 -8 5 C-5.31158141 2.74754119 -3.35358125 1.11786042 0 0 Z " fill="#D0F1F9" transform="translate(398,205)"/>
<path d="M0 0 C1.65 0 3.3 0 5 0 C2.2180632 3.27286682 -1.27954067 4.96427697 -5 7 C-5 6.01 -5 5.02 -5 4 C-4.01 4 -3.02 4 -2 4 C-1.34 2.68 -0.68 1.36 0 0 Z " fill="#CEF2FB" transform="translate(265,335)"/>
<path d="M0 0 C0.99 0.33 1.98 0.66 3 1 C0.69 3.31 -1.62 5.62 -4 8 C-4.33 6.68 -4.66 5.36 -5 4 C-2.6875 1.9375 -2.6875 1.9375 0 0 Z " fill="#4D9ECB" transform="translate(373,282)"/>
<path d="M0 0 C2.875 -0.1875 2.875 -0.1875 6 0 C6.66 0.99 7.32 1.98 8 3 C7.67 3.66 7.34 4.32 7 5 C6.01 5 5.02 5 4 5 C4 4.34 4 3.68 4 3 C2.68 2.67 1.36 2.34 0 2 C0 1.34 0 0.68 0 0 Z " fill="#5FA8D3" transform="translate(376,265)"/>
<path d="M0 0 C-0.33 0.99 -0.66 1.98 -1 3 C-3.31 3 -5.62 3 -8 3 C-8.33 3.66 -8.66 4.32 -9 5 C-9.66 4.34 -10.32 3.68 -11 3 C-4.5 0 -4.5 0 0 0 Z " fill="#C3ECF7" transform="translate(328,235)"/>
<path d="M0 0 C0.33 0.66 0.66 1.32 1 2 C0.34 2 -0.32 2 -1 2 C-1.20625 2.639375 -1.4125 3.27875 -1.625 3.9375 C-3 6 -3 6 -6.125 6.75 C-7.548125 6.87375 -7.548125 6.87375 -9 7 C-6.24479785 4.04070881 -3.53372712 1.96318174 0 0 Z " fill="#58A5CD" transform="translate(295,318)"/>
<path d="M0 0 C2.4375 0.8125 2.4375 0.8125 5 2 C5.33 2.99 5.66 3.98 6 5 C4.02 5 2.04 5 0 5 C0 3.33333333 0 1.66666667 0 0 Z " fill="#43A0D5" transform="translate(369,486)"/>
<path d="M0 0 C0.93423645 3.01031744 1.04449911 3.86650268 0 7 C-0.66 7 -1.32 7 -2 7 C-2.66 8.32 -3.32 9.64 -4 11 C-3.34 8.03 -2.68 5.06 -2 2 C-1.34 2 -0.68 2 0 2 C0 1.34 0 0.68 0 0 Z " fill="#E4FBFD" transform="translate(429,473)"/>
<path d="M0 0 C1.48285242 0.95262034 2.96118201 1.91228405 4.4375 2.875 C5.67306641 3.67550781 5.67306641 3.67550781 6.93359375 4.4921875 C9 6 9 6 10 8 C5.49197399 6.74194623 2.5087188 5.09592835 -1 2 C-0.67 1.34 -0.34 0.68 0 0 Z " fill="#5DA3D7" transform="translate(278,418)"/>
<path d="M0 0 C0.94875 0.350625 1.8975 0.70125 2.875 1.0625 C2.875 2.0525 2.875 3.0425 2.875 4.0625 C0.52328869 3.46388258 -1.8109378 2.79325648 -4.125 2.0625 C-4.455 1.4025 -4.785 0.7425 -5.125 0.0625 C-3.125 -0.9375 -3.125 -0.9375 0 0 Z " fill="#CDF3FA" transform="translate(119.125,347.9375)"/>
<path d="M0 0 C1.65 0 3.3 0 5 0 C4.67 0.99 4.34 1.98 4 3 C1.4375 4.1875 1.4375 4.1875 -1 5 C-0.67 3.35 -0.34 1.7 0 0 Z " fill="#46A0D4" transform="translate(338,314)"/>
<path d="M0 0 C0 3.16880694 -0.2058242 4.43689172 -2 7 C-4.625 7.75 -4.625 7.75 -7 8 C-6.02133662 6.85373678 -5.04205413 5.70800212 -4.0625 4.5625 C-3.51722656 3.92441406 -2.97195313 3.28632813 -2.41015625 2.62890625 C-1.63204305 1.73008851 -0.84063472 0.84063472 0 0 Z " fill="#C3EDF7" transform="translate(374,284)"/>
<path d="M0 0 C1.65 0.33 3.3 0.66 5 1 C4.01 1.495 4.01 1.495 3 2 C3 2.66 3 3.32 3 4 C1.35 4.33 -0.3 4.66 -2 5 C-2 4.01 -2 3.02 -2 2 C-1.34 2 -0.68 2 0 2 C0 1.34 0 0.68 0 0 Z " fill="#3B9FD5" transform="translate(190,288)"/>
<path d="M0 0 C0 0.66 0 1.32 0 2 C-4.455 3.485 -4.455 3.485 -9 5 C-9 4.34 -9 3.68 -9 3 C-8.01 3 -7.02 3 -6 3 C-6 2.34 -6 1.68 -6 1 C-4 0 -4 0 0 0 Z " fill="#42A0D0" transform="translate(305,242)"/>
<path d="M0 0 C0.99 0.33 1.98 0.66 3 1 C3.33 4.3 3.66 7.6 4 11 C0.88776687 6.85035583 0.47996422 4.99162787 0 0 Z " fill="#2DA6F1" transform="translate(475,192)"/>
<path d="M0 0 C0.66 0 1.32 0 2 0 C2 0.66 2 1.32 2 2 C2.99 1.67 3.98 1.34 5 1 C5 1.66 5 2.32 5 3 C5.66 3 6.32 3 7 3 C7 3.66 7 4.32 7 5 C4.69 4.67 2.38 4.34 0 4 C0 2.68 0 1.36 0 0 Z " fill="#F0FAFA" transform="translate(464,191)"/>
<path d="M0 0 C3.93673644 1.31224548 6.22719294 2.91910327 9 6 C6.03 5.505 6.03 5.505 3 5 C2.67 4.01 2.34 3.02 2 2 C1.34 2 0.68 2 0 2 C0 1.34 0 0.68 0 0 Z " fill="#54A2CC" transform="translate(345,468)"/>
<path d="M0 0 C0.33 0.99 0.66 1.98 1 3 C-0.98 4.98 -2.96 6.96 -5 9 C-5.66 8.67 -6.32 8.34 -7 8 C-4.69 5.36 -2.38 2.72 0 0 Z " fill="#BDEDFA" transform="translate(382,275)"/>
<path d="M0 0 C2.97 0.495 2.97 0.495 6 1 C5.38125 1.45375 4.7625 1.9075 4.125 2.375 C1.94080167 3.97108919 1.94080167 3.97108919 0 6 C-0.99 5.67 -1.98 5.34 -3 5 C-2.34 5 -1.68 5 -1 5 C-0.67 3.35 -0.34 1.7 0 0 Z " fill="#3CA1D9" transform="translate(393,202)"/>
<path d="M0 0 C-4.30769231 3.07692308 -4.30769231 3.07692308 -7.8125 2.6875 C-8.534375 2.460625 -9.25625 2.23375 -10 2 C-3.75 -1.125 -3.75 -1.125 0 0 Z " fill="#2FA2D3" transform="translate(222,371)"/>
<path d="M0 0 C1.134375 0.020625 2.26875 0.04125 3.4375 0.0625 C1.4375 3.0625 1.4375 3.0625 -1.1875 3.75 C-2.363125 3.9046875 -2.363125 3.9046875 -3.5625 4.0625 C-3.8925 3.0725 -4.2225 2.0825 -4.5625 1.0625 C-3.5625 0.0625 -3.5625 0.0625 0 0 Z " fill="#D5F3FB" transform="translate(224.5625,362.9375)"/>
<path d="M0 0 C2.97 0.33 5.94 0.66 9 1 C7.68 1.33 6.36 1.66 5 2 C3.6520257 2.63654342 2.31403276 3.29605388 1 4 C0.67 2.68 0.34 1.36 0 0 Z " fill="#359FDB" transform="translate(136,361)"/>
<path d="M0 0 C0.66 0.33 1.32 0.66 2 1 C0.8125 3 0.8125 3 -1 5 C-3.6875 5.25 -3.6875 5.25 -6 5 C-4.06745228 2.9754262 -2.36841312 1.57894208 0 0 Z " fill="#4D9FD1" transform="translate(270,335)"/>
<path d="M0 0 C0.66 0.99 1.32 1.98 2 3 C0.6875 4.5 0.6875 4.5 -1 6 C-1.99 6 -2.98 6 -4 6 C-2.84826645 3.53199953 -1.95216435 1.95216435 0 0 Z " fill="#DEF6FC" transform="translate(350,308)"/>
<path d="M0 0 C0.99 0.33 1.98 0.66 3 1 C-1.455 3.97 -1.455 3.97 -6 7 C-4.14418503 3.28837006 -3.44285416 1.98224936 0 0 Z " fill="#399DDA" transform="translate(375,279)"/>
<path d="M0 0 C1.32 0.33 2.64 0.66 4 1 C3.67 1.66 3.34 2.32 3 3 C3.99 3 4.98 3 6 3 C6.33 2.34 6.66 1.68 7 1 C7 2.65 7 4.3 7 6 C4.525 5.01 4.525 5.01 2 4 C2 3.01 2 2.02 2 1 C1.34 0.67 0.68 0.34 0 0 Z " fill="#409DD3" transform="translate(377,267)"/>
<path d="M0 0 C1.60080151 4.00200378 0.29279692 7.04556236 -1 11 C-1.33 11 -1.66 11 -2 11 C-2 8.03 -2 5.06 -2 2 C-1.34 2 -0.68 2 0 2 C0 1.34 0 0.68 0 0 Z " fill="#D0F2FD" transform="translate(432,462)"/>
<path d="M0 0 C1.48206495 0.254496 2.96068615 0.52911762 4.4375 0.8125 C5.67306641 1.03873047 5.67306641 1.03873047 6.93359375 1.26953125 C7.95646484 1.63111328 7.95646484 1.63111328 9 2 C9.33 2.99 9.66 3.98 10 5 C8.51800098 4.55090939 7.03944764 4.09043436 5.5625 3.625 C4.73878906 3.36976563 3.91507812 3.11453125 3.06640625 2.8515625 C1 2 1 2 0 0 Z " fill="#D7F4FC" transform="translate(330,456)"/>
<path d="M0 0 C0.99 0.33 1.98 0.66 3 1 C0.36 2.65 -2.28 4.3 -5 6 C-5 5.01 -5 4.02 -5 3 C-4.01 3 -3.02 3 -2 3 C-2 2.34 -2 1.68 -2 1 C-1.34 0.67 -0.68 0.34 0 0 Z " fill="#CCF4FB" transform="translate(280,326)"/>
<path d="M0 0 C0.33 0 0.66 0 1 0 C1.21278058 4.46839215 0.59138085 7.82262526 -1 12 C-1.33 12 -1.66 12 -2 12 C-2 9.36 -2 6.72 -2 4 C-1.34 4 -0.68 4 0 4 C0 2.68 0 1.36 0 0 Z " fill="#E8FCFC" transform="translate(463,284)"/>
<path d="M0 0 C1.98 0 3.96 0 6 0 C5.67 0.99 5.34 1.98 5 3 C2.03 2.505 2.03 2.505 -1 2 C-0.67 1.34 -0.34 0.68 0 0 Z " fill="#FDF9EB" transform="translate(231,277)"/>
</svg>
