<?xml version="1.0" encoding="UTF-8"?>
<svg version="1.1" xmlns="http://www.w3.org/2000/svg" width="736" height="736">
<path d="M0 0 C242.88 0 485.76 0 736 0 C736 242.88 736 485.76 736 736 C493.12 736 250.24 736 0 736 C0 493.12 0 250.24 0 0 Z " fill="#000000" transform="translate(0,0)"/>
<path d="M0 0 C16.17 0 32.34 0 49 0 C50.20224612 4.20786144 51.27077772 8.19842854 52.1875 12.4375 C55.83502721 27.06426739 63.00614047 40.95788417 73.2265625 52.05078125 C74.66208806 53.62859458 76.01512623 55.28119437 77.33984375 56.953125 C90.66411389 72.99484498 114.65480146 79.4206402 134 82 C134 101.14 134 120.28 134 140 C115.18851395 140 115.18851395 140 108.25 138.8125 C107.44981445 138.6786792 106.64962891 138.5448584 105.82519531 138.40698242 C99.0671244 137.18264479 93.13515589 135.10815437 87 132 C85.78667072 131.42793473 84.57311615 130.85634713 83.359375 130.28515625 C74.15409091 125.80899903 67.18725223 120.23048382 60 113 C59.27683594 112.31292969 58.55367187 111.62585938 57.80859375 110.91796875 C54.55976207 107.80478766 52.29461045 104.89587966 50 101 C49.99641747 102.12973614 49.99641747 102.12973614 49.99276257 103.28229523 C49.93343119 121.67247723 49.85776646 140.06252709 49.76428509 158.45256805 C49.71946399 167.34613351 49.68001839 176.23966015 49.65356445 185.13330078 C49.63047286 192.8918328 49.59695207 200.65024054 49.55129844 208.40867376 C49.52751549 212.51050962 49.50868959 216.61222354 49.50238609 220.71412659 C49.49626678 224.5883809 49.47602593 228.46232382 49.44572449 232.33646202 C49.43705236 233.74554454 49.43319868 235.15466795 49.43499184 236.56377602 C49.44639926 249.68434362 47.85486603 262.72004475 43 275 C42.66355469 275.89589844 42.32710937 276.79179687 41.98046875 277.71484375 C36.48926476 291.69078435 29.06734754 302.97746737 19 314 C18.3709375 314.69996094 17.741875 315.39992188 17.09375 316.12109375 C3.98559942 330.00213057 -14.73682952 338.57256473 -33 343 C-34.87365234 343.54720703 -34.87365234 343.54720703 -36.78515625 344.10546875 C-41.92366783 345.37823086 -47.04375909 345.34210917 -52.3125 345.3125 C-53.36630859 345.30686035 -54.42011719 345.3012207 -55.50585938 345.29541016 C-83.81804155 344.86345692 -109.21171758 335.3321264 -129.875 315.4375 C-133.26217718 311.87076162 -136.1351621 307.98981083 -139 304 C-139.65226562 303.12988281 -140.30453125 302.25976562 -140.9765625 301.36328125 C-156.73700335 280.20179045 -164.19008568 252.89019723 -160.67041016 226.53173828 C-157.84599482 209.60244731 -151.23744677 191.88021924 -141 178 C-140.34 178 -139.68 178 -139 178 C-138.8040625 177.31679688 -138.608125 176.63359375 -138.40625 175.9296875 C-136.47127341 171.89848627 -133.67512793 169.22743421 -130.5 166.125 C-129.86707031 165.50222168 -129.23414063 164.87944336 -128.58203125 164.23779297 C-123.72776062 159.54229539 -118.78422209 155.51060467 -113 152 C-111.9790625 151.34644531 -110.958125 150.69289063 -109.90625 150.01953125 C-100.74295682 144.41857338 -91.31784548 140.90557077 -81 138 C-80.05898438 137.731875 -79.11796875 137.46375 -78.1484375 137.1875 C-68.70857583 135.02981733 -58.62290766 135.82579334 -49 136 C-48.93331359 147.6988337 -49.12253875 159.37006788 -49.5 171.0625 C-49.54841653 172.62303946 -49.59659447 174.18358635 -49.64453125 175.74414062 C-49.76028934 179.49618275 -49.87920983 183.24811608 -50 187 C-50.99797607 187.05333496 -51.99595215 187.10666992 -53.02416992 187.16162109 C-54.36378778 187.24024956 -55.70338642 187.31920596 -57.04296875 187.3984375 C-58.35031982 187.47239746 -59.6576709 187.54635742 -61.00463867 187.62255859 C-71.76135504 188.4502004 -80.69559055 192.15427813 -89 199 C-89.73089844 199.56976563 -90.46179688 200.13953125 -91.21484375 200.7265625 C-95.96229239 204.59878318 -99.11336726 208.61989596 -102 214 C-102.36996094 214.6496875 -102.73992187 215.299375 -103.12109375 215.96875 C-109.18248319 227.15900742 -109.6625879 241.13950162 -107.34765625 253.4765625 C-104.15210534 263.87238906 -98.5074193 274.06387187 -90 281 C-89.34 281.33 -88.68 281.66 -88 282 C-88 282.66 -88 283.32 -88 284 C-87.01 284.37125 -87.01 284.37125 -86 284.75 C-83.66900233 285.72124903 -81.53584077 286.76043724 -79.3125 287.9375 C-65.74860943 294.63169368 -50.95877869 295.12286759 -36.63623047 290.33520508 C-30.08135674 287.89712186 -24.46426637 284.35344391 -19 280 C-18.25105469 279.40574219 -17.50210938 278.81148438 -16.73046875 278.19921875 C-7.52934583 269.98330211 -2.01482427 256.51598265 -0.71921217 244.36705935 C-0.61060376 241.67404604 -0.58720948 238.99527582 -0.60127258 236.30012512 C-0.59462576 235.28208902 -0.58797893 234.26405291 -0.58113068 233.21516722 C-0.56261734 229.83580465 -0.56509812 226.45679977 -0.56762695 223.07739258 C-0.55860269 220.64229843 -0.54827384 218.20720882 -0.53674316 215.77212524 C-0.51491353 210.5459351 -0.50208668 205.31980688 -0.49761391 200.09357643 C-0.49113136 192.53751131 -0.46815724 184.98156556 -0.44127061 177.42554875 C-0.39808249 165.16384297 -0.36807031 152.90214223 -0.34643555 140.64038086 C-0.32540188 128.73540771 -0.29810603 116.83047583 -0.26245117 104.92553711 C-0.26025235 104.19063916 -0.25805352 103.45574121 -0.25578807 102.69857363 C-0.24471782 99.01148469 -0.23352512 95.32439614 -0.22227156 91.63730776 C-0.12919945 61.09156429 -0.05999322 30.54583148 0 0 Z " fill="#FDFCFD" transform="translate(369,187)"/>
<path d="M0 0 C4.29 0.66 8.58 1.32 13 2 C13.02255577 9.41460363 13.04091784 16.82918865 13.05181217 24.24381924 C13.05703982 27.68640348 13.06413531 31.12896312 13.07543945 34.5715332 C13.08834235 38.52555043 13.09322918 42.47955756 13.09765625 46.43359375 C13.10281754 47.67523788 13.10797882 48.91688202 13.11329651 50.19615173 C13.11340981 51.90781273 13.11340981 51.90781273 13.11352539 53.65405273 C13.115746 54.664431 13.11796661 55.67480927 13.12025452 56.71580505 C13 59 13 59 12 60 C-3.38426414 61.17309204 -18.21264152 59.2070283 -32 52 C-33.55670302 51.42165043 -35.11911382 50.85837295 -36.6875 50.3125 C-48.66849709 45.5703962 -59.24054643 35.80720358 -67.16137695 25.83349609 C-67.88057816 24.9294101 -68.59977936 24.0253241 -69.34077454 23.09384155 C-69.88831894 22.40287384 -70.43586334 21.71190613 -71 21 C-71.00146656 21.74008458 -71.00293312 22.48016916 -71.00444412 23.24268055 C-71.0416567 41.33351046 -71.10086077 59.42414957 -71.18390274 77.51482868 C-71.22354433 86.26371337 -71.25601179 95.01251006 -71.27099609 103.76147461 C-71.2840904 111.39590937 -71.31125055 119.03014926 -71.35461307 126.66447419 C-71.37705492 130.69881582 -71.39292123 134.73291869 -71.39188385 138.76732826 C-71.39214936 155.22200384 -71.51097503 171.02918054 -76 187 C-76.43545135 188.77066582 -76.43545135 188.77066582 -76.87969971 190.57710266 C-80.15547364 203.69864155 -88.03623343 216.9408648 -97 227 C-97.42458496 227.48194824 -97.84916992 227.96389648 -98.28662109 228.46044922 C-116.11576592 248.63147965 -139.98197535 261.41499015 -167 264 C-197.96144034 265.87773683 -223.52877323 258.69270149 -247 238 C-250.49831763 234.59475185 -253.86609451 231.07767127 -257.1875 227.5 C-258.04730469 226.5821875 -258.90710938 225.664375 -259.79296875 224.71875 C-261.87072298 222.15925098 -262.99107791 220.11131281 -264 217 C-263.55011719 217.3403125 -263.10023438 217.680625 -262.63671875 218.03125 C-261.24448157 219.08031048 -259.84818543 220.12399303 -258.44921875 221.1640625 C-256.8129742 222.3905935 -255.1904356 223.63561923 -253.58203125 224.8984375 C-245.90996123 230.77145933 -237.75889983 235.01655796 -229 239 C-228.07574219 239.42410156 -227.15148437 239.84820313 -226.19921875 240.28515625 C-205.87206599 248.5993727 -179.62792422 248.96527311 -159 242 C-158.16597656 241.73445312 -157.33195312 241.46890625 -156.47265625 241.1953125 C-142.89617716 236.32170462 -129.52586611 228.85755715 -119 219 C-118.36191406 218.42894531 -117.72382813 217.85789062 -117.06640625 217.26953125 C-100.45182408 201.69104774 -90.43337045 179.1069536 -87 157 C-86.82706452 156.23352803 -86.65412905 155.46705606 -86.4759531 154.67735767 C-85.93408501 151.62921134 -85.85979928 148.76264826 -85.84178162 145.66618347 C-85.8319928 144.38877289 -85.82220398 143.1113623 -85.81211853 141.79524231 C-85.80621511 140.38717689 -85.80040461 138.97911107 -85.79467773 137.57104492 C-85.78509359 136.08263887 -85.77508319 134.59423551 -85.76467896 133.10583496 C-85.73768197 129.071153 -85.71664427 125.03645941 -85.69667697 121.00173736 C-85.67478525 116.78298185 -85.64741216 112.564262 -85.62062073 108.34553528 C-85.57073689 100.35942069 -85.5257821 92.37328627 -85.48259836 84.38713294 C-85.43318914 75.29405886 -85.37828468 66.20102055 -85.32291877 57.10798109 C-85.20916489 38.40535396 -85.10231152 19.70269305 -85 1 C-84.37383789 1.78463623 -83.74767578 2.56927246 -83.10253906 3.37768555 C-80.17911588 7.0238175 -77.12916068 10.5295934 -74 14 C-73.12214844 14.99580078 -73.12214844 14.99580078 -72.2265625 16.01171875 C-66.62789457 22.02379043 -60.12552282 25.99241307 -53 30 C-52.02933594 30.55945313 -51.05867187 31.11890625 -50.05859375 31.6953125 C-34.23830949 40.26194261 -17.61322843 40.85131119 0 42 C0 28.14 0 14.28 0 0 Z " fill="#F21A51" transform="translate(503,285)"/>
<path d="M0 0 C16.17 0 32.34 0 49 0 C51 7 51 7 53 18 C39.8 18 26.6 18 13 18 C13.00888245 21.05303879 13.01776489 24.10607758 13.0269165 27.25163269 C13.10660856 55.28540039 13.1662751 83.319137 13.20426132 111.35298921 C13.2092638 115.03146894 13.21444113 118.7099484 13.21972656 122.38842773 C13.22130043 123.48684953 13.22130043 123.48684953 13.22290608 124.60746167 C13.24028433 136.44539726 13.2718077 148.2832547 13.30861118 160.12114402 C13.34609261 172.27900533 13.36825103 184.43682588 13.37635398 196.5947426 C13.38182688 204.08944619 13.39907652 211.58392884 13.43166587 219.07856438 C13.45542289 224.83735813 13.45780175 230.5960121 13.45243073 236.35484505 C13.45352701 238.70856964 13.4614279 241.06230297 13.4768219 243.41597748 C13.61683726 265.93709496 13.61683726 265.93709496 9 277 C8.41444096 278.60335557 7.83084558 280.20743088 7.25 281.8125 C6.8375 282.864375 6.425 283.91625 6 285 C5.34 285 4.68 285 4 285 C3.7628125 285.72574219 3.525625 286.45148438 3.28125 287.19921875 C1.8010778 290.43483909 0.03593526 292.33008285 -2.5 294.8125 C-3.2940625 295.60269531 -4.088125 296.39289063 -4.90625 297.20703125 C-7 299 -7 299 -9 299 C-9 299.66 -9 300.32 -9 301 C-11.49505641 302.30203187 -13.99537682 303.59160266 -16.5 304.875 C-17.54414063 305.42220703 -17.54414063 305.42220703 -18.609375 305.98046875 C-31.19996909 312.39234537 -46.45668089 313.23864611 -60.0625 309.4375 C-68.91051064 306.2148655 -76.39014656 301.60044659 -82 294 C-82.66 293.67 -83.32 293.34 -84 293 C-84 292.34 -84 291.68 -84 291 C-84.5775 290.814375 -85.155 290.62875 -85.75 290.4375 C-89.16717779 288.25430308 -90.24528583 285.63940716 -92 282 C-91.67 281.34 -91.34 280.68 -91 280 C-90.01 280.66 -89.02 281.32 -88 282 C-88 282.66 -88 283.32 -88 284 C-87.01 284.37125 -87.01 284.37125 -86 284.75 C-83.66900233 285.72124903 -81.53584077 286.76043724 -79.3125 287.9375 C-65.74860943 294.63169368 -50.95877869 295.12286759 -36.63623047 290.33520508 C-30.08135674 287.89712186 -24.46426637 284.35344391 -19 280 C-18.25105469 279.40574219 -17.50210938 278.81148438 -16.73046875 278.19921875 C-7.52934583 269.98330211 -2.01482427 256.51598265 -0.71921217 244.36705935 C-0.61060376 241.67404604 -0.58720948 238.99527582 -0.60127258 236.30012512 C-0.59462576 235.28208902 -0.58797893 234.26405291 -0.58113068 233.21516722 C-0.56261734 229.83580465 -0.56509812 226.45679977 -0.56762695 223.07739258 C-0.55860269 220.64229843 -0.54827384 218.20720882 -0.53674316 215.77212524 C-0.51491353 210.5459351 -0.50208668 205.31980688 -0.49761391 200.09357643 C-0.49113136 192.53751131 -0.46815724 184.98156556 -0.44127061 177.42554875 C-0.39808249 165.16384297 -0.36807031 152.90214223 -0.34643555 140.64038086 C-0.32540188 128.73540771 -0.29810603 116.83047583 -0.26245117 104.92553711 C-0.26025235 104.19063916 -0.25805352 103.45574121 -0.25578807 102.69857363 C-0.24471782 99.01148469 -0.23352512 95.32439614 -0.22227156 91.63730776 C-0.12919945 61.09156429 -0.05999322 30.54583148 0 0 Z " fill="#6CC8CF" transform="translate(369,187)"/>
<path d="M0 0 C0 5.61 0 11.22 0 17 C-1.98 17.226875 -3.96 17.45375 -6 17.6875 C-14.34028203 18.87171854 -22.04758046 21.2792052 -30 24 C-30.76957031 24.24621094 -31.53914063 24.49242187 -32.33203125 24.74609375 C-56.00070091 32.76852704 -75.52559007 52.18352323 -87 74 C-94.28990866 89.37664029 -97.26779177 104.74185162 -97.375 121.6875 C-97.37956207 122.37852814 -97.38412415 123.06955627 -97.38882446 123.78152466 C-97.41829402 136.25474131 -95.80260146 147.54988636 -91.12744141 159.16845703 C-88.908231 164.72469299 -88.908231 164.72469299 -90 168 C-106.73237396 145.78704698 -115.40876525 118.52786421 -111.67041016 90.53173828 C-108.84599482 73.60244731 -102.23744677 55.88021924 -92 42 C-91.34 42 -90.68 42 -90 42 C-89.8040625 41.31679688 -89.608125 40.63359375 -89.40625 39.9296875 C-87.47127341 35.89848627 -84.67512793 33.22743421 -81.5 30.125 C-80.86707031 29.50222168 -80.23414063 28.87944336 -79.58203125 28.23779297 C-74.72776062 23.54229539 -69.78422209 19.51060467 -64 16 C-62.9790625 15.34644531 -61.958125 14.69289063 -60.90625 14.01953125 C-51.74295682 8.41857338 -42.31784548 4.90557077 -32 2 C-31.05898438 1.731875 -30.11796875 1.46375 -29.1484375 1.1875 C-19.70755103 -0.97041691 -9.62100422 -0.16079673 0 0 Z " fill="#69C7CE" transform="translate(320,323)"/>
<path d="M0 0 C4.29 0 8.58 0 13 0 C13 16.83 13 33.66 13 51 C7.06 51.66 1.12 52.32 -5 53 C-18.20114167 55.88300795 -30.90180538 64.23797682 -38.3125 75.6875 C-46.60573266 91.00341435 -47.26800485 108.269421 -43 125 C-47.18363359 122.04084453 -49.6880044 118.81064381 -52.125 114.375 C-52.47046875 113.74746826 -52.8159375 113.11993652 -53.171875 112.47338867 C-59.86581136 100.00050296 -61.22437736 85.85605514 -57.875 72 C-52.9502117 57.20272911 -43.38211315 46.04025905 -29.64453125 38.75 C-19.41088848 33.95903471 -11.86538003 34 0 34 C0 22.78 0 11.56 0 0 Z " fill="#F21A51" transform="translate(319,340)"/>
<path d="M0 0 C4.29 0.66 8.58 1.32 13 2 C13.02255577 9.41460363 13.04091784 16.82918865 13.05181217 24.24381924 C13.05703982 27.68640348 13.06413531 31.12896312 13.07543945 34.5715332 C13.08834235 38.52555043 13.09322918 42.47955756 13.09765625 46.43359375 C13.10281754 47.67523788 13.10797882 48.91688202 13.11329651 50.19615173 C13.11337204 51.33725906 13.11344757 52.47836639 13.11352539 53.65405273 C13.115746 54.664431 13.11796661 55.67480927 13.12025452 56.71580505 C13 59 13 59 12 60 C-3.38426414 61.17309204 -18.21264152 59.2070283 -32 52 C-33.55670302 51.42165043 -35.11911382 50.85837295 -36.6875 50.3125 C-48.66849709 45.5703962 -59.24054643 35.80720358 -67.16137695 25.83349609 C-67.88057816 24.9294101 -68.59977936 24.0253241 -69.34077454 23.09384155 C-69.88831894 22.40287384 -70.43586334 21.71190613 -71 21 C-71.00146656 21.74008458 -71.00293312 22.48016916 -71.00444412 23.24268055 C-71.0416567 41.33351046 -71.10086077 59.42414957 -71.18390274 77.51482868 C-71.22354433 86.26371337 -71.25601179 95.01251006 -71.27099609 103.76147461 C-71.2840904 111.39590937 -71.31125055 119.03014926 -71.35461307 126.66447419 C-71.37705492 130.69881582 -71.39292123 134.73291869 -71.39188385 138.76732826 C-71.39217583 155.20778267 -71.46327662 171.0526227 -76 187 C-76.33211487 188.25335648 -76.66422974 189.50671295 -77.00640869 190.79804993 C-78.99681625 198.13543122 -82.09075537 204.49762309 -86 211 C-86.33 210.01 -86.66 209.02 -87 208 C-86.05607981 206.30094366 -85.04349839 204.63978318 -84 203 C-81.43313709 197.86627418 -80.3599002 193.13036706 -79.52734375 187.453125 C-79 185 -79 185 -77 182 C-73.85317187 165.56633408 -74.73557339 148.45345041 -74.79721212 131.79379678 C-74.80988076 127.78068505 -74.81090249 123.76756895 -74.81326294 119.75444031 C-74.81943104 112.18665254 -74.83577725 104.6189239 -74.85596192 97.05116194 C-74.87846806 88.42211516 -74.889351 79.79306526 -74.89935279 71.16399634 C-74.92014873 53.44263095 -74.95523184 35.72132026 -75 18 C-75.66 18 -76.32 18 -77 18 C-77.33 15.69 -77.66 13.38 -78 11 C-77.030625 11.825 -76.06125 12.65 -75.0625 13.5 C-74.4128125 14.05042969 -73.763125 14.60085938 -73.09375 15.16796875 C-71.72765493 16.36330194 -70.39185389 17.5944379 -69.09375 18.86328125 C-49.84773296 37.33205529 -25.70480061 40.39344996 0 42 C0 28.14 0 14.28 0 0 Z " fill="#F11A50" transform="translate(503,285)"/>
<path d="M0 0 C0.969375 0.825 1.93875 1.65 2.9375 2.5 C3.5871875 3.05042969 4.236875 3.60085938 4.90625 4.16796875 C6.27234507 5.36330194 7.60814611 6.5944379 8.90625 7.86328125 C19.64123535 18.16473834 32.86270953 23.95787241 47 28 C47 28.33 47 28.66 47 29 C41.72 29 36.44 29 31 29 C31.66 29.66 32.32 30.32 33 31 C32.67 31.99 32.34 32.98 32 34 C24.09794324 28.31568669 16.75816479 22.4232098 10.71875 14.734375 C10.01685547 13.84459961 9.31496094 12.95482422 8.59179688 12.03808594 C8.06650391 11.36551758 7.54121094 10.69294922 7 10 C6.99853344 10.74008458 6.99706688 11.48016916 6.99555588 12.24268055 C6.9583433 30.33351046 6.89913923 48.42414957 6.81609726 66.51482868 C6.77645567 75.26371337 6.74398821 84.01251006 6.72900391 92.76147461 C6.7159096 100.39590937 6.68874945 108.03014926 6.64538693 115.66447419 C6.62294508 119.69881582 6.60707877 123.73291869 6.60811615 127.76732826 C6.60782417 144.20778267 6.53672338 160.0526227 2 176 C1.66788513 177.25335648 1.33577026 178.50671295 0.99359131 179.79804993 C-0.99681625 187.13543122 -4.09075537 193.49762309 -8 200 C-8.33 199.01 -8.66 198.02 -9 197 C-8.05607981 195.30094366 -7.04349839 193.63978318 -6 192 C-3.43313709 186.86627418 -2.3599002 182.13036706 -1.52734375 176.453125 C-1 174 -1 174 1 171 C4.14682813 154.56633408 3.26442661 137.45345041 3.20278788 120.79379678 C3.19011924 116.78068505 3.18909751 112.76756895 3.18673706 108.75444031 C3.18056896 101.18665254 3.16422275 93.6189239 3.14403808 86.05116194 C3.12153194 77.42211516 3.110649 68.79306526 3.10064721 60.16399634 C3.07985127 42.44263095 3.04476816 24.72132026 3 7 C2.34 7 1.68 7 1 7 C0.67 4.69 0.34 2.38 0 0 Z " fill="#B22045" transform="translate(425,296)"/>
<path d="M0 0 C16.17 0 32.34 0 49 0 C49.495 2.475 49.495 2.475 50 5 C49.34 4.34 48.68 3.68 48 3 C45.93919856 2.70833918 45.93919856 2.70833918 43.55029297 2.77294922 C42.16908768 2.77317581 42.16908768 2.77317581 40.75997925 2.77340698 C39.26617233 2.78889084 39.26617233 2.78889084 37.7421875 2.8046875 C36.21490524 2.80893234 36.21490524 2.80893234 34.6567688 2.81326294 C31.396061 2.8244823 28.13562516 2.84959004 24.875 2.875 C22.66797271 2.88502753 20.46094112 2.89415377 18.25390625 2.90234375 C12.83584428 2.92442732 7.41794157 2.95792205 2 3 C2.00184359 4.24351604 2.00368717 5.48703209 2.00558662 6.76823044 C2.04888347 36.27343076 2.08187159 65.77862388 2.10213066 95.28384809 C2.10463213 98.91384149 2.10722077 102.54383483 2.10986328 106.17382812 C2.1103879 106.89650766 2.11091252 107.61918719 2.11145304 108.3637661 C2.12016043 120.07195366 2.13593224 131.78012163 2.15430559 143.48829755 C2.17299536 155.49808744 2.18411477 167.50786704 2.18817699 179.51767087 C2.19067721 186.26502126 2.19670077 193.01233074 2.21146011 199.75966644 C2.22499958 206.10593424 2.22923001 212.45213908 2.22621536 218.79841995 C2.22676716 221.13172624 2.23076615 223.46503457 2.23841095 225.7983284 C2.24831525 228.97620584 2.24598535 232.15384344 2.24050903 235.33172607 C2.24633472 236.2616842 2.2521604 237.19164232 2.25816262 238.14978099 C2.25418052 239.00072691 2.25019842 239.85167284 2.24609566 240.728405 C2.2468551 241.46202468 2.24761454 242.19564435 2.24839699 242.95149493 C2 245 2 245 0 249 C0 166.83 0 84.66 0 0 Z " fill="#6CB2B5" transform="translate(369,187)"/>
<path d="M0 0 C0.44988281 0.35191406 0.89976562 0.70382813 1.36328125 1.06640625 C18.74733972 14.40928078 36.24324066 22.5825823 58 25 C58 30.28 58 35.56 58 41 C37.72493503 37.31362455 22.17084491 27.00301745 8.375 11.9375 C7.65957031 11.1630957 7.65957031 11.1630957 6.9296875 10.37304688 C0 2.81776259 0 2.81776259 0 0 Z " fill="#6AC4CA" transform="translate(445,244)"/>
<path d="M0 0 C0.67482422 0.51046875 0.67482422 0.51046875 1.36328125 1.03125 C2.75551843 2.08031048 4.15181457 3.12399303 5.55078125 4.1640625 C7.1870258 5.3905935 8.8095644 6.63561923 10.41796875 7.8984375 C18.09003877 13.77145933 26.24110017 18.01655796 35 22 C35.92425781 22.42410156 36.84851563 22.84820313 37.80078125 23.28515625 C55.40887314 30.48722183 80.76400873 32.71681521 98.828125 26.55859375 C101.27889354 25.92827019 102.63557027 26.1811264 105 27 C101.82470688 29.78209424 99.47679681 30.490047 95.30859375 30.94921875 C94.19806641 31.07490234 93.08753906 31.20058594 91.94335938 31.33007812 C90.78642578 31.44802734 89.62949219 31.56597656 88.4375 31.6875 C87.30763672 31.81705078 86.17777344 31.94660156 85.01367188 32.08007812 C65.90945714 34.15877507 65.90945714 34.15877507 60 31 C53.97815856 29.96175148 48.09976187 29.88750439 42 30 C41.34 31.32 40.68 32.64 40 34 C42.64 34.99 45.28 35.98 48 37 C48 37.99 48 38.98 48 40 C31.24248898 35.32987398 18.39075489 22.9715847 6.8125 10.5 C5.95269531 9.5821875 5.09289062 8.664375 4.20703125 7.71875 C2.12927702 5.15925098 1.00892209 3.11131281 0 0 Z " fill="#E61D52" transform="translate(239,502)"/>
<path d="M0 0 C4.29 0.66 8.58 1.32 13 2 C13.02255577 9.41460363 13.04091784 16.82918865 13.05181217 24.24381924 C13.05703982 27.68640348 13.06413531 31.12896312 13.07543945 34.5715332 C13.08834235 38.52555043 13.09322918 42.47955756 13.09765625 46.43359375 C13.10281754 47.67523788 13.10797882 48.91688202 13.11329651 50.19615173 C13.11337204 51.33725906 13.11344757 52.47836639 13.11352539 53.65405273 C13.115746 54.664431 13.11796661 55.67480927 13.12025452 56.71580505 C13 59 13 59 12 60 C-0.31341067 60.79483392 -11.23077059 59.63628605 -23 56 C-23 55.67 -23 55.34 -23 55 C-17.78038431 54.78251601 -13.51205865 55.09913387 -8.45703125 56.55078125 C-2.78959685 57.58695765 3.26683245 57.31087794 9 57 C10.2337198 55.98808362 10.2337198 55.98808362 10.12025452 53.90562439 C10.11803391 52.98407059 10.11581329 52.06251678 10.11352539 51.11303711 C10.11344986 50.07203354 10.11337433 49.03102997 10.11329651 47.95848083 C10.10813522 46.8262056 10.10297394 45.69393036 10.09765625 44.52734375 C10.0962413 43.37456436 10.09482635 42.22178497 10.09336853 41.03407288 C10.08775005 37.33518936 10.07519442 33.63636536 10.0625 29.9375 C10.05748738 27.43684983 10.05292406 24.93619871 10.04882812 22.43554688 C10.03777462 16.29034412 10.02101852 10.14517631 10 4 C7.36 3.67 4.72 3.34 2 3 C2.00785522 4.8097229 2.00785522 4.8097229 2.01586914 6.65600586 C2.03391611 11.11563378 2.04543089 15.57525846 2.05493164 20.03491211 C2.05997256 21.96818585 2.06680519 23.90145576 2.07543945 25.8347168 C2.08751565 28.60726872 2.09323057 31.37977041 2.09765625 34.15234375 C2.10281754 35.02213364 2.10797882 35.89192352 2.11329651 36.78807068 C2.11349185 38.85905814 2.06208168 40.92994324 2 43 C1 44 1 44 -1.31665039 44.11352539 C-2.31688232 44.10828857 -3.31711426 44.10305176 -4.34765625 44.09765625 C-5.42724609 44.09443359 -6.50683594 44.09121094 -7.61914062 44.08789062 C-8.75544922 44.07951172 -9.89175781 44.07113281 -11.0625 44.0625 C-12.20267578 44.05798828 -13.34285156 44.05347656 -14.51757812 44.04882812 C-17.34510351 44.03699747 -20.1725264 44.0205141 -23 44 C-23 43.34 -23 42.68 -23 42 C-24.65 42 -26.3 42 -28 42 C-28.33 41.34 -28.66 40.68 -29 40 C-19.43 40.66 -9.86 41.32 0 42 C0 28.14 0 14.28 0 0 Z " fill="#C4204B" transform="translate(503,285)"/>
<path d="M0 0 C4.29 0 8.58 0 13 0 C13 16.83 13 33.66 13 51 C7.06 51.66 1.12 52.32 -5 53 C-7.475 53.495 -7.475 53.495 -10 54 C-8 51 -8 51 -2 49 C2.29 49 6.58 49 11 49 C11 33.49 11 17.98 11 2 C8.03 2 5.06 2 2 2 C2.00523682 2.96413818 2.01047363 3.92827637 2.01586914 4.92163086 C2.03392118 8.48672564 2.04543274 12.05181636 2.05493164 15.61694336 C2.0599714 17.16219766 2.0668032 18.70744716 2.07543945 20.25268555 C2.08752076 22.46925029 2.09323173 24.68575218 2.09765625 26.90234375 C2.10281754 27.5971434 2.10797882 28.29194305 2.11329651 29.00779724 C2.11349277 30.6722933 2.06189129 32.33665499 2 34 C0.38355399 35.61644601 -1.51372903 35.23927257 -3.75 35.375 C-15.04649762 36.35412722 -25.2781217 38.98249257 -35 45 C-35.33 45.66 -35.66 46.32 -36 47 C-37.32 46.67 -38.64 46.34 -40 46 C-27.71776189 35.30256681 -16.36188465 34 0 34 C0 22.78 0 11.56 0 0 Z " fill="#C62550" transform="translate(319,340)"/>
<path d="M0 0 C1.98 0.99 1.98 0.99 4 2 C4 2.66 4 3.32 4 4 C4.66 4.2475 5.32 4.495 6 4.75 C8.29112542 5.70463559 10.37936058 6.7173436 12.5625 7.875 C17.81050834 10.55440541 23.39075307 12.24243596 29 14 C28.01 14.495 28.01 14.495 27 15 C27 15.99 27 16.98 27 18 C26.34 18 25.68 18 25 18 C25 18.66 25 19.32 25 20 C25.66 20.33 26.32 20.66 27 21 C27.33 21.66 27.66 22.32 28 23 C27.01 23 26.02 23 25 23 C25.33 23.99 25.66 24.98 26 26 C18.91636537 23.78636418 12.86804243 18.47654773 8 13 C8 12.34 8 11.68 8 11 C7.4225 10.814375 6.845 10.62875 6.25 10.4375 C2.85537664 8.26871285 1.79502687 5.59005374 0 2 C0 1.34 0 0.68 0 0 Z " fill="#6AC8D0" transform="translate(277,467)"/>
<path d="M0 0 C2.18123005 3.27184507 2.24306964 4.16174192 2.21118164 7.94287109 C2.20780289 8.94756439 2.20442413 9.95225769 2.20094299 10.98739624 C2.18748337 12.07178986 2.17402374 13.15618347 2.16015625 14.2734375 C2.15495468 15.38933258 2.14975311 16.50522766 2.14439392 17.65493774 C2.12655381 21.228423 2.09539119 24.801624 2.0625 28.375 C2.03486429 31.94120767 2.01013902 35.50737354 1.99131775 39.07363892 C1.97908502 41.2940336 1.96150534 43.51440669 1.93800354 45.73471069 C1.93147263 46.74570831 1.92494171 47.75670593 1.91821289 48.79833984 C1.90995987 49.68419769 1.90170685 50.57005554 1.89320374 51.48275757 C2.00344631 54.08123127 2.42371124 56.46737145 3 59 C-0.00166801 61.61289776 -1.79627311 62.36930244 -5.765625 62.29296875 C-6.65507812 62.28330078 -7.54453125 62.27363281 -8.4609375 62.26367188 C-9.38132812 62.23853516 -10.30171875 62.21339844 -11.25 62.1875 C-12.18585938 62.17396484 -13.12171875 62.16042969 -14.0859375 62.14648438 C-16.39121327 62.11119954 -18.6953106 62.06190281 -21 62 C-21 61.67 -21 61.34 -21 61 C-14.73 60.67 -8.46 60.34 -2 60 C-1.67 41.19 -1.34 22.38 -1 3 C-3.64 3 -6.28 3 -9 3 C-11.5 2 -11.5 2 -13 1 C-3.01181102 -0.35433071 -3.01181102 -0.35433071 0 0 Z " fill="#200003" transform="translate(517,284)"/>
<path d="M0 0 C2.52588702 2.36292656 3.88820837 3.66462511 5 7 C4.01 7 3.02 7 2 7 C1.99668985 7.74377175 1.99337971 8.48754351 1.98996925 9.2538538 C1.90850116 27.40999383 1.81633228 45.56605125 1.71247292 63.72207737 C1.66249989 72.50244494 1.61605617 81.28280389 1.578125 90.06323242 C1.54502812 97.72248028 1.50510137 105.38165802 1.45720994 113.04082817 C1.43211948 117.09063139 1.4102883 121.14038915 1.39665604 125.19024849 C1.38367519 129.01437155 1.36145465 132.83833729 1.33261681 136.66237259 C1.32366445 138.05414168 1.31788032 139.44593601 1.31578636 140.83773232 C1.30306796 148.01736375 1.03587236 155.12879862 0.23007202 162.26231384 C0.09373037 163.48256728 -0.04261127 164.70282072 -0.18308449 165.96005154 C-1 169 -1 169 -3.0768795 170.92110538 C-3.71150927 171.27714061 -4.34613903 171.63317583 -5 172 C-4.35008279 167.12089983 -3.46761085 162.35292688 -2.46452332 157.53088379 C-0.89989431 149.51330494 -0.55723686 141.67067889 -0.56762695 133.50585938 C-0.55857789 132.03552953 -0.54824317 130.56520713 -0.53674316 129.09489441 C-0.50951535 125.15999617 -0.49993608 121.22524232 -0.49388909 117.29026222 C-0.48441481 113.15695257 -0.45820528 109.02374708 -0.43388367 104.89050293 C-0.39046124 97.08891918 -0.36176617 89.28735592 -0.33856028 81.48568869 C-0.31137739 72.59304393 -0.26747481 63.70050523 -0.22227156 54.80793667 C-0.12977336 36.53868071 -0.05793447 18.26939666 0 0 Z " fill="#250000" transform="translate(431,304)"/>
<path d="M0 0 C0.66 0 1.32 0 2 0 C1.71125 1.08410156 1.4225 2.16820312 1.125 3.28515625 C-4.34591019 25.70640089 -4.83243733 50.53505641 3.87255859 72.16845703 C6.091769 77.72469299 6.091769 77.72469299 5 81 C3.70462174 79.2527456 2.41383727 77.50208483 1.125 75.75 C0.40570313 74.77546875 -0.31359375 73.8009375 -1.0546875 72.796875 C-3.93582093 68.65452251 -5.25915594 66.05807411 -5.18286133 60.96289062 C-5.17237259 59.96084595 -5.16188385 58.95880127 -5.15107727 57.9263916 C-5.12829208 56.84724487 -5.1055069 55.76809814 -5.08203125 54.65625 C-5.06412033 53.53617554 -5.04620941 52.41610107 -5.02775574 51.26208496 C-4.98655193 48.88816826 -4.9399674 46.51433979 -4.88842773 44.140625 C-4.81337022 40.54172557 -4.76396192 36.94310948 -4.71679688 33.34375 C-4.67344245 31.03122008 -4.62856766 28.71871807 -4.58203125 26.40625 C-4.56936722 25.34329712 -4.55670319 24.28034424 -4.5436554 23.18518066 C-4.34400311 15.37189415 -3.54692602 7.09385205 0 0 Z " fill="#88C4C4" transform="translate(225,410)"/>
<path d="M0 0 C1.32 1.65 2.64 3.3 4 5 C3.01 5.33 2.02 5.66 1 6 C1.00184359 6.75353445 1.00368717 7.5070689 1.00558662 8.28343773 C1.04981845 26.64637794 1.08288223 45.00930748 1.10362434 63.37228966 C1.11392253 72.25260714 1.12795491 81.13288899 1.15087891 90.01318359 C1.1708575 97.75620188 1.18372703 105.49919434 1.18817699 113.24223769 C1.19077681 117.33942527 1.19685698 121.43653901 1.21146011 125.53370285 C1.22511475 129.39633237 1.22920683 133.25885819 1.22621536 137.12150955 C1.22676202 138.53314021 1.23069228 139.94477462 1.23841095 141.35638428 C1.27892352 149.15305394 0.9476731 156.42747818 -1 164 C-1.33 164 -1.66 164 -2 164 C-2.12594004 156.56953776 -2.12594004 156.56953776 -1.50378513 153.75597095 C-0.94055782 150.67481983 -0.86000934 147.79874873 -0.84178162 144.66618347 C-0.8319928 143.38877289 -0.82220398 142.1113623 -0.81211853 140.79524231 C-0.80621511 139.38717689 -0.80040461 137.97911107 -0.79467773 136.57104492 C-0.78509359 135.08263887 -0.77508319 133.59423551 -0.76467896 132.10583496 C-0.73768197 128.071153 -0.71664427 124.03645941 -0.69667697 120.00173736 C-0.67478525 115.78298185 -0.64741216 111.564262 -0.62062073 107.34553528 C-0.57073689 99.35942069 -0.5257821 91.37328627 -0.48259836 83.38713294 C-0.43318914 74.29405886 -0.37828468 65.20102055 -0.32291877 56.10798109 C-0.20916489 37.40535396 -0.10231152 18.70269305 0 0 Z " fill="#CA2F5A" transform="translate(418,286)"/>
<path d="M0 0 C1.47906892 -0.02689216 2.95827483 -0.04634621 4.4375 -0.0625 C5.26121094 -0.07410156 6.08492188 -0.08570313 6.93359375 -0.09765625 C9 0 9 0 10 1 C10.27672202 2.91299138 10.52042815 4.83077936 10.75 6.75 C11.6502284 13.07253432 13.53910675 18.47884315 16.07421875 24.3203125 C17 27 17 27 16 30 C8.58744697 21.8693559 2.45263741 10.81226783 0 0 Z " fill="#B92A4E" transform="translate(422,205)"/>
<path d="M0 0 C0.99 0 1.98 0 3 0 C2.78561279 0.79164551 2.57122559 1.58329102 2.3503418 2.39892578 C-0.17145763 12.68728012 -0.35518849 22.34331885 -0.1875 32.875 C-0.1724075 34.54556069 -0.15872727 36.21613475 -0.14648438 37.88671875 C-0.11388235 41.924818 -0.06236023 45.96225521 0 50 C0.66 50 1.32 50 2 50 C4.28571429 58.42857143 4.28571429 58.42857143 4 63 C3.01 63.495 3.01 63.495 2 64 C1.37346016 61.52121375 0.74874328 59.04199014 0.125 56.5625 C-0.04902344 55.87478516 -0.22304687 55.18707031 -0.40234375 54.47851562 C-0.94417867 52.32120994 -1.47196742 50.1607208 -2 48 C-2.18675293 47.27594971 -2.37350586 46.55189941 -2.56591797 45.8059082 C-3.94127969 40.18768532 -4.38371112 34.83960285 -4.375 29.0625 C-4.37628906 28.16313721 -4.37757813 27.26377441 -4.37890625 26.3371582 C-4.23835481 17.23565372 -2.39217958 8.74640658 0 0 Z " fill="#72C0C2" transform="translate(212,398)"/>
<path d="M0 0 C0.66 0.33 1.32 0.66 2 1 C1.0234375 2.82291667 0.046875 4.64583333 -0.9296875 6.46875 C-3.95268725 13.61803408 -4.31291545 20.27754416 -4.25 27.9375 C-4.25773437 28.87529297 -4.26546875 29.81308594 -4.2734375 30.77929688 C-4.25666154 36.8144484 -3.51046661 42.15593277 -2 48 C-6.17941365 45.03867026 -8.72324876 41.79650916 -11.1875 37.375 C-11.53554688 36.76124512 -11.88359375 36.14749023 -12.2421875 35.51513672 C-14.96012453 30.51793354 -16.47525643 25.69346774 -17 20 C-16.34 20.33 -15.68 20.66 -15 21 C-14.3671875 23.28515625 -14.3671875 23.28515625 -13.875 26.0625 C-13.70742188 26.98160156 -13.53984375 27.90070313 -13.3671875 28.84765625 C-13.24601562 29.55792969 -13.12484375 30.26820313 -13 31 C-11.68 31 -10.36 31 -9 31 C-8.51770668 28.50056796 -8.03910574 26.00051757 -7.5625 23.5 C-7.42779297 22.80390625 -7.29308594 22.1078125 -7.15429688 21.390625 C-6.46732268 17.77144386 -5.89967335 14.19726453 -5.52734375 10.53125 C-5.26630859 8.78328125 -5.26630859 8.78328125 -5 7 C-4.34 6.67 -3.68 6.34 -3 6 C-2.29788106 4.34795544 -1.63028587 2.68076231 -1 1 C-0.67 0.67 -0.34 0.34 0 0 Z " fill="#DC2758" transform="translate(278,417)"/>
<path d="M0 0 C4.455 0.99 4.455 0.99 9 2 C9 2.33 9 2.66 9 3 C6.69 3 4.38 3 2 3 C2.00785522 4.8097229 2.00785522 4.8097229 2.01586914 6.65600586 C2.03391611 11.11563378 2.04543089 15.57525846 2.05493164 20.03491211 C2.05997256 21.96818585 2.06680519 23.90145576 2.07543945 25.8347168 C2.08751565 28.60726872 2.09323057 31.37977041 2.09765625 34.15234375 C2.10281754 35.02213364 2.10797882 35.89192352 2.11329651 36.78807068 C2.11349185 38.85905814 2.06208168 40.92994324 2 43 C1 44 1 44 -1.31665039 44.11352539 C-2.31688232 44.10828857 -3.31711426 44.10305176 -4.34765625 44.09765625 C-5.42724609 44.09443359 -6.50683594 44.09121094 -7.61914062 44.08789062 C-8.75544922 44.07951172 -9.89175781 44.07113281 -11.0625 44.0625 C-12.20267578 44.05798828 -13.34285156 44.05347656 -14.51757812 44.04882812 C-17.34510351 44.03699747 -20.1725264 44.0205141 -23 44 C-23 43.34 -23 42.68 -23 42 C-24.65 42 -26.3 42 -28 42 C-28.33 41.34 -28.66 40.68 -29 40 C-19.43 40.66 -9.86 41.32 0 42 C0 28.14 0 14.28 0 0 Z " fill="#D34168" transform="translate(503,285)"/>
<path d="M0 0 C0.67482422 0.51046875 0.67482422 0.51046875 1.36328125 1.03125 C2.75551843 2.08031048 4.15181457 3.12399303 5.55078125 4.1640625 C7.1870258 5.3905935 8.8095644 6.63561923 10.41796875 7.8984375 C21.1106847 16.08378435 33.2011099 21.87832353 46 26 C46 26.33 46 26.66 46 27 C41.48382401 27.07654536 37.40914783 27.10228696 33 26 C33 25.01 33 24.02 33 23 C30.69 22.34 28.38 21.68 26 21 C26 20.34 26 19.68 26 19 C25.319375 18.9175 24.63875 18.835 23.9375 18.75 C20.1253093 17.77667472 17.35929671 16.04192545 14 14 C14.495 14.433125 14.99 14.86625 15.5 15.3125 C17 17 17 17 17 20 C16.34 20 15.68 20 15 20 C13.52230782 18.36567245 12.11730681 16.66523632 10.75 14.9375 C8.0405139 11.54079368 5.32199855 8.18686352 2.4375 4.9375 C0 2 0 2 0 0 Z " fill="#D02C59" transform="translate(239,502)"/>
<path d="M0 0 C-3.17529312 2.78209424 -5.52320319 3.490047 -9.69140625 3.94921875 C-10.80193359 4.07490234 -11.91246094 4.20058594 -13.05664062 4.33007812 C-14.21357422 4.44802734 -15.37050781 4.56597656 -16.5625 4.6875 C-17.69236328 4.81705078 -18.82222656 4.94660156 -19.98632812 5.08007812 C-39.00280077 7.149228 -39.00280077 7.149228 -45 4 C-47.00707801 3.74513295 -49.01475559 3.49205784 -51.02734375 3.28515625 C-53.54570201 2.92111634 -55.70382146 2.07633369 -58 1 C-58 0.67 -58 0.34 -58 0 C-56.49986903 0.14447983 -54.99990298 0.29067215 -53.5 0.4375 C-52.24703125 0.55931641 -52.24703125 0.55931641 -50.96875 0.68359375 C-48.77085542 0.91784304 -46.57841958 1.20462142 -44.390625 1.51953125 C-39.02131989 2.19386025 -33.65566505 2.23265788 -28.25 2.25 C-27.1868457 2.25394775 -26.12369141 2.25789551 -25.02832031 2.26196289 C-18.33970865 2.2122239 -12.53002365 1.72614442 -6.171875 -0.44140625 C-3.72110646 -1.07172981 -2.36442973 -0.8188736 0 0 Z " fill="#DA3662" transform="translate(344,529)"/>
<path d="M0 0 C5.59678379 0.36500764 9.42640146 2.11047773 14.35546875 4.72265625 C18.41533648 6.68362634 22.64912294 7.86136622 27 9 C27 9.33 27 9.66 27 10 C21.72 10 16.44 10 11 10 C11.66 10.66 12.32 11.32 13 12 C12.67 12.99 12.34 13.98 12 15 C10.33333333 13.33333333 8.66666667 11.66666667 7 10 C5.8553125 8.9171875 5.8553125 8.9171875 4.6875 7.8125 C3 6 3 6 3 4 C2.01 3.67 1.02 3.34 0 3 C0 2.01 0 1.02 0 0 Z " fill="#E22758" transform="translate(445,315)"/>
<path d="M0 0 C0.33 0 0.66 0 1 0 C1 11.55 1 23.1 1 35 C-2.63 35.33 -6.26 35.66 -10 36 C-19.03401617 37.40304832 -27.19561285 40.16935347 -35 45 C-35.33 45.66 -35.66 46.32 -36 47 C-37.32 46.67 -38.64 46.34 -40 46 C-27.71776189 35.30256681 -16.36188465 34 0 34 C0 22.78 0 11.56 0 0 Z " fill="#E36588" transform="translate(319,340)"/>
<path d="M0 0 C0.44988281 0.35191406 0.89976562 0.70382813 1.36328125 1.06640625 C9.41427535 7.24582657 17.8150844 12.66749264 27 17 C23.41967696 19.38688203 20.28215904 20.53564254 16 20 C13.21498347 18.20338396 11.27682529 15.86112738 9.1875 13.3125 C8.62869141 12.67376953 8.06988281 12.03503906 7.49414062 11.37695312 C0 2.73948711 0 2.73948711 0 0 Z " fill="#6FC1C3" transform="translate(445,244)"/>
<path d="M0 0 C6.93 0.495 6.93 0.495 14 1 C14 1.66 14 2.32 14 3 C27.2 2.67 40.4 2.34 54 2 C40.05998607 8.97000696 16.59375808 6.35813597 2 2 C1.34 1.34 0.68 0.68 0 0 Z " fill="#C8254F" transform="translate(294,544)"/>
<path d="M0 0 C0.99 0.33 1.98 0.66 3 1 C3.87194851 3.50834503 4.58684425 5.93698486 5.25 8.5 C7.00444291 14.72789259 9.0469331 19.32254224 13.44921875 24.203125 C15.03389743 26.03927662 16.01002968 27.79573112 17 30 C18.32 30 19.64 30 21 30 C21.66 32.31 22.32 34.62 23 37 C13.47162009 32.09144065 6.70013517 23.11658528 3.42773438 13.08398438 C3.06131836 11.89772461 3.06131836 11.89772461 2.6875 10.6875 C2.29208008 9.47223633 2.29208008 9.47223633 1.88867188 8.23242188 C0 2.34074675 0 2.34074675 0 0 Z " fill="#E0FCFC" transform="translate(225,472)"/>
<path d="M0 0 C1.98 0.99 1.98 0.99 4 2 C4 2.66 4 3.32 4 4 C4.66 4.2475 5.32 4.495 6 4.75 C8.33099767 5.72124903 10.46415923 6.76043724 12.6875 7.9375 C17.27053518 10.27721395 22.04696973 11.66024591 27 13 C27 13.33 27 13.66 27 14 C23.37 14 19.74 14 16 14 C15.67 13.01 15.34 12.02 15 11 C13.68 11.33 12.36 11.66 11 12 C11 12.99 11 13.98 11 15 C10.01 14.34 9.02 13.68 8 13 C8 12.34 8 11.68 8 11 C7.4225 10.814375 6.845 10.62875 6.25 10.4375 C2.85537664 8.26871285 1.79502687 5.59005374 0 2 C0 1.34 0 0.68 0 0 Z " fill="#85C0C0" transform="translate(277,467)"/>
<path d="M0 0 C3.1563977 1.44578761 5.7213879 3.2190566 8.4375 5.375 C9.21867187 5.99246094 9.99984375 6.60992187 10.8046875 7.24609375 C11.52914063 7.82488281 12.25359375 8.40367187 13 9 C14.010625 9.804375 15.02125 10.60875 16.0625 11.4375 C16.701875 11.953125 17.34125 12.46875 18 13 C17.01 13 16.02 13 15 13 C16.24251733 16.72755198 18.20751579 18.27400351 21 21 C22.02813611 22.31175986 23.04084432 23.6369893 24 25 C14.94081652 21.0106348 7.44514537 12.04603883 2 4 C2 3.34 2 2.68 2 2 C1.34 2 0.68 2 0 2 C0 1.34 0 0.68 0 0 Z " fill="#C82753" transform="translate(430,302)"/>
<path d="M0 0 C-0.33 0.99 -0.66 1.98 -1 3 C-1.66 3 -2.32 3 -3 3 C-3.1546875 4.175625 -3.1546875 4.175625 -3.3125 5.375 C-4 8 -4 8 -7 10 C-8.00168531 11.94832935 -8.00168531 11.94832935 -8.6875 14.125 C-8.93886719 14.84945313 -9.19023437 15.57390625 -9.44921875 16.3203125 C-9.63097656 16.87460937 -9.81273437 17.42890625 -10 18 C-10.66 18 -11.32 18 -12 18 C-12.33 19.32 -12.66 20.64 -13 22 C-13.66 22 -14.32 22 -15 22 C-15.33 24.97 -15.66 27.94 -16 31 C-16.66 31 -17.32 31 -18 31 C-17.80084306 19.24974044 -11.43267593 9.9744607 -3.69921875 1.51171875 C-2 0 -2 0 0 0 Z " fill="#D73561" transform="translate(279,387)"/>
<path d="M0 0 C1.65 0 3.3 0 5 0 C6.32 5.94 7.64 11.88 9 18 C5 17 5 17 3.76953125 15.46875 C1.26662457 10.3199134 0.26449716 5.71313862 0 0 Z " fill="#DD2959" transform="translate(425,207)"/>
<path d="M0 0 C0.66 0 1.32 0 2 0 C1.71125 1.08410156 1.4225 2.16820312 1.125 3.28515625 C-1.55831623 14.3160362 -2.37774629 25.0034211 -2.3125 36.3125 C-2.30968018 36.98862335 -2.30686035 37.6647467 -2.30395508 38.36135864 C-2.26120064 45.0091691 -2.03657338 51.42425391 -1 58 C-4.15268996 53.27096507 -4.17306558 49.31973826 -4.203125 43.81640625 C-4.20882507 43.00566147 -4.21452515 42.19491669 -4.22039795 41.35960388 C-4.22984733 39.63891908 -4.23638169 37.9182162 -4.24023438 36.19750977 C-4.24984864 33.60334068 -4.28083291 31.00999568 -4.3125 28.41601562 C-4.43578652 8.87157304 -4.43578652 8.87157304 0 0 Z " fill="#9AD6D9" transform="translate(225,410)"/>
<path d="M0 0 C0 3.38023517 -0.87455622 5.83468937 -2 9 C-3.175625 9.0928125 -3.175625 9.0928125 -4.375 9.1875 C-5.24125 9.455625 -6.1075 9.72375 -7 10 C-8.37466625 12.47636012 -8.37466625 12.47636012 -9 15 C-9.66 15 -10.32 15 -11 15 C-11.2475 16.11375 -11.495 17.2275 -11.75 18.375 C-13 22 -13 22 -15.125 23.4375 C-15.74375 23.623125 -16.3625 23.80875 -17 24 C-17 19.73350364 -16.43160605 18.36683915 -14 15 C-13.34 15 -12.68 15 -12 15 C-11.66355469 13.92685547 -11.66355469 13.92685547 -11.3203125 12.83203125 C-9.70390489 9.36488474 -7.6259455 7.3326399 -4.875 4.6875 C-3.96492187 3.80449219 -3.05484375 2.92148437 -2.1171875 2.01171875 C-1.41851562 1.34785156 -0.71984375 0.68398438 0 0 Z " fill="#6BB2B5" transform="translate(242,350)"/>
<path d="M0 0 C0.99 0 1.98 0 3 0 C2.80664062 0.89460938 2.61328125 1.78921875 2.4140625 2.7109375 C1.87109642 5.23223543 1.33226875 7.75442699 0.796875 10.27734375 C0.34297586 12.39776471 -0.11971369 14.51645713 -0.609375 16.62890625 C-2.25948169 24.01688391 -2.61790605 31.45867209 -3 39 C-3.33 39 -3.66 39 -4 39 C-4.48470672 25.3474273 -3.60882978 13.19478389 0 0 Z " fill="#50888C" transform="translate(212,398)"/>
<path d="M0 0 C-1.04874998 2.62187494 -1.64931313 3.79371361 -4.125 5.25 C-4.74375 5.4975 -5.3625 5.745 -6 6 C-6 6.66 -6 7.32 -6 8 C-8.49275476 9.32805745 -10.99279848 10.63722261 -13.5 11.9375 C-14.54414063 12.49727539 -14.54414063 12.49727539 -15.609375 13.06835938 C-20.48792792 15.57539351 -24.52375576 16.61148267 -30 17 C-30 16.34 -30 15.68 -30 15 C-28.02 15 -26.04 15 -24 15 C-23.67 14.01 -23.34 13.02 -23 12 C-21.19140625 11.3984375 -21.19140625 11.3984375 -19 11 C-17.63784222 10.56599195 -16.28331198 10.10731412 -14.9375 9.625 C-14.26589844 9.39039063 -13.59429687 9.15578125 -12.90234375 8.9140625 C-10.90960716 8.09077891 -10.90960716 8.09077891 -9.44140625 6.3984375 C-8 5 -8 5 -5 5 C-4.87625 4.360625 -4.7525 3.72125 -4.625 3.0625 C-4.315625 2.0415625 -4.315625 2.0415625 -4 1 C-2 0 -2 0 0 0 Z " fill="#7FC7CA" transform="translate(366,480)"/>
<path d="M0 0 C4.43046126 1.65712989 8.552203 3.77739186 12.75 5.9375 C18.39923554 8.8111294 23.88599091 11.25314026 30 13 C30 13.33 30 13.66 30 14 C25.48382401 14.07654536 21.40914783 14.10228696 17 13 C17 12.01 17 11.02 17 10 C14.69 9.34 12.38 8.68 10 8 C10 7.34 10 6.68 10 6 C8.9171875 5.8453125 8.9171875 5.8453125 7.8125 5.6875 C4.72206579 4.93206053 2.58256159 3.84468685 0 2 C0 1.34 0 0.68 0 0 Z " fill="#D33F67" transform="translate(255,515)"/>
<path d="M0 0 C5.75 1.75 5.75 1.75 8 4 C9.98821313 4.39764263 11.98944339 4.73775349 14 5 C14.33 5.99 14.66 6.98 15 8 C16.8653245 9.01754868 16.8653245 9.01754868 19.0625 9.6875 C19.79597656 9.93886719 20.52945312 10.19023438 21.28515625 10.44921875 C21.85105469 10.63097656 22.41695313 10.81273437 23 11 C23 11.99 23 12.98 23 14 C14.32437897 11.58220398 5.14664839 7.75405634 0 0 Z " fill="#C2204B" transform="translate(264,528)"/>
<path d="M0 0 C-0.25 3.375 -0.25 3.375 -1 7 C-3.0625 8.4375 -3.0625 8.4375 -5 9 C-5 8.34 -5 7.68 -5 7 C-5.495 7.165 -5.99 7.33 -6.5 7.5 C-10.03444089 8.20688818 -13.39690701 8.06005155 -17 8 C-16.45601563 7.73445312 -15.91203125 7.46890625 -15.3515625 7.1953125 C-11.66190438 5.31983844 -8.07133691 3.26517269 -4.4609375 1.2421875 C-2 0 -2 0 0 0 Z " fill="#E13362" transform="translate(366,518)"/>
<path d="M0 0 C1 3 1 3 -0.125 5.375 C-2 8 -2 8 -4.5 10.4375 C-7.11815539 13.12110927 -8.49362014 15.59082452 -10 19 C-10.66 19 -11.32 19 -12 19 C-12 19.66 -12 20.32 -12 21 C-12.99 21.33 -13.98 21.66 -15 22 C-13.53801587 17.72408943 -11.36920183 14.57384425 -8.625 11 C-7.85414063 9.989375 -7.08328125 8.97875 -6.2890625 7.9375 C-4.21364993 5.27417193 -2.11749287 2.62994548 0 0 Z " fill="#DDF8F9" transform="translate(249,373)"/>
<path d="M0 0 C0.33 0 0.66 0 1 0 C1 10.23 1 20.46 1 31 C-4.94 31.33 -10.88 31.66 -17 32 C-12.91748364 28.93811273 -12.43502071 28.62756497 -7.75 28.8125 C-6.85796875 28.83957031 -5.9659375 28.86664063 -5.046875 28.89453125 C-4.37140625 28.92933594 -3.6959375 28.96414063 -3 29 C-1.00862881 25.66008621 -0.70412331 23.00136135 -0.5859375 19.140625 C-0.54726563 18.02558594 -0.50859375 16.91054688 -0.46875 15.76171875 C-0.4378125 14.60285156 -0.406875 13.44398438 -0.375 12.25 C-0.33632813 11.07566406 -0.29765625 9.90132813 -0.2578125 8.69140625 C-0.1636018 5.79442732 -0.07798398 2.89745374 0 0 Z " fill="#FEE6F2" transform="translate(318,343)"/>
<path d="M0 0 C3.74820636 1.444263 7.32695705 3.11753521 10.9375 4.875 C17.80739755 8.08200023 24.67259115 10.13244452 32 12 C32 12.33 32 12.66 32 13 C25.36958696 12.75213409 20.04570489 11.94325468 14.08203125 8.98828125 C11.13142981 7.58771434 8.15896436 6.80654409 5 6 C5 5.34 5 4.68 5 4 C3.68 4 2.36 4 1 4 C0.67 2.68 0.34 1.36 0 0 Z " fill="#260005" transform="translate(272,535)"/>
<path d="M0 0 C1.32 0 2.64 0 4 0 C2.72292443 2.56745401 1.42734157 5.12499583 0.125 7.6796875 C-0.58344302 9.07806944 -1.29177315 10.47650857 -2 11.875 C-2.35578125 12.56980469 -2.7115625 13.26460938 -3.078125 13.98046875 C-5.0649463 17.91704379 -6.72441723 21.76134475 -8 26 C-8.33 26 -8.66 26 -9 26 C-9.5326514 19.741346 -7.81849506 15.54891215 -5 10 C-4.34 10 -3.68 10 -3 10 C-1.87119943 6.68885166 -0.78697325 3.41021743 0 0 Z " fill="#81C6CB" transform="translate(236,384)"/>
<path d="M0 0 C-3 2 -3 2 -6 2 C-6 2.66 -6 3.32 -6 4 C-13.11268791 8.44542995 -22.9857537 7.10995155 -31 7 C-31 6.67 -31 6.34 -31 6 C-29.91203125 5.82984375 -28.8240625 5.6596875 -27.703125 5.484375 C-19.58140857 4.16148107 -11.95294452 2.60661993 -4.22265625 -0.328125 C-2 -1 -2 -1 0 0 Z " fill="#4D0614" transform="translate(367,542)"/>
<path d="M0 0 C13.86 0.495 13.86 0.495 28 1 C28 1.66 28 2.32 28 3 C23.89584811 3.02898097 19.79172247 3.0467922 15.6875 3.0625 C14.52025391 3.07087891 13.35300781 3.07925781 12.15039062 3.08789062 C10.47299805 3.09272461 10.47299805 3.09272461 8.76171875 3.09765625 C7.2142395 3.10551147 7.2142395 3.10551147 5.63549805 3.11352539 C3 3 3 3 0 2 C0 1.34 0 0.68 0 0 Z " fill="#3A020B" transform="translate(308,548)"/>
<path d="M0 0 C0.33 1.32 0.66 2.64 1 4 C0.05125 4.598125 -0.8975 5.19625 -1.875 5.8125 C-5.13964197 7.81562526 -5.13964197 7.81562526 -7 11 C-7.7425 11.28875 -8.485 11.5775 -9.25 11.875 C-11.85310743 12.93990759 -13.04315098 13.83174382 -15.0625 15.6875 C-16.031875 16.450625 -17.00125 17.21375 -18 18 C-20.18359375 17.64453125 -20.18359375 17.64453125 -22 17 C-21.45472656 16.64808594 -20.90945313 16.29617188 -20.34765625 15.93359375 C-13.08291379 11.17736065 -6.06732056 6.24456813 0 0 Z " fill="#D13B64" transform="translate(388,500)"/>
<path d="M0 0 C5.61 0.66 11.22 1.32 17 2 C17 2.66 17 3.32 17 4 C22.28 4 27.56 4 33 4 C33 4.33 33 4.66 33 5 C21.22417163 5.42266184 11.07053631 5.52518272 0 1 C0 0.67 0 0.34 0 0 Z " fill="#8ACBCF" transform="translate(303,493)"/>
<path d="M0 0 C5.10989719 -0.25130642 9.22775114 -0.07499365 14.125 1.4375 C21.00962801 3.51366094 27.84867221 3.72012347 35 4 C35 4.33 35 4.66 35 5 C22.61724958 5.48454241 11.86194847 4.66493304 0 1 C0 0.67 0 0.34 0 0 Z " fill="#A01D3D" transform="translate(480,340)"/>
<path d="M0 0 C0.33 0 0.66 0 1 0 C1.18451025 15.74487472 1.18451025 15.74487472 0 23 C-3.80984844 20.22920113 -4.06840752 16.37131855 -5 12 C-4.01 11.34 -3.02 10.68 -2 10 C-1.67 10.33 -1.34 10.66 -1 11 C-0.67 7.37 -0.34 3.74 0 0 Z " fill="#68C4C9" transform="translate(220,451)"/>
<path d="M0 0 C0.66 0.33 1.32 0.66 2 1 C1.0234375 2.82291667 0.046875 4.64583333 -0.9296875 6.46875 C-3.77682895 13.20213562 -4.35892512 19.7827189 -4.625 27 C-4.66367187 27.87011719 -4.70234375 28.74023438 -4.7421875 29.63671875 C-4.83540887 31.75750486 -4.91874136 33.87872185 -5 36 C-5.33 36 -5.66 36 -6 36 C-6.02937438 32.66668561 -6.04692334 29.33340517 -6.0625 26 C-6.07087891 25.06542969 -6.07925781 24.13085938 -6.08789062 23.16796875 C-6.10704725 17.68917495 -5.99334043 12.39777439 -5 7 C-4.34 6.67 -3.68 6.34 -3 6 C-2.29788106 4.34795544 -1.63028587 2.68076231 -1 1 C-0.67 0.67 -0.34 0.34 0 0 Z " fill="#B21F46" transform="translate(278,417)"/>
<path d="M0 0 C0.33 0.99 0.66 1.98 1 3 C-0.9291785 6.30716314 -2.92289056 9.66139683 -6 12 C-8.6875 12.6875 -8.6875 12.6875 -11 13 C-11.33 13.99 -11.66 14.98 -12 16 C-12.99 15.67 -13.98 15.34 -15 15 C-14.34 15 -13.68 15 -13 15 C-12.67 14.01 -12.34 13.02 -12 12 C-10.29296875 10.3515625 -10.29296875 10.3515625 -8.1875 8.625 C-5.05526857 5.97638061 -2.42516704 3.33460467 0 0 Z " fill="#38030C" transform="translate(405,512)"/>
<path d="M0 0 C0.33 0.66 0.66 1.32 1 2 C1.66 2.165 2.32 2.33 3 2.5 C3.66 2.665 4.32 2.83 5 3 C5.33 3.66 5.66 4.32 6 5 C6.66 4.34 7.32 3.68 8 3 C8.99 6.96 9.98 10.92 11 15 C6.34470037 11.42732819 3.13686788 7.98208429 0 3 C0 2.01 0 1.02 0 0 Z " fill="#18151A" transform="translate(439,233)"/>
<path d="M0 0 C0.66 0.33 1.32 0.66 2 1 C0 4 0 4 -3 5 C-3.28875 5.598125 -3.5775 6.19625 -3.875 6.8125 C-5.7121261 10.38468964 -8.50988705 12.51672012 -12.3125 13.75 C-13.1478125 13.87375 -13.1478125 13.87375 -14 14 C-13.1875 12.0625 -13.1875 12.0625 -12 10 C-11.01 9.67 -10.02 9.34 -9 9 C-8.7525 8.4225 -8.505 7.845 -8.25 7.25 C-6.34399739 3.81919529 -3.23766852 2.11227572 0 0 Z " fill="#3C030E" transform="translate(297,399)"/>
<path d="M0 0 C-2.95258818 2.95258818 -6.39507627 2.7610796 -10.375 3.1875 C-11.14328125 3.28224609 -11.9115625 3.37699219 -12.703125 3.47460938 C-16.45806165 3.90012555 -19.33382476 4.08428234 -23 3 C-7.38113343 -2.1845507 -7.38113343 -2.1845507 0 0 Z " fill="#D2F4F4" transform="translate(319,341)"/>
<path d="M0 0 C5.36095277 1.58921525 10.70843973 3.18972938 16 5 C16 5.33 16 5.66 16 6 C12.37 6 8.74 6 5 6 C4.67 5.01 4.34 4.02 4 3 C2.68 3.33 1.36 3.66 0 4 C0 4.99 0 5.98 0 7 C-0.66 6.34 -1.32 5.68 -2 5 C-1.46428571 1.46428571 -1.46428571 1.46428571 0 0 Z " fill="#71B9BF" transform="translate(288,475)"/>
<path d="M0 0 C0 0.99 0 1.98 0 3 C1.093125 2.938125 2.18625 2.87625 3.3125 2.8125 C7 3 7 3 8.9375 4.375 C10 6 10 6 10 8 C11.32 8.33 12.64 8.66 14 9 C12 10 12 10 9.86328125 9.36328125 C4.66573601 7.22217915 -0.19670206 4.92374657 -5 2 C-2 0 -2 0 0 0 Z " fill="#79C8CD" transform="translate(481,273)"/>
<path d="M0 0 C0.33 0 0.66 0 1 0 C1.03738281 0.83402344 1.07476562 1.66804688 1.11328125 2.52734375 C1.48140246 8.82871269 2.06607661 14.3349569 4.4765625 20.1953125 C5 22 5 22 4 25 C-0.00390625 20.80078125 -0.00390625 20.80078125 -1 19 C-0.65625 16.75 -0.65625 16.75 0 14 C0.06701506 11.56333235 0.08528021 9.12498258 0.0625 6.6875 C0.04896484 4.80611328 0.04896484 4.80611328 0.03515625 2.88671875 C0.02355469 1.93410156 0.01195312 0.98148437 0 0 Z " fill="#BF3157" transform="translate(271,440)"/>
<path d="M0 0 C0.66 0.33 1.32 0.66 2 1 C-0.99929596 4.48433062 -4.48493777 5.44403093 -8.72265625 6.9375 C-11.31224464 7.90558013 -11.31224464 7.90558013 -13 11 C-14.32 10.67 -15.64 10.34 -17 10 C-12.01207964 5.65568227 -6.28928383 2.09642794 0 0 Z " fill="#D64C72" transform="translate(296,376)"/>
<path d="M0 0 C1.73017508 0.45451184 3.45909877 0.91378857 5.1875 1.375 C6.15042969 1.63023437 7.11335938 1.88546875 8.10546875 2.1484375 C10.82210207 2.94766296 13.39137175 3.9031362 16 5 C13 7 13 7 10.51953125 6.7578125 C9.62621094 6.54898437 8.73289062 6.34015625 7.8125 6.125 C6.91144531 5.92132813 6.01039063 5.71765625 5.08203125 5.5078125 C4.05142578 5.25644531 4.05142578 5.25644531 3 5 C3 4.34 3 3.68 3 3 C2.01 2.67 1.02 2.34 0 2 C0 1.34 0 0.68 0 0 Z " fill="#6EB4B7" transform="translate(472,262)"/>
<path d="M0 0 C2.96098245 3.24298078 4.02614625 6.70924903 5.30078125 10.81640625 C6.00697404 13.14716314 6.00697404 13.14716314 7.25 15.875 C8 18 8 18 7 21 C3.09831816 14.67658461 -0.74201139 7.66745098 0 0 Z " fill="#340109" transform="translate(433,214)"/>
<path d="M0 0 C1.32 0.33 2.64 0.66 4 1 C2.41058594 2.15628906 2.41058594 2.15628906 0.7890625 3.3359375 C-0.59902536 4.34886648 -1.98704253 5.36189236 -3.375 6.375 C-4.42300781 7.13683594 -4.42300781 7.13683594 -5.4921875 7.9140625 C-6.1625 8.40390625 -6.8328125 8.89375 -7.5234375 9.3984375 C-8.14138184 9.84880371 -8.75932617 10.29916992 -9.39599609 10.76318359 C-11.13460818 12.04914973 -11.13460818 12.04914973 -13 14 C-13.3125 11.6875 -13.3125 11.6875 -13 9 C-10.875 7.4375 -10.875 7.4375 -8 6 C-6.948125 5.278125 -5.89625 4.55625 -4.8125 3.8125 C-2 2 -2 2 0 2 C0 1.34 0 0.68 0 0 Z " fill="#7DC4C8" transform="translate(268,354)"/>
<path d="M0 0 C1.98 0.66 3.96 1.32 6 2 C2.63595782 4.24269478 -0.75716923 5.38655744 -4.5625 6.625 C-5.24763672 6.85445313 -5.93277344 7.08390625 -6.63867188 7.3203125 C-11.73272414 9 -11.73272414 9 -14 9 C-14 8.34 -14 7.68 -14 7 C-12.22934889 6.35366725 -10.45847247 5.7079517 -8.6875 5.0625 C-7.20830078 4.52302734 -7.20830078 4.52302734 -5.69921875 3.97265625 C-3.8079437 3.29114035 -1.90715671 2.6357189 0 2 C0 1.34 0 0.68 0 0 Z " fill="#05161A" transform="translate(282,323)"/>
<path d="M0 0 C1.47230195 2.34816041 2.06413673 3.53461766 1.6796875 6.32421875 C1.41414062 7.10410156 1.14859375 7.88398438 0.875 8.6875 C0.62492188 9.47511719 0.37484375 10.26273437 0.1171875 11.07421875 C-1 13 -1 13 -3.1171875 13.76953125 C-3.73851562 13.84558594 -4.35984375 13.92164063 -5 14 C-3.45730076 9.27934033 -1.92205381 4.58335908 0 0 Z " fill="#6EB3B6" transform="translate(219,380)"/>
<path d="M0 0 C-0.33 1.98 -0.66 3.96 -1 6 C-4.63 6 -8.26 6 -12 6 C-8.69727388 2.69727388 -4.86679267 0 0 0 Z " fill="#31030C" transform="translate(380,535)"/>
<path d="M0 0 C2.21003415 0.76594334 4.41795739 1.53797883 6.625 2.3125 C7.85476563 2.74175781 9.08453125 3.17101562 10.3515625 3.61328125 C13.70138291 4.88649993 16.82925245 6.33657706 20 8 C20 8.33 20 8.66 20 9 C18.02 9 16.04 9 14 9 C14 8.34 14 7.68 14 7 C13.27425781 7.0515625 12.54851562 7.103125 11.80078125 7.15625 C8.58408614 6.976797 6.93384423 6.13960849 4.1875 4.5 C3.39730469 4.0359375 2.60710937 3.571875 1.79296875 3.09375 C1.20128906 2.7328125 0.60960937 2.371875 0 2 C0 1.34 0 0.68 0 0 Z " fill="#3E030D" transform="translate(460,332)"/>
<path d="M0 0 C1.3185732 4.02797017 0.568989 6.38841358 -0.96484375 10.2265625 C-2 12 -2 12 -4.6875 13.5 C-5.450625 13.665 -6.21375 13.83 -7 14 C-5.23570801 9.02790438 -2.6060834 4.56561939 0 0 Z " fill="#DB3D68" transform="translate(406,474)"/>
<path d="M0 0 C1.32 0 2.64 0 4 0 C4.66 3.63 5.32 7.26 6 11 C5.01 10.67 4.02 10.34 3 10 C1.25327015 6.5065403 0 3.93154432 0 0 Z " fill="#F11854" transform="translate(425,207)"/>
<path d="M0 0 C0.33 0 0.66 0 1 0 C0.67 2.97 0.34 5.94 0 9 C-1.65 9.33 -3.3 9.66 -5 10 C-5.33 11.32 -5.66 12.64 -6 14 C-6.99 13.67 -7.98 13.34 -9 13 C-8.43410156 12.22914063 -7.86820312 11.45828125 -7.28515625 10.6640625 C-6.55167969 9.66117187 -5.81820313 8.65828125 -5.0625 7.625 C-4.33160156 6.62726563 -3.60070312 5.62953125 -2.84765625 4.6015625 C-1.0220431 2.17182891 -1.0220431 2.17182891 0 0 Z " fill="#3C030D" transform="translate(415,498)"/>
<path d="M0 0 C-0.83144531 0.48210937 -1.66289062 0.96421875 -2.51953125 1.4609375 C-3.60621094 2.09257812 -4.69289063 2.72421875 -5.8125 3.375 C-6.89144531 4.00148438 -7.97039062 4.62796875 -9.08203125 5.2734375 C-11.08831093 6.46055346 -13.06034059 7.70689373 -15 9 C-14.80078125 6.6796875 -14.80078125 6.6796875 -14 4 C-11.85546875 2.3828125 -11.85546875 2.3828125 -9.1875 1.125 C-8.31480469 0.69445312 -7.44210937 0.26390625 -6.54296875 -0.1796875 C-3.81906883 -1.05836489 -2.63555368 -0.99524405 0 0 Z " fill="#C5214C" transform="translate(306,395)"/>
<path d="M0 0 C0.33 0.99 0.66 1.98 1 3 C1.66 3 2.32 3 3 3 C3 3.66 3 4.32 3 5 C2.401875 5.556875 1.80375 6.11375 1.1875 6.6875 C-0.8378302 8.82856335 -1.56717215 10.04021798 -2.625 12.6875 C-4 16 -4 16 -6 17 C-4.33846988 11.14340094 -2.52958084 5.5409866 0 0 Z " fill="#E1F8FA" transform="translate(233,395)"/>
<path d="M0 0 C1.58468677 0.45363171 3.16769924 0.91311452 4.75 1.375 C5.63171875 1.63023437 6.5134375 1.88546875 7.421875 2.1484375 C9.76080572 2.9209934 11.83442562 3.83625676 14 5 C11.70890403 5.08075665 9.41700733 5.13907731 7.125 5.1875 C5.21074219 5.23970703 5.21074219 5.23970703 3.2578125 5.29296875 C2.18273437 5.19628906 1.10765625 5.09960938 0 5 C-0.66 4.01 -1.32 3.02 -2 2 C-1.34 2 -0.68 2 0 2 C0 1.34 0 0.68 0 0 Z " fill="#DA325E" transform="translate(458,320)"/>
<path d="M0 0 C0.33 0 0.66 0 1 0 C1.1079859 2.43868168 1.18726589 4.87259133 1.25 7.3125 C1.28351563 8.00279297 1.31703125 8.69308594 1.3515625 9.40429688 C1.390625 11.42578125 1.390625 11.42578125 1 15 C-1.015625 16.98046875 -1.015625 16.98046875 -3 18 C-2.19500136 11.96251023 -1.11517502 5.98729887 0 0 Z " fill="#430511" transform="translate(429,458)"/>
<path d="M0 0 C-1.32 0.33 -2.64 0.66 -4 1 C-4 1.66 -4 2.32 -4 3 C-5.57914015 3.53341184 -7.16354387 4.05125763 -8.75 4.5625 C-9.63171875 4.85253906 -10.5134375 5.14257812 -11.421875 5.44140625 C-14.07834316 6.01697435 -15.47031106 5.89248371 -18 5 C-12.80597029 1.48146374 -6.27276333 -2.10514506 0 0 Z " fill="#D1F5F5" transform="translate(296,346)"/>
<path d="M0 0 C-0.39143023 2.27029534 -0.88741278 3.83408198 -2.1875 5.75 C-4.78687216 7.54267046 -6.92339216 7.20510719 -10 7 C-3.18421053 0 -3.18421053 0 0 0 Z " fill="#1C0001" transform="translate(390,528)"/>
<path d="M0 0 C4.13333333 6.2 4.13333333 6.2 3.625 9.25 C3.41875 9.8275 3.2125 10.405 3 11 C1.68 11.33 0.36 11.66 -1 12 C-1.14285714 3.42857143 -1.14285714 3.42857143 0 0 Z " fill="#78CAD0" transform="translate(221,462)"/>
<path d="M0 0 C-0.33 0.99 -0.66 1.98 -1 3 C-1.66 3 -2.32 3 -3 3 C-3.0825 3.763125 -3.165 4.52625 -3.25 5.3125 C-4.15269355 8.54715191 -5.13593461 9.35099265 -8 11 C-8.66 11 -9.32 11 -10 11 C-8.73396788 6.69549079 -5.08358566 0 0 0 Z " fill="#D63E68" transform="translate(279,387)"/>
<path d="M0 0 C-1.375 2.4375 -1.375 2.4375 -4 5 C-7.32585166 5.74023658 -10.59914435 5.92860799 -14 6 C-11.72698066 3.45655714 -9.54913519 2.12383563 -6.4375 0.75 C-5.65246094 0.39421875 -4.86742187 0.0384375 -4.05859375 -0.328125 C-2 -1 -2 -1 0 0 Z " fill="#5FA3A5" transform="translate(275,331)"/>
<path d="M0 0 C1.27609323 0.90933009 2.54565553 1.82782853 3.8125 2.75 C4.87404297 3.51570313 4.87404297 3.51570313 5.95703125 4.296875 C8.02977691 6.02482358 9.47375854 7.78526476 11 10 C6.23556432 8.90051484 2.96463825 8.03190802 0 4 C0 2.68 0 1.36 0 0 Z " fill="#330109" transform="translate(440,316)"/>
<path d="M0 0 C0.99 0 1.98 0 3 0 C3.66 1.32 4.32 2.64 5 4 C6.32 4 7.64 4 9 4 C9.66 6.31 10.32 8.62 11 11 C6.49966502 8.61746972 3.41066025 5.72793097 0 2 C0 1.34 0 0.68 0 0 Z " fill="#F5D4DF" transform="translate(237,498)"/>
<path d="M0 0 C1.32 0.33 2.64 0.66 4 1 C2.90353942 2.79639296 1.79754852 4.58697154 0.6875 6.375 C-0.23482422 7.87160156 -0.23482422 7.87160156 -1.17578125 9.3984375 C-3 12 -3 12 -6 14 C-5.35494404 10.51669784 -4.01782732 7.90567134 -2 5 C-1.34 5 -0.68 5 0 5 C0 3.35 0 1.7 0 0 Z " fill="#CA2751" transform="translate(412,497)"/>
<path d="M0 0 C2.20914 3.31371 2.22481553 4.3446021 2.125 8.1875 C2.10695312 9.08855469 2.08890625 9.98960937 2.0703125 10.91796875 C2.03550781 11.94857422 2.03550781 11.94857422 2 13 C-0.97126708 10.28922757 -1.88243734 7.86848614 -3 4 C-2.34 3.67 -1.68 3.34 -1 3 C-0.67 2.01 -0.34 1.02 0 0 Z " fill="#70B9C1" transform="translate(223,470)"/>
<path d="M0 0 C0.33 0 0.66 0 1 0 C1.625 2.8125 1.625 2.8125 2 6 C1.01 7.485 1.01 7.485 0 9 C-0.66 9 -1.32 9 -2 9 C-2 8.01 -2 7.02 -2 6 C-3.65 6.66 -5.3 7.32 -7 8 C-6.02133662 6.85373678 -5.04205413 5.70800212 -4.0625 4.5625 C-3.51722656 3.92441406 -2.97195313 3.28632813 -2.41015625 2.62890625 C-1.63204305 1.73008851 -0.84063472 0.84063472 0 0 Z " fill="#6DC0C4" transform="translate(358,459)"/>
<path d="M0 0 C3.64566186 0.98531402 4.80178732 1.68946681 6.875 4.9375 C8 8 8 8 7 11 C5.82750647 9.54634731 4.66216184 8.08692581 3.5 6.625 C2.52546875 5.40683594 2.52546875 5.40683594 1.53125 4.1640625 C0 2 0 2 0 0 Z " fill="#C03860" transform="translate(431,224)"/>
<path d="M0 0 C0 0.33 0 0.66 0 1 C-2.22844214 1.6483289 -4.4577846 2.29356369 -6.6875 2.9375 C-8.54955078 3.47697266 -8.54955078 3.47697266 -10.44921875 4.02734375 C-13.29639862 4.80726431 -16.09802254 5.47287216 -19 6 C-19 5.34 -19 4.68 -19 4 C-16.96185767 3.32263519 -14.91929445 2.65856466 -12.875 2 C-11.73804688 1.62875 -10.60109375 1.2575 -9.4296875 0.875 C-6.12104059 0.03088051 -3.39471984 -0.16509276 0 0 Z " fill="#86CACE" transform="translate(304,342)"/>
<path d="M0 0 C1.27310312 0.93441535 2.543388 1.87267111 3.8125 2.8125 C4.52019531 3.33457031 5.22789062 3.85664063 5.95703125 4.39453125 C7.78531393 5.83128877 9.39896688 7.31815763 11 9 C10.34 9 9.68 9 9 9 C8.67 9.66 8.34 10.32 8 11 C6.66072279 9.54712339 5.32873153 8.08752741 4 6.625 C3.2575 5.81289062 2.515 5.00078125 1.75 4.1640625 C0 2 0 2 0 0 Z " fill="#87BEBD" transform="translate(445,244)"/>
<path d="M0 0 C4.71403788 0.47939368 8.66579301 0.96834048 13 3 C13 3.33 13 3.66 13 4 C8.48382401 4.07654536 4.40914783 4.10228696 0 3 C0 2.01 0 1.02 0 0 Z " fill="#DB2C59" transform="translate(272,525)"/>
<path d="M0 0 C0.59296875 0.20238281 1.1859375 0.40476562 1.796875 0.61328125 C0.38520614 1.59963962 -1.03268684 2.5770938 -2.453125 3.55078125 C-3.63648438 4.36869141 -3.63648438 4.36869141 -4.84375 5.203125 C-7.02949493 6.50950566 -8.7185051 7.16308636 -11.203125 7.61328125 C-10.873125 6.62328125 -10.543125 5.63328125 -10.203125 4.61328125 C-9.543125 4.94328125 -8.883125 5.27328125 -8.203125 5.61328125 C-8.203125 4.95328125 -8.203125 4.29328125 -8.203125 3.61328125 C-2.99894173 -0.52640999 -2.99894173 -0.52640999 0 0 Z " fill="#FDDBE9" transform="translate(373.203125,511.38671875)"/>
<path d="M0 0 C1.32 0.33 2.64 0.66 4 1 C-6.37357631 7.51936219 -6.37357631 7.51936219 -12 9 C-12 8.34 -12 7.68 -12 7 C-10.75264433 6.3490741 -9.50198168 5.70448331 -8.25 5.0625 C-7.55390625 4.70285156 -6.8578125 4.34320312 -6.140625 3.97265625 C-4.09775567 3.04441818 -2.18884624 2.46833422 0 2 C0 1.34 0 0.68 0 0 Z " fill="#C82452" transform="translate(380,531)"/>
<path d="M0 0 C0.33 0.66 0.66 1.32 1 2 C0.06553465 4.03144641 -0.93224776 6.03533587 -2 8 C-2.99 8 -3.98 8 -5 8 C-5.66 9.32 -6.32 10.64 -7 12 C-7.66 11.67 -8.32 11.34 -9 11 C-6.03 7.37 -3.06 3.74 0 0 Z " fill="#D53E68" transform="translate(398,488)"/>
<path d="M0 0 C0.8971875 0.309375 0.8971875 0.309375 1.8125 0.625 C-0.375 3.1875 -0.375 3.1875 -3.1875 5.625 C-6 5.4375 -6 5.4375 -8.1875 4.625 C-3.2421875 -0.55580357 -3.2421875 -0.55580357 0 0 Z " fill="#72BBBE" transform="translate(346.1875,471.375)"/>
<path d="M0 0 C0.12375 0.639375 0.2475 1.27875 0.375 1.9375 C0.684375 2.9584375 0.684375 2.9584375 1 4 C1.66 4.33 2.32 4.66 3 5 C2.525625 5.4125 2.05125 5.825 1.5625 6.25 C-0.15276627 7.89078817 -0.15276627 7.89078817 -0.5 10.125 C-0.665 10.74375 -0.83 11.3625 -1 12 C-1.99 12.33 -2.98 12.66 -4 13 C-3.52343588 11.20763933 -3.04366502 9.41613103 -2.5625 7.625 C-2.29566406 6.62726563 -2.02882813 5.62953125 -1.75390625 4.6015625 C-1 2 -1 2 0 0 Z " fill="#D7F3F6" transform="translate(380,456)"/>
<path d="M0 0 C2.00993705 3.01490557 2.72623341 5.2149927 3.625 8.6875 C3.88539063 9.68136719 4.14578125 10.67523438 4.4140625 11.69921875 C4.60742188 12.45847656 4.80078125 13.21773438 5 14 C2.69 13.01 0.38 12.02 -2 11 C-1.34 10.67 -0.68 10.34 0 10 C0 6.7 0 3.4 0 0 Z " fill="#F7D1DB" transform="translate(260,437)"/>
<path d="M0 0 C8.57142857 1.71428571 8.57142857 1.71428571 12 6 C10.265625 6.6796875 10.265625 6.6796875 8 7 C5.859375 5.8203125 5.859375 5.8203125 3.75 4.125 C3.04359375 3.57070312 2.3371875 3.01640625 1.609375 2.4453125 C1.07828125 1.96835938 0.5471875 1.49140625 0 1 C0 0.67 0 0.34 0 0 Z " fill="#0D1D24" transform="translate(452,249)"/>
<path d="M0 0 C6.93 0.495 6.93 0.495 14 1 C14 1.99 14 2.98 14 4 C9.03083364 3.48594831 4.70973649 2.76615118 0 1 C0 0.67 0 0.34 0 0 Z " fill="#AB1B40" transform="translate(294,544)"/>
<path d="M0 0 C0.66 0 1.32 0 2 0 C3.5078125 1.75 3.5078125 1.75 5.125 4 C5.66382813 4.7425 6.20265625 5.485 6.7578125 6.25 C7.16773438 6.8275 7.57765625 7.405 8 8 C7.01 8.66 6.02 9.32 5 10 C4.15801693 8.90241493 3.32669329 7.79664683 2.5 6.6875 C2.0359375 6.07261719 1.571875 5.45773437 1.09375 4.82421875 C0 3 0 3 0 0 Z " fill="#DDEFEE" transform="translate(231,489)"/>
<path d="M0 0 C0 0.66 0 1.32 0 2 C-4.0188515 3.81242323 -7.61110675 5.33501617 -12 6 C-12 5.01 -12 4.02 -12 3 C-10.56445975 2.49440092 -9.1264798 1.9957251 -7.6875 1.5 C-6.88699219 1.2215625 -6.08648437 0.943125 -5.26171875 0.65625 C-3 0 -3 0 0 0 Z " fill="#6CB1B7" transform="translate(288,326)"/>
<path d="M0 0 C4.43090471 1.20842856 6.98112756 2.51668565 10 6 C7.69 6 5.38 6 3 6 C3 5.01 3 4.02 3 3 C2.01 2.67 1.02 2.34 0 2 C0 1.34 0 0.68 0 0 Z " fill="#F21953" transform="translate(253,516)"/>
<path d="M0 0 C-0.5 1.8125 -0.5 1.8125 -2 4 C-4.5863924 5.26152609 -7.25200829 6.15643045 -10 7 C-10.66 6.34 -11.32 5.68 -12 5 C-10.37750059 4.16180842 -8.75191503 3.3295884 -7.125 2.5 C-6.22007812 2.0359375 -5.31515625 1.571875 -4.3828125 1.09375 C-2 0 -2 0 0 0 Z " fill="#D5F4F6" transform="translate(356,490)"/>
<path d="M0 0 C0.33 0 0.66 0 1 0 C1.37026648 7.52875175 1.37026648 7.52875175 -0.375 9.75 C-1.179375 10.36875 -1.179375 10.36875 -2 11 C-3.17574711 13.09989652 -3.17574711 13.09989652 -4 15 C-5 13 -5 13 -4.00390625 9.9609375 C-3.52824219 8.77757812 -3.05257813 7.59421875 -2.5625 6.375 C-2.08941406 5.18648438 -1.61632812 3.99796875 -1.12890625 2.7734375 C-0.75636719 1.85820312 -0.38382812 0.94296875 0 0 Z " fill="#440311" transform="translate(425,476)"/>
<path d="M0 0 C0.33 0.99 0.66 1.98 1 3 C0.01 4.485 0.01 4.485 -1 6 C-1.66 6 -2.32 6 -3 6 C-3.33 6.99 -3.66 7.98 -4 9 C-5 6 -5 6 -5 2 C-3.35 1.34 -1.7 0.68 0 0 Z " fill="#051217" transform="translate(231,359)"/>
<path d="M0 0 C3.83907326 -0.21937561 6.59369827 0.15875582 10 2 C11.3125 4.125 11.3125 4.125 12 6 C7.76570244 4.68938409 3.92592596 3.05643741 0 1 C0 0.67 0 0.34 0 0 Z " fill="#FDDCE8" transform="translate(450,315)"/>
<path d="M0 0 C2.64 0.33 5.28 0.66 8 1 C7.67 1.99 7.34 2.98 7 4 C5.35 4 3.7 4 2 4 C1.34 2.68 0.68 1.36 0 0 Z " fill="#F6184F" transform="translate(272,528)"/>
<path d="M0 0 C0.66 0 1.32 0 2 0 C0.4169423 4.2742558 -2.50568404 6.26531794 -6 9 C-5.42415568 6.61435923 -4.77772405 4.33317216 -4 2 C-2.68 2 -1.36 2 0 2 C0 1.34 0 0.68 0 0 Z " fill="#C1244B" transform="translate(400,515)"/>
<path d="M0 0 C-3.87671106 2.67289025 -7.79267603 2.01875653 -12.25 1.625 C-12.99507813 1.56828125 -13.74015625 1.5115625 -14.5078125 1.453125 C-16.33935108 1.31223742 -18.16981352 1.15748116 -20 1 C-20 0.67 -20 0.34 -20 0 C-17.41703983 -0.19522373 -14.83395921 -0.38144403 -12.25 -0.5625 C-11.52039063 -0.61857422 -10.79078125 -0.67464844 -10.0390625 -0.73242188 C-6.45046349 -0.97709908 -3.44972775 -0.99666259 0 0 Z " fill="#D7F3F9" transform="translate(340,498)"/>
<path d="M0 0 C1.32 0.33 2.64 0.66 4 1 C-0.455 4.465 -0.455 4.465 -5 8 C-5 7.01 -5 6.02 -5 5 C-4.34 5 -3.68 5 -3 5 C-3 4.01 -3 3.02 -3 2 C-2.01 1.34 -1.02 0.68 0 0 Z " fill="#0A1E23" transform="translate(348,465)"/>
<path d="M0 0 C-0.66 0 -1.32 0 -2 0 C-2 0.66 -2 1.32 -2 2 C-2.99 2 -3.98 2 -5 2 C-5 2.66 -5 3.32 -5 4 C-6.98 4 -8.96 4 -11 4 C-7.64918101 0.31409911 -4.96535219 -1.77334007 0 0 Z " fill="#450512" transform="translate(310,395)"/>
<path d="M0 0 C0.66 0.66 1.32 1.32 2 2 C2.99 1.67 3.98 1.34 5 1 C4.34 3.97 3.68 6.94 3 10 C1.19669467 6.39338934 0.53400897 3.91606575 0 0 Z " fill="#041014" transform="translate(210,388)"/>
<path d="M0 0 C-1.78881736 1.00508801 -3.58114696 2.00392736 -5.375 3 C-6.37273437 3.556875 -7.37046875 4.11375 -8.3984375 4.6875 C-11 6 -11 6 -13 6 C-13 5.34 -13 4.68 -13 4 C-11.40233897 3.13372601 -9.79660056 2.28233535 -8.1875 1.4375 C-7.29417969 0.96183594 -6.40085937 0.48617188 -5.48046875 -0.00390625 C-3 -1 -3 -1 0 0 Z " fill="#78C5C4" transform="translate(285,348)"/>
<path d="M0 0 C0.33 0 0.66 0 1 0 C1 2.64 1 5.28 1 8 C-3.95 8 -8.9 8 -14 8 C-14 7.67 -14 7.34 -14 7 C-8.06 6.505 -8.06 6.505 -2 6 C-1.34 4.02 -0.68 2.04 0 0 Z " fill="#D22854" transform="translate(514,336)"/>
<path d="M0 0 C3.94727588 -0.17942163 6.5980513 -0.09350689 10 2 C10 2.99 10 3.98 10 5 C8.51800098 4.55090939 7.03944764 4.09043436 5.5625 3.625 C4.73878906 3.36976563 3.91507812 3.11453125 3.06640625 2.8515625 C1 2 1 2 0 0 Z " fill="#B31E44" transform="translate(277,537)"/>
<path d="M0 0 C0.66 0.33 1.32 0.66 2 1 C-0.54456151 3.96865509 -3.48994665 5.3619751 -7 7 C-7 5.68 -7 4.36 -7 3 C-4.69631264 1.93347808 -2.35981813 0.93578995 0 0 Z " fill="#CE2351" transform="translate(391,524)"/>
<path d="M0 0 C0.66 0 1.32 0 2 0 C0.80805531 5.52628901 -0.5991297 8.17819158 -5 12 C-5 10.68 -5 9.36 -5 8 C-4.01 7.34 -3.02 6.68 -2 6 C-0.78715124 2.94570927 -0.78715124 2.94570927 0 0 Z " fill="#7AC5C8" transform="translate(373,467)"/>
<path d="M0 0 C5.41390868 0.46671627 9.20517932 1.24297811 14 4 C14 4.66 14 5.32 14 6 C13.360625 5.731875 12.72125 5.46375 12.0625 5.1875 C8.08797739 3.64635858 4.05115505 2.32390688 0 1 C0 0.67 0 0.34 0 0 Z " fill="#C3214A" transform="translate(465,334)"/>
<path d="M0 0 C2.64 0 5.28 0 8 0 C8 1.98 8 3.96 8 6 C1.125 2.25 1.125 2.25 0 0 Z " fill="#F6D5DF" transform="translate(436,306)"/>
<path d="M0 0 C2.64 1.32 5.28 2.64 8 4 C6.02 4.99 6.02 4.99 4 6 C2.02 4.68 0.04 3.36 -2 2 C-1.34 1.34 -0.68 0.68 0 0 Z " fill="#FCE2E8" transform="translate(254,511)"/>
<path d="M0 0 C0.99 0.66 1.98 1.32 3 2 C-0.465 4.97 -0.465 4.97 -4 8 C-3.50168276 4.31245243 -2.89932357 2.39509338 0 0 Z " fill="#FCD8E4" transform="translate(388,496)"/>
<path d="M0 0 C2.46301423 2.46301423 2.76766521 4.27360036 3.625 7.625 C3.88539063 8.62789063 4.14578125 9.63078125 4.4140625 10.6640625 C4.60742188 11.43492187 4.80078125 12.20578125 5 13 C4.34 12.67 3.68 12.34 3 12 C3 11.01 3 10.02 3 9 C2.34 9 1.68 9 1 9 C-0.4783226 6.04335481 -0.06032783 3.25770263 0 0 Z " fill="#112D30" transform="translate(212,456)"/>
<path d="M0 0 C2.97 0.495 2.97 0.495 6 1 C3.525 4.465 3.525 4.465 1 8 C0 4 0 4 0 0 Z " fill="#7CCACE" transform="translate(240,376)"/>
<path d="M0 0 C0.66 0 1.32 0 2 0 C2 0.66 2 1.32 2 2 C1.34 2 0.68 2 0 2 C-0.2475 2.598125 -0.495 3.19625 -0.75 3.8125 C-2.16370012 6.28647521 -3.65055383 7.43370255 -6 9 C-6.66 8.67 -7.32 8.34 -8 8 C-6.71034824 6.62437146 -5.37310707 5.29233607 -4 4 C-3.34 4 -2.68 4 -2 4 C-1.34 2.68 -0.68 1.36 0 0 Z " fill="#D2F2F5" transform="translate(258,364)"/>
<path d="M0 0 C-0.5 1.875 -0.5 1.875 -2 4 C-4.65177645 4.98494554 -7.20547307 5.45912382 -10 6 C-4.4 0 -4.4 0 0 0 Z " fill="#CEF1F3" transform="translate(278,352)"/>
<path d="M0 0 C-0.8125 1.9375 -0.8125 1.9375 -2 4 C-5.08558124 5.02852708 -6.77356651 5 -10 5 C-4.5 0 -4.5 0 0 0 Z " fill="#62AFAF" transform="translate(253,344)"/>
<path d="M0 0 C2.31 0.66 4.62 1.32 7 2 C7 2.99 7 3.98 7 5 C7.66 5 8.32 5 9 5 C9 5.66 9 6.32 9 7 C5.07353523 5.69117841 2.72225079 4.1255472 0 1 C0 0.67 0 0.34 0 0 Z " fill="#80C7CD" transform="translate(463,264)"/>
<path d="M0 0 C0.99 0.33 1.98 0.66 3 1 C0.76592111 4.35111834 -0.26215824 5.81553956 -4.25 6.8125 C-5.61125 6.9053125 -5.61125 6.9053125 -7 7 C-4.66666667 4.66666667 -2.33333333 2.33333333 0 0 Z " fill="#E81E56" transform="translate(377,511)"/>
<path d="M0 0 C1.28222189 3.03070628 0.98589446 4.03596914 -0.25 7.1875 C-2 10 -2 10 -5 11 C-3.55049545 7.2089881 -1.84827434 3.6125362 0 0 Z " fill="#6AB1B3" transform="translate(364,448)"/>
<path d="M0 0 C0.99 0 1.98 0 3 0 C1.89470285 4.50621146 1.34905453 6.65094547 -2 10 C-1.34 6.7 -0.68 3.4 0 0 Z " fill="#64A9AC" transform="translate(212,398)"/>
<path d="M0 0 C0.99 0.33 1.98 0.66 3 1 C-0.96 4.465 -0.96 4.465 -5 8 C-5.33 7.01 -5.66 6.02 -6 5 C-5.01 4.67 -4.02 4.34 -3 4 C-3 3.34 -3 2.68 -3 2 C-2.01 1.34 -1.02 0.68 0 0 Z " fill="#FDDCE8" transform="translate(279,383)"/>
<path d="M0 0 C2.52588702 2.36292656 3.88820837 3.66462511 5 7 C4.01 7 3.02 7 2 7 C1.34 7.99 0.68 8.98 0 10 C0 6.7 0 3.4 0 0 Z " fill="#380107" transform="translate(431,304)"/>
<path d="M0 0 C5 7.5 5 7.5 5 11 C4.01 11.33 3.02 11.66 2 12 C1.1031286 9.3093858 0.72140874 7.11102904 0.4375 4.3125 C0.35371094 3.50425781 0.26992188 2.69601563 0.18359375 1.86328125 C0.12300781 1.24839844 0.06242187 0.63351563 0 0 Z " fill="#F8CFDB" transform="translate(424,211)"/>
<path d="M0 0 C3.3 0.33 6.6 0.66 10 1 C10.33 1.99 10.66 2.98 11 4 C7.0507432 3.44894091 3.65079826 2.61064629 0 1 C0 0.67 0 0.34 0 0 Z " fill="#FCD5E0" transform="translate(269,522)"/>
<path d="M0 0 C1.6510403 0.39553053 3.2958515 0.81713897 4.9375 1.25 C5.85402344 1.48203125 6.77054687 1.7140625 7.71484375 1.953125 C10 3 10 3 10.81640625 5.109375 C10.87699219 5.73328125 10.93757813 6.3571875 11 7 C6.89188572 5.55007731 3.53144334 3.54592427 0 1 C0 0.67 0 0.34 0 0 Z " fill="#8ACCD1" transform="translate(292,486)"/>
<path d="M0 0 C0.66 0 1.32 0 2 0 C0.25 7.625 0.25 7.625 -2 11 C-2.28571429 3.57142857 -2.28571429 3.57142857 0 0 Z " fill="#83C8CB" transform="translate(225,410)"/>
<path d="M0 0 C5.75 -0.125 5.75 -0.125 8 1 C8 1.66 8 2.32 8 3 C9.32 3.33 10.64 3.66 12 4 C10 5 10 5 7.6171875 4.22265625 C6.71226562 3.83980469 5.80734375 3.45695312 4.875 3.0625 C3.50988281 2.49208984 3.50988281 2.49208984 2.1171875 1.91015625 C1.41851562 1.60980469 0.71984375 1.30945313 0 1 C0 0.67 0 0.34 0 0 Z " fill="#91CCD0" transform="translate(483,278)"/>
<path d="M0 0 C0.33 1.32 0.66 2.64 1 4 C-1.375 5.5625 -1.375 5.5625 -4 7 C-4.66 6.67 -5.32 6.34 -6 6 C-4.02 4.02 -2.04 2.04 0 0 Z " fill="#D42E5C" transform="translate(388,500)"/>
<path d="M0 0 C1.65 1.65 3.3 3.3 5 5 C4.67 5.99 4.34 6.98 4 8 C3.34 8 2.68 8 2 8 C0.23537317 4.91190305 0 3.76687864 0 0 Z " fill="#0D1F26" transform="translate(224,483)"/>
<path d="M0 0 C3 2 3 2 3.51171875 3.9453125 C3.67447917 5.96354167 3.83723958 7.98177083 4 10 C1.2027092 7.93243723 0.97307727 6.85559629 0.3125 3.3125 C0.209375 2.219375 0.10625 1.12625 0 0 Z " fill="#68ACB3" transform="translate(216,464)"/>
<path d="M0 0 C2.97 0 5.94 0 9 0 C8.67 0.66 8.34 1.32 8 2 C6.35 1.67 4.7 1.34 3 1 C3 1.99 3 2.98 3 4 C2.01 4.33 1.02 4.66 0 5 C0 3.35 0 1.7 0 0 Z " fill="#E81C52" transform="translate(321,342)"/>
<path d="M0 0 C-1 1.5625 -1 1.5625 -3 3 C-5.76614782 2.96726452 -8.26030547 2.49404328 -11 2 C-11 1.67 -11 1.34 -11 1 C-7.26562152 0.12132271 -3.83225427 -0.08912219 0 0 Z " fill="#64A6AE" transform="translate(299,324)"/>
<path d="M0 0 C1.22589844 0.15275391 1.22589844 0.15275391 2.4765625 0.30859375 C3.41628906 0.43427734 3.41628906 0.43427734 4.375 0.5625 C4.375 0.8925 4.375 1.2225 4.375 1.5625 C0.745 1.8925 -2.885 2.2225 -6.625 2.5625 C-6.625 1.9025 -6.625 1.2425 -6.625 0.5625 C-4.10446405 -0.69776798 -2.7707902 -0.35624445 0 0 Z " fill="#051A1F" transform="translate(294.625,322.4375)"/>
<path d="M0 0 C0.99 0 1.98 0 3 0 C3.33 0.66 3.66 1.32 4 2 C4.99 2.33 5.98 2.66 7 3 C7 3.66 7 4.32 7 5 C4.03 4.505 4.03 4.505 1 4 C0.67 2.68 0.34 1.36 0 0 Z " fill="#ED1A53" transform="translate(445,315)"/>
<path d="M0 0 C1.98 1.65 3.96 3.3 6 5 C5.34 5.66 4.68 6.32 4 7 C3.01 7 2.02 7 1 7 C0.67 4.69 0.34 2.38 0 0 Z " fill="#DC3261" transform="translate(425,296)"/>
<path d="M0 0 C2.31 1.98 4.62 3.96 7 6 C6.67 6.99 6.34 7.98 6 9 C4.99406757 7.8803014 3.9954151 6.7540588 3 5.625 C2.443125 4.99851562 1.88625 4.37203125 1.3125 3.7265625 C0 2 0 2 0 0 Z " fill="#A63153" transform="translate(239,502)"/>
<path d="M0 0 C0.66 0 1.32 0 2 0 C2.25 2.8125 2.25 2.8125 2 6 C0 7.875 0 7.875 -2 9 C-1.34 6.03 -0.68 3.06 0 0 Z " fill="#68A4AB" transform="translate(367,438)"/>
<path d="M0 0 C1.43088528 2.86177057 0.59991697 4.93375773 0 8 C-0.66 8 -1.32 8 -2 8 C-2.33 8.99 -2.66 9.98 -3 11 C-3.33 10.34 -3.66 9.68 -4 9 C-3.22265625 6.8359375 -3.22265625 6.8359375 -2.0625 4.375 C-1.68222656 3.55773437 -1.30195313 2.74046875 -0.91015625 1.8984375 C-0.60980469 1.27195312 -0.30945313 0.64546875 0 0 Z " fill="#4A0513" transform="translate(278,420)"/>
<path d="M0 0 C0.99 0.33 1.98 0.66 3 1 C2.195625 1.45375 1.39125 1.9075 0.5625 2.375 C-2.08856572 3.74725665 -2.08856572 3.74725665 -3 6 C-4.32 5.67 -5.64 5.34 -7 5 C-2.25 1.125 -2.25 1.125 0 0 Z " fill="#D13560" transform="translate(286,381)"/>
<path d="M0 0 C4.16138263 -0.08159574 7.9472484 0.01751476 12 1 C12 1.33 12 1.66 12 2 C4.61538462 3.35384615 4.61538462 3.35384615 1.5 1.5625 C1.005 1.046875 0.51 0.53125 0 0 Z " fill="#DB2355" transform="translate(299,532)"/>
<path d="M0 0 C1.65 1.32 3.3 2.64 5 4 C4.67 4.66 4.34 5.32 4 6 C2.35 6 0.7 6 -1 6 C-0.67 4.02 -0.34 2.04 0 0 Z " fill="#1E2A2F" transform="translate(229,490)"/>
<path d="M0 0 C3.36720387 1.39332574 4.9859524 2.9789286 7 6 C6.34 6.66 5.68 7.32 5 8 C2 4.25 2 4.25 2 2 C1.34 2 0.68 2 0 2 C0 1.34 0 0.68 0 0 Z " fill="#AB3757" transform="translate(430,302)"/>
<path d="M0 0 C2.375 0.25 2.375 0.25 5 1 C6.3125 3.0625 6.3125 3.0625 7 5 C6.01 5 5.02 5 4 5 C1.8125 2.5 1.8125 2.5 0 0 Z " fill="#FCE1E9" transform="translate(426,296)"/>
<path d="M0 0 C0.99 0.495 0.99 0.495 2 1 C2 1.66 2 2.32 2 3 C2.61875 3.28875 3.2375 3.5775 3.875 3.875 C6 5 6 5 8 7 C5.03 6.505 5.03 6.505 2 6 C1.34 4.02 0.68 2.04 0 0 Z " fill="#D8F6F8" transform="translate(462,264)"/>
<path d="M0 0 C5.875 4.625 5.875 4.625 7 8 C6.34 8 5.68 8 5 8 C5 7.34 5 6.68 5 6 C3.68 5.67 2.36 5.34 1 5 C0.67 3.35 0.34 1.7 0 0 Z " fill="#C9F1F5" transform="translate(450,252)"/>
<path d="M0 0 C2.66735273 2.48952921 4.55746343 4.63408134 6 8 C4.35 7.67 2.7 7.34 1 7 C0.67 4.69 0.34 2.38 0 0 Z " fill="#FCDAE6" transform="translate(431,226)"/>
<path d="M0 0 C0.66 0.33 1.32 0.66 2 1 C-0.25 3.5625 -0.25 3.5625 -3 6 C-4.32 5.67 -5.64 5.34 -7 5 C-4.69 3.35 -2.38 1.7 0 0 Z " fill="#5A0617" transform="translate(388,528)"/>
<path d="M0 0 C1.65 1.65 3.3 3.3 5 5 C4.67 5.99 4.34 6.98 4 8 C2 6.25 2 6.25 0 4 C0 2.68 0 1.36 0 0 Z " fill="#2E1A1F" transform="translate(234,496)"/>
<path d="M0 0 C2.31 0.66 4.62 1.32 7 2 C6.67 2.66 6.34 3.32 6 4 C4.35 3.67 2.7 3.34 1 3 C0.67 2.01 0.34 1.02 0 0 Z " fill="#E7FCFD" transform="translate(314,497)"/>
<path d="M0 0 C0.66 1.32 1.32 2.64 2 4 C0.35 5.32 -1.3 6.64 -3 8 C-3.66 7.67 -4.32 7.34 -5 7 C-3.35 4.69 -1.7 2.38 0 0 Z " fill="#D7F7F6" transform="translate(373,472)"/>
<path d="M0 0 C0.66 0 1.32 0 2 0 C2.99 2.64 3.98 5.28 5 8 C4.01 8 3.02 8 2 8 C1.34 5.36 0.68 2.72 0 0 Z " fill="#2A090F" transform="translate(274,458)"/>
<path d="M0 0 C0.66 0 1.32 0 2 0 C2.33 2.31 2.66 4.62 3 7 C2.01 7.495 2.01 7.495 1 8 C0.67 5.36 0.34 2.72 0 0 Z " fill="#74BFC1" transform="translate(213,454)"/>
<path d="M0 0 C0.53625 0.226875 1.0725 0.45375 1.625 0.6875 C-3.79038462 3.76442308 -3.79038462 3.76442308 -6.75 3.375 C-7.554375 3.0346875 -7.554375 3.0346875 -8.375 2.6875 C-2.95961538 -0.38942308 -2.95961538 -0.38942308 0 0 Z " fill="#D32655" transform="translate(304.375,394.3125)"/>
<path d="M0 0 C2 1 2 1 3 3 C0.03 3.66 -2.94 4.32 -6 5 C-3 2 -3 2 0 0 Z " fill="#66A7AC" transform="translate(259,337)"/>
<path d="M0 0 C1.32 1.65 2.64 3.3 4 5 C3.01 5.33 2.02 5.66 1 6 C0.67 6.99 0.34 7.98 0 9 C0 6.03 0 3.06 0 0 Z " fill="#C0496C" transform="translate(418,286)"/>
<path d="M0 0 C0.99 0 1.98 0 3 0 C3.33 1.65 3.66 3.3 4 5 C3.01 4.34 2.02 3.68 1 3 C0.01 3.66 -0.98 4.32 -2 5 C-1.125 1.125 -1.125 1.125 0 0 Z " fill="#FBE6EC" transform="translate(420,206)"/>
</svg>
