<?xml version="1.0" encoding="UTF-8"?>
<svg version="1.1" xmlns="http://www.w3.org/2000/svg" width="480" height="480">
<path d="M0 0 C158.4 0 316.8 0 480 0 C480 158.4 480 316.8 480 480 C321.6 480 163.2 480 0 480 C0 321.6 0 163.2 0 0 Z " fill="#3CE45B" transform="translate(0,0)"/>
<path d="M0 0 C2.83481284 0.00848238 5.66758316 -0.02031794 8.50219727 -0.05200195 C25.45133716 -0.11875619 41.38738774 2.6349641 57.41821289 8.19604492 C58.42561523 8.54038574 59.43301758 8.88472656 60.47094727 9.23950195 C78.90529907 15.71508336 96.39113984 25.62066076 111.16821289 38.44604492 C112.3419043 39.45538086 112.3419043 39.45538086 113.53930664 40.48510742 C116.12638882 42.76173974 118.65420416 45.08893369 121.16821289 47.44604492 C121.91675537 48.14358887 121.91675537 48.14358887 122.68041992 48.85522461 C145.71612995 70.49332611 159.70266778 97.13671205 168.16821289 127.44604492 C168.41958008 128.31132812 168.67094727 129.17661133 168.92993164 130.06811523 C176.5514847 157.32728261 174.48550315 191.15145773 165.39868164 217.77026367 C164.64497142 220.02182341 163.94600633 222.2937998 163.34399414 224.59057617 C157.9263099 245.17777628 145.01486566 263.64481263 131.16821289 279.44604492 C130.53786133 280.18854492 129.90750977 280.93104492 129.25805664 281.69604492 C111.34885311 302.69596206 83.43964146 324.47737665 55.71899414 329.88745117 C52.64630439 330.56033729 49.67860878 331.47182502 46.66821289 332.38354492 C33.00682851 336.29501901 19.77092696 337.94915845 5.58422852 337.8371582 C3.16894108 337.82104978 0.75532591 337.8371335 -1.65991211 337.85620117 C-22.82294984 337.88425818 -47.13203714 334.0460033 -65.74462891 323.34643555 C-72.4839674 320.43911535 -82.89106523 324.3690829 -89.76928711 325.82104492 C-97.91839066 327.50059019 -106.04477696 329.00692326 -114.27758789 330.20239258 C-119.30632396 330.96561616 -124.26714165 331.93559371 -129.24194336 332.99682617 C-129.89204376 333.13547592 -130.54214417 333.27412567 -131.21194458 333.41697693 C-134.46508329 334.11328308 -137.71371551 334.8239732 -140.9597168 335.55322266 C-142.74684082 335.94102905 -142.74684082 335.94102905 -144.57006836 336.33666992 C-145.63265869 336.57417969 -146.69524902 336.81168945 -147.79003906 337.05639648 C-151.05422911 337.47453978 -153.63091217 337.1446355 -156.83178711 336.44604492 C-156.17300749 324.4155134 -154.17125242 312.53677831 -152.39428711 300.63354492 C-151.76900916 296.41893417 -151.1459717 292.20399439 -150.52319336 287.98901367 C-150.29909286 286.4792244 -150.29909286 286.4792244 -150.07046509 284.93893433 C-149.04883509 278.0250232 -148.10548864 271.10525327 -147.24169922 264.16992188 C-146.83178711 261.44604492 -146.83178711 261.44604492 -145.83178711 258.44604492 C-144.84563919 250.52956964 -146.87269905 245.2044434 -150.58178711 238.32104492 C-155.11752501 229.37683537 -157.79894268 221.24336345 -159.83178711 211.44604492 C-160.53515762 208.58518899 -161.27839519 205.73488636 -162.01928711 202.88354492 C-164.01625185 195.11049889 -164.99201457 187.71273995 -165.07006836 179.71557617 C-165.07977158 178.89105453 -165.08947479 178.0665329 -165.09947205 177.21702576 C-165.12431017 174.56414903 -165.13698258 171.91152614 -165.14428711 169.25854492 C-165.14690552 168.35720825 -165.14952393 167.45587158 -165.15222168 166.52722168 C-165.15741138 149.907591 -163.66801668 134.9406549 -157.76147461 119.24682617 C-156.96578541 116.84972887 -156.43597885 114.59425935 -155.94116211 112.12573242 C-154.94600136 107.50068204 -153.284682 103.49294423 -151.20678711 99.25854492 C-150.85052246 98.52369873 -150.49425781 97.78885254 -150.12719727 97.03173828 C-149.0455167 94.82761749 -147.9435675 92.63511617 -146.83178711 90.44604492 C-146.52499023 89.83567383 -146.21819336 89.22530273 -145.90209961 88.59643555 C-138.1737059 73.46451423 -127.20099959 60.01867127 -114.83178711 48.44604492 C-113.99518555 47.60944336 -113.15858398 46.7728418 -112.29663086 45.91088867 C-101.06652219 34.68078 -88.67319827 25.66296077 -74.64428711 18.25854492 C-73.73517578 17.77667725 -72.82606445 17.29480957 -71.8894043 16.79833984 C-65.3481613 13.44604492 -65.3481613 13.44604492 -60.83178711 13.44604492 C-60.83178711 12.78604492 -60.83178711 12.12604492 -60.83178711 11.44604492 C-56.64777736 10.16353218 -52.45899176 8.89731743 -48.26928711 7.63354492 C-47.10719727 7.27711914 -45.94510742 6.92069336 -44.74780273 6.5534668 C-29.55761271 1.99222516 -15.79038754 -0.07170684 0 0 Z " fill="#37DB55" transform="translate(237.831787109375,69.553955078125)"/>
<path d="M0 0 C0.66 0.99 1.32 1.98 2 3 C1.34 3.99 0.68 4.98 0 6 C1.32 6.66 2.64 7.32 4 8 C3.67 8.66 3.34 9.32 3 10 C2.34 10 1.68 10 1 10 C1.99 12.31 2.98 14.62 4 17 C2.35 18.98 0.7 20.96 -1 23 C0.72926874 22.68806536 2.45841044 22.37542638 4.1875 22.0625 C5.15042969 21.88847656 6.11335938 21.71445312 7.10546875 21.53515625 C12.61626602 20.52250873 12.61626602 20.52250873 18 19 C18.495 21.475 18.495 21.475 19 24 C17.515 23.505 17.515 23.505 16 23 C16 23.99 16 24.98 16 26 C15.38125 26.226875 14.7625 26.45375 14.125 26.6875 C11.38589791 28.37929835 10.94975528 29.99244161 10 33 C12.64 33.33 15.28 33.66 18 34 C17.34 35.32 16.68 36.64 16 38 C18.60195202 36.12061627 18.60195202 36.12061627 21 34 C23.48796364 32.4005948 24.58692351 31.93954978 27.5625 32.375 C28.366875 32.58125 29.17125 32.7875 30 33 C30.99 33 31.98 33 33 33 C34.485 33.99 34.485 33.99 36 35 C35.01 33.02 35.01 33.02 34 31 C37.875 29 37.875 29 39 29 C38.44000175 38.0300886 37.37743996 46.88283699 35.9375 55.8125 C35.75123047 56.99392578 35.56496094 58.17535156 35.37304688 59.39257812 C34.91990567 62.26247241 34.46217672 65.13154951 34 68 C41.77445379 67.52490855 49.1176718 66.49303517 56.6875 64.6875 C65.93190655 62.57588373 75.17635558 60.94263289 84.55102539 59.53125 C93.15808354 58.20781142 101.64375074 56.46953827 110.12280273 54.48632812 C118.43744951 52.62792078 124.04424702 53.30588129 131.875 56.875 C139.43989722 60.23584446 146.7536577 62.96687792 154.91577148 64.43432617 C157.14825738 64.84378313 159.37548472 65.28226316 161.59887695 65.73852539 C172.35392726 67.88303067 182.73717842 68.52092786 193.6875 68.4375 C194.51328552 68.43512329 195.33907104 68.43274658 196.18988037 68.43029785 C212.76572417 68.35587161 228.73822321 66.85791534 244.3671875 60.9296875 C247 60 247 60 250.75 59.140625 C255.50411692 57.9841579 259.73831832 56.00911005 264.125 53.875 C264.95539795 53.47394043 265.7857959 53.07288086 266.64135742 52.65966797 C283.75876323 44.29965954 298.16177236 34.06270525 312 21 C312.68449219 20.35675781 313.36898438 19.71351563 314.07421875 19.05078125 C318.85775758 14.41760906 322.96536354 9.4061813 327.01953125 4.125 C327.67308594 3.42375 328.32664062 2.7225 329 2 C329.99 2 330.98 2 332 2 C331.33333333 8.66666667 330.66666667 15.33333333 330 22 C330.99 22.66 331.98 23.32 333 24 C332.67 25.98 332.34 27.96 332 30 C331.34 30 330.68 30 330 30 C330 29.34 330 28.68 330 28 C329.34 28 328.68 28 328 28 C327.67 28.99 327.34 29.98 327 31 C326.67 31.33 326.34 31.66 326 32 C327.65 32.33 329.3 32.66 331 33 C331 33.66 331 34.32 331 35 C332.485 34.505 332.485 34.505 334 34 C334 34.66 334 35.32 334 36 C336.41585574 35.96906827 336.41585574 35.96906827 339 35 C341.53861041 30.95702786 344 25.8599123 344 21 C344.99 21 345.98 21 347 21 C347 21.66 347 22.32 347 23 C347.99 22.67 348.98 22.34 350 22 C352.6875 22.4375 352.6875 22.4375 355 23 C356.32 21.02 357.64 19.04 359 17 C359.66 17.66 360.32 18.32 361 19 C360.67 19.721875 360.34 20.44375 360 21.1875 C358.25419448 26.09757803 358.8581405 29.31468235 361 34 C362.98 30.535 362.98 30.535 365 27 C365.99 27.66 366.98 28.32 368 29 C368 29.66 368 30.32 368 31 C368.99 31 369.98 31 371 31 C371.21081851 27.10540926 371.21081851 27.10540926 370 24 C370.33 23.01 370.66 22.02 371 21 C370.34 21 369.68 21 369 21 C369 20.34 369 19.68 369 19 C369.66 19 370.32 19 371 19 C371.33 18.34 371.66 17.68 372 17 C376 17 376 17 379 19 C378.34 19.66 377.68 20.32 377 21 C378.98 20.34 380.96 19.68 383 19 C383.33 20.32 383.66 21.64 384 23 C382.515 23.99 382.515 23.99 381 25 C380.34 24.67 379.68 24.34 379 24 C378.855625 24.7425 378.71125 25.485 378.5625 26.25 C378.09812508 28.52027739 377.58136431 30.75759479 377 33 C379.31 33 381.62 33 384 33 C384 33.99 384 34.98 384 36 C380.5980513 38.09350689 377.94727588 38.17942163 374 38 C374 38.66 374 39.32 374 40 C374.66 40.33 375.32 40.66 376 41 C375.34 42.32 374.68 43.64 374 45 C374.598125 45.268125 375.19625 45.53625 375.8125 45.8125 C377.97224808 46.98493467 379.35790256 48.19369282 381 50 C380.34 50.66 379.68 51.32 379 52 C378.67 51.67 378.34 51.34 378 51 C375.70620251 54.44069624 375 55.72290301 375 60 C374.34 60 373.68 60 373 60 C373 60.66 373 61.32 373 62 C374.32 62.33 375.64 62.66 377 63 C376.67 64.65 376.34 66.3 376 68 C376.639375 67.814375 377.27875 67.62875 377.9375 67.4375 C378.618125 67.293125 379.29875 67.14875 380 67 C380.33 67.33 380.66 67.66 381 68 C383.97675459 64.90672105 383.97675459 64.90672105 385 61 C385.66 61 386.32 61 387 61 C386.67 59.02 386.34 57.04 386 55 C385.01 55 384.02 55 383 55 C383 53.68 383 52.36 383 51 C383.66 51 384.32 51 385 51 C384.47273167 46.3643353 384.47273167 46.3643353 383.125 41.9375 C382.95867171 39.35941157 383.81622852 38.70922666 385.4375 36.75 C386.283125 35.8425 387.12875 34.935 388 34 C389.32 34.33 390.64 34.66 392 35 C392.33 34.34 392.66 33.68 393 33 C395.32156597 32.59270772 397.6568787 32.25561323 400 32 C400 28.37 400 24.74 400 21 C400.66 21 401.32 21 402 21 C402 20.34 402 19.68 402 19 C402.66 19 403.32 19 404 19 C403.67 20.32 403.34 21.64 403 23 C408.19155642 24.75964539 408.19155642 24.75964539 413.4375 24.3125 C415.29601265 22.98365574 415.29601265 22.98365574 416 20 C418.0625 19.3125 418.0625 19.3125 420 19 C421.0625 20.8125 421.0625 20.8125 422 23 C421.67 23.99 421.34 24.98 421 26 C421.99 26.33 422.98 26.66 424 27 C424 25.68 424 24.36 424 23 C429.625 20 429.625 20 433 20 C433 60.26 433 100.52 433 142 C274.6 142 116.2 142 -47 142 C-47 102.4 -47 62.8 -47 22 C-45.68 22.33 -44.36 22.66 -43 23 C-42.34 21.02 -41.68 19.04 -41 17 C-40.67 17.99 -40.34 18.98 -40 20 C-40.33 20.66 -40.66 21.32 -41 22 C-39.9275 22 -38.855 22 -37.75 22 C-35.16666667 22 -32.58333333 22 -30 22 C-27.84537139 20.80482213 -25.91189792 19.41936724 -23.90234375 17.99609375 C-23.27457031 17.66738281 -22.64679687 17.33867187 -22 17 C-21.01 17.33 -20.02 17.66 -19 18 C-18.71125 17.360625 -18.4225 16.72125 -18.125 16.0625 C-17 14 -17 14 -15 13 C-15.33 12.67 -15.66 12.34 -16 12 C-17.32 12 -18.64 12 -20 12 C-19.34 9.69 -18.68 7.38 -18 5 C-16.02 5.66 -14.04 6.32 -12 7 C-11.67 6.01 -11.34 5.02 -11 4 C-9.9275 4.268125 -8.855 4.53625 -7.75 4.8125 C-6.5125 4.874375 -5.275 4.93625 -4 5 C-1.50789479 2.69931981 -1.50789479 2.69931981 0 0 Z M369 32 C369 35 369 35 369 35 Z M28 35 C29 37 29 37 29 37 Z M20 37 C21 39 21 39 21 39 Z M388 52 C388 52.99 388 53.98 388 55 C388.66 54.34 389.32 53.68 390 53 C389.34 52.67 388.68 52.34 388 52 Z " fill="#20CB42" transform="translate(47,338)"/>
<path d="M0 0 C2.83481284 0.00848238 5.66758316 -0.02031794 8.50219727 -0.05200195 C25.45133716 -0.11875619 41.38738774 2.6349641 57.41821289 8.19604492 C58.42561523 8.54038574 59.43301758 8.88472656 60.47094727 9.23950195 C78.90529907 15.71508336 96.39113984 25.62066076 111.16821289 38.44604492 C112.3419043 39.45538086 112.3419043 39.45538086 113.53930664 40.48510742 C116.12638882 42.76173974 118.65420416 45.08893369 121.16821289 47.44604492 C121.91675537 48.14358887 121.91675537 48.14358887 122.68041992 48.85522461 C145.71612995 70.49332611 159.70266778 97.13671205 168.16821289 127.44604492 C168.41958008 128.31132812 168.67094727 129.17661133 168.92993164 130.06811523 C176.5514847 157.32728261 174.48550315 191.15145773 165.39868164 217.77026367 C164.64497142 220.02182341 163.94600633 222.2937998 163.34399414 224.59057617 C157.9263099 245.17777628 145.01486566 263.64481263 131.16821289 279.44604492 C130.53786133 280.18854492 129.90750977 280.93104492 129.25805664 281.69604492 C111.34885311 302.69596206 83.43964146 324.47737665 55.71899414 329.88745117 C52.64630439 330.56033729 49.67860878 331.47182502 46.66821289 332.38354492 C33.00682851 336.29501901 19.77092696 337.94915845 5.58422852 337.8371582 C3.16894108 337.82104978 0.75532591 337.8371335 -1.65991211 337.85620117 C-22.82294984 337.88425818 -47.13203714 334.0460033 -65.74462891 323.34643555 C-72.4839674 320.43911535 -82.89106523 324.3690829 -89.76928711 325.82104492 C-97.91839066 327.50059019 -106.04477696 329.00692326 -114.27758789 330.20239258 C-119.30632396 330.96561616 -124.26714165 331.93559371 -129.24194336 332.99682617 C-129.89204376 333.13547592 -130.54214417 333.27412567 -131.21194458 333.41697693 C-134.46508329 334.11328308 -137.71371551 334.8239732 -140.9597168 335.55322266 C-142.74684082 335.94102905 -142.74684082 335.94102905 -144.57006836 336.33666992 C-145.63265869 336.57417969 -146.69524902 336.81168945 -147.79003906 337.05639648 C-151.05422911 337.47453978 -153.63091217 337.1446355 -156.83178711 336.44604492 C-156.17300749 324.4155134 -154.17125242 312.53677831 -152.39428711 300.63354492 C-151.76900916 296.41893417 -151.1459717 292.20399439 -150.52319336 287.98901367 C-150.29909286 286.4792244 -150.29909286 286.4792244 -150.07046509 284.93893433 C-149.04883509 278.0250232 -148.10548864 271.10525327 -147.24169922 264.16992188 C-146.83178711 261.44604492 -146.83178711 261.44604492 -145.83178711 258.44604492 C-144.84563919 250.52956964 -146.87269905 245.2044434 -150.58178711 238.32104492 C-155.11752501 229.37683537 -157.79894268 221.24336345 -159.83178711 211.44604492 C-160.53515762 208.58518899 -161.27839519 205.73488636 -162.01928711 202.88354492 C-164.01625185 195.11049889 -164.99201457 187.71273995 -165.07006836 179.71557617 C-165.07977158 178.89105453 -165.08947479 178.0665329 -165.09947205 177.21702576 C-165.12431017 174.56414903 -165.13698258 171.91152614 -165.14428711 169.25854492 C-165.14690552 168.35720825 -165.14952393 167.45587158 -165.15222168 166.52722168 C-165.15741138 149.907591 -163.66801668 134.9406549 -157.76147461 119.24682617 C-156.96578541 116.84972887 -156.43597885 114.59425935 -155.94116211 112.12573242 C-154.94600136 107.50068204 -153.284682 103.49294423 -151.20678711 99.25854492 C-150.85052246 98.52369873 -150.49425781 97.78885254 -150.12719727 97.03173828 C-149.0455167 94.82761749 -147.9435675 92.63511617 -146.83178711 90.44604492 C-146.52499023 89.83567383 -146.21819336 89.22530273 -145.90209961 88.59643555 C-138.1737059 73.46451423 -127.20099959 60.01867127 -114.83178711 48.44604492 C-113.99518555 47.60944336 -113.15858398 46.7728418 -112.29663086 45.91088867 C-101.06652219 34.68078 -88.67319827 25.66296077 -74.64428711 18.25854492 C-73.73517578 17.77667725 -72.82606445 17.29480957 -71.8894043 16.79833984 C-65.3481613 13.44604492 -65.3481613 13.44604492 -60.83178711 13.44604492 C-60.83178711 12.78604492 -60.83178711 12.12604492 -60.83178711 11.44604492 C-56.64777736 10.16353218 -52.45899176 8.89731743 -48.26928711 7.63354492 C-47.10719727 7.27711914 -45.94510742 6.92069336 -44.74780273 6.5534668 C-29.55761271 1.99222516 -15.79038754 -0.07170684 0 0 Z M-52.84692383 41.48217773 C-54.8248632 42.44268261 -56.79469719 43.18307555 -58.87084961 43.90307617 C-63.0647191 45.42281658 -66.54994163 47.60645266 -70.20678711 50.13354492 C-70.86251709 50.58213867 -71.51824707 51.03073242 -72.19384766 51.49291992 C-74.0829097 52.79735524 -75.95948382 54.11770387 -77.83178711 55.44604492 C-78.67612305 56.04030273 -79.52045898 56.63456055 -80.39038086 57.24682617 C-93.91159205 67.44046026 -106.22053344 80.1568689 -114.83081055 94.75708008 C-115.78995954 96.37546855 -116.79821679 97.96444728 -117.80834961 99.55151367 C-122.33638625 106.84454289 -125.12901224 114.32830297 -127.83178711 122.44604492 C-128.53661766 124.25990993 -129.24473104 126.0725042 -129.95678711 127.88354492 C-141.0996772 158.42498861 -137.4131927 194.95073921 -124.83178711 224.44604492 C-120.72950351 234.05312827 -120.72950351 234.05312827 -114.83178711 242.44604492 C-114.72408596 254.83167694 -117.41656887 267.29876163 -119.3605957 279.47875977 C-119.95717794 283.2356823 -120.52935678 286.99486494 -121.08178711 290.75854492 C-121.23131836 291.76530273 -121.38084961 292.77206055 -121.53491211 293.80932617 C-121.82440979 296.38052269 -121.88828774 298.86114108 -121.83178711 301.44604492 C-117.48994508 301.26140126 -117.48994508 301.26140126 -113.83178711 299.44604492 C-111.62757055 299.16202822 -109.41779189 298.92119816 -107.20678711 298.69604492 C-99.05546941 297.7907625 -91.14436614 296.09264592 -83.16723633 294.21069336 C-64.75933056 289.96840978 -64.75933056 289.96840978 -58.01928711 294.07104492 C-46.93481814 300.22591715 -35.07630719 303.43762501 -22.75073242 306.03930664 C-21.1047475 306.38818843 -19.46376195 306.76051304 -17.82397461 307.13745117 C3.64498775 311.51075832 25.49098101 307.42036317 46.16821289 301.44604492 C47.16618896 301.17002441 47.16618896 301.17002441 48.18432617 300.88842773 C68.70355167 295.16483867 85.82412588 282.89803385 101.16821289 268.44604492 C102.23942383 267.48891602 102.23942383 267.48891602 103.33227539 266.51245117 C121.32330139 249.73173056 132.75713167 226.89269831 139.16821289 203.44604492 C139.44705322 202.44661865 139.72589355 201.44719238 140.01318359 200.41748047 C142.41829734 190.72924566 142.66125802 181.31949455 142.61425781 171.37939453 C142.60575658 168.64758578 142.63460252 165.91788272 142.66625977 163.1862793 C142.72726883 148.17660837 140.22640173 134.6721733 134.79321289 120.63354492 C134.33615967 119.43568359 134.33615967 119.43568359 133.86987305 118.21362305 C119.73219945 81.78164206 92.53500883 56.13954458 57.44946289 40.12182617 C39.75688512 32.37050886 22.16429347 29.05021052 2.85571289 29.13354492 C2.17401031 29.13570007 1.49230774 29.13785522 0.78994751 29.14007568 C-18.0271132 29.23544405 -36.04341271 32.73922363 -52.84692383 41.48217773 Z " fill="#FCFEFC" transform="translate(237.831787109375,69.553955078125)"/>
<path d="M0 0 C6.3739785 4.434072 7.64523873 12.15037838 9.7265625 19.28515625 C10.57320727 22.02379291 11.46945243 24.68587056 12.4609375 27.37109375 C12.73566895 28.11818604 13.01040039 28.86527832 13.29345703 29.63500977 C13.83482415 31.09333136 14.38485626 32.54847501 14.94482422 33.99975586 C16.59224522 38.46412886 17.36430943 42.17098198 16.875 47 C15.84375 49.15234375 15.84375 49.15234375 14.375 50.9375 C13.83617187 51.60394531 13.29734375 52.27039063 12.7421875 52.95703125 C10.13681286 55.80768175 7.32290349 58.40688572 4.4140625 60.9453125 C2.25142233 63.83249202 2.4049125 65.45258045 2.875 69 C3.81356513 71.43968637 4.75731198 73.5404531 6 75.8125 C6.34691895 76.45268066 6.69383789 77.09286133 7.05126953 77.75244141 C17.9877141 96.97814536 37.85316148 117.86432577 59.875 124 C63.45165545 124.29197187 65.00885573 123.70574718 67.7734375 121.453125 C72.11510266 117.29444189 75.83007436 112.68787748 79.4296875 107.8828125 C80.875 106 80.875 106 82.875 104 C86.5 103.875 86.5 103.875 89.875 104 C89.875 104.66 89.875 105.32 89.875 106 C91.10605469 106.350625 92.33710938 106.70125 93.60546875 107.0625 C99.94701218 109.17841737 105.47416755 112.58110824 111.1875 116 C112.25806641 116.6290625 113.32863281 117.258125 114.43164062 117.90625 C123.84797769 123.47232526 123.84797769 123.47232526 126.875 126 C128.41548085 132.38385708 126.80599225 141.52668167 123.65234375 147.19921875 C116.94595616 156.58816138 107.78467506 162.36344165 96.875 166 C78.8465269 167.34397563 65.05729304 162.28400214 48.90771484 154.8840332 C46.61639275 153.88753101 44.29024233 153.01626897 41.953125 152.1328125 C36.88306583 150.11974334 32.4971665 147.50381778 28 144.4375 C27.22261475 143.9122876 26.44522949 143.3870752 25.64428711 142.84594727 C18.77623107 138.10874417 12.79297172 132.8757608 6.875 127 C5.91120398 126.0718275 4.9463507 125.14475163 3.98046875 124.21875 C-15.86312845 104.89092345 -33.81731278 78.96039945 -41.125 52 C-41.32351562 51.35289062 -41.52203125 50.70578125 -41.7265625 50.0390625 C-44.41317635 36.28992105 -40.73856504 23.45207075 -33.125 12 C-24.21577716 0.77780585 -14.79036668 -4.98371051 0 0 Z " fill="#FCFEFC" transform="translate(199.125,155)"/>
<path d="M0 0 C0.66 0.99 1.32 1.98 2 3 C1.34 3.99 0.68 4.98 0 6 C1.32 6.66 2.64 7.32 4 8 C3.67 8.66 3.34 9.32 3 10 C2.34 10 1.68 10 1 10 C1.99 12.31 2.98 14.62 4 17 C2.35 18.98 0.7 20.96 -1 23 C0.72926874 22.68806536 2.45841044 22.37542638 4.1875 22.0625 C5.15042969 21.88847656 6.11335938 21.71445312 7.10546875 21.53515625 C12.61626602 20.52250873 12.61626602 20.52250873 18 19 C18.495 21.475 18.495 21.475 19 24 C17.515 23.505 17.515 23.505 16 23 C16 23.99 16 24.98 16 26 C15.38125 26.226875 14.7625 26.45375 14.125 26.6875 C11.38589791 28.37929835 10.94975528 29.99244161 10 33 C12.64 33.33 15.28 33.66 18 34 C17.34 35.32 16.68 36.64 16 38 C18.60195202 36.12061627 18.60195202 36.12061627 21 34 C23.44842374 32.42601331 24.68345021 31.9773893 27.625 32.1875 C30 33 30 33 32 36 C31.625 38.6875 31.625 38.6875 31 41 C29.515 41.495 29.515 41.495 28 42 C28.37125 43.093125 28.7425 44.18625 29.125 45.3125 C29.41375 46.529375 29.7025 47.74625 30 49 C29.34 49.99 28.68 50.98 28 52 C27.34 51.67 26.68 51.34 26 51 C25.67 51.99 25.34 52.98 25 54 C23.02 53.34 21.04 52.68 19 52 C19.33 50.68 19.66 49.36 20 48 C17.08482708 49.07401108 15.22189824 49.77810176 13 52 C13.99 52.33 14.98 52.66 16 53 C16 54.65 16 56.3 16 58 C15.401875 57.54625 14.80375 57.0925 14.1875 56.625 C12.49409348 55.36704087 10.75522914 54.17015276 9 53 C9.37125 53.5775 9.7425 54.155 10.125 54.75 C11 57 11 57 10.125 59.25 C9.75375 59.8275 9.3825 60.405 9 61 C11.475 60.505 11.475 60.505 14 60 C13.67 60.99 13.34 61.98 13 63 C13.66868314 66.11332248 13.66868314 66.11332248 16.0625 67.1875 C16.701875 67.455625 17.34125 67.72375 18 68 C16.515 69.485 16.515 69.485 15 71 C15.99 71.33 16.98 71.66 18 72 C17.34 72.66 16.68 73.32 16 74 C13.69 72.02 11.38 70.04 9 68 C9 68.66 9 69.32 9 70 C7.35 69.67 5.7 69.34 4 69 C4.495 67.515 4.495 67.515 5 66 C4.01 66.33 3.02 66.66 2 67 C1.01 67 0.02 67 -1 67 C-1.33 67.66 -1.66 68.32 -2 69 C-2.66 69 -3.32 69 -4 69 C-4 68.01 -4 67.02 -4 66 C-6.97 65.505 -6.97 65.505 -10 65 C-10 65.66 -10 66.32 -10 67 C-10.66 67 -11.32 67 -12 67 C-12.33 67.66 -12.66 68.32 -13 69 C-12.67 67.35 -12.34 65.7 -12 64 C-12.99 63.67 -13.98 63.34 -15 63 C-15.495 60.525 -15.495 60.525 -16 58 C-15.34 58 -14.68 58 -14 58 C-13.67 56.68 -13.34 55.36 -13 54 C-14.32 53.34 -15.64 52.68 -17 52 C-17 51.34 -17 50.68 -17 50 C-18.94603274 49.40929986 -18.94603274 49.40929986 -21 49 C-22.44754255 50.44754255 -22.55733561 52.03962913 -23 54 C-21.02463255 53.65213292 -21.02463255 53.65213292 -19 53 C-18.67 52.34 -18.34 51.68 -18 51 C-17.34868122 55.49590881 -16.854777 59.37902516 -19.5703125 63.22265625 C-22.85861181 66.2671463 -24.99344564 67.8741807 -29.5 68.4375 C-30.7375 68.2209375 -30.7375 68.2209375 -32 68 C-32 66.35 -32 64.7 -32 63 C-31.01 62.505 -31.01 62.505 -30 62 C-30.33 61.01 -30.66 60.02 -31 59 C-30.34 59 -29.68 59 -29 59 C-29.52480001 52.71091518 -29.52480001 52.71091518 -32 47 C-31.34 47 -30.68 47 -30 47 C-31.485 46.505 -31.485 46.505 -33 46 C-33.33 46.99 -33.66 47.98 -34 49 C-34.66 48.67 -35.32 48.34 -36 48 C-36 48.66 -36 49.32 -36 50 C-34.35 50.33 -32.7 50.66 -31 51 C-31.33 51.99 -31.66 52.98 -32 54 C-33.98 53.34 -35.96 52.68 -38 52 C-38.77242269 53.83700789 -38.77242269 53.83700789 -39 56 C-37.64555699 57.77190909 -37.64555699 57.77190909 -36 59 C-36.66 59.99 -37.32 60.98 -38 62 C-37.67 62.66 -37.34 63.32 -37 64 C-37.9375 66.625 -37.9375 66.625 -39 69 C-40.32 69 -41.64 69 -43 69 C-42.67 67.35 -42.34 65.7 -42 64 C-42.66 64 -43.32 64 -44 64 C-44 64.66 -44 65.32 -44 66 C-45.485 66.495 -45.485 66.495 -47 67 C-47 52.15 -47 37.3 -47 22 C-45.68 22.33 -44.36 22.66 -43 23 C-42.34 21.02 -41.68 19.04 -41 17 C-40.67 17.99 -40.34 18.98 -40 20 C-40.33 20.66 -40.66 21.32 -41 22 C-39.9275 22 -38.855 22 -37.75 22 C-35.16666667 22 -32.58333333 22 -30 22 C-27.84537139 20.80482213 -25.91189792 19.41936724 -23.90234375 17.99609375 C-23.27457031 17.66738281 -22.64679687 17.33867187 -22 17 C-21.01 17.33 -20.02 17.66 -19 18 C-18.71125 17.360625 -18.4225 16.72125 -18.125 16.0625 C-17 14 -17 14 -15 13 C-15.33 12.67 -15.66 12.34 -16 12 C-17.32 12 -18.64 12 -20 12 C-19.34 9.69 -18.68 7.38 -18 5 C-16.02 5.66 -14.04 6.32 -12 7 C-11.67 6.01 -11.34 5.02 -11 4 C-9.9275 4.268125 -8.855 4.53625 -7.75 4.8125 C-6.5125 4.874375 -5.275 4.93625 -4 5 C-1.50789479 2.69931981 -1.50789479 2.69931981 0 0 Z M28 35 C29 37 29 37 29 37 Z M20 37 C21 39 21 39 21 39 Z M-17 66 C-16.01 67.32 -15.02 68.64 -14 70 C-14.66 70.66 -15.32 71.32 -16 72 C-16.33 70.02 -16.66 68.04 -17 66 Z " fill="#26CF47" transform="translate(47,338)"/>
<path d="M0 0 C0.66 0 1.32 0 2 0 C2 0.66 2 1.32 2 2 C2.598125 1.79375 3.19625 1.5875 3.8125 1.375 C6 1 6 1 9 3 C9 5.83967231 8.59732819 8.23735711 8 11 C6.68 11.33 5.36 11.66 4 12 C3.7525 11.21625 3.505 10.4325 3.25 9.625 C1.84610901 6.67682892 0.99324263 6.0975223 -2 5 C-2 2 -2 2 0 0 Z " fill="#29D249" transform="translate(57,341)"/>
<path d="M0 0 C4.65540541 1.43243243 4.65540541 1.43243243 6.0625 3.75 C5.96557312 7.23936759 4.04220835 9.27705554 2 12 C0.68 11.34 -0.64 10.68 -2 10 C-3.32 10.99 -4.64 11.98 -6 13 C-5.67 10.36 -5.34 7.72 -5 5 C-2 4 -2 4 1 4 C0.34 3.01 -0.32 2.02 -1 1 C-0.67 0.67 -0.34 0.34 0 0 Z " fill="#2AD24A" transform="translate(404,339)"/>
<path d="M0 0 C-1.32 0.33 -2.64 0.66 -4 1 C-4 1.66 -4 2.32 -4 3 C-6.475 2.505 -6.475 2.505 -9 2 C-9 2.66 -9 3.32 -9 4 C-9.99 4.33 -10.98 4.66 -12 5 C-12 5.66 -12 6.32 -12 7 C-12.66 7 -13.32 7 -14 7 C-13.67 7.99 -13.34 8.98 -13 10 C-15.46800047 8.84826645 -17.04783565 7.95216435 -19 6 C-21.44012949 5.75712511 -21.44012949 5.75712511 -24.125 5.875 C-25.03507812 5.89304687 -25.94515625 5.91109375 -26.8828125 5.9296875 C-27.58148438 5.95289063 -28.28015625 5.97609375 -29 6 C-26.09217966 4.0614531 -24.62325713 3.55908532 -21.2890625 2.9296875 C-20.37382813 2.75566406 -19.45859375 2.58164062 -18.515625 2.40234375 C-17.56171875 2.22832031 -16.6078125 2.05429687 -15.625 1.875 C-14.67882812 1.69324219 -13.73265625 1.51148438 -12.7578125 1.32421875 C-8.429465 0.51569316 -4.41653848 -0.101473 0 0 Z " fill="#4FCF65" transform="translate(131,398)"/>
<path d="M0 0 C0.99 0.495 0.99 0.495 2 1 C1.67 1.66 1.34 2.32 1 3 C1.66 3 2.32 3 3 3 C2.67 5.64 2.34 8.28 2 11 C2.99 11.33 3.98 11.66 5 12 C4.67 12.99 4.34 13.98 4 15 C3.34 15 2.68 15 2 15 C2.37125 15.928125 2.7425 16.85625 3.125 17.8125 C3.41375 18.864375 3.7025 19.91625 4 21 C3.34 21.99 2.68 22.98 2 24 C1.34 24 0.68 24 0 24 C0 16.08 0 8.16 0 0 Z " fill="#2AD24A" transform="translate(0,331)"/>
<path d="M0 0 C0.4125 0.495 0.825 0.99 1.25 1.5 C3.12202338 3.43386092 3.12202338 3.43386092 7 3 C7.33 4.32 7.66 5.64 8 7 C7.01 7 6.02 7 5 7 C4.67 9.31 4.34 11.62 4 14 C3.34 14 2.68 14 2 14 C2 13.01 2 12.02 2 11 C1.34 10.67 0.68 10.34 0 10 C-0.703125 8.22265625 -0.703125 8.22265625 -1.25 6.0625 C-1.44078125 5.35222656 -1.6315625 4.64195312 -1.828125 3.91015625 C-1.88484375 3.27980469 -1.9415625 2.64945312 -2 2 C-1.34 1.34 -0.68 0.68 0 0 Z " fill="#2CD44C" transform="translate(59,323)"/>
<path d="M0 0 C3 1 3 1 4 3 C6.01669827 4.13350534 6.01669827 4.13350534 8 5 C7.4225 5.268125 6.845 5.53625 6.25 5.8125 C3.9674132 7.01719859 2.0262058 8.40798115 0 10 C-0.33 9.01 -0.66 8.02 -1 7 C-1.66 7 -2.32 7 -3 7 C-2.25 2.25 -2.25 2.25 0 0 Z " fill="#29D24A" transform="translate(419,342)"/>
<path d="M0 0 C0.33 0.99 0.66 1.98 1 3 C2.32 2.67 3.64 2.34 5 2 C5 4 5 6 5 8 C2.03 7.505 2.03 7.505 -1 7 C-1.2165625 8.11375 -1.2165625 8.11375 -1.4375 9.25 C-1.623125 10.1575 -1.80875 11.065 -2 12 C-2.12375 12.7425 -2.2475 13.485 -2.375 14.25 C-2.58125 14.8275 -2.7875 15.405 -3 16 C-3.99 16.33 -4.98 16.66 -6 17 C-5.34496718 12.94180817 -4.05440879 9.46028718 -2.4375 5.6875 C-1.75494141 4.08455078 -1.75494141 4.08455078 -1.05859375 2.44921875 C-0.53458984 1.23685547 -0.53458984 1.23685547 0 0 Z " fill="#2DD44E" transform="translate(402,292)"/>
<path d="M0 0 C2.6875 1.4375 2.6875 1.4375 5 3 C4.67 3.66 4.34 4.32 4 5 C3.01 5 2.02 5 1 5 C1.33 6.65 1.66 8.3 2 10 C0.68 10 -0.64 10 -2 10 C-3.61949011 7.42786866 -4.04408751 6.32330841 -3.625 3.25 C-3.41875 2.5075 -3.2125 1.765 -3 1 C-2.01 0.67 -1.02 0.34 0 0 Z " fill="#2AD24A" transform="translate(391,343)"/>
<path d="M0 0 C2.00720923 0.28674418 4.0085944 0.61866701 6 1 C7.23222749 5.43601896 7.23222749 5.43601896 6.125 8.125 C5.75375 8.74375 5.3825 9.3625 5 10 C4.67 10.99 4.34 11.98 4 13 C3.34 11.02 2.68 9.04 2 7 C2.66 7 3.32 7 4 7 C4 6.34 4 5.68 4 5 C2.68 5.33 1.36 5.66 0 6 C-0.38218767 4.34385343 -0.71395102 2.67542976 -1 1 C-0.67 0.67 -0.34 0.34 0 0 Z " fill="#2AD34A" transform="translate(447,328)"/>
<path d="M0 0 C3.96 0 7.92 0 12 0 C11.67 1.32 11.34 2.64 11 4 C10.34 4 9.68 4 9 4 C8.67 6.31 8.34 8.62 8 11 C6.68 10.67 5.36 10.34 4 10 C4.33 9.01 4.66 8.02 5 7 C5.66 6.67 6.32 6.34 7 6 C7 4.68 7 3.36 7 2 C4.69 1.67 2.38 1.34 0 1 C0 0.67 0 0.34 0 0 Z " fill="#17C83E" transform="translate(236,408)"/>
<path d="M0 0 C0.33 1.32 0.66 2.64 1 4 C0.34 4 -0.32 4 -1 4 C-1.33 4.99 -1.66 5.98 -2 7 C-4 5.625 -4 5.625 -6 4 C-6 3.34 -6 2.68 -6 2 C-7.32 1.67 -8.64 1.34 -10 1 C-6.59437148 0.22157062 -3.49234244 -0.09978121 0 0 Z " fill="#16C738" transform="translate(98,405)"/>
<path d="M0 0 C0.99 0 1.98 0 3 0 C2.03644647 13.6332574 2.03644647 13.6332574 1 20 C0.67 20 0.34 20 0 20 C0.03480469 18.55367188 0.03480469 18.55367188 0.0703125 17.078125 C0.08835937 15.81484375 0.10640625 14.5515625 0.125 13.25 C0.14820312 11.99703125 0.17140625 10.7440625 0.1953125 9.453125 C0.01537302 6.27179508 -0.31001418 4.63478104 -2 2 C-1.34 1.34 -0.68 0.68 0 0 Z " fill="#11CC3B" transform="translate(83,367)"/>
<path d="M0 0 C0 0.66 0 1.32 0 2 C2.64 2 5.28 2 8 2 C6.68 3.32 5.36 4.64 4 6 C3.67 5.34 3.34 4.68 3 4 C2.401875 4.165 1.80375 4.33 1.1875 4.5 C-1 5 -1 5 -4 5 C-4.99 5.33 -5.98 5.66 -7 6 C-5.61469317 1.84407951 -4.52657396 0 0 0 Z " fill="#27D148" transform="translate(438,357)"/>
<path d="M0 0 C3.41021743 0.78697325 6.68885166 1.87119943 10 3 C9.67 3.99 9.34 4.98 9 6 C6.03 6 3.06 6 0 6 C0.33 5.34 0.66 4.68 1 4 C0.60061233 1.90178785 0.60061233 1.90178785 0 0 Z " fill="#2FD04C" transform="translate(149,357)"/>
<path d="M0 0 C1.07041123 3.21123369 0.93878878 4.60399408 0.44140625 7.88671875 C0.30283203 8.82451172 0.16425781 9.76230469 0.02148438 10.72851562 C-0.12998047 11.70498047 -0.28144531 12.68144531 -0.4375 13.6875 C-0.58509766 14.67556641 -0.73269531 15.66363281 -0.88476562 16.68164062 C-1.25024657 19.12211013 -1.62222571 21.56140835 -2 24 C-2.33 24 -2.66 24 -3 24 C-4.39296447 14.77161039 -4.39296447 14.77161039 -3.03515625 12.10546875 C-1.87481466 9.74537774 -1.64026366 7.92254281 -1.4375 5.3125 C-1.09964413 1.09964413 -1.09964413 1.09964413 0 0 Z " fill="#17CF39" transform="translate(90,335)"/>
<path d="M0 0 C1.65 0 3.3 0 5 0 C5.33 2.31 5.66 4.62 6 7 C5.01 6.67 4.02 6.34 3 6 C2.01 6.33 1.02 6.66 0 7 C-0.66 6.34 -1.32 5.68 -2 5 C-1.34 3.35 -0.68 1.7 0 0 Z " fill="#2CD44C" transform="translate(402,311)"/>
<path d="M0 0 C4.455 0.99 4.455 0.99 9 2 C7 6 7 6 4.875 6.75 C3.946875 6.87375 3.946875 6.87375 3 7 C3 6.01 3 5.02 3 4 C2.01 3.34 1.02 2.68 0 2 C0 1.34 0 0.68 0 0 Z " fill="#1CC840" transform="translate(189,400)"/>
<path d="M0 0 C3.875 1.75 3.875 1.75 5 4 C4.071875 4.28875 3.14375 4.5775 2.1875 4.875 C-1.09791667 5.8875 -1.09791667 5.8875 -4 8 C-4.33 7.01 -4.66 6.02 -5 5 C-4.34 4.01 -3.68 3.02 -3 2 C-2.34 2.33 -1.68 2.66 -1 3 C-0.67 2.01 -0.34 1.02 0 0 Z " fill="#2AD24A" transform="translate(78,342)"/>
<path d="M0 0 C1.65 1.65 3.3 3.3 5 5 C4 7 4 7 2.25 7.6875 C-0.39239823 8.05449975 -2.42672922 7.64331769 -5 7 C-5 6.34 -5 5.68 -5 5 C-4.01 4.67 -3.02 4.34 -2 4 C-0.79117904 1.99983534 -0.79117904 1.99983534 0 0 Z " fill="#26D047" transform="translate(75,355)"/>
<path d="M0 0 C0.66 0.33 1.32 0.66 2 1 C1 4 1 4 -2 6 C-2.99 6 -3.98 6 -5 6 C-5.33 6.66 -5.66 7.32 -6 8 C-6.33 6.35 -6.66 4.7 -7 3 C-4.69631264 1.93347808 -2.35981813 0.93578995 0 0 Z " fill="#19C83E" transform="translate(305,395)"/>
<path d="M0 0 C0.66 0.66 1.32 1.32 2 2 C1.39816251 4.02045442 0.72693904 6.02111039 0 8 C-0.99 8.495 -0.99 8.495 -2 9 C-2.99 7.02 -3.98 5.04 -5 3 C-3.35 2.01 -1.7 1.02 0 0 Z " fill="#2BD34B" transform="translate(407,329)"/>
<path d="M0 0 C0.33 0.66 0.66 1.32 1 2 C1.825 2.309375 2.65 2.61875 3.5 2.9375 C4.325 3.288125 5.15 3.63875 6 4 C6.33 4.99 6.66 5.98 7 7 C6.01 7.33 5.02 7.66 4 8 C4 7.34 4 6.68 4 6 C1.03 5.505 1.03 5.505 -2 5 C-1.34 3.35 -0.68 1.7 0 0 Z " fill="#2ED64E" transform="translate(460,297)"/>
<path d="M0 0 C0.33 0.66 0.66 1.32 1 2 C2.65 2 4.3 2 6 2 C6 2.33 6 2.66 6 3 C2.16275828 3.90413673 -1.37502274 4.10576898 -5.3125 4.0625 C-6.38113281 4.05347656 -7.44976562 4.04445313 -8.55078125 4.03515625 C-9.35902344 4.02355469 -10.16726562 4.01195312 -11 4 C-9.1875 2.4375 -9.1875 2.4375 -7 1 C-6.01 1.33 -5.02 1.66 -4 2 C-1.83284443 1.12516085 -1.83284443 1.12516085 0 0 Z " fill="#20CE41" transform="translate(264,372)"/>
<path d="M0 0 C0 0.66 0 1.32 0 2 C-3.02525676 4.40240978 -4.4125871 5.05541631 -8.3125 4.6875 C-9.199375 4.460625 -10.08625 4.23375 -11 4 C-7.35237315 0.18657193 -5.28949249 -0.11498897 0 0 Z " fill="#2DD54D" transform="translate(454,313)"/>
<path d="M0 0 C1.32 0 2.64 0 4 0 C3.67 1.98 3.34 3.96 3 6 C2.01 6.33 1.02 6.66 0 7 C0 6.34 0 5.68 0 5 C-0.99 5 -1.98 5 -3 5 C-3 4.34 -3 3.68 -3 3 C-2.34 3 -1.68 3 -1 3 C-0.67 2.01 -0.34 1.02 0 0 Z " fill="#2FD74E" transform="translate(420,297)"/>
<path d="M0 0 C0.66 0 1.32 0 2 0 C2.66 1.98 3.32 3.96 4 6 C2.68 6 1.36 6 0 6 C-1 3 -1 3 0 0 Z M6 0 C6.66 0.99 7.32 1.98 8 3 C7.67 3.66 7.34 4.32 7 5 C6.01 5 5.02 5 4 5 C4 4.01 4 3.02 4 2 C4.66 2 5.32 2 6 2 C6 1.34 6 0.68 6 0 Z " fill="#31D850" transform="translate(28,282)"/>
<path d="M0 0 C-1.65 0.33 -3.3 0.66 -5 1 C-5 1.66 -5 2.32 -5 3 C-4.34 3.33 -3.68 3.66 -3 4 C-7.78356165 5.19589041 -10.41846118 4.52717961 -15 3 C-13.06643218 2.30151736 -11.12797702 1.61655186 -9.1875 0.9375 C-8.10855469 0.55464844 -7.02960938 0.17179687 -5.91796875 -0.22265625 C-3 -1 -3 -1 0 0 Z " fill="#58D06C" transform="translate(297,399)"/>
<path d="M0 0 C-1 3 -1 3 -2.875 4.25 C-5 5 -5 5 -8 4 C-7.625 2.0625 -7.625 2.0625 -7 0 C-4.3333581 -1.33332095 -2.83319697 -0.67102033 0 0 Z " fill="#2DD24D" transform="translate(391,328)"/>
<path d="M0 0 C0.66 0.33 1.32 0.66 2 1 C2.99 0.67 3.98 0.34 5 0 C5 2.31 5 4.62 5 7 C4.01 7 3.02 7 2 7 C1.67 6.34 1.34 5.68 1 5 C0.01 4.67 -0.98 4.34 -2 4 C-2 3.34 -2 2.68 -2 2 C-1.34 2 -0.68 2 0 2 C0 1.34 0 0.68 0 0 Z " fill="#27D249" transform="translate(86,327)"/>
<path d="M0 0 C2 3 2 3 2 7 C2.33 7.66 2.66 8.32 3 9 C2.01 10.485 2.01 10.485 1 12 C1 11.01 1 10.02 1 9 C0.34 9 -0.32 9 -1 9 C-1.66 7.02 -2.32 5.04 -3 3 C-2.01 2.01 -1.02 1.02 0 0 Z " fill="#28D249" transform="translate(435,341)"/>
<path d="M0 0 C2.125 0.9375 2.125 0.9375 4 2 C3.38125 2.598125 2.7625 3.19625 2.125 3.8125 C-0.13676954 6.00811144 -0.13676954 6.00811144 -2 9 C-2 6.36 -2 3.72 -2 1 C-1.34 0.67 -0.68 0.34 0 0 Z " fill="#2BD54C" transform="translate(2,313)"/>
<path d="M0 0 C0.66 0.33 1.32 0.66 2 1 C1.34 3.97 0.68 6.94 0 10 C-1.5625 8.25 -1.5625 8.25 -3 6 C-2.73495121 2.99611368 -2.16695725 2.16695725 0 0 Z " fill="#32D951" transform="translate(434,267)"/>
<path d="M0 0 C0.99 0.33 1.98 0.66 3 1 C3.33 1.99 3.66 2.98 4 4 C3.505 4.45375 3.01 4.9075 2.5 5.375 C0.77390663 6.87635519 0.77390663 6.87635519 1 9 C0.01 9 -0.98 9 -2 9 C-2.20140476 5.37471432 -1.85776765 3.13498292 0 0 Z " fill="#2CCB4A" transform="translate(149,394)"/>
<path d="M0 0 C0.33 0 0.66 0 1 0 C1.125 3.375 1.125 3.375 1 7 C0.34 7.66 -0.32 8.32 -1 9 C-2.32 7.68 -3.64 6.36 -5 5 C-4.34 5 -3.68 5 -3 5 C-3 4.34 -3 3.68 -3 3 C-2.01 3 -1.02 3 0 3 C0 2.01 0 1.02 0 0 Z " fill="#2ED74D" transform="translate(479,295)"/>
<path d="M0 0 C0.66 0 1.32 0 2 0 C2.3125 2.25 2.3125 2.25 2 5 C-0.5 7.3125 -0.5 7.3125 -3 9 C-2.5020163 5.26512223 -2.12508244 3.18762365 0 0 Z " fill="#2DD54C" transform="translate(436,308)"/>
<path d="M0 0 C0.78375 0.165 1.5675 0.33 2.375 0.5 C5.09522679 1.23945377 5.09522679 1.23945377 8 0 C8 3 8 3 7 5 C6.01 5 5.02 5 4 5 C3.67 4.34 3.34 3.68 3 3 C0.98330173 1.86649466 0.98330173 1.86649466 -1 1 C-0.67 0.67 -0.34 0.34 0 0 Z " fill="#22C942" transform="translate(462,464)"/>
<path d="M0 0 C4.16138263 -0.08159574 7.9472484 0.01751476 12 1 C12 1.33 12 1.66 12 2 C9.03 2.66 6.06 3.32 3 4 C2.01 2.68 1.02 1.36 0 0 Z " fill="#15C638" transform="translate(203,404)"/>
<path d="M0 0 C-1.64169528 2.02054804 -3.30911778 4.02043058 -5 6 C-5.33 6 -5.66 6 -6 6 C-6 4.35 -6 2.7 -6 1 C-6.66 0.67 -7.32 0.34 -8 0 C-4.94736336 -0.98120464 -3.05263664 -0.98120464 0 0 Z " fill="#16C83C" transform="translate(145,397)"/>
<path d="M0 0 C2.87246249 2.70349411 4.41137857 5.36886531 6 9 C6 9.99 6 10.98 6 12 C5.01 11.67 4.02 11.34 3 11 C2.05078125 8.49609375 2.05078125 8.49609375 1.3125 5.4375 C1.06113281 4.42558594 0.80976562 3.41367187 0.55078125 2.37109375 C0.36902344 1.58863281 0.18726562 0.80617188 0 0 Z " fill="#2BD24D" transform="translate(85,305)"/>
<path d="M0 0 C1.33332095 2.6666419 0.67102033 4.16680303 0 7 C0.66 7 1.32 7 2 7 C2 7.99 2 8.98 2 10 C1.34 10 0.68 10 0 10 C-1.625 8 -1.625 8 -3 6 C-2.34 6 -1.68 6 -1 6 C-1.99 4.68 -2.98 3.36 -4 2 C-2.68 1.34 -1.36 0.68 0 0 Z " fill="#33CD4F" transform="translate(330,382)"/>
<path d="M0 0 C2 2 2 2 2.4375 4 C2.87458708 6.38640738 2.87458708 6.38640738 6 8 C3.69 8.33 1.38 8.66 -1 9 C-0.67 6.03 -0.34 3.06 0 0 Z " fill="#1CCE40" transform="translate(118,361)"/>
<path d="M0 0 C3 1 3 1 3 1 Z M-1 1 C-0.01879536 4.05263664 -0.01879536 5.94736336 -1 9 C-1.99 9 -2.98 9 -4 9 C-2.125 2.125 -2.125 2.125 -1 1 Z " fill="#2AD34A" transform="translate(34,329)"/>
<path d="M0 0 C0.66 0 1.32 0 2 0 C2.33 1.98 2.66 3.96 3 6 C2.01 6 1.02 6 0 6 C0 5.34 0 4.68 0 4 C-0.99 4 -1.98 4 -3 4 C-2.67 3.01 -2.34 2.02 -2 1 C-1.34 1.33 -0.68 1.66 0 2 C0 1.34 0 0.68 0 0 Z " fill="#2DD44C" transform="translate(421,327)"/>
<path d="M0 0 C0.185625 0.9590625 0.185625 0.9590625 0.375 1.9375 C0.684375 2.9584375 0.684375 2.9584375 1 4 C1.66 4.33 2.32 4.66 3 5 C2.01 6.485 2.01 6.485 1 8 C0.01 7.67 -0.98 7.34 -2 7 C-1.125 1.125 -1.125 1.125 0 0 Z " fill="#34DC53" transform="translate(46,234)"/>
<path d="M0 0 C1.0625 1.8125 1.0625 1.8125 2 4 C1.67 4.99 1.34 5.98 1 7 C1.99 7.33 2.98 7.66 4 8 C2.35 8 0.7 8 -1 8 C-1.144375 7.360625 -1.28875 6.72125 -1.4375 6.0625 C-1.81007181 4.02454854 -1.81007181 4.02454854 -3 3 C-2.01 2.01 -1.02 1.02 0 0 Z " fill="#33CE4F" transform="translate(347,370)"/>
<path d="M0 0 C0.99 0.66 1.98 1.32 3 2 C2.34 2 1.68 2 1 2 C1 2.99 1 3.98 1 5 C0.34 5 -0.32 5 -1 5 C-1 5.66 -1 6.32 -1 7 C-2.32 6.67 -3.64 6.34 -5 6 C-4.34 5.67 -3.68 5.34 -3 5 C-3 4.34 -3 3.68 -3 3 C-1.5 1.375 -1.5 1.375 0 0 Z " fill="#27CF48" transform="translate(194,361)"/>
<path d="M0 0 C2.475 0.99 2.475 0.99 5 2 C4.1875 3.9375 4.1875 3.9375 3 6 C2.01 6.33 1.02 6.66 0 7 C-0.38133299 5.0085944 -0.71325582 3.00720923 -1 1 C-0.67 0.67 -0.34 0.34 0 0 Z " fill="#2BD34B" transform="translate(45,330)"/>
<path d="M0 0 C0.66 0.66 1.32 1.32 2 2 C0.25 5.875 0.25 5.875 -2 7 C-3.13350534 9.01669827 -3.13350534 9.01669827 -4 11 C-4.33 10.34 -4.66 9.68 -5 9 C-4.00390625 6.8359375 -4.00390625 6.8359375 -2.5625 4.375 C-2.08941406 3.55773437 -1.61632812 2.74046875 -1.12890625 1.8984375 C-0.75636719 1.27195312 -0.38382812 0.64546875 0 0 Z " fill="#28D14A" transform="translate(394,311)"/>
<path d="M0 0 C0.66 0.66 1.32 1.32 2 2 C1.01 3.98 0.02 5.96 -1 8 C-1.99 7.67 -2.98 7.34 -4 7 C-3.34 5.35 -2.68 3.7 -2 2 C-1.34 2 -0.68 2 0 2 C0 1.34 0 0.68 0 0 Z " fill="#2ED54D" transform="translate(31,314)"/>
<path d="M0 0 C1.98 0.495 1.98 0.495 4 1 C4 2.65 4 4.3 4 6 C3.34 6 2.68 6 2 6 C2 5.34 2 4.68 2 4 C1.01 4.33 0.02 4.66 -1 5 C-0.67 3.35 -0.34 1.7 0 0 Z " fill="#31D850" transform="translate(1,281)"/>
<path d="M0 0 C2.625 1.4375 2.625 1.4375 5 3 C3.68 4.32 2.36 5.64 1 7 C0.67 6.01 0.34 5.02 0 4 C-0.66 3.67 -1.32 3.34 -2 3 C-2 2.34 -2 1.68 -2 1 C-1.34 0.67 -0.68 0.34 0 0 Z " fill="#32D951" transform="translate(59,267)"/>
<path d="M0 0 C0.66 0.33 1.32 0.66 2 1 C0.02 3.97 0.02 3.97 -2 7 C-2.99 6.67 -3.98 6.34 -5 6 C-4.75 4.125 -4.75 4.125 -4 2 C-2.0625 0.6875 -2.0625 0.6875 0 0 Z " fill="#26D247" transform="translate(470,344)"/>
<path d="M0 0 C1.98 0.495 1.98 0.495 4 1 C4 2.32 4 3.64 4 5 C3.01 5 2.02 5 1 5 C0.67 5.66 0.34 6.32 0 7 C-1.125 2.25 -1.125 2.25 0 0 Z " fill="#29D34A" transform="translate(13,327)"/>
<path d="M0 0 C1.65 0.33 3.3 0.66 5 1 C4.34 2.32 3.68 3.64 3 5 C1.68 4.34 0.36 3.68 -1 3 C-0.67 2.01 -0.34 1.02 0 0 Z " fill="#2ED74E" transform="translate(45,298)"/>
<path d="M0 0 C1.65 0 3.3 0 5 0 C5.33 1.98 5.66 3.96 6 6 C5.01 6.33 4.02 6.66 3 7 C2.690625 6.21625 2.38125 5.4325 2.0625 4.625 C1.07124962 2.07669872 1.07124962 2.07669872 0 0 Z " fill="#2ED64E" transform="translate(73,282)"/>
<path d="M0 0 C0.66 0 1.32 0 2 0 C2.33 0.99 2.66 1.98 3 3 C1.35 4.32 -0.3 5.64 -2 7 C-2.125 4.625 -2.125 4.625 -2 2 C-1.34 1.34 -0.68 0.68 0 0 Z " fill="#30D84F" transform="translate(434,283)"/>
<path d="M0 0 C2.475 0.495 2.475 0.495 5 1 C5 1.99 5 2.98 5 4 C3.68 4.33 2.36 4.66 1 5 C1.33 3.68 1.66 2.36 2 1 C1.34 0.67 0.68 0.34 0 0 Z " fill="#30CA4D" transform="translate(265,405)"/>
<path d="M0 0 C1.32 0.99 2.64 1.98 4 3 C2.02 3.66 0.04 4.32 -2 5 C-2.66 4.34 -3.32 3.68 -4 3 C-2.68 2.01 -1.36 1.02 0 0 Z " fill="#2CD54C" transform="translate(16,313)"/>
<path d="M0 0 C1.9451 2.91765 2.45276317 4.62537285 3 8 C2.34 8 1.68 8 1 8 C0.67 8.66 0.34 9.32 0 10 C0 6.7 0 3.4 0 0 Z " fill="#2BD54C" transform="translate(327,281)"/>
<path d="M0 0 C0.556875 0.309375 1.11375 0.61875 1.6875 0.9375 C4.12540433 2.05761821 6.36224186 2.56037364 9 3 C9 3.33 9 3.66 9 4 C6.36 4.33 3.72 4.66 1 5 C1 4.34 1 3.68 1 3 C0.34 3 -0.32 3 -1 3 C-0.67 2.01 -0.34 1.02 0 0 Z " fill="#0FC73A" transform="translate(419,474)"/>
<path d="M0 0 C0.66 0 1.32 0 2 0 C2 2.64 2 5.28 2 8 C0.68 6.35 -0.64 4.7 -2 3 C-1.34 2.01 -0.68 1.02 0 0 Z " fill="#27D248" transform="translate(478,344)"/>
<path d="M0 0 C0.66 0.33 1.32 0.66 2 1 C1.01 2.32 0.02 3.64 -1 5 C-2.32 4.67 -3.64 4.34 -5 4 C-5 3.34 -5 2.68 -5 2 C-2.625 0.9375 -2.625 0.9375 0 0 Z " fill="#2CD44C" transform="translate(30,326)"/>
<path d="M0 0 C0.33 0 0.66 0 1 0 C1.125 2.875 1.125 2.875 1 6 C0.34 6.66 -0.32 7.32 -1 8 C-1.66 6.68 -2.32 5.36 -3 4 C-2.34 4 -1.68 4 -1 4 C-0.67 2.68 -0.34 1.36 0 0 Z " fill="#31DA50" transform="translate(451,264)"/>
</svg>
